<svg width="269" height="36" viewBox="0 0 269 36" fill="none" xmlns="http://www.w3.org/2000/svg">
<g clip-path="url(#clip0_550_50224)">
<path d="M37.9922 35.6123L37.9922 33.689L36.0692 33.689L36.0692 35.6123L37.9922 35.6123Z" fill="#EBBA3C"/>
<path d="M35.5879 35.6123L35.5879 33.689L33.6645 33.689L33.6645 35.6123L35.5879 35.6123Z" fill="#EBBA3C"/>
<path d="M33.1836 35.6123L33.1836 33.689L31.2602 33.689L31.2602 35.6123L33.1836 35.6123Z" fill="#EBBA3C"/>
<path d="M30.7793 35.6123L30.7793 33.689L28.8563 33.689L28.8563 35.6123L30.7793 35.6123Z" fill="#EBBA3C"/>
<path d="M28.375 35.6123L28.375 33.689L26.452 33.689L26.452 35.6123L28.375 35.6123Z" fill="#EBBA3C"/>
<path d="M25.9727 35.6123L25.9727 33.689L24.0493 33.689L24.0493 35.6123L25.9727 35.6123Z" fill="#EBBA3C"/>
<path d="M23.5684 35.6123L23.5684 33.689L21.645 33.689L21.645 35.6123L23.5684 35.6123Z" fill="#EBBA3C"/>
<path d="M21.1641 35.6123L21.1641 33.689L19.2407 33.689L19.2407 35.6123L21.1641 35.6123Z" fill="#EBBA3C"/>
<path d="M16.3555 35.6123L16.3555 33.689L14.4324 33.689L14.4324 35.6123L16.3555 35.6123Z" fill="#EBBA3C"/>
<path d="M13.9512 35.6123L13.9512 33.689L12.0278 33.689L12.0278 35.6123L13.9512 35.6123Z" fill="#EBBA3C"/>
<path d="M11.5449 35.6123L11.5449 33.689L9.62156 33.689L9.62156 35.6123L11.5449 35.6123Z" fill="#EBBA3C"/>
<path d="M9.14453 35.6123L9.14453 33.689L7.22117 33.689L7.22117 35.6123L9.14453 35.6123Z" fill="#EBBA3C"/>
<path d="M6.74023 35.6123L6.74023 33.689L4.8172 33.689L4.8172 35.6123L6.74023 35.6123Z" fill="#EBBA3C"/>
<path d="M1.93164 35.6123L1.93164 33.689L0.00828358 33.689L0.0082835 35.6123L1.93164 35.6123Z" fill="#EBBA3C"/>
<path d="M37.9922 33.21L37.9922 31.287L36.0692 31.287L36.0692 33.21L37.9922 33.21Z" fill="#EBBA3C"/>
<path d="M35.5879 33.21L35.5879 31.287L33.6645 31.287L33.6645 33.21L35.5879 33.21Z" fill="#EBBA3C"/>
<path d="M33.1836 33.21L33.1836 31.287L31.2602 31.287L31.2602 33.21L33.1836 33.21Z" fill="#EBBA3C"/>
<path d="M30.7793 33.21L30.7793 31.287L28.8563 31.287L28.8563 33.21L30.7793 33.21Z" fill="#EBBA3C"/>
<path d="M25.9727 33.21L25.9727 31.287L24.0493 31.287L24.0493 33.21L25.9727 33.21Z" fill="#EBBA3C"/>
<path d="M23.5684 33.21L23.5684 31.287L21.645 31.287L21.645 33.21L23.5684 33.21Z" fill="#EBBA3C"/>
<path d="M18.7598 33.21L18.7598 31.287L16.8364 31.287L16.8364 33.21L18.7598 33.21Z" fill="#EBBA3C"/>
<path d="M16.3555 33.21L16.3555 31.287L14.4324 31.287L14.4324 33.21L16.3555 33.21Z" fill="#EBBA3C"/>
<path d="M13.9512 33.21L13.9512 31.287L12.0278 31.287L12.0278 33.21L13.9512 33.21Z" fill="#EBBA3C"/>
<path d="M11.5449 33.21L11.5449 31.287L9.62156 31.287L9.62156 33.21L11.5449 33.21Z" fill="#EBBA3C"/>
<path d="M6.74023 33.21L6.74023 31.287L4.8172 31.287L4.8172 33.21L6.74023 33.21Z" fill="#EBBA3C"/>
<path d="M4.33594 33.21L4.33594 31.287L2.41258 31.287L2.41258 33.21L4.33594 33.21Z" fill="#EBBA3C"/>
<path d="M1.93164 33.21L1.93164 31.287L0.00828358 31.287L0.0082835 33.21L1.93164 33.21Z" fill="#EBBA3C"/>
<path d="M37.9922 30.8057L37.9922 28.8827L36.0692 28.8827L36.0692 30.8057L37.9922 30.8057Z" fill="#EBBA3C"/>
<path d="M33.1836 30.8057L33.1836 28.8827L31.2602 28.8827L31.2602 30.8057L33.1836 30.8057Z" fill="#EBBA3C"/>
<path d="M30.7793 30.8057L30.7793 28.8827L28.8563 28.8827L28.8563 30.8057L30.7793 30.8057Z" fill="#EBBA3C"/>
<path d="M28.375 30.8057L28.375 28.8827L26.452 28.8827L26.452 30.8057L28.375 30.8057Z" fill="#EBBA3C"/>
<path d="M23.5684 30.8057L23.5684 28.8827L21.645 28.8827L21.645 30.8057L23.5684 30.8057Z" fill="#EBBA3C"/>
<path d="M21.1641 30.8057L21.1641 28.8827L19.2407 28.8827L19.2407 30.8057L21.1641 30.8057Z" fill="#EBBA3C"/>
<path d="M18.7598 30.8057L18.7598 28.8827L16.8364 28.8827L16.8364 30.8057L18.7598 30.8057Z" fill="#EBBA3C"/>
<path d="M16.3555 30.8057L16.3555 28.8827L14.4324 28.8827L14.4324 30.8057L16.3555 30.8057Z" fill="#EBBA3C"/>
<path d="M11.5449 30.8057L11.5449 28.8827L9.62156 28.8827L9.62156 30.8057L11.5449 30.8057Z" fill="#EBBA3C"/>
<path d="M9.14453 30.8057L9.14453 28.8827L7.22117 28.8827L7.22117 30.8057L9.14453 30.8057Z" fill="#EBBA3C"/>
<path d="M4.33594 30.8057L4.33594 28.8827L2.41258 28.8827L2.41258 30.8057L4.33594 30.8057Z" fill="#EBBA3C"/>
<path d="M1.93164 30.8057L1.93164 28.8827L0.00828358 28.8827L0.0082835 30.8057L1.93164 30.8057Z" fill="#EBBA3C"/>
<path d="M37.9922 28.4004L37.9922 26.4771L36.0692 26.4771L36.0692 28.4004L37.9922 28.4004Z" fill="#EBBA3C"/>
<path d="M35.5879 28.4004L35.5879 26.4771L33.6645 26.4771L33.6645 28.4004L35.5879 28.4004Z" fill="#EBBA3C"/>
<path d="M30.7793 28.4004L30.7793 26.4771L28.8563 26.4771L28.8563 28.4004L30.7793 28.4004Z" fill="#EBBA3C"/>
<path d="M25.9727 28.4004L25.9727 26.4771L24.0493 26.4771L24.0493 28.4004L25.9727 28.4004Z" fill="#EBBA3C"/>
<path d="M21.1641 28.4004L21.1641 26.4771L19.2407 26.4771L19.2407 28.4004L21.1641 28.4004Z" fill="#EBBA3C"/>
<path d="M18.7598 28.4004L18.7598 26.4771L16.8364 26.4771L16.8364 28.4004L18.7598 28.4004Z" fill="#EBBA3C"/>
<path d="M16.3555 28.4004L16.3555 26.4771L14.4324 26.4771L14.4324 28.4004L16.3555 28.4004Z" fill="#EBBA3C"/>
<path d="M13.9512 28.4004L13.9512 26.4771L12.0278 26.4771L12.0278 28.4004L13.9512 28.4004Z" fill="#EBBA3C"/>
<path d="M9.14453 28.4004L9.14453 26.4771L7.22117 26.4771L7.22117 28.4004L9.14453 28.4004Z" fill="#EBBA3C"/>
<path d="M6.74023 28.4004L6.74023 26.4771L4.8172 26.4771L4.8172 28.4004L6.74023 28.4004Z" fill="#EBBA3C"/>
<path d="M4.33594 28.4004L4.33594 26.4771L2.41258 26.4771L2.41258 28.4004L4.33594 28.4004Z" fill="#EBBA3C"/>
<path d="M33.1836 25.9961L33.1836 24.0728L31.2602 24.0728L31.2602 25.9961L33.1836 25.9961Z" fill="#EBBA3C"/>
<path d="M28.375 25.9961L28.375 24.0728L26.452 24.0728L26.452 25.9961L28.375 25.9961Z" fill="#EBBA3C"/>
<path d="M25.9727 25.9961L25.9727 24.0728L24.0493 24.0728L24.0493 25.9961L25.9727 25.9961Z" fill="#EBBA3C"/>
<path d="M23.5684 25.9961L23.5684 24.0728L21.645 24.0728L21.645 25.9961L23.5684 25.9961Z" fill="#EBBA3C"/>
<path d="M21.1641 25.9961L21.1641 24.0728L19.2407 24.0728L19.2407 25.9961L21.1641 25.9961Z" fill="#EBBA3C"/>
<path d="M16.3555 25.9961L16.3555 24.0728L14.4324 24.0728L14.4324 25.9961L16.3555 25.9961Z" fill="#EBBA3C"/>
<path d="M13.9512 25.9961L13.9512 24.0728L12.0278 24.0728L12.0278 25.9961L13.9512 25.9961Z" fill="#EBBA3C"/>
<path d="M9.14453 25.9961L9.14453 24.0728L7.22117 24.0728L7.22117 25.9961L9.14453 25.9961Z" fill="#EBBA3C"/>
<path d="M6.74023 25.9961L6.74023 24.0728L4.8172 24.0728L4.8172 25.9961L6.74023 25.9961Z" fill="#EBBA3C"/>
<path d="M1.93164 25.9961L1.93164 24.0728L0.00828358 24.0728L0.0082835 25.9961L1.93164 25.9961Z" fill="#EBBA3C"/>
<path d="M37.9922 23.5938L37.9922 21.6705L36.0692 21.6705L36.0692 23.5937L37.9922 23.5938Z" fill="#EBBA3C"/>
<path d="M35.5879 23.5938L35.5879 21.6705L33.6645 21.6705L33.6645 23.5937L35.5879 23.5938Z" fill="#EBBA3C"/>
<path d="M30.7793 23.5938L30.7793 21.6705L28.8563 21.6705L28.8563 23.5937L30.7793 23.5938Z" fill="#EBBA3C"/>
<path d="M28.375 23.5938L28.375 21.6705L26.452 21.6705L26.452 23.5937L28.375 23.5938Z" fill="#EBBA3C"/>
<path d="M25.9727 23.5938L25.9727 21.6705L24.0493 21.6705L24.0493 23.5937L25.9727 23.5938Z" fill="#EBBA3C"/>
<path d="M21.1641 23.5938L21.1641 21.6705L19.2407 21.6705L19.2407 23.5937L21.1641 23.5938Z" fill="#EBBA3C"/>
<path d="M18.7598 23.5938L18.7598 21.6705L16.8364 21.6705L16.8364 23.5937L18.7598 23.5938Z" fill="#EBBA3C"/>
<path d="M9.14062 23.5938L9.14063 21.6705L7.21727 21.6705L7.21727 23.5937L9.14062 23.5938Z" fill="#EBBA3C"/>
<path d="M4.33594 23.5938L4.33594 21.6705L2.41258 21.6705L2.41258 23.5937L4.33594 23.5938Z" fill="#EBBA3C"/>
<path d="M1.93164 23.5938L1.93164 21.6705L0.00828358 21.6705L0.0082835 23.5937L1.93164 23.5938Z" fill="#EBBA3C"/>
<path d="M37.9922 21.1885L37.9922 19.2652L36.0692 19.2652L36.0692 21.1885L37.9922 21.1885Z" fill="#EBBA3C"/>
<path d="M35.5879 21.1885L35.5879 19.2652L33.6645 19.2652L33.6645 21.1885L35.5879 21.1885Z" fill="#EBBA3C"/>
<path d="M33.1836 21.1885L33.1836 19.2652L31.2602 19.2652L31.2602 21.1885L33.1836 21.1885Z" fill="#EBBA3C"/>
<path d="M25.9727 21.1885L25.9727 19.2652L24.0493 19.2652L24.0493 21.1885L25.9727 21.1885Z" fill="#EBBA3C"/>
<path d="M23.5684 21.1885L23.5684 19.2652L21.645 19.2652L21.645 21.1885L23.5684 21.1885Z" fill="#EBBA3C"/>
<path d="M13.9512 21.1885L13.9512 19.2652L12.0278 19.2652L12.0278 21.1885L13.9512 21.1885Z" fill="#EBBA3C"/>
<path d="M11.5449 21.1885L11.5449 19.2652L9.62156 19.2652L9.62156 21.1885L11.5449 21.1885Z" fill="#EBBA3C"/>
<path d="M6.74023 21.1885L6.74023 19.2652L4.8172 19.2652L4.8172 21.1885L6.74023 21.1885Z" fill="#EBBA3C"/>
<path d="M1.93164 21.1885L1.93164 19.2652L0.00828358 19.2652L0.0082835 21.1885L1.93164 21.1885Z" fill="#EBBA3C"/>
<path d="M35.5879 18.7842L35.5879 16.8609L33.6645 16.8609L33.6645 18.7842L35.5879 18.7842Z" fill="#EBBA3C"/>
<path d="M30.7793 18.7842L30.7793 16.8609L28.8563 16.8609L28.8563 18.7842L30.7793 18.7842Z" fill="#EBBA3C"/>
<path d="M28.375 18.7842L28.375 16.8609L26.452 16.8609L26.452 18.7842L28.375 18.7842Z" fill="#EBBA3C"/>
<path d="M21.1641 18.7842L21.1641 16.8609L19.2407 16.8609L19.2407 18.7842L21.1641 18.7842Z" fill="#EBBA3C"/>
<path d="M16.3555 18.7842L16.3555 16.8609L14.4324 16.8609L14.4324 18.7842L16.3555 18.7842Z" fill="#EBBA3C"/>
<path d="M11.5449 18.7842L11.5449 16.8609L9.62156 16.8609L9.62156 18.7842L11.5449 18.7842Z" fill="#EBBA3C"/>
<path d="M9.14062 18.7842L9.14063 16.8609L7.21727 16.8609L7.21727 18.7842L9.14062 18.7842Z" fill="#EBBA3C"/>
<path d="M4.33594 18.7842L4.33594 16.8609L2.41258 16.8609L2.41258 18.7842L4.33594 18.7842Z" fill="#EBBA3C"/>
<path d="M37.9922 16.3809L37.9922 14.4576L36.0692 14.4576L36.0692 16.3809L37.9922 16.3809Z" fill="#EBBA3C"/>
<path d="M25.9727 16.3809L25.9727 14.4576L24.0493 14.4576L24.0493 16.3809L25.9727 16.3809Z" fill="#EBBA3C"/>
<path d="M23.5684 16.3809L23.5684 14.4576L21.645 14.4576L21.645 16.3809L23.5684 16.3809Z" fill="#EBBA3C"/>
<path d="M18.7598 16.3809L18.7598 14.4576L16.8364 14.4576L16.8364 16.3809L18.7598 16.3809Z" fill="#EBBA3C"/>
<path d="M13.9512 16.3809L13.9512 14.4576L12.0278 14.4576L12.0278 16.3809L13.9512 16.3809Z" fill="#EBBA3C"/>
<path d="M6.74023 16.3809L6.74023 14.4576L4.8172 14.4576L4.8172 16.3809L6.74023 16.3809Z" fill="#EBBA3C"/>
<path d="M4.33594 16.3809L4.33594 14.4576L2.41258 14.4576L2.41258 16.3809L4.33594 16.3809Z" fill="#EBBA3C"/>
<path d="M1.93164 16.3809L1.93164 14.4576L0.00828358 14.4576L0.0082835 16.3809L1.93164 16.3809Z" fill="#EBBA3C"/>
<path d="M35.5879 13.9766L35.5879 12.0533L33.6645 12.0533L33.6645 13.9766L35.5879 13.9766Z" fill="#EBBA3C"/>
<path d="M33.1836 13.9766L33.1836 12.0533L31.2602 12.0533L31.2602 13.9766L33.1836 13.9766Z" fill="#EBBA3C"/>
<path d="M28.375 13.9766L28.375 12.0533L26.452 12.0533L26.452 13.9766L28.375 13.9766Z" fill="#EBBA3C"/>
<path d="M21.1641 13.9766L21.1641 12.0533L19.2407 12.0533L19.2407 13.9766L21.1641 13.9766Z" fill="#EBBA3C"/>
<path d="M16.3555 13.9766L16.3555 12.0533L14.4324 12.0533L14.4324 13.9766L16.3555 13.9766Z" fill="#EBBA3C"/>
<path d="M6.74023 13.9766L6.74023 12.0533L4.8172 12.0533L4.8172 13.9766L6.74023 13.9766Z" fill="#EBBA3C"/>
<path d="M1.93164 13.9766L1.93164 12.0533L0.00828358 12.0533L0.0082835 13.9766L1.93164 13.9766Z" fill="#EBBA3C"/>
<path d="M37.9922 11.5723L37.9922 9.64897L36.0692 9.64897L36.0692 11.5723L37.9922 11.5723Z" fill="#EBBA3C"/>
<path d="M30.7793 11.5723L30.7793 9.64897L28.8563 9.64897L28.8563 11.5723L30.7793 11.5723Z" fill="#EBBA3C"/>
<path d="M25.9727 11.5723L25.9727 9.64897L24.0493 9.64897L24.0493 11.5723L25.9727 11.5723Z" fill="#EBBA3C"/>
<path d="M21.1641 11.5723L21.1641 9.64897L19.2407 9.64897L19.2407 11.5723L21.1641 11.5723Z" fill="#EBBA3C"/>
<path d="M13.9512 11.5723L13.9512 9.64897L12.0278 9.64897L12.0278 11.5723L13.9512 11.5723Z" fill="#EBBA3C"/>
<path d="M9.14062 11.5723L9.14063 9.64897L7.21727 9.64897L7.21727 11.5723L9.14062 11.5723Z" fill="#EBBA3C"/>
<path d="M33.1836 9.16895L33.1836 7.24597L31.2602 7.24597L31.2602 9.16895L33.1836 9.16895Z" fill="#EBBA3C"/>
<path d="M28.375 9.16895L28.375 7.24597L26.452 7.24597L26.452 9.16895L28.375 9.16895Z" fill="#EBBA3C"/>
<path d="M18.7598 9.16895L18.7598 7.24597L16.8364 7.24597L16.8364 9.16895L18.7598 9.16895Z" fill="#EBBA3C"/>
<path d="M9.14062 9.16895L9.14063 7.24597L7.21727 7.24597L7.21727 9.16895L9.14062 9.16895Z" fill="#EBBA3C"/>
<path d="M4.33594 9.16895L4.33594 7.24597L2.41258 7.24597L2.41258 9.16895L4.33594 9.16895Z" fill="#EBBA3C"/>
<path d="M35.5879 6.76465L35.5879 4.84135L33.6645 4.84135L33.6645 6.76465L35.5879 6.76465Z" fill="#EBBA3C"/>
<path d="M23.5684 6.76465L23.5684 4.84135L21.645 4.84135L21.645 6.76465L23.5684 6.76465Z" fill="#EBBA3C"/>
<path d="M13.9512 6.76465L13.9512 4.84135L12.0278 4.84135L12.0278 6.76465L13.9512 6.76465Z" fill="#EBBA3C"/>
<path d="M1.93164 6.76465L1.93164 4.84135L0.00828358 4.84135L0.0082835 6.76465L1.93164 6.76465Z" fill="#EBBA3C"/>
<path d="M28.375 4.36035L28.375 2.43706L26.452 2.43706L26.452 4.36035L28.375 4.36035Z" fill="#EBBA3C"/>
<path d="M18.7598 4.36035L18.7598 2.43706L16.8364 2.43706L16.8364 4.36035L18.7598 4.36035Z" fill="#EBBA3C"/>
<path d="M4.33594 4.36035L4.33594 2.43706L2.41258 2.43706L2.41258 4.36035L4.33594 4.36035Z" fill="#EBBA3C"/>
<mask id="mask0_550_50224" style="mask-type:luminance" maskUnits="userSpaceOnUse" x="31" y="0" width="3" height="2">
<path d="M33.209 1.97656L33.209 -0.000302076L31.2262 -0.000302163L31.2262 1.97656L33.209 1.97656Z" fill="white"/>
</mask>
<g mask="url(#mask0_550_50224)">
<path d="M33.1836 1.95703L33.1836 0.0337348L31.2602 0.0337347L31.2602 1.95703L33.1836 1.95703Z" fill="#EBBA3C"/>
</g>
<mask id="mask1_550_50224" style="mask-type:luminance" maskUnits="userSpaceOnUse" x="9" y="0" width="3" height="2">
<path d="M11.5645 1.97656L11.5645 -0.000302076L9.58172 -0.000302163L9.58172 1.97656L11.5645 1.97656Z" fill="white"/>
</mask>
<g mask="url(#mask1_550_50224)">
<path d="M11.5449 1.95703L11.5449 0.0337348L9.62156 0.0337347L9.62156 1.95703L11.5449 1.95703Z" fill="#EBBA3C"/>
</g>
<path d="M76.3926 35.6133L76.3926 33.69L74.4695 33.69L74.4695 35.6133L76.3926 35.6133Z" fill="#EBBA3C"/>
<path d="M73.9883 35.6133L73.9883 33.69L72.0649 33.69L72.0649 35.6133L73.9883 35.6133Z" fill="#EBBA3C"/>
<path d="M71.584 35.6133L71.584 33.69L69.6606 33.69L69.6606 35.6133L71.584 35.6133Z" fill="#EBBA3C"/>
<path d="M69.1797 35.6133L69.1797 33.69L67.2567 33.69L67.2567 35.6133L69.1797 35.6133Z" fill="#EBBA3C"/>
<path d="M66.7754 35.6133L66.7754 33.69L64.8524 33.69L64.8524 35.6133L66.7754 35.6133Z" fill="#EBBA3C"/>
<path d="M64.373 35.6133L64.373 33.69L62.4497 33.69L62.4497 35.6133L64.373 35.6133Z" fill="#EBBA3C"/>
<path d="M61.9688 35.6133L61.9688 33.69L60.0454 33.69L60.0454 35.6133L61.9688 35.6133Z" fill="#EBBA3C"/>
<path d="M59.5645 35.6133L59.5645 33.69L57.6411 33.69L57.6411 35.6133L59.5645 35.6133Z" fill="#EBBA3C"/>
<path d="M54.7559 35.6133L54.7559 33.69L52.8328 33.69L52.8328 35.6133L54.7559 35.6133Z" fill="#EBBA3C"/>
<path d="M52.3516 35.6133L52.3516 33.69L50.4282 33.69L50.4282 35.6133L52.3516 35.6133Z" fill="#EBBA3C"/>
<path d="M49.9453 35.6133L49.9453 33.69L48.022 33.69L48.022 35.6133L49.9453 35.6133Z" fill="#EBBA3C"/>
<path d="M47.5449 35.6133L47.5449 33.69L45.6216 33.69L45.6216 35.6133L47.5449 35.6133Z" fill="#EBBA3C"/>
<path d="M45.1406 35.6133L45.1406 33.69L43.2176 33.69L43.2176 35.6133L45.1406 35.6133Z" fill="#EBBA3C"/>
<path d="M40.332 35.6133L40.332 33.69L38.4087 33.69L38.4087 35.6133L40.332 35.6133Z" fill="#EBBA3C"/>
<path d="M76.3926 33.2109L76.3926 31.288L74.4695 31.288L74.4695 33.2109L76.3926 33.2109Z" fill="#EBBA3C"/>
<path d="M73.9883 33.2109L73.9883 31.288L72.0649 31.288L72.0649 33.2109L73.9883 33.2109Z" fill="#EBBA3C"/>
<path d="M71.584 33.2109L71.584 31.288L69.6606 31.288L69.6606 33.2109L71.584 33.2109Z" fill="#EBBA3C"/>
<path d="M69.1797 33.2109L69.1797 31.288L67.2567 31.288L67.2567 33.2109L69.1797 33.2109Z" fill="#EBBA3C"/>
<path d="M64.373 33.2109L64.373 31.288L62.4497 31.288L62.4497 33.2109L64.373 33.2109Z" fill="#EBBA3C"/>
<path d="M61.9688 33.2109L61.9688 31.288L60.0454 31.288L60.0454 33.2109L61.9688 33.2109Z" fill="#EBBA3C"/>
<path d="M57.1602 33.2109L57.1602 31.288L55.2368 31.288L55.2368 33.2109L57.1602 33.2109Z" fill="#EBBA3C"/>
<path d="M54.7559 33.2109L54.7559 31.288L52.8328 31.288L52.8328 33.2109L54.7559 33.2109Z" fill="#EBBA3C"/>
<path d="M52.3516 33.2109L52.3516 31.288L50.4282 31.288L50.4282 33.2109L52.3516 33.2109Z" fill="#EBBA3C"/>
<path d="M49.9453 33.2109L49.9453 31.288L48.022 31.288L48.022 33.2109L49.9453 33.2109Z" fill="#EBBA3C"/>
<path d="M45.1406 33.2109L45.1406 31.288L43.2176 31.288L43.2176 33.2109L45.1406 33.2109Z" fill="#EBBA3C"/>
<path d="M42.7363 33.2109L42.7363 31.288L40.813 31.288L40.813 33.2109L42.7363 33.2109Z" fill="#EBBA3C"/>
<path d="M40.332 33.2109L40.332 31.288L38.4087 31.288L38.4087 33.2109L40.332 33.2109Z" fill="#EBBA3C"/>
<path d="M76.3926 30.8066L76.3926 28.8837L74.4695 28.8837L74.4695 30.8066L76.3926 30.8066Z" fill="#EBBA3C"/>
<path d="M71.584 30.8066L71.584 28.8837L69.6606 28.8837L69.6606 30.8066L71.584 30.8066Z" fill="#EBBA3C"/>
<path d="M69.1797 30.8066L69.1797 28.8837L67.2567 28.8837L67.2567 30.8066L69.1797 30.8066Z" fill="#EBBA3C"/>
<path d="M66.7754 30.8066L66.7754 28.8837L64.8524 28.8837L64.8524 30.8066L66.7754 30.8066Z" fill="#EBBA3C"/>
<path d="M61.9688 30.8066L61.9688 28.8837L60.0454 28.8837L60.0454 30.8066L61.9688 30.8066Z" fill="#EBBA3C"/>
<path d="M59.5645 30.8066L59.5645 28.8837L57.6411 28.8837L57.6411 30.8066L59.5645 30.8066Z" fill="#EBBA3C"/>
<path d="M57.1602 30.8066L57.1602 28.8837L55.2368 28.8837L55.2368 30.8066L57.1602 30.8066Z" fill="#EBBA3C"/>
<path d="M54.7559 30.8066L54.7559 28.8837L52.8328 28.8837L52.8328 30.8066L54.7559 30.8066Z" fill="#EBBA3C"/>
<path d="M49.9453 30.8066L49.9453 28.8837L48.022 28.8837L48.022 30.8066L49.9453 30.8066Z" fill="#EBBA3C"/>
<path d="M47.5449 30.8066L47.5449 28.8837L45.6216 28.8837L45.6216 30.8066L47.5449 30.8066Z" fill="#EBBA3C"/>
<path d="M42.7363 30.8066L42.7363 28.8837L40.813 28.8837L40.813 30.8066L42.7363 30.8066Z" fill="#EBBA3C"/>
<path d="M40.332 30.8066L40.332 28.8837L38.4087 28.8837L38.4087 30.8066L40.332 30.8066Z" fill="#EBBA3C"/>
<path d="M76.3926 28.4014L76.3926 26.4781L74.4695 26.4781L74.4695 28.4014L76.3926 28.4014Z" fill="#EBBA3C"/>
<path d="M73.9883 28.4014L73.9883 26.4781L72.0649 26.4781L72.0649 28.4014L73.9883 28.4014Z" fill="#EBBA3C"/>
<path d="M69.1797 28.4014L69.1797 26.4781L67.2567 26.4781L67.2567 28.4014L69.1797 28.4014Z" fill="#EBBA3C"/>
<path d="M64.373 28.4014L64.373 26.4781L62.4497 26.4781L62.4497 28.4014L64.373 28.4014Z" fill="#EBBA3C"/>
<path d="M59.5645 28.4014L59.5645 26.4781L57.6411 26.4781L57.6411 28.4014L59.5645 28.4014Z" fill="#EBBA3C"/>
<path d="M57.1602 28.4014L57.1602 26.4781L55.2368 26.4781L55.2368 28.4014L57.1602 28.4014Z" fill="#EBBA3C"/>
<path d="M54.7559 28.4014L54.7559 26.4781L52.8328 26.4781L52.8328 28.4014L54.7559 28.4014Z" fill="#EBBA3C"/>
<path d="M52.3516 28.4014L52.3516 26.4781L50.4282 26.4781L50.4282 28.4014L52.3516 28.4014Z" fill="#EBBA3C"/>
<path d="M47.5449 28.4014L47.5449 26.4781L45.6216 26.4781L45.6216 28.4014L47.5449 28.4014Z" fill="#EBBA3C"/>
<path d="M45.1406 28.4014L45.1406 26.4781L43.2176 26.4781L43.2176 28.4014L45.1406 28.4014Z" fill="#EBBA3C"/>
<path d="M42.7363 28.4014L42.7363 26.4781L40.813 26.4781L40.813 28.4014L42.7363 28.4014Z" fill="#EBBA3C"/>
<path d="M71.584 25.9971L71.584 24.0738L69.6606 24.0738L69.6606 25.9971L71.584 25.9971Z" fill="#EBBA3C"/>
<path d="M66.7754 25.9971L66.7754 24.0738L64.8524 24.0738L64.8524 25.9971L66.7754 25.9971Z" fill="#EBBA3C"/>
<path d="M64.373 25.9971L64.373 24.0738L62.4497 24.0738L62.4497 25.9971L64.373 25.9971Z" fill="#EBBA3C"/>
<path d="M61.9688 25.9971L61.9688 24.0738L60.0454 24.0738L60.0454 25.9971L61.9688 25.9971Z" fill="#EBBA3C"/>
<path d="M59.5645 25.9971L59.5645 24.0738L57.6411 24.0738L57.6411 25.9971L59.5645 25.9971Z" fill="#EBBA3C"/>
<path d="M54.7559 25.9971L54.7559 24.0738L52.8328 24.0738L52.8328 25.9971L54.7559 25.9971Z" fill="#EBBA3C"/>
<path d="M52.3516 25.9971L52.3516 24.0738L50.4282 24.0738L50.4282 25.9971L52.3516 25.9971Z" fill="#EBBA3C"/>
<path d="M47.5449 25.9971L47.5449 24.0738L45.6216 24.0738L45.6216 25.9971L47.5449 25.9971Z" fill="#EBBA3C"/>
<path d="M45.1406 25.9971L45.1406 24.0738L43.2176 24.0738L43.2176 25.9971L45.1406 25.9971Z" fill="#EBBA3C"/>
<path d="M40.332 25.9971L40.332 24.0738L38.4087 24.0738L38.4087 25.9971L40.332 25.9971Z" fill="#EBBA3C"/>
<path d="M76.3926 23.5947L76.3926 21.6714L74.4695 21.6714L74.4695 23.5947L76.3926 23.5947Z" fill="#EBBA3C"/>
<path d="M73.9883 23.5947L73.9883 21.6714L72.0649 21.6714L72.0649 23.5947L73.9883 23.5947Z" fill="#EBBA3C"/>
<path d="M69.1797 23.5947L69.1797 21.6714L67.2567 21.6714L67.2567 23.5947L69.1797 23.5947Z" fill="#EBBA3C"/>
<path d="M66.7754 23.5947L66.7754 21.6714L64.8524 21.6714L64.8524 23.5947L66.7754 23.5947Z" fill="#EBBA3C"/>
<path d="M64.373 23.5947L64.373 21.6714L62.4497 21.6714L62.4497 23.5947L64.373 23.5947Z" fill="#EBBA3C"/>
<path d="M59.5645 23.5947L59.5645 21.6714L57.6411 21.6714L57.6411 23.5947L59.5645 23.5947Z" fill="#EBBA3C"/>
<path d="M57.1602 23.5947L57.1602 21.6714L55.2368 21.6714L55.2368 23.5947L57.1602 23.5947Z" fill="#EBBA3C"/>
<path d="M47.541 23.5947L47.541 21.6714L45.6177 21.6714L45.6177 23.5947L47.541 23.5947Z" fill="#EBBA3C"/>
<path d="M42.7363 23.5947L42.7363 21.6714L40.813 21.6714L40.813 23.5947L42.7363 23.5947Z" fill="#EBBA3C"/>
<path d="M40.332 23.5947L40.332 21.6714L38.4087 21.6714L38.4087 23.5947L40.332 23.5947Z" fill="#EBBA3C"/>
<path d="M76.3926 21.1895L76.3926 19.2662L74.4695 19.2662L74.4695 21.1895L76.3926 21.1895Z" fill="#EBBA3C"/>
<path d="M73.9883 21.1895L73.9883 19.2662L72.0649 19.2662L72.0649 21.1895L73.9883 21.1895Z" fill="#EBBA3C"/>
<path d="M71.584 21.1895L71.584 19.2662L69.6606 19.2662L69.6606 21.1895L71.584 21.1895Z" fill="#EBBA3C"/>
<path d="M64.373 21.1895L64.373 19.2662L62.4497 19.2662L62.4497 21.1895L64.373 21.1895Z" fill="#EBBA3C"/>
<path d="M61.9688 21.1895L61.9688 19.2662L60.0454 19.2662L60.0454 21.1895L61.9688 21.1895Z" fill="#EBBA3C"/>
<path d="M52.3516 21.1895L52.3516 19.2662L50.4282 19.2662L50.4282 21.1895L52.3516 21.1895Z" fill="#EBBA3C"/>
<path d="M49.9453 21.1895L49.9453 19.2662L48.022 19.2662L48.022 21.1895L49.9453 21.1895Z" fill="#EBBA3C"/>
<path d="M45.1406 21.1895L45.1406 19.2662L43.2176 19.2662L43.2176 21.1895L45.1406 21.1895Z" fill="#EBBA3C"/>
<path d="M40.332 21.1895L40.332 19.2662L38.4087 19.2662L38.4087 21.1895L40.332 21.1895Z" fill="#EBBA3C"/>
<path d="M73.9883 18.7852L73.9883 16.8619L72.0649 16.8619L72.0649 18.7852L73.9883 18.7852Z" fill="#EBBA3C"/>
<path d="M69.1797 18.7852L69.1797 16.8619L67.2567 16.8619L67.2567 18.7852L69.1797 18.7852Z" fill="#EBBA3C"/>
<path d="M66.7754 18.7852L66.7754 16.8619L64.8524 16.8619L64.8524 18.7852L66.7754 18.7852Z" fill="#EBBA3C"/>
<path d="M59.5645 18.7852L59.5645 16.8619L57.6411 16.8619L57.6411 18.7852L59.5645 18.7852Z" fill="#EBBA3C"/>
<path d="M54.7559 18.7852L54.7559 16.8619L52.8328 16.8619L52.8328 18.7852L54.7559 18.7852Z" fill="#EBBA3C"/>
<path d="M49.9453 18.7852L49.9453 16.8619L48.022 16.8619L48.022 18.7852L49.9453 18.7852Z" fill="#EBBA3C"/>
<path d="M47.541 18.7852L47.541 16.8619L45.6177 16.8619L45.6177 18.7852L47.541 18.7852Z" fill="#EBBA3C"/>
<path d="M42.7363 18.7852L42.7363 16.8619L40.813 16.8619L40.813 18.7852L42.7363 18.7852Z" fill="#EBBA3C"/>
<path d="M76.3926 16.3818L76.3926 14.4585L74.4695 14.4585L74.4695 16.3818L76.3926 16.3818Z" fill="#EBBA3C"/>
<path d="M64.373 16.3818L64.373 14.4585L62.4497 14.4585L62.4497 16.3818L64.373 16.3818Z" fill="#EBBA3C"/>
<path d="M61.9688 16.3818L61.9688 14.4585L60.0454 14.4585L60.0454 16.3818L61.9688 16.3818Z" fill="#EBBA3C"/>
<path d="M57.1602 16.3818L57.1602 14.4585L55.2368 14.4585L55.2368 16.3818L57.1602 16.3818Z" fill="#EBBA3C"/>
<path d="M52.3516 16.3818L52.3516 14.4585L50.4282 14.4585L50.4282 16.3818L52.3516 16.3818Z" fill="#EBBA3C"/>
<path d="M45.1406 16.3818L45.1406 14.4585L43.2176 14.4585L43.2176 16.3818L45.1406 16.3818Z" fill="#EBBA3C"/>
<path d="M42.7363 16.3818L42.7363 14.4585L40.813 14.4585L40.813 16.3818L42.7363 16.3818Z" fill="#EBBA3C"/>
<path d="M40.332 16.3818L40.332 14.4585L38.4087 14.4585L38.4087 16.3818L40.332 16.3818Z" fill="#EBBA3C"/>
<path d="M73.9883 13.9775L73.9883 12.0542L72.0649 12.0542L72.0649 13.9775L73.9883 13.9775Z" fill="#EBBA3C"/>
<path d="M71.584 13.9775L71.584 12.0542L69.6606 12.0542L69.6606 13.9775L71.584 13.9775Z" fill="#EBBA3C"/>
<path d="M66.7754 13.9775L66.7754 12.0542L64.8524 12.0542L64.8524 13.9775L66.7754 13.9775Z" fill="#EBBA3C"/>
<path d="M59.5645 13.9775L59.5645 12.0542L57.6411 12.0542L57.6411 13.9775L59.5645 13.9775Z" fill="#EBBA3C"/>
<path d="M54.7559 13.9775L54.7559 12.0542L52.8328 12.0542L52.8328 13.9775L54.7559 13.9775Z" fill="#EBBA3C"/>
<path d="M45.1406 13.9775L45.1406 12.0542L43.2176 12.0542L43.2176 13.9775L45.1406 13.9775Z" fill="#EBBA3C"/>
<path d="M40.332 13.9775L40.332 12.0542L38.4087 12.0542L38.4087 13.9775L40.332 13.9775Z" fill="#EBBA3C"/>
<path d="M76.3926 11.5732L76.3926 9.64995L74.4695 9.64995L74.4695 11.5732L76.3926 11.5732Z" fill="#EBBA3C"/>
<path d="M69.1797 11.5732L69.1797 9.64995L67.2567 9.64995L67.2567 11.5732L69.1797 11.5732Z" fill="#EBBA3C"/>
<path d="M64.373 11.5732L64.373 9.64995L62.4497 9.64995L62.4497 11.5732L64.373 11.5732Z" fill="#EBBA3C"/>
<path d="M59.5645 11.5732L59.5645 9.64995L57.6411 9.64995L57.6411 11.5732L59.5645 11.5732Z" fill="#EBBA3C"/>
<path d="M52.3516 11.5732L52.3516 9.64995L50.4282 9.64995L50.4282 11.5732L52.3516 11.5732Z" fill="#EBBA3C"/>
<path d="M47.541 11.5732L47.541 9.64995L45.6177 9.64995L45.6177 11.5732L47.541 11.5732Z" fill="#EBBA3C"/>
<path d="M71.584 9.16992L71.584 7.24695L69.6606 7.24695L69.6606 9.16992L71.584 9.16992Z" fill="#EBBA3C"/>
<path d="M66.7754 9.16992L66.7754 7.24695L64.8524 7.24695L64.8524 9.16992L66.7754 9.16992Z" fill="#EBBA3C"/>
<path d="M57.1602 9.16992L57.1602 7.24695L55.2368 7.24695L55.2368 9.16992L57.1602 9.16992Z" fill="#EBBA3C"/>
<path d="M47.541 9.16992L47.541 7.24695L45.6177 7.24695L45.6177 9.16992L47.541 9.16992Z" fill="#EBBA3C"/>
<path d="M42.7363 9.16992L42.7363 7.24695L40.813 7.24695L40.813 9.16992L42.7363 9.16992Z" fill="#EBBA3C"/>
<path d="M73.9883 6.76562L73.9883 4.84233L72.0649 4.84233L72.0649 6.76562L73.9883 6.76562Z" fill="#EBBA3C"/>
<path d="M61.9688 6.76562L61.9688 4.84233L60.0454 4.84233L60.0454 6.76562L61.9688 6.76562Z" fill="#EBBA3C"/>
<path d="M52.3516 6.76562L52.3516 4.84233L50.4282 4.84233L50.4282 6.76562L52.3516 6.76562Z" fill="#EBBA3C"/>
<path d="M40.332 6.76562L40.332 4.84233L38.4087 4.84233L38.4087 6.76562L40.332 6.76562Z" fill="#EBBA3C"/>
<path d="M66.7754 4.36133L66.7754 2.43803L64.8524 2.43803L64.8524 4.36133L66.7754 4.36133Z" fill="#EBBA3C"/>
<path d="M57.1602 4.36133L57.1602 2.43803L55.2368 2.43803L55.2368 4.36133L57.1602 4.36133Z" fill="#EBBA3C"/>
<path d="M42.7363 4.36133L42.7363 2.43803L40.813 2.43803L40.813 4.36133L42.7363 4.36133Z" fill="#EBBA3C"/>
<mask id="mask2_550_50224" style="mask-type:luminance" maskUnits="userSpaceOnUse" x="69" y="0" width="3" height="2">
<path d="M71.6094 1.97754L71.6094 0.000674486L69.6266 0.000674399L69.6266 1.97754L71.6094 1.97754Z" fill="white"/>
</mask>
<g mask="url(#mask2_550_50224)">
<path d="M71.584 1.95801L71.584 0.0347114L69.6606 0.0347113L69.6606 1.95801L71.584 1.95801Z" fill="#EBBA3C"/>
</g>
<mask id="mask3_550_50224" style="mask-type:luminance" maskUnits="userSpaceOnUse" x="47" y="0" width="3" height="2">
<path d="M49.9648 1.97754L49.9648 0.000674486L47.9821 0.000674399L47.9821 1.97754L49.9648 1.97754Z" fill="white"/>
</mask>
<g mask="url(#mask3_550_50224)">
<path d="M49.9453 1.95801L49.9453 0.0347114L48.022 0.0347113L48.022 1.95801L49.9453 1.95801Z" fill="#EBBA3C"/>
</g>
<path d="M114.793 35.6133L114.793 33.69L112.87 33.69L112.87 35.6133L114.793 35.6133Z" fill="#EBBA3C"/>
<path d="M112.389 35.6133L112.389 33.69L110.465 33.69L110.465 35.6133L112.389 35.6133Z" fill="#EBBA3C"/>
<path d="M109.984 35.6133L109.984 33.69L108.061 33.69L108.061 35.6133L109.984 35.6133Z" fill="#EBBA3C"/>
<path d="M107.58 35.6133L107.58 33.69L105.657 33.69L105.657 35.6133L107.58 35.6133Z" fill="#EBBA3C"/>
<path d="M105.176 35.6133L105.176 33.69L103.253 33.69L103.253 35.6133L105.176 35.6133Z" fill="#EBBA3C"/>
<path d="M102.773 35.6133L102.773 33.69L100.85 33.69L100.85 35.6133L102.773 35.6133Z" fill="#EBBA3C"/>
<path d="M100.369 35.6133L100.369 33.69L98.4458 33.69L98.4458 35.6133L100.369 35.6133Z" fill="#EBBA3C"/>
<path d="M97.9648 35.6133L97.9648 33.69L96.0415 33.69L96.0415 35.6133L97.9648 35.6133Z" fill="#EBBA3C"/>
<path d="M93.1562 35.6133L93.1563 33.69L91.2332 33.69L91.2332 35.6133L93.1562 35.6133Z" fill="#EBBA3C"/>
<path d="M90.752 35.6133L90.752 33.69L88.8286 33.69L88.8286 35.6133L90.752 35.6133Z" fill="#EBBA3C"/>
<path d="M88.3457 35.6133L88.3457 33.69L86.4223 33.69L86.4223 35.6133L88.3457 35.6133Z" fill="#EBBA3C"/>
<path d="M85.9453 35.6133L85.9453 33.69L84.022 33.69L84.022 35.6133L85.9453 35.6133Z" fill="#EBBA3C"/>
<path d="M83.541 35.6133L83.541 33.69L81.618 33.69L81.618 35.6133L83.541 35.6133Z" fill="#EBBA3C"/>
<path d="M78.7324 35.6133L78.7324 33.69L76.8091 33.69L76.8091 35.6133L78.7324 35.6133Z" fill="#EBBA3C"/>
<path d="M114.793 33.2109L114.793 31.288L112.87 31.288L112.87 33.2109L114.793 33.2109Z" fill="#EBBA3C"/>
<path d="M112.389 33.2109L112.389 31.288L110.465 31.288L110.465 33.2109L112.389 33.2109Z" fill="#EBBA3C"/>
<path d="M109.984 33.2109L109.984 31.288L108.061 31.288L108.061 33.2109L109.984 33.2109Z" fill="#EBBA3C"/>
<path d="M107.58 33.2109L107.58 31.288L105.657 31.288L105.657 33.2109L107.58 33.2109Z" fill="#EBBA3C"/>
<path d="M102.773 33.2109L102.773 31.288L100.85 31.288L100.85 33.2109L102.773 33.2109Z" fill="#EBBA3C"/>
<path d="M100.369 33.2109L100.369 31.288L98.4458 31.288L98.4458 33.2109L100.369 33.2109Z" fill="#EBBA3C"/>
<path d="M95.5605 33.2109L95.5605 31.288L93.6372 31.288L93.6372 33.2109L95.5605 33.2109Z" fill="#EBBA3C"/>
<path d="M93.1562 33.2109L93.1563 31.288L91.2332 31.288L91.2332 33.2109L93.1562 33.2109Z" fill="#EBBA3C"/>
<path d="M90.752 33.2109L90.752 31.288L88.8286 31.288L88.8286 33.2109L90.752 33.2109Z" fill="#EBBA3C"/>
<path d="M88.3457 33.2109L88.3457 31.288L86.4223 31.288L86.4223 33.2109L88.3457 33.2109Z" fill="#EBBA3C"/>
<path d="M83.541 33.2109L83.541 31.288L81.618 31.288L81.618 33.2109L83.541 33.2109Z" fill="#EBBA3C"/>
<path d="M81.1367 33.2109L81.1367 31.288L79.2134 31.288L79.2134 33.2109L81.1367 33.2109Z" fill="#EBBA3C"/>
<path d="M78.7324 33.2109L78.7324 31.288L76.8091 31.288L76.8091 33.2109L78.7324 33.2109Z" fill="#EBBA3C"/>
<path d="M114.793 30.8066L114.793 28.8837L112.87 28.8837L112.87 30.8066L114.793 30.8066Z" fill="#EBBA3C"/>
<path d="M109.984 30.8066L109.984 28.8837L108.061 28.8837L108.061 30.8066L109.984 30.8066Z" fill="#EBBA3C"/>
<path d="M107.58 30.8066L107.58 28.8837L105.657 28.8837L105.657 30.8066L107.58 30.8066Z" fill="#EBBA3C"/>
<path d="M105.176 30.8066L105.176 28.8837L103.253 28.8837L103.253 30.8066L105.176 30.8066Z" fill="#EBBA3C"/>
<path d="M100.369 30.8066L100.369 28.8837L98.4458 28.8837L98.4458 30.8066L100.369 30.8066Z" fill="#EBBA3C"/>
<path d="M97.9648 30.8066L97.9648 28.8837L96.0415 28.8837L96.0415 30.8066L97.9648 30.8066Z" fill="#EBBA3C"/>
<path d="M95.5605 30.8066L95.5605 28.8837L93.6372 28.8837L93.6372 30.8066L95.5605 30.8066Z" fill="#EBBA3C"/>
<path d="M93.1562 30.8066L93.1563 28.8837L91.2332 28.8837L91.2332 30.8066L93.1562 30.8066Z" fill="#EBBA3C"/>
<path d="M88.3457 30.8066L88.3457 28.8837L86.4223 28.8837L86.4223 30.8066L88.3457 30.8066Z" fill="#EBBA3C"/>
<path d="M85.9453 30.8066L85.9453 28.8837L84.022 28.8837L84.022 30.8066L85.9453 30.8066Z" fill="#EBBA3C"/>
<path d="M81.1367 30.8066L81.1367 28.8837L79.2134 28.8837L79.2134 30.8066L81.1367 30.8066Z" fill="#EBBA3C"/>
<path d="M78.7324 30.8066L78.7324 28.8837L76.8091 28.8837L76.8091 30.8066L78.7324 30.8066Z" fill="#EBBA3C"/>
<path d="M114.793 28.4014L114.793 26.4781L112.87 26.4781L112.87 28.4014L114.793 28.4014Z" fill="#EBBA3C"/>
<path d="M112.389 28.4014L112.389 26.4781L110.465 26.4781L110.465 28.4014L112.389 28.4014Z" fill="#EBBA3C"/>
<path d="M107.58 28.4014L107.58 26.4781L105.657 26.4781L105.657 28.4014L107.58 28.4014Z" fill="#EBBA3C"/>
<path d="M102.773 28.4014L102.773 26.4781L100.85 26.4781L100.85 28.4014L102.773 28.4014Z" fill="#EBBA3C"/>
<path d="M97.9648 28.4014L97.9648 26.4781L96.0415 26.4781L96.0415 28.4014L97.9648 28.4014Z" fill="#EBBA3C"/>
<path d="M95.5605 28.4014L95.5605 26.4781L93.6372 26.4781L93.6372 28.4014L95.5605 28.4014Z" fill="#EBBA3C"/>
<path d="M93.1562 28.4014L93.1563 26.4781L91.2332 26.4781L91.2332 28.4014L93.1562 28.4014Z" fill="#EBBA3C"/>
<path d="M90.752 28.4014L90.752 26.4781L88.8286 26.4781L88.8286 28.4014L90.752 28.4014Z" fill="#EBBA3C"/>
<path d="M85.9453 28.4014L85.9453 26.4781L84.022 26.4781L84.022 28.4014L85.9453 28.4014Z" fill="#EBBA3C"/>
<path d="M83.541 28.4014L83.541 26.4781L81.618 26.4781L81.618 28.4014L83.541 28.4014Z" fill="#EBBA3C"/>
<path d="M81.1367 28.4014L81.1367 26.4781L79.2134 26.4781L79.2134 28.4014L81.1367 28.4014Z" fill="#EBBA3C"/>
<path d="M109.984 25.9971L109.984 24.0738L108.061 24.0738L108.061 25.9971L109.984 25.9971Z" fill="#EBBA3C"/>
<path d="M105.176 25.9971L105.176 24.0738L103.253 24.0738L103.253 25.9971L105.176 25.9971Z" fill="#EBBA3C"/>
<path d="M102.773 25.9971L102.773 24.0738L100.85 24.0738L100.85 25.9971L102.773 25.9971Z" fill="#EBBA3C"/>
<path d="M100.369 25.9971L100.369 24.0738L98.4458 24.0738L98.4458 25.9971L100.369 25.9971Z" fill="#EBBA3C"/>
<path d="M97.9648 25.9971L97.9648 24.0738L96.0415 24.0738L96.0415 25.9971L97.9648 25.9971Z" fill="#EBBA3C"/>
<path d="M93.1562 25.9971L93.1563 24.0738L91.2332 24.0738L91.2332 25.9971L93.1562 25.9971Z" fill="#EBBA3C"/>
<path d="M90.752 25.9971L90.752 24.0738L88.8286 24.0738L88.8286 25.9971L90.752 25.9971Z" fill="#EBBA3C"/>
<path d="M85.9453 25.9971L85.9453 24.0738L84.022 24.0738L84.022 25.9971L85.9453 25.9971Z" fill="#EBBA3C"/>
<path d="M83.541 25.9971L83.541 24.0738L81.618 24.0738L81.618 25.9971L83.541 25.9971Z" fill="#EBBA3C"/>
<path d="M78.7324 25.9971L78.7324 24.0738L76.8091 24.0738L76.8091 25.9971L78.7324 25.9971Z" fill="#EBBA3C"/>
<path d="M114.793 23.5947L114.793 21.6714L112.87 21.6714L112.87 23.5947L114.793 23.5947Z" fill="#EBBA3C"/>
<path d="M112.389 23.5947L112.389 21.6714L110.465 21.6714L110.465 23.5947L112.389 23.5947Z" fill="#EBBA3C"/>
<path d="M107.58 23.5947L107.58 21.6714L105.657 21.6714L105.657 23.5947L107.58 23.5947Z" fill="#EBBA3C"/>
<path d="M105.176 23.5947L105.176 21.6714L103.253 21.6714L103.253 23.5947L105.176 23.5947Z" fill="#EBBA3C"/>
<path d="M102.773 23.5947L102.773 21.6714L100.85 21.6714L100.85 23.5947L102.773 23.5947Z" fill="#EBBA3C"/>
<path d="M97.9648 23.5947L97.9648 21.6714L96.0415 21.6714L96.0415 23.5947L97.9648 23.5947Z" fill="#EBBA3C"/>
<path d="M95.5605 23.5947L95.5605 21.6714L93.6372 21.6714L93.6372 23.5947L95.5605 23.5947Z" fill="#EBBA3C"/>
<path d="M85.9414 23.5947L85.9414 21.6714L84.018 21.6714L84.018 23.5947L85.9414 23.5947Z" fill="#EBBA3C"/>
<path d="M81.1367 23.5947L81.1367 21.6714L79.2134 21.6714L79.2134 23.5947L81.1367 23.5947Z" fill="#EBBA3C"/>
<path d="M78.7324 23.5947L78.7324 21.6714L76.8091 21.6714L76.8091 23.5947L78.7324 23.5947Z" fill="#EBBA3C"/>
<path d="M114.793 21.1895L114.793 19.2662L112.87 19.2662L112.87 21.1895L114.793 21.1895Z" fill="#EBBA3C"/>
<path d="M112.389 21.1895L112.389 19.2662L110.465 19.2662L110.465 21.1895L112.389 21.1895Z" fill="#EBBA3C"/>
<path d="M109.984 21.1895L109.984 19.2662L108.061 19.2662L108.061 21.1895L109.984 21.1895Z" fill="#EBBA3C"/>
<path d="M102.773 21.1895L102.773 19.2662L100.85 19.2662L100.85 21.1895L102.773 21.1895Z" fill="#EBBA3C"/>
<path d="M100.369 21.1895L100.369 19.2662L98.4458 19.2662L98.4458 21.1895L100.369 21.1895Z" fill="#EBBA3C"/>
<path d="M90.752 21.1895L90.752 19.2662L88.8286 19.2662L88.8286 21.1895L90.752 21.1895Z" fill="#EBBA3C"/>
<path d="M88.3457 21.1895L88.3457 19.2662L86.4223 19.2662L86.4223 21.1895L88.3457 21.1895Z" fill="#EBBA3C"/>
<path d="M83.541 21.1895L83.541 19.2662L81.618 19.2662L81.618 21.1895L83.541 21.1895Z" fill="#EBBA3C"/>
<path d="M78.7324 21.1895L78.7324 19.2662L76.8091 19.2662L76.8091 21.1895L78.7324 21.1895Z" fill="#EBBA3C"/>
<path d="M112.389 18.7852L112.389 16.8619L110.465 16.8619L110.465 18.7852L112.389 18.7852Z" fill="#EBBA3C"/>
<path d="M107.58 18.7852L107.58 16.8619L105.657 16.8619L105.657 18.7852L107.58 18.7852Z" fill="#EBBA3C"/>
<path d="M105.176 18.7852L105.176 16.8619L103.253 16.8619L103.253 18.7852L105.176 18.7852Z" fill="#EBBA3C"/>
<path d="M97.9648 18.7852L97.9648 16.8619L96.0415 16.8619L96.0415 18.7852L97.9648 18.7852Z" fill="#EBBA3C"/>
<path d="M93.1562 18.7852L93.1563 16.8619L91.2332 16.8619L91.2332 18.7852L93.1562 18.7852Z" fill="#EBBA3C"/>
<path d="M88.3457 18.7852L88.3457 16.8619L86.4223 16.8619L86.4223 18.7852L88.3457 18.7852Z" fill="#EBBA3C"/>
<path d="M85.9414 18.7852L85.9414 16.8619L84.018 16.8619L84.018 18.7852L85.9414 18.7852Z" fill="#EBBA3C"/>
<path d="M81.1367 18.7852L81.1367 16.8619L79.2134 16.8619L79.2134 18.7852L81.1367 18.7852Z" fill="#EBBA3C"/>
<path d="M114.793 16.3818L114.793 14.4585L112.87 14.4585L112.87 16.3818L114.793 16.3818Z" fill="#EBBA3C"/>
<path d="M102.773 16.3818L102.773 14.4585L100.85 14.4585L100.85 16.3818L102.773 16.3818Z" fill="#EBBA3C"/>
<path d="M100.369 16.3818L100.369 14.4585L98.4458 14.4585L98.4458 16.3818L100.369 16.3818Z" fill="#EBBA3C"/>
<path d="M95.5605 16.3818L95.5605 14.4585L93.6372 14.4585L93.6372 16.3818L95.5605 16.3818Z" fill="#EBBA3C"/>
<path d="M90.752 16.3818L90.752 14.4585L88.8286 14.4585L88.8286 16.3818L90.752 16.3818Z" fill="#EBBA3C"/>
<path d="M83.541 16.3818L83.541 14.4585L81.618 14.4585L81.618 16.3818L83.541 16.3818Z" fill="#EBBA3C"/>
<path d="M81.1367 16.3818L81.1367 14.4585L79.2134 14.4585L79.2134 16.3818L81.1367 16.3818Z" fill="#EBBA3C"/>
<path d="M78.7324 16.3818L78.7324 14.4585L76.8091 14.4585L76.8091 16.3818L78.7324 16.3818Z" fill="#EBBA3C"/>
<path d="M112.389 13.9775L112.389 12.0542L110.465 12.0542L110.465 13.9775L112.389 13.9775Z" fill="#EBBA3C"/>
<path d="M109.984 13.9775L109.984 12.0542L108.061 12.0542L108.061 13.9775L109.984 13.9775Z" fill="#EBBA3C"/>
<path d="M105.176 13.9775L105.176 12.0542L103.253 12.0542L103.253 13.9775L105.176 13.9775Z" fill="#EBBA3C"/>
<path d="M97.9648 13.9775L97.9648 12.0542L96.0415 12.0542L96.0415 13.9775L97.9648 13.9775Z" fill="#EBBA3C"/>
<path d="M93.1562 13.9775L93.1563 12.0542L91.2332 12.0542L91.2332 13.9775L93.1562 13.9775Z" fill="#EBBA3C"/>
<path d="M83.541 13.9775L83.541 12.0542L81.618 12.0542L81.618 13.9775L83.541 13.9775Z" fill="#EBBA3C"/>
<path d="M78.7324 13.9775L78.7324 12.0542L76.8091 12.0542L76.8091 13.9775L78.7324 13.9775Z" fill="#EBBA3C"/>
<path d="M114.793 11.5732L114.793 9.64995L112.87 9.64995L112.87 11.5732L114.793 11.5732Z" fill="#EBBA3C"/>
<path d="M107.58 11.5732L107.58 9.64995L105.657 9.64995L105.657 11.5732L107.58 11.5732Z" fill="#EBBA3C"/>
<path d="M102.773 11.5732L102.773 9.64995L100.85 9.64995L100.85 11.5732L102.773 11.5732Z" fill="#EBBA3C"/>
<path d="M97.9648 11.5732L97.9648 9.64995L96.0415 9.64995L96.0415 11.5732L97.9648 11.5732Z" fill="#EBBA3C"/>
<path d="M90.752 11.5732L90.752 9.64995L88.8286 9.64995L88.8286 11.5732L90.752 11.5732Z" fill="#EBBA3C"/>
<path d="M85.9414 11.5732L85.9414 9.64995L84.018 9.64995L84.018 11.5732L85.9414 11.5732Z" fill="#EBBA3C"/>
<path d="M109.984 9.16992L109.984 7.24695L108.061 7.24695L108.061 9.16992L109.984 9.16992Z" fill="#EBBA3C"/>
<path d="M105.176 9.16992L105.176 7.24695L103.253 7.24695L103.253 9.16992L105.176 9.16992Z" fill="#EBBA3C"/>
<path d="M95.5605 9.16992L95.5605 7.24695L93.6372 7.24695L93.6372 9.16992L95.5605 9.16992Z" fill="#EBBA3C"/>
<path d="M85.9414 9.16992L85.9414 7.24695L84.018 7.24695L84.018 9.16992L85.9414 9.16992Z" fill="#EBBA3C"/>
<path d="M81.1367 9.16992L81.1367 7.24695L79.2134 7.24695L79.2134 9.16992L81.1367 9.16992Z" fill="#EBBA3C"/>
<path d="M112.389 6.76562L112.389 4.84233L110.465 4.84233L110.465 6.76562L112.389 6.76562Z" fill="#EBBA3C"/>
<path d="M100.369 6.76562L100.369 4.84233L98.4458 4.84233L98.4458 6.76562L100.369 6.76562Z" fill="#EBBA3C"/>
<path d="M90.752 6.76562L90.752 4.84233L88.8286 4.84233L88.8286 6.76562L90.752 6.76562Z" fill="#EBBA3C"/>
<path d="M78.7324 6.76562L78.7324 4.84233L76.8091 4.84233L76.8091 6.76562L78.7324 6.76562Z" fill="#EBBA3C"/>
<path d="M105.176 4.36133L105.176 2.43803L103.253 2.43803L103.253 4.36133L105.176 4.36133Z" fill="#EBBA3C"/>
<path d="M95.5605 4.36133L95.5605 2.43803L93.6372 2.43803L93.6372 4.36133L95.5605 4.36133Z" fill="#EBBA3C"/>
<path d="M81.1367 4.36133L81.1367 2.43803L79.2134 2.43803L79.2134 4.36133L81.1367 4.36133Z" fill="#EBBA3C"/>
<mask id="mask4_550_50224" style="mask-type:luminance" maskUnits="userSpaceOnUse" x="108" y="0" width="3" height="2">
<path d="M110.01 1.97754L110.01 0.000674486L108.027 0.000674399L108.027 1.97754L110.01 1.97754Z" fill="white"/>
</mask>
<g mask="url(#mask4_550_50224)">
<path d="M109.984 1.95801L109.984 0.0347114L108.061 0.0347113L108.061 1.95801L109.984 1.95801Z" fill="#EBBA3C"/>
</g>
<mask id="mask5_550_50224" style="mask-type:luminance" maskUnits="userSpaceOnUse" x="86" y="0" width="3" height="2">
<path d="M88.3652 1.97754L88.3652 0.000674486L86.3825 0.000674399L86.3825 1.97754L88.3652 1.97754Z" fill="white"/>
</mask>
<g mask="url(#mask5_550_50224)">
<path d="M88.3457 1.95801L88.3457 0.0347114L86.4223 0.0347113L86.4223 1.95801L88.3457 1.95801Z" fill="#EBBA3C"/>
</g>
<path d="M153.193 35.6133L153.193 33.69L151.27 33.69L151.27 35.6133L153.193 35.6133Z" fill="#EBBA3C"/>
<path d="M150.789 35.6133L150.789 33.69L148.866 33.69L148.866 35.6133L150.789 35.6133Z" fill="#EBBA3C"/>
<path d="M148.385 35.6133L148.385 33.69L146.461 33.69L146.461 35.6133L148.385 35.6133Z" fill="#EBBA3C"/>
<path d="M145.98 35.6133L145.98 33.69L144.057 33.69L144.057 35.6133L145.98 35.6133Z" fill="#EBBA3C"/>
<path d="M143.576 35.6133L143.576 33.69L141.653 33.69L141.653 35.6133L143.576 35.6133Z" fill="#EBBA3C"/>
<path d="M141.174 35.6133L141.174 33.69L139.25 33.69L139.25 35.6133L141.174 35.6133Z" fill="#EBBA3C"/>
<path d="M138.77 35.6133L138.77 33.69L136.846 33.69L136.846 35.6133L138.77 35.6133Z" fill="#EBBA3C"/>
<path d="M136.365 35.6133L136.365 33.69L134.442 33.69L134.442 35.6133L136.365 35.6133Z" fill="#EBBA3C"/>
<path d="M131.557 35.6133L131.557 33.69L129.634 33.69L129.634 35.6133L131.557 35.6133Z" fill="#EBBA3C"/>
<path d="M129.152 35.6133L129.152 33.69L127.229 33.69L127.229 35.6133L129.152 35.6133Z" fill="#EBBA3C"/>
<path d="M126.746 35.6133L126.746 33.69L124.823 33.69L124.823 35.6133L126.746 35.6133Z" fill="#EBBA3C"/>
<path d="M124.346 35.6133L124.346 33.69L122.422 33.69L122.422 35.6133L124.346 35.6133Z" fill="#EBBA3C"/>
<path d="M121.941 35.6133L121.941 33.69L120.018 33.69L120.018 35.6133L121.941 35.6133Z" fill="#EBBA3C"/>
<path d="M117.133 35.6133L117.133 33.69L115.209 33.69L115.209 35.6133L117.133 35.6133Z" fill="#EBBA3C"/>
<path d="M153.193 33.2109L153.193 31.288L151.27 31.288L151.27 33.2109L153.193 33.2109Z" fill="#EBBA3C"/>
<path d="M150.789 33.2109L150.789 31.288L148.866 31.288L148.866 33.2109L150.789 33.2109Z" fill="#EBBA3C"/>
<path d="M148.385 33.2109L148.385 31.288L146.461 31.288L146.461 33.2109L148.385 33.2109Z" fill="#EBBA3C"/>
<path d="M145.98 33.2109L145.98 31.288L144.057 31.288L144.057 33.2109L145.98 33.2109Z" fill="#EBBA3C"/>
<path d="M141.174 33.2109L141.174 31.288L139.25 31.288L139.25 33.2109L141.174 33.2109Z" fill="#EBBA3C"/>
<path d="M138.77 33.2109L138.77 31.288L136.846 31.288L136.846 33.2109L138.77 33.2109Z" fill="#EBBA3C"/>
<path d="M133.961 33.2109L133.961 31.288L132.038 31.288L132.038 33.2109L133.961 33.2109Z" fill="#EBBA3C"/>
<path d="M131.557 33.2109L131.557 31.288L129.634 31.288L129.634 33.2109L131.557 33.2109Z" fill="#EBBA3C"/>
<path d="M129.152 33.2109L129.152 31.288L127.229 31.288L127.229 33.2109L129.152 33.2109Z" fill="#EBBA3C"/>
<path d="M126.746 33.2109L126.746 31.288L124.823 31.288L124.823 33.2109L126.746 33.2109Z" fill="#EBBA3C"/>
<path d="M121.941 33.2109L121.941 31.288L120.018 31.288L120.018 33.2109L121.941 33.2109Z" fill="#EBBA3C"/>
<path d="M119.537 33.2109L119.537 31.288L117.614 31.288L117.614 33.2109L119.537 33.2109Z" fill="#EBBA3C"/>
<path d="M117.133 33.2109L117.133 31.288L115.209 31.288L115.209 33.2109L117.133 33.2109Z" fill="#EBBA3C"/>
<path d="M153.193 30.8066L153.193 28.8837L151.27 28.8837L151.27 30.8066L153.193 30.8066Z" fill="#EBBA3C"/>
<path d="M148.385 30.8066L148.385 28.8837L146.461 28.8837L146.461 30.8066L148.385 30.8066Z" fill="#EBBA3C"/>
<path d="M145.98 30.8066L145.98 28.8837L144.057 28.8837L144.057 30.8066L145.98 30.8066Z" fill="#EBBA3C"/>
<path d="M143.576 30.8066L143.576 28.8837L141.653 28.8837L141.653 30.8066L143.576 30.8066Z" fill="#EBBA3C"/>
<path d="M138.77 30.8066L138.77 28.8837L136.846 28.8837L136.846 30.8066L138.77 30.8066Z" fill="#EBBA3C"/>
<path d="M136.365 30.8066L136.365 28.8837L134.442 28.8837L134.442 30.8066L136.365 30.8066Z" fill="#EBBA3C"/>
<path d="M133.961 30.8066L133.961 28.8837L132.038 28.8837L132.038 30.8066L133.961 30.8066Z" fill="#EBBA3C"/>
<path d="M131.557 30.8066L131.557 28.8837L129.634 28.8837L129.634 30.8066L131.557 30.8066Z" fill="#EBBA3C"/>
<path d="M126.746 30.8066L126.746 28.8837L124.823 28.8837L124.823 30.8066L126.746 30.8066Z" fill="#EBBA3C"/>
<path d="M124.346 30.8066L124.346 28.8837L122.422 28.8837L122.422 30.8066L124.346 30.8066Z" fill="#EBBA3C"/>
<path d="M119.537 30.8066L119.537 28.8837L117.614 28.8837L117.614 30.8066L119.537 30.8066Z" fill="#EBBA3C"/>
<path d="M117.133 30.8066L117.133 28.8837L115.209 28.8837L115.209 30.8066L117.133 30.8066Z" fill="#EBBA3C"/>
<path d="M153.193 28.4014L153.193 26.4781L151.27 26.4781L151.27 28.4014L153.193 28.4014Z" fill="#EBBA3C"/>
<path d="M150.789 28.4014L150.789 26.4781L148.866 26.4781L148.866 28.4014L150.789 28.4014Z" fill="#EBBA3C"/>
<path d="M145.98 28.4014L145.98 26.4781L144.057 26.4781L144.057 28.4014L145.98 28.4014Z" fill="#EBBA3C"/>
<path d="M141.174 28.4014L141.174 26.4781L139.25 26.4781L139.25 28.4014L141.174 28.4014Z" fill="#EBBA3C"/>
<path d="M136.365 28.4014L136.365 26.4781L134.442 26.4781L134.442 28.4014L136.365 28.4014Z" fill="#EBBA3C"/>
<path d="M133.961 28.4014L133.961 26.4781L132.038 26.4781L132.038 28.4014L133.961 28.4014Z" fill="#EBBA3C"/>
<path d="M131.557 28.4014L131.557 26.4781L129.634 26.4781L129.634 28.4014L131.557 28.4014Z" fill="#EBBA3C"/>
<path d="M129.152 28.4014L129.152 26.4781L127.229 26.4781L127.229 28.4014L129.152 28.4014Z" fill="#EBBA3C"/>
<path d="M124.346 28.4014L124.346 26.4781L122.422 26.4781L122.422 28.4014L124.346 28.4014Z" fill="#EBBA3C"/>
<path d="M121.941 28.4014L121.941 26.4781L120.018 26.4781L120.018 28.4014L121.941 28.4014Z" fill="#EBBA3C"/>
<path d="M119.537 28.4014L119.537 26.4781L117.614 26.4781L117.614 28.4014L119.537 28.4014Z" fill="#EBBA3C"/>
<path d="M148.385 25.9971L148.385 24.0738L146.461 24.0738L146.461 25.9971L148.385 25.9971Z" fill="#EBBA3C"/>
<path d="M143.576 25.9971L143.576 24.0738L141.653 24.0738L141.653 25.9971L143.576 25.9971Z" fill="#EBBA3C"/>
<path d="M141.174 25.9971L141.174 24.0738L139.25 24.0738L139.25 25.9971L141.174 25.9971Z" fill="#EBBA3C"/>
<path d="M138.77 25.9971L138.77 24.0738L136.846 24.0738L136.846 25.9971L138.77 25.9971Z" fill="#EBBA3C"/>
<path d="M136.365 25.9971L136.365 24.0738L134.442 24.0738L134.442 25.9971L136.365 25.9971Z" fill="#EBBA3C"/>
<path d="M131.557 25.9971L131.557 24.0738L129.634 24.0738L129.634 25.9971L131.557 25.9971Z" fill="#EBBA3C"/>
<path d="M129.152 25.9971L129.152 24.0738L127.229 24.0738L127.229 25.9971L129.152 25.9971Z" fill="#EBBA3C"/>
<path d="M124.346 25.9971L124.346 24.0738L122.422 24.0738L122.422 25.9971L124.346 25.9971Z" fill="#EBBA3C"/>
<path d="M121.941 25.9971L121.941 24.0738L120.018 24.0738L120.018 25.9971L121.941 25.9971Z" fill="#EBBA3C"/>
<path d="M117.133 25.9971L117.133 24.0738L115.209 24.0738L115.209 25.9971L117.133 25.9971Z" fill="#EBBA3C"/>
<path d="M153.193 23.5947L153.193 21.6714L151.27 21.6714L151.27 23.5947L153.193 23.5947Z" fill="#EBBA3C"/>
<path d="M150.789 23.5947L150.789 21.6714L148.866 21.6714L148.866 23.5947L150.789 23.5947Z" fill="#EBBA3C"/>
<path d="M145.98 23.5947L145.98 21.6714L144.057 21.6714L144.057 23.5947L145.98 23.5947Z" fill="#EBBA3C"/>
<path d="M143.576 23.5947L143.576 21.6714L141.653 21.6714L141.653 23.5947L143.576 23.5947Z" fill="#EBBA3C"/>
<path d="M141.174 23.5947L141.174 21.6714L139.25 21.6714L139.25 23.5947L141.174 23.5947Z" fill="#EBBA3C"/>
<path d="M136.365 23.5947L136.365 21.6714L134.442 21.6714L134.442 23.5947L136.365 23.5947Z" fill="#EBBA3C"/>
<path d="M133.961 23.5947L133.961 21.6714L132.038 21.6714L132.038 23.5947L133.961 23.5947Z" fill="#EBBA3C"/>
<path d="M124.342 23.5947L124.342 21.6714L122.418 21.6714L122.418 23.5947L124.342 23.5947Z" fill="#EBBA3C"/>
<path d="M119.537 23.5947L119.537 21.6714L117.614 21.6714L117.614 23.5947L119.537 23.5947Z" fill="#EBBA3C"/>
<path d="M117.133 23.5947L117.133 21.6714L115.209 21.6714L115.209 23.5947L117.133 23.5947Z" fill="#EBBA3C"/>
<path d="M153.193 21.1895L153.193 19.2662L151.27 19.2662L151.27 21.1895L153.193 21.1895Z" fill="#EBBA3C"/>
<path d="M150.789 21.1895L150.789 19.2662L148.866 19.2662L148.866 21.1895L150.789 21.1895Z" fill="#EBBA3C"/>
<path d="M148.385 21.1895L148.385 19.2662L146.461 19.2662L146.461 21.1895L148.385 21.1895Z" fill="#EBBA3C"/>
<path d="M141.174 21.1895L141.174 19.2662L139.25 19.2662L139.25 21.1895L141.174 21.1895Z" fill="#EBBA3C"/>
<path d="M138.77 21.1895L138.77 19.2662L136.846 19.2662L136.846 21.1895L138.77 21.1895Z" fill="#EBBA3C"/>
<path d="M129.152 21.1895L129.152 19.2662L127.229 19.2662L127.229 21.1895L129.152 21.1895Z" fill="#EBBA3C"/>
<path d="M126.746 21.1895L126.746 19.2662L124.823 19.2662L124.823 21.1895L126.746 21.1895Z" fill="#EBBA3C"/>
<path d="M121.941 21.1895L121.941 19.2662L120.018 19.2662L120.018 21.1895L121.941 21.1895Z" fill="#EBBA3C"/>
<path d="M117.133 21.1895L117.133 19.2662L115.209 19.2662L115.209 21.1895L117.133 21.1895Z" fill="#EBBA3C"/>
<path d="M150.789 18.7852L150.789 16.8619L148.866 16.8619L148.866 18.7852L150.789 18.7852Z" fill="#EBBA3C"/>
<path d="M145.98 18.7852L145.98 16.8619L144.057 16.8619L144.057 18.7852L145.98 18.7852Z" fill="#EBBA3C"/>
<path d="M143.576 18.7852L143.576 16.8619L141.653 16.8619L141.653 18.7852L143.576 18.7852Z" fill="#EBBA3C"/>
<path d="M136.365 18.7852L136.365 16.8619L134.442 16.8619L134.442 18.7852L136.365 18.7852Z" fill="#EBBA3C"/>
<path d="M131.557 18.7852L131.557 16.8619L129.634 16.8619L129.634 18.7852L131.557 18.7852Z" fill="#EBBA3C"/>
<path d="M126.746 18.7852L126.746 16.8619L124.823 16.8619L124.823 18.7852L126.746 18.7852Z" fill="#EBBA3C"/>
<path d="M124.342 18.7852L124.342 16.8619L122.418 16.8619L122.418 18.7852L124.342 18.7852Z" fill="#EBBA3C"/>
<path d="M119.537 18.7852L119.537 16.8619L117.614 16.8619L117.614 18.7852L119.537 18.7852Z" fill="#EBBA3C"/>
<path d="M153.193 16.3818L153.193 14.4585L151.27 14.4585L151.27 16.3818L153.193 16.3818Z" fill="#EBBA3C"/>
<path d="M141.174 16.3818L141.174 14.4585L139.25 14.4585L139.25 16.3818L141.174 16.3818Z" fill="#EBBA3C"/>
<path d="M138.77 16.3818L138.77 14.4585L136.846 14.4585L136.846 16.3818L138.77 16.3818Z" fill="#EBBA3C"/>
<path d="M133.961 16.3818L133.961 14.4585L132.038 14.4585L132.038 16.3818L133.961 16.3818Z" fill="#EBBA3C"/>
<path d="M129.152 16.3818L129.152 14.4585L127.229 14.4585L127.229 16.3818L129.152 16.3818Z" fill="#EBBA3C"/>
<path d="M121.941 16.3818L121.941 14.4585L120.018 14.4585L120.018 16.3818L121.941 16.3818Z" fill="#EBBA3C"/>
<path d="M119.537 16.3818L119.537 14.4585L117.614 14.4585L117.614 16.3818L119.537 16.3818Z" fill="#EBBA3C"/>
<path d="M117.133 16.3818L117.133 14.4585L115.209 14.4585L115.209 16.3818L117.133 16.3818Z" fill="#EBBA3C"/>
<path d="M150.789 13.9775L150.789 12.0542L148.866 12.0542L148.866 13.9775L150.789 13.9775Z" fill="#EBBA3C"/>
<path d="M148.385 13.9775L148.385 12.0542L146.461 12.0542L146.461 13.9775L148.385 13.9775Z" fill="#EBBA3C"/>
<path d="M143.576 13.9775L143.576 12.0542L141.653 12.0542L141.653 13.9775L143.576 13.9775Z" fill="#EBBA3C"/>
<path d="M136.365 13.9775L136.365 12.0542L134.442 12.0542L134.442 13.9775L136.365 13.9775Z" fill="#EBBA3C"/>
<path d="M131.557 13.9775L131.557 12.0542L129.634 12.0542L129.634 13.9775L131.557 13.9775Z" fill="#EBBA3C"/>
<path d="M121.941 13.9775L121.941 12.0542L120.018 12.0542L120.018 13.9775L121.941 13.9775Z" fill="#EBBA3C"/>
<path d="M117.133 13.9775L117.133 12.0542L115.209 12.0542L115.209 13.9775L117.133 13.9775Z" fill="#EBBA3C"/>
<path d="M153.193 11.5732L153.193 9.64995L151.27 9.64995L151.27 11.5732L153.193 11.5732Z" fill="#EBBA3C"/>
<path d="M145.98 11.5732L145.98 9.64995L144.057 9.64995L144.057 11.5732L145.98 11.5732Z" fill="#EBBA3C"/>
<path d="M141.174 11.5732L141.174 9.64995L139.25 9.64995L139.25 11.5732L141.174 11.5732Z" fill="#EBBA3C"/>
<path d="M136.365 11.5732L136.365 9.64995L134.442 9.64995L134.442 11.5732L136.365 11.5732Z" fill="#EBBA3C"/>
<path d="M129.152 11.5732L129.152 9.64995L127.229 9.64995L127.229 11.5732L129.152 11.5732Z" fill="#EBBA3C"/>
<path d="M124.342 11.5732L124.342 9.64995L122.418 9.64995L122.418 11.5732L124.342 11.5732Z" fill="#EBBA3C"/>
<path d="M148.385 9.16992L148.385 7.24695L146.461 7.24695L146.461 9.16992L148.385 9.16992Z" fill="#EBBA3C"/>
<path d="M143.576 9.16992L143.576 7.24695L141.653 7.24695L141.653 9.16992L143.576 9.16992Z" fill="#EBBA3C"/>
<path d="M133.961 9.16992L133.961 7.24695L132.038 7.24695L132.038 9.16992L133.961 9.16992Z" fill="#EBBA3C"/>
<path d="M124.342 9.16992L124.342 7.24695L122.418 7.24695L122.418 9.16992L124.342 9.16992Z" fill="#EBBA3C"/>
<path d="M119.537 9.16992L119.537 7.24695L117.614 7.24695L117.614 9.16992L119.537 9.16992Z" fill="#EBBA3C"/>
<path d="M150.789 6.76562L150.789 4.84233L148.866 4.84233L148.866 6.76562L150.789 6.76562Z" fill="#EBBA3C"/>
<path d="M138.77 6.76562L138.77 4.84233L136.846 4.84233L136.846 6.76562L138.77 6.76562Z" fill="#EBBA3C"/>
<path d="M129.152 6.76562L129.152 4.84233L127.229 4.84233L127.229 6.76562L129.152 6.76562Z" fill="#EBBA3C"/>
<path d="M117.133 6.76562L117.133 4.84233L115.209 4.84233L115.209 6.76562L117.133 6.76562Z" fill="#EBBA3C"/>
<path d="M143.576 4.36133L143.576 2.43803L141.653 2.43803L141.653 4.36133L143.576 4.36133Z" fill="#EBBA3C"/>
<path d="M133.961 4.36133L133.961 2.43803L132.038 2.43803L132.038 4.36133L133.961 4.36133Z" fill="#EBBA3C"/>
<path d="M119.537 4.36133L119.537 2.43803L117.614 2.43803L117.614 4.36133L119.537 4.36133Z" fill="#EBBA3C"/>
<mask id="mask6_550_50224" style="mask-type:luminance" maskUnits="userSpaceOnUse" x="146" y="0" width="3" height="2">
<path d="M148.41 1.97754L148.41 0.000674486L146.427 0.000674399L146.427 1.97754L148.41 1.97754Z" fill="white"/>
</mask>
<g mask="url(#mask6_550_50224)">
<path d="M148.385 1.95801L148.385 0.0347114L146.461 0.0347113L146.461 1.95801L148.385 1.95801Z" fill="#EBBA3C"/>
</g>
<mask id="mask7_550_50224" style="mask-type:luminance" maskUnits="userSpaceOnUse" x="124" y="0" width="3" height="2">
<path d="M126.766 1.97754L126.766 0.000674486L124.783 0.000674399L124.783 1.97754L126.766 1.97754Z" fill="white"/>
</mask>
<g mask="url(#mask7_550_50224)">
<path d="M126.746 1.95801L126.746 0.0347114L124.823 0.0347113L124.823 1.95801L126.746 1.95801Z" fill="#EBBA3C"/>
</g>
<path d="M191.594 35.6133L191.594 33.69L189.671 33.69L189.671 35.6133L191.594 35.6133Z" fill="#EBBA3C"/>
<path d="M189.189 35.6133L189.189 33.69L187.266 33.69L187.266 35.6133L189.189 35.6133Z" fill="#EBBA3C"/>
<path d="M186.785 35.6133L186.785 33.69L184.862 33.69L184.862 35.6133L186.785 35.6133Z" fill="#EBBA3C"/>
<path d="M184.381 35.6133L184.381 33.69L182.458 33.69L182.458 35.6133L184.381 35.6133Z" fill="#EBBA3C"/>
<path d="M181.977 35.6133L181.977 33.69L180.054 33.69L180.054 35.6133L181.977 35.6133Z" fill="#EBBA3C"/>
<path d="M179.574 35.6133L179.574 33.69L177.651 33.69L177.651 35.6133L179.574 35.6133Z" fill="#EBBA3C"/>
<path d="M177.17 35.6133L177.17 33.69L175.247 33.69L175.247 35.6133L177.17 35.6133Z" fill="#EBBA3C"/>
<path d="M174.766 35.6133L174.766 33.69L172.842 33.69L172.842 35.6133L174.766 35.6133Z" fill="#EBBA3C"/>
<path d="M169.957 35.6133L169.957 33.69L168.034 33.69L168.034 35.6133L169.957 35.6133Z" fill="#EBBA3C"/>
<path d="M167.553 35.6133L167.553 33.69L165.629 33.69L165.629 35.6133L167.553 35.6133Z" fill="#EBBA3C"/>
<path d="M165.146 35.6133L165.146 33.69L163.223 33.69L163.223 35.6133L165.146 35.6133Z" fill="#EBBA3C"/>
<path d="M162.746 35.6133L162.746 33.69L160.823 33.69L160.823 35.6133L162.746 35.6133Z" fill="#EBBA3C"/>
<path d="M160.342 35.6133L160.342 33.69L158.419 33.69L158.419 35.6133L160.342 35.6133Z" fill="#EBBA3C"/>
<path d="M155.533 35.6133L155.533 33.69L153.61 33.69L153.61 35.6133L155.533 35.6133Z" fill="#EBBA3C"/>
<path d="M191.594 33.2109L191.594 31.288L189.671 31.288L189.671 33.2109L191.594 33.2109Z" fill="#EBBA3C"/>
<path d="M189.189 33.2109L189.189 31.288L187.266 31.288L187.266 33.2109L189.189 33.2109Z" fill="#EBBA3C"/>
<path d="M186.785 33.2109L186.785 31.288L184.862 31.288L184.862 33.2109L186.785 33.2109Z" fill="#EBBA3C"/>
<path d="M184.381 33.2109L184.381 31.288L182.458 31.288L182.458 33.2109L184.381 33.2109Z" fill="#EBBA3C"/>
<path d="M179.574 33.2109L179.574 31.288L177.651 31.288L177.651 33.2109L179.574 33.2109Z" fill="#EBBA3C"/>
<path d="M177.17 33.2109L177.17 31.288L175.247 31.288L175.247 33.2109L177.17 33.2109Z" fill="#EBBA3C"/>
<path d="M172.361 33.2109L172.361 31.288L170.438 31.288L170.438 33.2109L172.361 33.2109Z" fill="#EBBA3C"/>
<path d="M169.957 33.2109L169.957 31.288L168.034 31.288L168.034 33.2109L169.957 33.2109Z" fill="#EBBA3C"/>
<path d="M167.553 33.2109L167.553 31.288L165.629 31.288L165.629 33.2109L167.553 33.2109Z" fill="#EBBA3C"/>
<path d="M165.146 33.2109L165.146 31.288L163.223 31.288L163.223 33.2109L165.146 33.2109Z" fill="#EBBA3C"/>
<path d="M160.342 33.2109L160.342 31.288L158.419 31.288L158.419 33.2109L160.342 33.2109Z" fill="#EBBA3C"/>
<path d="M157.938 33.2109L157.938 31.288L156.014 31.288L156.014 33.2109L157.938 33.2109Z" fill="#EBBA3C"/>
<path d="M155.533 33.2109L155.533 31.288L153.61 31.288L153.61 33.2109L155.533 33.2109Z" fill="#EBBA3C"/>
<path d="M191.594 30.8066L191.594 28.8837L189.671 28.8837L189.671 30.8066L191.594 30.8066Z" fill="#EBBA3C"/>
<path d="M186.785 30.8066L186.785 28.8837L184.862 28.8837L184.862 30.8066L186.785 30.8066Z" fill="#EBBA3C"/>
<path d="M184.381 30.8066L184.381 28.8837L182.458 28.8837L182.458 30.8066L184.381 30.8066Z" fill="#EBBA3C"/>
<path d="M181.977 30.8066L181.977 28.8837L180.054 28.8837L180.054 30.8066L181.977 30.8066Z" fill="#EBBA3C"/>
<path d="M177.17 30.8066L177.17 28.8837L175.247 28.8837L175.247 30.8066L177.17 30.8066Z" fill="#EBBA3C"/>
<path d="M174.766 30.8066L174.766 28.8837L172.842 28.8837L172.842 30.8066L174.766 30.8066Z" fill="#EBBA3C"/>
<path d="M172.361 30.8066L172.361 28.8837L170.438 28.8837L170.438 30.8066L172.361 30.8066Z" fill="#EBBA3C"/>
<path d="M169.957 30.8066L169.957 28.8837L168.034 28.8837L168.034 30.8066L169.957 30.8066Z" fill="#EBBA3C"/>
<path d="M165.146 30.8066L165.146 28.8837L163.223 28.8837L163.223 30.8066L165.146 30.8066Z" fill="#EBBA3C"/>
<path d="M162.746 30.8066L162.746 28.8837L160.823 28.8837L160.823 30.8066L162.746 30.8066Z" fill="#EBBA3C"/>
<path d="M157.938 30.8066L157.938 28.8837L156.014 28.8837L156.014 30.8066L157.938 30.8066Z" fill="#EBBA3C"/>
<path d="M155.533 30.8066L155.533 28.8837L153.61 28.8837L153.61 30.8066L155.533 30.8066Z" fill="#EBBA3C"/>
<path d="M191.594 28.4014L191.594 26.4781L189.671 26.4781L189.671 28.4014L191.594 28.4014Z" fill="#EBBA3C"/>
<path d="M189.189 28.4014L189.189 26.4781L187.266 26.4781L187.266 28.4014L189.189 28.4014Z" fill="#EBBA3C"/>
<path d="M184.381 28.4014L184.381 26.4781L182.458 26.4781L182.458 28.4014L184.381 28.4014Z" fill="#EBBA3C"/>
<path d="M179.574 28.4014L179.574 26.4781L177.651 26.4781L177.651 28.4014L179.574 28.4014Z" fill="#EBBA3C"/>
<path d="M174.766 28.4014L174.766 26.4781L172.842 26.4781L172.842 28.4014L174.766 28.4014Z" fill="#EBBA3C"/>
<path d="M172.361 28.4014L172.361 26.4781L170.438 26.4781L170.438 28.4014L172.361 28.4014Z" fill="#EBBA3C"/>
<path d="M169.957 28.4014L169.957 26.4781L168.034 26.4781L168.034 28.4014L169.957 28.4014Z" fill="#EBBA3C"/>
<path d="M167.553 28.4014L167.553 26.4781L165.629 26.4781L165.629 28.4014L167.553 28.4014Z" fill="#EBBA3C"/>
<path d="M162.746 28.4014L162.746 26.4781L160.823 26.4781L160.823 28.4014L162.746 28.4014Z" fill="#EBBA3C"/>
<path d="M160.342 28.4014L160.342 26.4781L158.419 26.4781L158.419 28.4014L160.342 28.4014Z" fill="#EBBA3C"/>
<path d="M157.938 28.4014L157.938 26.4781L156.014 26.4781L156.014 28.4014L157.938 28.4014Z" fill="#EBBA3C"/>
<path d="M186.785 25.9971L186.785 24.0738L184.862 24.0738L184.862 25.9971L186.785 25.9971Z" fill="#EBBA3C"/>
<path d="M181.977 25.9971L181.977 24.0738L180.054 24.0738L180.054 25.9971L181.977 25.9971Z" fill="#EBBA3C"/>
<path d="M179.574 25.9971L179.574 24.0738L177.651 24.0738L177.651 25.9971L179.574 25.9971Z" fill="#EBBA3C"/>
<path d="M177.17 25.9971L177.17 24.0738L175.247 24.0738L175.247 25.9971L177.17 25.9971Z" fill="#EBBA3C"/>
<path d="M174.766 25.9971L174.766 24.0738L172.842 24.0738L172.842 25.9971L174.766 25.9971Z" fill="#EBBA3C"/>
<path d="M169.957 25.9971L169.957 24.0738L168.034 24.0738L168.034 25.9971L169.957 25.9971Z" fill="#EBBA3C"/>
<path d="M167.553 25.9971L167.553 24.0738L165.629 24.0738L165.629 25.9971L167.553 25.9971Z" fill="#EBBA3C"/>
<path d="M162.746 25.9971L162.746 24.0738L160.823 24.0738L160.823 25.9971L162.746 25.9971Z" fill="#EBBA3C"/>
<path d="M160.342 25.9971L160.342 24.0738L158.419 24.0738L158.419 25.9971L160.342 25.9971Z" fill="#EBBA3C"/>
<path d="M155.533 25.9971L155.533 24.0738L153.61 24.0738L153.61 25.9971L155.533 25.9971Z" fill="#EBBA3C"/>
<path d="M191.594 23.5947L191.594 21.6714L189.671 21.6714L189.671 23.5947L191.594 23.5947Z" fill="#EBBA3C"/>
<path d="M189.189 23.5947L189.189 21.6714L187.266 21.6714L187.266 23.5947L189.189 23.5947Z" fill="#EBBA3C"/>
<path d="M184.381 23.5947L184.381 21.6714L182.458 21.6714L182.458 23.5947L184.381 23.5947Z" fill="#EBBA3C"/>
<path d="M181.977 23.5947L181.977 21.6714L180.054 21.6714L180.054 23.5947L181.977 23.5947Z" fill="#EBBA3C"/>
<path d="M179.574 23.5947L179.574 21.6714L177.651 21.6714L177.651 23.5947L179.574 23.5947Z" fill="#EBBA3C"/>
<path d="M174.766 23.5947L174.766 21.6714L172.842 21.6714L172.842 23.5947L174.766 23.5947Z" fill="#EBBA3C"/>
<path d="M172.361 23.5947L172.361 21.6714L170.438 21.6714L170.438 23.5947L172.361 23.5947Z" fill="#EBBA3C"/>
<path d="M162.742 23.5947L162.742 21.6714L160.819 21.6714L160.819 23.5947L162.742 23.5947Z" fill="#EBBA3C"/>
<path d="M157.938 23.5947L157.938 21.6714L156.014 21.6714L156.014 23.5947L157.938 23.5947Z" fill="#EBBA3C"/>
<path d="M155.533 23.5947L155.533 21.6714L153.61 21.6714L153.61 23.5947L155.533 23.5947Z" fill="#EBBA3C"/>
<path d="M191.594 21.1895L191.594 19.2662L189.671 19.2662L189.671 21.1895L191.594 21.1895Z" fill="#EBBA3C"/>
<path d="M189.189 21.1895L189.189 19.2662L187.266 19.2662L187.266 21.1895L189.189 21.1895Z" fill="#EBBA3C"/>
<path d="M186.785 21.1895L186.785 19.2662L184.862 19.2662L184.862 21.1895L186.785 21.1895Z" fill="#EBBA3C"/>
<path d="M179.574 21.1895L179.574 19.2662L177.651 19.2662L177.651 21.1895L179.574 21.1895Z" fill="#EBBA3C"/>
<path d="M177.17 21.1895L177.17 19.2662L175.247 19.2662L175.247 21.1895L177.17 21.1895Z" fill="#EBBA3C"/>
<path d="M167.553 21.1895L167.553 19.2662L165.629 19.2662L165.629 21.1895L167.553 21.1895Z" fill="#EBBA3C"/>
<path d="M165.146 21.1895L165.146 19.2662L163.223 19.2662L163.223 21.1895L165.146 21.1895Z" fill="#EBBA3C"/>
<path d="M160.342 21.1895L160.342 19.2662L158.419 19.2662L158.419 21.1895L160.342 21.1895Z" fill="#EBBA3C"/>
<path d="M155.533 21.1895L155.533 19.2662L153.61 19.2662L153.61 21.1895L155.533 21.1895Z" fill="#EBBA3C"/>
<path d="M189.189 18.7852L189.189 16.8619L187.266 16.8619L187.266 18.7852L189.189 18.7852Z" fill="#EBBA3C"/>
<path d="M184.381 18.7852L184.381 16.8619L182.458 16.8619L182.458 18.7852L184.381 18.7852Z" fill="#EBBA3C"/>
<path d="M181.977 18.7852L181.977 16.8619L180.054 16.8619L180.054 18.7852L181.977 18.7852Z" fill="#EBBA3C"/>
<path d="M174.766 18.7852L174.766 16.8619L172.842 16.8619L172.842 18.7852L174.766 18.7852Z" fill="#EBBA3C"/>
<path d="M169.957 18.7852L169.957 16.8619L168.034 16.8619L168.034 18.7852L169.957 18.7852Z" fill="#EBBA3C"/>
<path d="M165.146 18.7852L165.146 16.8619L163.223 16.8619L163.223 18.7852L165.146 18.7852Z" fill="#EBBA3C"/>
<path d="M162.742 18.7852L162.742 16.8619L160.819 16.8619L160.819 18.7852L162.742 18.7852Z" fill="#EBBA3C"/>
<path d="M157.938 18.7852L157.938 16.8619L156.014 16.8619L156.014 18.7852L157.938 18.7852Z" fill="#EBBA3C"/>
<path d="M191.594 16.3818L191.594 14.4585L189.671 14.4585L189.671 16.3818L191.594 16.3818Z" fill="#EBBA3C"/>
<path d="M179.574 16.3818L179.574 14.4585L177.651 14.4585L177.651 16.3818L179.574 16.3818Z" fill="#EBBA3C"/>
<path d="M177.17 16.3818L177.17 14.4585L175.247 14.4585L175.247 16.3818L177.17 16.3818Z" fill="#EBBA3C"/>
<path d="M172.361 16.3818L172.361 14.4585L170.438 14.4585L170.438 16.3818L172.361 16.3818Z" fill="#EBBA3C"/>
<path d="M167.553 16.3818L167.553 14.4585L165.629 14.4585L165.629 16.3818L167.553 16.3818Z" fill="#EBBA3C"/>
<path d="M160.342 16.3818L160.342 14.4585L158.419 14.4585L158.419 16.3818L160.342 16.3818Z" fill="#EBBA3C"/>
<path d="M157.938 16.3818L157.938 14.4585L156.014 14.4585L156.014 16.3818L157.938 16.3818Z" fill="#EBBA3C"/>
<path d="M155.533 16.3818L155.533 14.4585L153.61 14.4585L153.61 16.3818L155.533 16.3818Z" fill="#EBBA3C"/>
<path d="M189.189 13.9775L189.189 12.0542L187.266 12.0542L187.266 13.9775L189.189 13.9775Z" fill="#EBBA3C"/>
<path d="M186.785 13.9775L186.785 12.0542L184.862 12.0542L184.862 13.9775L186.785 13.9775Z" fill="#EBBA3C"/>
<path d="M181.977 13.9775L181.977 12.0542L180.054 12.0542L180.054 13.9775L181.977 13.9775Z" fill="#EBBA3C"/>
<path d="M174.766 13.9775L174.766 12.0542L172.842 12.0542L172.842 13.9775L174.766 13.9775Z" fill="#EBBA3C"/>
<path d="M169.957 13.9775L169.957 12.0542L168.034 12.0542L168.034 13.9775L169.957 13.9775Z" fill="#EBBA3C"/>
<path d="M160.342 13.9775L160.342 12.0542L158.419 12.0542L158.419 13.9775L160.342 13.9775Z" fill="#EBBA3C"/>
<path d="M155.533 13.9775L155.533 12.0542L153.61 12.0542L153.61 13.9775L155.533 13.9775Z" fill="#EBBA3C"/>
<path d="M191.594 11.5732L191.594 9.64995L189.671 9.64995L189.671 11.5732L191.594 11.5732Z" fill="#EBBA3C"/>
<path d="M184.381 11.5732L184.381 9.64995L182.458 9.64995L182.458 11.5732L184.381 11.5732Z" fill="#EBBA3C"/>
<path d="M179.574 11.5732L179.574 9.64995L177.651 9.64995L177.651 11.5732L179.574 11.5732Z" fill="#EBBA3C"/>
<path d="M174.766 11.5732L174.766 9.64995L172.842 9.64995L172.842 11.5732L174.766 11.5732Z" fill="#EBBA3C"/>
<path d="M167.553 11.5732L167.553 9.64995L165.629 9.64995L165.629 11.5732L167.553 11.5732Z" fill="#EBBA3C"/>
<path d="M162.742 11.5732L162.742 9.64995L160.819 9.64995L160.819 11.5732L162.742 11.5732Z" fill="#EBBA3C"/>
<path d="M186.785 9.16992L186.785 7.24695L184.862 7.24695L184.862 9.16992L186.785 9.16992Z" fill="#EBBA3C"/>
<path d="M181.977 9.16992L181.977 7.24695L180.054 7.24695L180.054 9.16992L181.977 9.16992Z" fill="#EBBA3C"/>
<path d="M172.361 9.16992L172.361 7.24695L170.438 7.24695L170.438 9.16992L172.361 9.16992Z" fill="#EBBA3C"/>
<path d="M162.742 9.16992L162.742 7.24695L160.819 7.24695L160.819 9.16992L162.742 9.16992Z" fill="#EBBA3C"/>
<path d="M157.938 9.16992L157.938 7.24695L156.014 7.24695L156.014 9.16992L157.938 9.16992Z" fill="#EBBA3C"/>
<path d="M189.189 6.76562L189.189 4.84233L187.266 4.84233L187.266 6.76562L189.189 6.76562Z" fill="#EBBA3C"/>
<path d="M177.17 6.76562L177.17 4.84233L175.247 4.84233L175.247 6.76562L177.17 6.76562Z" fill="#EBBA3C"/>
<path d="M167.553 6.76562L167.553 4.84233L165.629 4.84233L165.629 6.76562L167.553 6.76562Z" fill="#EBBA3C"/>
<path d="M155.533 6.76562L155.533 4.84233L153.61 4.84233L153.61 6.76562L155.533 6.76562Z" fill="#EBBA3C"/>
<path d="M181.977 4.36133L181.977 2.43803L180.054 2.43803L180.054 4.36133L181.977 4.36133Z" fill="#EBBA3C"/>
<path d="M172.361 4.36133L172.361 2.43803L170.438 2.43803L170.438 4.36133L172.361 4.36133Z" fill="#EBBA3C"/>
<path d="M157.938 4.36133L157.938 2.43803L156.014 2.43803L156.014 4.36133L157.938 4.36133Z" fill="#EBBA3C"/>
<mask id="mask8_550_50224" style="mask-type:luminance" maskUnits="userSpaceOnUse" x="184" y="0" width="3" height="2">
<path d="M186.811 1.97754L186.811 0.000674486L184.828 0.000674399L184.828 1.97754L186.811 1.97754Z" fill="white"/>
</mask>
<g mask="url(#mask8_550_50224)">
<path d="M186.785 1.95801L186.785 0.0347114L184.862 0.0347113L184.862 1.95801L186.785 1.95801Z" fill="#EBBA3C"/>
</g>
<mask id="mask9_550_50224" style="mask-type:luminance" maskUnits="userSpaceOnUse" x="163" y="0" width="3" height="2">
<path d="M165.166 1.97754L165.166 0.000674486L163.183 0.000674399L163.183 1.97754L165.166 1.97754Z" fill="white"/>
</mask>
<g mask="url(#mask9_550_50224)">
<path d="M165.146 1.95801L165.146 0.0347114L163.223 0.0347113L163.223 1.95801L165.146 1.95801Z" fill="#EBBA3C"/>
</g>
<path d="M229.994 35.6133L229.994 33.69L228.071 33.69L228.071 35.6133L229.994 35.6133Z" fill="#EBBA3C"/>
<path d="M227.59 35.6133L227.59 33.69L225.666 33.69L225.666 35.6133L227.59 35.6133Z" fill="#EBBA3C"/>
<path d="M225.186 35.6133L225.186 33.69L223.262 33.69L223.262 35.6133L225.186 35.6133Z" fill="#EBBA3C"/>
<path d="M222.781 35.6133L222.781 33.69L220.858 33.69L220.858 35.6133L222.781 35.6133Z" fill="#EBBA3C"/>
<path d="M220.377 35.6133L220.377 33.69L218.454 33.69L218.454 35.6133L220.377 35.6133Z" fill="#EBBA3C"/>
<path d="M217.975 35.6133L217.975 33.69L216.051 33.69L216.051 35.6133L217.975 35.6133Z" fill="#EBBA3C"/>
<path d="M215.57 35.6133L215.57 33.69L213.647 33.69L213.647 35.6133L215.57 35.6133Z" fill="#EBBA3C"/>
<path d="M213.166 35.6133L213.166 33.69L211.243 33.69L211.243 35.6133L213.166 35.6133Z" fill="#EBBA3C"/>
<path d="M208.357 35.6133L208.357 33.69L206.434 33.69L206.434 35.6133L208.357 35.6133Z" fill="#EBBA3C"/>
<path d="M205.953 35.6133L205.953 33.69L204.03 33.69L204.03 35.6133L205.953 35.6133Z" fill="#EBBA3C"/>
<path d="M203.547 35.6133L203.547 33.69L201.624 33.69L201.624 35.6133L203.547 35.6133Z" fill="#EBBA3C"/>
<path d="M201.146 35.6133L201.146 33.69L199.223 33.69L199.223 35.6133L201.146 35.6133Z" fill="#EBBA3C"/>
<path d="M198.742 35.6133L198.742 33.69L196.819 33.69L196.819 35.6133L198.742 35.6133Z" fill="#EBBA3C"/>
<path d="M193.934 35.6133L193.934 33.69L192.01 33.69L192.01 35.6133L193.934 35.6133Z" fill="#EBBA3C"/>
<path d="M229.994 33.2109L229.994 31.288L228.071 31.288L228.071 33.2109L229.994 33.2109Z" fill="#EBBA3C"/>
<path d="M227.59 33.2109L227.59 31.288L225.666 31.288L225.666 33.2109L227.59 33.2109Z" fill="#EBBA3C"/>
<path d="M225.186 33.2109L225.186 31.288L223.262 31.288L223.262 33.2109L225.186 33.2109Z" fill="#EBBA3C"/>
<path d="M222.781 33.2109L222.781 31.288L220.858 31.288L220.858 33.2109L222.781 33.2109Z" fill="#EBBA3C"/>
<path d="M217.975 33.2109L217.975 31.288L216.051 31.288L216.051 33.2109L217.975 33.2109Z" fill="#EBBA3C"/>
<path d="M215.57 33.2109L215.57 31.288L213.647 31.288L213.647 33.2109L215.57 33.2109Z" fill="#EBBA3C"/>
<path d="M210.762 33.2109L210.762 31.288L208.838 31.288L208.838 33.2109L210.762 33.2109Z" fill="#EBBA3C"/>
<path d="M208.357 33.2109L208.357 31.288L206.434 31.288L206.434 33.2109L208.357 33.2109Z" fill="#EBBA3C"/>
<path d="M205.953 33.2109L205.953 31.288L204.03 31.288L204.03 33.2109L205.953 33.2109Z" fill="#EBBA3C"/>
<path d="M203.547 33.2109L203.547 31.288L201.624 31.288L201.624 33.2109L203.547 33.2109Z" fill="#EBBA3C"/>
<path d="M198.742 33.2109L198.742 31.288L196.819 31.288L196.819 33.2109L198.742 33.2109Z" fill="#EBBA3C"/>
<path d="M196.338 33.2109L196.338 31.288L194.415 31.288L194.415 33.2109L196.338 33.2109Z" fill="#EBBA3C"/>
<path d="M193.934 33.2109L193.934 31.288L192.01 31.288L192.01 33.2109L193.934 33.2109Z" fill="#EBBA3C"/>
<path d="M229.994 30.8066L229.994 28.8837L228.071 28.8837L228.071 30.8066L229.994 30.8066Z" fill="#EBBA3C"/>
<path d="M225.186 30.8066L225.186 28.8837L223.262 28.8837L223.262 30.8066L225.186 30.8066Z" fill="#EBBA3C"/>
<path d="M222.781 30.8066L222.781 28.8837L220.858 28.8837L220.858 30.8066L222.781 30.8066Z" fill="#EBBA3C"/>
<path d="M220.377 30.8066L220.377 28.8837L218.454 28.8837L218.454 30.8066L220.377 30.8066Z" fill="#EBBA3C"/>
<path d="M215.57 30.8066L215.57 28.8837L213.647 28.8837L213.647 30.8066L215.57 30.8066Z" fill="#EBBA3C"/>
<path d="M213.166 30.8066L213.166 28.8837L211.243 28.8837L211.243 30.8066L213.166 30.8066Z" fill="#EBBA3C"/>
<path d="M210.762 30.8066L210.762 28.8837L208.838 28.8837L208.838 30.8066L210.762 30.8066Z" fill="#EBBA3C"/>
<path d="M208.357 30.8066L208.357 28.8837L206.434 28.8837L206.434 30.8066L208.357 30.8066Z" fill="#EBBA3C"/>
<path d="M203.547 30.8066L203.547 28.8837L201.624 28.8837L201.624 30.8066L203.547 30.8066Z" fill="#EBBA3C"/>
<path d="M201.146 30.8066L201.146 28.8837L199.223 28.8837L199.223 30.8066L201.146 30.8066Z" fill="#EBBA3C"/>
<path d="M196.338 30.8066L196.338 28.8837L194.415 28.8837L194.415 30.8066L196.338 30.8066Z" fill="#EBBA3C"/>
<path d="M193.934 30.8066L193.934 28.8837L192.01 28.8837L192.01 30.8066L193.934 30.8066Z" fill="#EBBA3C"/>
<path d="M229.994 28.4014L229.994 26.4781L228.071 26.4781L228.071 28.4014L229.994 28.4014Z" fill="#EBBA3C"/>
<path d="M227.59 28.4014L227.59 26.4781L225.666 26.4781L225.666 28.4014L227.59 28.4014Z" fill="#EBBA3C"/>
<path d="M222.781 28.4014L222.781 26.4781L220.858 26.4781L220.858 28.4014L222.781 28.4014Z" fill="#EBBA3C"/>
<path d="M217.975 28.4014L217.975 26.4781L216.051 26.4781L216.051 28.4014L217.975 28.4014Z" fill="#EBBA3C"/>
<path d="M213.166 28.4014L213.166 26.4781L211.243 26.4781L211.243 28.4014L213.166 28.4014Z" fill="#EBBA3C"/>
<path d="M210.762 28.4014L210.762 26.4781L208.838 26.4781L208.838 28.4014L210.762 28.4014Z" fill="#EBBA3C"/>
<path d="M208.357 28.4014L208.357 26.4781L206.434 26.4781L206.434 28.4014L208.357 28.4014Z" fill="#EBBA3C"/>
<path d="M205.953 28.4014L205.953 26.4781L204.03 26.4781L204.03 28.4014L205.953 28.4014Z" fill="#EBBA3C"/>
<path d="M201.146 28.4014L201.146 26.4781L199.223 26.4781L199.223 28.4014L201.146 28.4014Z" fill="#EBBA3C"/>
<path d="M198.742 28.4014L198.742 26.4781L196.819 26.4781L196.819 28.4014L198.742 28.4014Z" fill="#EBBA3C"/>
<path d="M196.338 28.4014L196.338 26.4781L194.415 26.4781L194.415 28.4014L196.338 28.4014Z" fill="#EBBA3C"/>
<path d="M225.186 25.9971L225.186 24.0738L223.262 24.0738L223.262 25.9971L225.186 25.9971Z" fill="#EBBA3C"/>
<path d="M220.377 25.9971L220.377 24.0738L218.454 24.0738L218.454 25.9971L220.377 25.9971Z" fill="#EBBA3C"/>
<path d="M217.975 25.9971L217.975 24.0738L216.051 24.0738L216.051 25.9971L217.975 25.9971Z" fill="#EBBA3C"/>
<path d="M215.57 25.9971L215.57 24.0738L213.647 24.0738L213.647 25.9971L215.57 25.9971Z" fill="#EBBA3C"/>
<path d="M213.166 25.9971L213.166 24.0738L211.243 24.0738L211.243 25.9971L213.166 25.9971Z" fill="#EBBA3C"/>
<path d="M208.357 25.9971L208.357 24.0738L206.434 24.0738L206.434 25.9971L208.357 25.9971Z" fill="#EBBA3C"/>
<path d="M205.953 25.9971L205.953 24.0738L204.03 24.0738L204.03 25.9971L205.953 25.9971Z" fill="#EBBA3C"/>
<path d="M201.146 25.9971L201.146 24.0738L199.223 24.0738L199.223 25.9971L201.146 25.9971Z" fill="#EBBA3C"/>
<path d="M198.742 25.9971L198.742 24.0738L196.819 24.0738L196.819 25.9971L198.742 25.9971Z" fill="#EBBA3C"/>
<path d="M193.934 25.9971L193.934 24.0738L192.01 24.0738L192.01 25.9971L193.934 25.9971Z" fill="#EBBA3C"/>
<path d="M229.994 23.5947L229.994 21.6714L228.071 21.6714L228.071 23.5947L229.994 23.5947Z" fill="#EBBA3C"/>
<path d="M227.59 23.5947L227.59 21.6714L225.666 21.6714L225.666 23.5947L227.59 23.5947Z" fill="#EBBA3C"/>
<path d="M222.781 23.5947L222.781 21.6714L220.858 21.6714L220.858 23.5947L222.781 23.5947Z" fill="#EBBA3C"/>
<path d="M220.377 23.5947L220.377 21.6714L218.454 21.6714L218.454 23.5947L220.377 23.5947Z" fill="#EBBA3C"/>
<path d="M217.975 23.5947L217.975 21.6714L216.051 21.6714L216.051 23.5947L217.975 23.5947Z" fill="#EBBA3C"/>
<path d="M213.166 23.5947L213.166 21.6714L211.243 21.6714L211.243 23.5947L213.166 23.5947Z" fill="#EBBA3C"/>
<path d="M210.762 23.5947L210.762 21.6714L208.838 21.6714L208.838 23.5947L210.762 23.5947Z" fill="#EBBA3C"/>
<path d="M201.143 23.5947L201.143 21.6714L199.219 21.6714L199.219 23.5947L201.143 23.5947Z" fill="#EBBA3C"/>
<path d="M196.338 23.5947L196.338 21.6714L194.415 21.6714L194.415 23.5947L196.338 23.5947Z" fill="#EBBA3C"/>
<path d="M193.934 23.5947L193.934 21.6714L192.01 21.6714L192.01 23.5947L193.934 23.5947Z" fill="#EBBA3C"/>
<path d="M229.994 21.1895L229.994 19.2662L228.071 19.2662L228.071 21.1895L229.994 21.1895Z" fill="#EBBA3C"/>
<path d="M227.59 21.1895L227.59 19.2662L225.666 19.2662L225.666 21.1895L227.59 21.1895Z" fill="#EBBA3C"/>
<path d="M225.186 21.1895L225.186 19.2662L223.262 19.2662L223.262 21.1895L225.186 21.1895Z" fill="#EBBA3C"/>
<path d="M217.975 21.1895L217.975 19.2662L216.051 19.2662L216.051 21.1895L217.975 21.1895Z" fill="#EBBA3C"/>
<path d="M215.57 21.1895L215.57 19.2662L213.647 19.2662L213.647 21.1895L215.57 21.1895Z" fill="#EBBA3C"/>
<path d="M205.953 21.1895L205.953 19.2662L204.03 19.2662L204.03 21.1895L205.953 21.1895Z" fill="#EBBA3C"/>
<path d="M203.547 21.1895L203.547 19.2662L201.624 19.2662L201.624 21.1895L203.547 21.1895Z" fill="#EBBA3C"/>
<path d="M198.742 21.1895L198.742 19.2662L196.819 19.2662L196.819 21.1895L198.742 21.1895Z" fill="#EBBA3C"/>
<path d="M193.934 21.1895L193.934 19.2662L192.01 19.2662L192.01 21.1895L193.934 21.1895Z" fill="#EBBA3C"/>
<path d="M227.59 18.7852L227.59 16.8619L225.666 16.8619L225.666 18.7852L227.59 18.7852Z" fill="#EBBA3C"/>
<path d="M222.781 18.7852L222.781 16.8619L220.858 16.8619L220.858 18.7852L222.781 18.7852Z" fill="#EBBA3C"/>
<path d="M220.377 18.7852L220.377 16.8619L218.454 16.8619L218.454 18.7852L220.377 18.7852Z" fill="#EBBA3C"/>
<path d="M213.166 18.7852L213.166 16.8619L211.243 16.8619L211.243 18.7852L213.166 18.7852Z" fill="#EBBA3C"/>
<path d="M208.357 18.7852L208.357 16.8619L206.434 16.8619L206.434 18.7852L208.357 18.7852Z" fill="#EBBA3C"/>
<path d="M203.547 18.7852L203.547 16.8619L201.624 16.8619L201.624 18.7852L203.547 18.7852Z" fill="#EBBA3C"/>
<path d="M201.143 18.7852L201.143 16.8619L199.219 16.8619L199.219 18.7852L201.143 18.7852Z" fill="#EBBA3C"/>
<path d="M196.338 18.7852L196.338 16.8619L194.415 16.8619L194.415 18.7852L196.338 18.7852Z" fill="#EBBA3C"/>
<path d="M229.994 16.3818L229.994 14.4585L228.071 14.4585L228.071 16.3818L229.994 16.3818Z" fill="#EBBA3C"/>
<path d="M217.975 16.3818L217.975 14.4585L216.051 14.4585L216.051 16.3818L217.975 16.3818Z" fill="#EBBA3C"/>
<path d="M215.57 16.3818L215.57 14.4585L213.647 14.4585L213.647 16.3818L215.57 16.3818Z" fill="#EBBA3C"/>
<path d="M210.762 16.3818L210.762 14.4585L208.838 14.4585L208.838 16.3818L210.762 16.3818Z" fill="#EBBA3C"/>
<path d="M205.953 16.3818L205.953 14.4585L204.03 14.4585L204.03 16.3818L205.953 16.3818Z" fill="#EBBA3C"/>
<path d="M198.742 16.3818L198.742 14.4585L196.819 14.4585L196.819 16.3818L198.742 16.3818Z" fill="#EBBA3C"/>
<path d="M196.338 16.3818L196.338 14.4585L194.415 14.4585L194.415 16.3818L196.338 16.3818Z" fill="#EBBA3C"/>
<path d="M193.934 16.3818L193.934 14.4585L192.01 14.4585L192.01 16.3818L193.934 16.3818Z" fill="#EBBA3C"/>
<path d="M227.59 13.9775L227.59 12.0542L225.666 12.0542L225.666 13.9775L227.59 13.9775Z" fill="#EBBA3C"/>
<path d="M225.186 13.9775L225.186 12.0542L223.262 12.0542L223.262 13.9775L225.186 13.9775Z" fill="#EBBA3C"/>
<path d="M220.377 13.9775L220.377 12.0542L218.454 12.0542L218.454 13.9775L220.377 13.9775Z" fill="#EBBA3C"/>
<path d="M213.166 13.9775L213.166 12.0542L211.243 12.0542L211.243 13.9775L213.166 13.9775Z" fill="#EBBA3C"/>
<path d="M208.357 13.9775L208.357 12.0542L206.434 12.0542L206.434 13.9775L208.357 13.9775Z" fill="#EBBA3C"/>
<path d="M198.742 13.9775L198.742 12.0542L196.819 12.0542L196.819 13.9775L198.742 13.9775Z" fill="#EBBA3C"/>
<path d="M193.934 13.9775L193.934 12.0542L192.01 12.0542L192.01 13.9775L193.934 13.9775Z" fill="#EBBA3C"/>
<path d="M229.994 11.5732L229.994 9.64995L228.071 9.64995L228.071 11.5732L229.994 11.5732Z" fill="#EBBA3C"/>
<path d="M222.781 11.5732L222.781 9.64995L220.858 9.64995L220.858 11.5732L222.781 11.5732Z" fill="#EBBA3C"/>
<path d="M217.975 11.5732L217.975 9.64995L216.051 9.64995L216.051 11.5732L217.975 11.5732Z" fill="#EBBA3C"/>
<path d="M213.166 11.5732L213.166 9.64995L211.243 9.64995L211.243 11.5732L213.166 11.5732Z" fill="#EBBA3C"/>
<path d="M205.953 11.5732L205.953 9.64995L204.03 9.64995L204.03 11.5732L205.953 11.5732Z" fill="#EBBA3C"/>
<path d="M201.143 11.5732L201.143 9.64995L199.219 9.64995L199.219 11.5732L201.143 11.5732Z" fill="#EBBA3C"/>
<path d="M225.186 9.16992L225.186 7.24695L223.262 7.24695L223.262 9.16992L225.186 9.16992Z" fill="#EBBA3C"/>
<path d="M220.377 9.16992L220.377 7.24695L218.454 7.24695L218.454 9.16992L220.377 9.16992Z" fill="#EBBA3C"/>
<path d="M210.762 9.16992L210.762 7.24695L208.838 7.24695L208.838 9.16992L210.762 9.16992Z" fill="#EBBA3C"/>
<path d="M201.143 9.16992L201.143 7.24695L199.219 7.24695L199.219 9.16992L201.143 9.16992Z" fill="#EBBA3C"/>
<path d="M196.338 9.16992L196.338 7.24695L194.415 7.24695L194.415 9.16992L196.338 9.16992Z" fill="#EBBA3C"/>
<path d="M227.59 6.76562L227.59 4.84233L225.666 4.84233L225.666 6.76562L227.59 6.76562Z" fill="#EBBA3C"/>
<path d="M215.57 6.76562L215.57 4.84233L213.647 4.84233L213.647 6.76562L215.57 6.76562Z" fill="#EBBA3C"/>
<path d="M205.953 6.76562L205.953 4.84233L204.03 4.84233L204.03 6.76562L205.953 6.76562Z" fill="#EBBA3C"/>
<path d="M193.934 6.76562L193.934 4.84233L192.01 4.84233L192.01 6.76562L193.934 6.76562Z" fill="#EBBA3C"/>
<path d="M220.377 4.36133L220.377 2.43803L218.454 2.43803L218.454 4.36133L220.377 4.36133Z" fill="#EBBA3C"/>
<path d="M210.762 4.36133L210.762 2.43803L208.838 2.43803L208.838 4.36133L210.762 4.36133Z" fill="#EBBA3C"/>
<path d="M196.338 4.36133L196.338 2.43803L194.415 2.43803L194.415 4.36133L196.338 4.36133Z" fill="#EBBA3C"/>
<mask id="mask10_550_50224" style="mask-type:luminance" maskUnits="userSpaceOnUse" x="223" y="0" width="3" height="2">
<path d="M225.211 1.97754L225.211 0.000674486L223.228 0.000674399L223.228 1.97754L225.211 1.97754Z" fill="white"/>
</mask>
<g mask="url(#mask10_550_50224)">
<path d="M225.186 1.95801L225.186 0.0347114L223.262 0.0347113L223.262 1.95801L225.186 1.95801Z" fill="#EBBA3C"/>
</g>
<mask id="mask11_550_50224" style="mask-type:luminance" maskUnits="userSpaceOnUse" x="201" y="0" width="3" height="2">
<path d="M203.566 1.97754L203.566 0.000674486L201.584 0.000674399L201.584 1.97754L203.566 1.97754Z" fill="white"/>
</mask>
<g mask="url(#mask11_550_50224)">
<path d="M203.547 1.95801L203.547 0.0347114L201.624 0.0347113L201.624 1.95801L203.547 1.95801Z" fill="#EBBA3C"/>
</g>
<path d="M268.395 35.6133L268.395 33.69L266.471 33.69L266.471 35.6133L268.395 35.6133Z" fill="#EBBA3C"/>
<path d="M265.99 35.6133L265.99 33.69L264.067 33.69L264.067 35.6133L265.99 35.6133Z" fill="#EBBA3C"/>
<path d="M263.586 35.6133L263.586 33.69L261.663 33.69L261.663 35.6133L263.586 35.6133Z" fill="#EBBA3C"/>
<path d="M261.182 35.6133L261.182 33.69L259.259 33.69L259.259 35.6133L261.182 35.6133Z" fill="#EBBA3C"/>
<path d="M258.777 35.6133L258.777 33.69L256.854 33.69L256.854 35.6133L258.777 35.6133Z" fill="#EBBA3C"/>
<path d="M256.375 35.6133L256.375 33.69L254.452 33.69L254.452 35.6133L256.375 35.6133Z" fill="#EBBA3C"/>
<path d="M253.971 35.6133L253.971 33.69L252.047 33.69L252.047 35.6133L253.971 35.6133Z" fill="#EBBA3C"/>
<path d="M251.566 35.6133L251.566 33.69L249.643 33.69L249.643 35.6133L251.566 35.6133Z" fill="#EBBA3C"/>
<path d="M246.758 35.6133L246.758 33.69L244.835 33.69L244.835 35.6133L246.758 35.6133Z" fill="#EBBA3C"/>
<path d="M244.354 35.6133L244.354 33.69L242.43 33.69L242.43 35.6133L244.354 35.6133Z" fill="#EBBA3C"/>
<path d="M241.947 35.6133L241.947 33.69L240.024 33.69L240.024 35.6133L241.947 35.6133Z" fill="#EBBA3C"/>
<path d="M239.547 35.6133L239.547 33.69L237.624 33.69L237.624 35.6133L239.547 35.6133Z" fill="#EBBA3C"/>
<path d="M237.143 35.6133L237.143 33.69L235.22 33.69L235.22 35.6133L237.143 35.6133Z" fill="#EBBA3C"/>
<path d="M232.334 35.6133L232.334 33.69L230.411 33.69L230.411 35.6133L232.334 35.6133Z" fill="#EBBA3C"/>
<path d="M268.395 33.2109L268.395 31.288L266.471 31.288L266.471 33.2109L268.395 33.2109Z" fill="#EBBA3C"/>
<path d="M265.99 33.2109L265.99 31.288L264.067 31.288L264.067 33.2109L265.99 33.2109Z" fill="#EBBA3C"/>
<path d="M263.586 33.2109L263.586 31.288L261.663 31.288L261.663 33.2109L263.586 33.2109Z" fill="#EBBA3C"/>
<path d="M261.182 33.2109L261.182 31.288L259.259 31.288L259.259 33.2109L261.182 33.2109Z" fill="#EBBA3C"/>
<path d="M256.375 33.2109L256.375 31.288L254.452 31.288L254.452 33.2109L256.375 33.2109Z" fill="#EBBA3C"/>
<path d="M253.971 33.2109L253.971 31.288L252.047 31.288L252.047 33.2109L253.971 33.2109Z" fill="#EBBA3C"/>
<path d="M249.162 33.2109L249.162 31.288L247.239 31.288L247.239 33.2109L249.162 33.2109Z" fill="#EBBA3C"/>
<path d="M246.758 33.2109L246.758 31.288L244.835 31.288L244.835 33.2109L246.758 33.2109Z" fill="#EBBA3C"/>
<path d="M244.354 33.2109L244.354 31.288L242.43 31.288L242.43 33.2109L244.354 33.2109Z" fill="#EBBA3C"/>
<path d="M241.947 33.2109L241.947 31.288L240.024 31.288L240.024 33.2109L241.947 33.2109Z" fill="#EBBA3C"/>
<path d="M237.143 33.2109L237.143 31.288L235.22 31.288L235.22 33.2109L237.143 33.2109Z" fill="#EBBA3C"/>
<path d="M234.738 33.2109L234.738 31.288L232.815 31.288L232.815 33.2109L234.738 33.2109Z" fill="#EBBA3C"/>
<path d="M232.334 33.2109L232.334 31.288L230.411 31.288L230.411 33.2109L232.334 33.2109Z" fill="#EBBA3C"/>
<path d="M268.395 30.8066L268.395 28.8837L266.471 28.8837L266.471 30.8066L268.395 30.8066Z" fill="#EBBA3C"/>
<path d="M263.586 30.8066L263.586 28.8837L261.663 28.8837L261.663 30.8066L263.586 30.8066Z" fill="#EBBA3C"/>
<path d="M261.182 30.8066L261.182 28.8837L259.259 28.8837L259.259 30.8066L261.182 30.8066Z" fill="#EBBA3C"/>
<path d="M258.777 30.8066L258.777 28.8837L256.854 28.8837L256.854 30.8066L258.777 30.8066Z" fill="#EBBA3C"/>
<path d="M253.971 30.8066L253.971 28.8837L252.047 28.8837L252.047 30.8066L253.971 30.8066Z" fill="#EBBA3C"/>
<path d="M251.566 30.8066L251.566 28.8837L249.643 28.8837L249.643 30.8066L251.566 30.8066Z" fill="#EBBA3C"/>
<path d="M249.162 30.8066L249.162 28.8837L247.239 28.8837L247.239 30.8066L249.162 30.8066Z" fill="#EBBA3C"/>
<path d="M246.758 30.8066L246.758 28.8837L244.835 28.8837L244.835 30.8066L246.758 30.8066Z" fill="#EBBA3C"/>
<path d="M241.947 30.8066L241.947 28.8837L240.024 28.8837L240.024 30.8066L241.947 30.8066Z" fill="#EBBA3C"/>
<path d="M239.547 30.8066L239.547 28.8837L237.624 28.8837L237.624 30.8066L239.547 30.8066Z" fill="#EBBA3C"/>
<path d="M234.738 30.8066L234.738 28.8837L232.815 28.8837L232.815 30.8066L234.738 30.8066Z" fill="#EBBA3C"/>
<path d="M232.334 30.8066L232.334 28.8837L230.411 28.8837L230.411 30.8066L232.334 30.8066Z" fill="#EBBA3C"/>
<path d="M268.395 28.4014L268.395 26.4781L266.471 26.4781L266.471 28.4014L268.395 28.4014Z" fill="#EBBA3C"/>
<path d="M265.99 28.4014L265.99 26.4781L264.067 26.4781L264.067 28.4014L265.99 28.4014Z" fill="#EBBA3C"/>
<path d="M261.182 28.4014L261.182 26.4781L259.259 26.4781L259.259 28.4014L261.182 28.4014Z" fill="#EBBA3C"/>
<path d="M256.375 28.4014L256.375 26.4781L254.452 26.4781L254.452 28.4014L256.375 28.4014Z" fill="#EBBA3C"/>
<path d="M251.566 28.4014L251.566 26.4781L249.643 26.4781L249.643 28.4014L251.566 28.4014Z" fill="#EBBA3C"/>
<path d="M249.162 28.4014L249.162 26.4781L247.239 26.4781L247.239 28.4014L249.162 28.4014Z" fill="#EBBA3C"/>
<path d="M246.758 28.4014L246.758 26.4781L244.835 26.4781L244.835 28.4014L246.758 28.4014Z" fill="#EBBA3C"/>
<path d="M244.354 28.4014L244.354 26.4781L242.43 26.4781L242.43 28.4014L244.354 28.4014Z" fill="#EBBA3C"/>
<path d="M239.547 28.4014L239.547 26.4781L237.624 26.4781L237.624 28.4014L239.547 28.4014Z" fill="#EBBA3C"/>
<path d="M237.143 28.4014L237.143 26.4781L235.22 26.4781L235.22 28.4014L237.143 28.4014Z" fill="#EBBA3C"/>
<path d="M234.738 28.4014L234.738 26.4781L232.815 26.4781L232.815 28.4014L234.738 28.4014Z" fill="#EBBA3C"/>
<path d="M263.586 25.9971L263.586 24.0738L261.663 24.0738L261.663 25.9971L263.586 25.9971Z" fill="#EBBA3C"/>
<path d="M258.777 25.9971L258.777 24.0738L256.854 24.0738L256.854 25.9971L258.777 25.9971Z" fill="#EBBA3C"/>
<path d="M256.375 25.9971L256.375 24.0738L254.452 24.0738L254.452 25.9971L256.375 25.9971Z" fill="#EBBA3C"/>
<path d="M253.971 25.9971L253.971 24.0738L252.047 24.0738L252.047 25.9971L253.971 25.9971Z" fill="#EBBA3C"/>
<path d="M251.566 25.9971L251.566 24.0738L249.643 24.0738L249.643 25.9971L251.566 25.9971Z" fill="#EBBA3C"/>
<path d="M246.758 25.9971L246.758 24.0738L244.835 24.0738L244.835 25.9971L246.758 25.9971Z" fill="#EBBA3C"/>
<path d="M244.354 25.9971L244.354 24.0738L242.43 24.0738L242.43 25.9971L244.354 25.9971Z" fill="#EBBA3C"/>
<path d="M239.547 25.9971L239.547 24.0738L237.624 24.0738L237.624 25.9971L239.547 25.9971Z" fill="#EBBA3C"/>
<path d="M237.143 25.9971L237.143 24.0738L235.22 24.0738L235.22 25.9971L237.143 25.9971Z" fill="#EBBA3C"/>
<path d="M232.334 25.9971L232.334 24.0738L230.411 24.0738L230.411 25.9971L232.334 25.9971Z" fill="#EBBA3C"/>
<path d="M268.395 23.5947L268.395 21.6714L266.471 21.6714L266.471 23.5947L268.395 23.5947Z" fill="#EBBA3C"/>
<path d="M265.99 23.5947L265.99 21.6714L264.067 21.6714L264.067 23.5947L265.99 23.5947Z" fill="#EBBA3C"/>
<path d="M261.182 23.5947L261.182 21.6714L259.259 21.6714L259.259 23.5947L261.182 23.5947Z" fill="#EBBA3C"/>
<path d="M258.777 23.5947L258.777 21.6714L256.854 21.6714L256.854 23.5947L258.777 23.5947Z" fill="#EBBA3C"/>
<path d="M256.375 23.5947L256.375 21.6714L254.452 21.6714L254.452 23.5947L256.375 23.5947Z" fill="#EBBA3C"/>
<path d="M251.566 23.5947L251.566 21.6714L249.643 21.6714L249.643 23.5947L251.566 23.5947Z" fill="#EBBA3C"/>
<path d="M249.162 23.5947L249.162 21.6714L247.239 21.6714L247.239 23.5947L249.162 23.5947Z" fill="#EBBA3C"/>
<path d="M239.543 23.5947L239.543 21.6714L237.62 21.6714L237.62 23.5947L239.543 23.5947Z" fill="#EBBA3C"/>
<path d="M234.738 23.5947L234.738 21.6714L232.815 21.6714L232.815 23.5947L234.738 23.5947Z" fill="#EBBA3C"/>
<path d="M232.334 23.5947L232.334 21.6714L230.411 21.6714L230.411 23.5947L232.334 23.5947Z" fill="#EBBA3C"/>
<path d="M268.395 21.1895L268.395 19.2662L266.471 19.2662L266.471 21.1895L268.395 21.1895Z" fill="#EBBA3C"/>
<path d="M265.99 21.1895L265.99 19.2662L264.067 19.2662L264.067 21.1895L265.99 21.1895Z" fill="#EBBA3C"/>
<path d="M263.586 21.1895L263.586 19.2662L261.663 19.2662L261.663 21.1895L263.586 21.1895Z" fill="#EBBA3C"/>
<path d="M256.375 21.1895L256.375 19.2662L254.452 19.2662L254.452 21.1895L256.375 21.1895Z" fill="#EBBA3C"/>
<path d="M253.971 21.1895L253.971 19.2662L252.047 19.2662L252.047 21.1895L253.971 21.1895Z" fill="#EBBA3C"/>
<path d="M244.354 21.1895L244.354 19.2662L242.43 19.2662L242.43 21.1895L244.354 21.1895Z" fill="#EBBA3C"/>
<path d="M241.947 21.1895L241.947 19.2662L240.024 19.2662L240.024 21.1895L241.947 21.1895Z" fill="#EBBA3C"/>
<path d="M237.143 21.1895L237.143 19.2662L235.22 19.2662L235.22 21.1895L237.143 21.1895Z" fill="#EBBA3C"/>
<path d="M232.334 21.1895L232.334 19.2662L230.411 19.2662L230.411 21.1895L232.334 21.1895Z" fill="#EBBA3C"/>
<path d="M265.99 18.7852L265.99 16.8619L264.067 16.8619L264.067 18.7852L265.99 18.7852Z" fill="#EBBA3C"/>
<path d="M261.182 18.7852L261.182 16.8619L259.259 16.8619L259.259 18.7852L261.182 18.7852Z" fill="#EBBA3C"/>
<path d="M258.777 18.7852L258.777 16.8619L256.854 16.8619L256.854 18.7852L258.777 18.7852Z" fill="#EBBA3C"/>
<path d="M251.566 18.7852L251.566 16.8619L249.643 16.8619L249.643 18.7852L251.566 18.7852Z" fill="#EBBA3C"/>
<path d="M246.758 18.7852L246.758 16.8619L244.835 16.8619L244.835 18.7852L246.758 18.7852Z" fill="#EBBA3C"/>
<path d="M241.947 18.7852L241.947 16.8619L240.024 16.8619L240.024 18.7852L241.947 18.7852Z" fill="#EBBA3C"/>
<path d="M239.543 18.7852L239.543 16.8619L237.62 16.8619L237.62 18.7852L239.543 18.7852Z" fill="#EBBA3C"/>
<path d="M234.738 18.7852L234.738 16.8619L232.815 16.8619L232.815 18.7852L234.738 18.7852Z" fill="#EBBA3C"/>
<path d="M268.395 16.3818L268.395 14.4585L266.471 14.4585L266.471 16.3818L268.395 16.3818Z" fill="#EBBA3C"/>
<path d="M256.375 16.3818L256.375 14.4585L254.452 14.4585L254.452 16.3818L256.375 16.3818Z" fill="#EBBA3C"/>
<path d="M253.971 16.3818L253.971 14.4585L252.047 14.4585L252.047 16.3818L253.971 16.3818Z" fill="#EBBA3C"/>
<path d="M249.162 16.3818L249.162 14.4585L247.239 14.4585L247.239 16.3818L249.162 16.3818Z" fill="#EBBA3C"/>
<path d="M244.354 16.3818L244.354 14.4585L242.43 14.4585L242.43 16.3818L244.354 16.3818Z" fill="#EBBA3C"/>
<path d="M237.143 16.3818L237.143 14.4585L235.22 14.4585L235.22 16.3818L237.143 16.3818Z" fill="#EBBA3C"/>
<path d="M234.738 16.3818L234.738 14.4585L232.815 14.4585L232.815 16.3818L234.738 16.3818Z" fill="#EBBA3C"/>
<path d="M232.334 16.3818L232.334 14.4585L230.411 14.4585L230.411 16.3818L232.334 16.3818Z" fill="#EBBA3C"/>
<path d="M265.99 13.9775L265.99 12.0542L264.067 12.0542L264.067 13.9775L265.99 13.9775Z" fill="#EBBA3C"/>
<path d="M263.586 13.9775L263.586 12.0542L261.663 12.0542L261.663 13.9775L263.586 13.9775Z" fill="#EBBA3C"/>
<path d="M258.777 13.9775L258.777 12.0542L256.854 12.0542L256.854 13.9775L258.777 13.9775Z" fill="#EBBA3C"/>
<path d="M251.566 13.9775L251.566 12.0542L249.643 12.0542L249.643 13.9775L251.566 13.9775Z" fill="#EBBA3C"/>
<path d="M246.758 13.9775L246.758 12.0542L244.835 12.0542L244.835 13.9775L246.758 13.9775Z" fill="#EBBA3C"/>
<path d="M237.143 13.9775L237.143 12.0542L235.22 12.0542L235.22 13.9775L237.143 13.9775Z" fill="#EBBA3C"/>
<path d="M232.334 13.9775L232.334 12.0542L230.411 12.0542L230.411 13.9775L232.334 13.9775Z" fill="#EBBA3C"/>
<path d="M268.395 11.5732L268.395 9.64995L266.471 9.64995L266.471 11.5732L268.395 11.5732Z" fill="#EBBA3C"/>
<path d="M261.182 11.5732L261.182 9.64995L259.259 9.64995L259.259 11.5732L261.182 11.5732Z" fill="#EBBA3C"/>
<path d="M256.375 11.5732L256.375 9.64995L254.452 9.64995L254.452 11.5732L256.375 11.5732Z" fill="#EBBA3C"/>
<path d="M251.566 11.5732L251.566 9.64995L249.643 9.64995L249.643 11.5732L251.566 11.5732Z" fill="#EBBA3C"/>
<path d="M244.354 11.5732L244.354 9.64995L242.43 9.64995L242.43 11.5732L244.354 11.5732Z" fill="#EBBA3C"/>
<path d="M239.543 11.5732L239.543 9.64995L237.62 9.64995L237.62 11.5732L239.543 11.5732Z" fill="#EBBA3C"/>
<path d="M263.586 9.16992L263.586 7.24695L261.663 7.24695L261.663 9.16992L263.586 9.16992Z" fill="#EBBA3C"/>
<path d="M258.777 9.16992L258.777 7.24695L256.854 7.24695L256.854 9.16992L258.777 9.16992Z" fill="#EBBA3C"/>
<path d="M249.162 9.16992L249.162 7.24695L247.239 7.24695L247.239 9.16992L249.162 9.16992Z" fill="#EBBA3C"/>
<path d="M239.543 9.16992L239.543 7.24695L237.62 7.24695L237.62 9.16992L239.543 9.16992Z" fill="#EBBA3C"/>
<path d="M234.738 9.16992L234.738 7.24695L232.815 7.24695L232.815 9.16992L234.738 9.16992Z" fill="#EBBA3C"/>
<path d="M265.99 6.76562L265.99 4.84233L264.067 4.84233L264.067 6.76562L265.99 6.76562Z" fill="#EBBA3C"/>
<path d="M253.971 6.76562L253.971 4.84233L252.047 4.84233L252.047 6.76562L253.971 6.76562Z" fill="#EBBA3C"/>
<path d="M244.354 6.76562L244.354 4.84233L242.43 4.84233L242.43 6.76562L244.354 6.76562Z" fill="#EBBA3C"/>
<path d="M232.334 6.76562L232.334 4.84233L230.411 4.84233L230.411 6.76562L232.334 6.76562Z" fill="#EBBA3C"/>
<path d="M258.777 4.36133L258.777 2.43803L256.854 2.43803L256.854 4.36133L258.777 4.36133Z" fill="#EBBA3C"/>
<path d="M249.162 4.36133L249.162 2.43803L247.239 2.43803L247.239 4.36133L249.162 4.36133Z" fill="#EBBA3C"/>
<path d="M234.738 4.36133L234.738 2.43803L232.815 2.43803L232.815 4.36133L234.738 4.36133Z" fill="#EBBA3C"/>
<mask id="mask12_550_50224" style="mask-type:luminance" maskUnits="userSpaceOnUse" x="261" y="0" width="3" height="2">
<path d="M263.611 1.97754L263.611 0.000674486L261.629 0.000674399L261.629 1.97754L263.611 1.97754Z" fill="white"/>
</mask>
<g mask="url(#mask12_550_50224)">
<path d="M263.586 1.95801L263.586 0.0347114L261.663 0.0347113L261.663 1.95801L263.586 1.95801Z" fill="#EBBA3C"/>
</g>
<mask id="mask13_550_50224" style="mask-type:luminance" maskUnits="userSpaceOnUse" x="239" y="0" width="3" height="2">
<path d="M241.967 1.97754L241.967 0.000674486L239.984 0.000674399L239.984 1.97754L241.967 1.97754Z" fill="white"/>
</mask>
<g mask="url(#mask13_550_50224)">
<path d="M241.947 1.95801L241.947 0.0347114L240.024 0.0347113L240.024 1.95801L241.947 1.95801Z" fill="#EBBA3C"/>
</g>
</g>
<defs>
<clipPath id="clip0_550_50224">
<rect width="268.402" height="36" fill="white"/>
</clipPath>
</defs>
</svg>
