<svg preserveAspectRatio="none" width="100%" height="100%" overflow="visible" style="display: block;" viewBox="0 0 555.846 1100.66" fill="none" xmlns="http://www.w3.org/2000/svg">
<g id="Vector" filter="url(#filter0_f_80_384)">
<path d="M543.346 1088.16V852.29C379.704 848.748 248.125 714.946 248.125 550.331C248.125 385.716 379.704 251.949 543.346 248.372V12.5C249.576 16.077 12.5 255.455 12.5 550.331C12.5 845.207 249.576 1084.58 543.346 1088.16Z" fill="var(--fill-0, #FFE6AF)" fill-opacity="0.68"/>
<path d="M543.346 1088.16V852.29C379.704 848.748 248.125 714.946 248.125 550.331C248.125 385.716 379.704 251.949 543.346 248.372V12.5C249.576 16.077 12.5 255.455 12.5 550.331C12.5 845.207 249.576 1084.58 543.346 1088.16Z" stroke="var(--stroke-0, #1E1E1E)" stroke-width="5" stroke-linejoin="round"/>
</g>
<defs>
<filter id="filter0_f_80_384" x="0" y="-2.38419e-07" width="555.846" height="1100.66" filterUnits="userSpaceOnUse" color-interpolation-filters="sRGB">
<feFlood flood-opacity="0" result="BackgroundImageFix"/>
<feBlend mode="normal" in="SourceGraphic" in2="BackgroundImageFix" result="shape"/>
<feGaussianBlur stdDeviation="5" result="effect1_foregroundBlur_80_384"/>
</filter>
</defs>
</svg>
