<svg preserveAspectRatio="none" width="100%" height="100%" overflow="visible" style="display: block;" viewBox="0 0 70 38.0003" fill="none" xmlns="http://www.w3.org/2000/svg">
<g id="Frame 11">
<path id="Vector" d="M27.0807 13.8672L20.024 19.0018L27.0807 24.1365C30.2243 26.4249 30.9415 30.8608 28.6815 34.0438C26.4214 37.2268 22.0405 37.9531 18.8969 35.6666L3.91933 24.7669C3.89806 24.7512 3.87873 24.7356 3.85746 24.7199C3.80719 24.6827 3.75887 24.6455 3.71054 24.6083C3.6622 24.5711 3.6158 24.532 3.5694 24.4948C3.53073 24.4635 3.494 24.4302 3.45727 24.3989C3.39927 24.3499 3.3432 24.299 3.28714 24.2481C3.26394 24.2266 3.24266 24.207 3.2214 24.1855C3.1518 24.1189 3.0822 24.0504 3.01453 23.9819C3.00873 23.976 3.00294 23.9702 2.99714 23.9643C2.4964 23.4455 2.08653 22.8622 1.7714 22.2377C1.7656 22.226 1.7598 22.2162 1.754 22.2044C1.7134 22.1203 1.67279 22.0361 1.63413 21.9519C1.62059 21.9225 1.60707 21.8912 1.59353 21.8619C1.56647 21.7973 1.5394 21.7327 1.51234 21.6661C1.493 21.6172 1.47366 21.5663 1.45433 21.5173C1.43693 21.4703 1.42147 21.4234 1.40407 21.3764C1.38087 21.3098 1.35766 21.2413 1.3364 21.1747C1.32673 21.1434 1.31707 21.1121 1.30741 21.0808C1.28227 20.9986 1.25906 20.9163 1.23586 20.8341C1.23006 20.8146 1.2262 20.795 1.2204 20.7754C1.1972 20.6834 1.174 20.5894 1.15466 20.4955C1.15273 20.4818 1.14887 20.4681 1.14694 20.4544C1.1276 20.3565 1.10826 20.2586 1.0928 20.1607C1.09086 20.1451 1.08894 20.1314 1.087 20.1157C1.07154 20.0198 1.058 19.9239 1.0464 19.8279C1.04446 19.8064 1.04254 19.7829 1.03867 19.7614C1.029 19.6733 1.02127 19.5852 1.01547 19.4971C1.01354 19.4599 1.0116 19.4227 1.00966 19.3855C1.0058 19.3131 1.00193 19.2387 1 19.1663C1 19.1115 1 19.0567 1 19.0018C1 18.947 1 18.8922 1 18.8374C1 18.765 1.0058 18.6906 1.00966 18.6182C1.0116 18.581 1.01354 18.5438 1.01547 18.5066C1.02127 18.4185 1.029 18.3304 1.03867 18.2423C1.0406 18.2208 1.04253 18.1973 1.0464 18.1757C1.058 18.0798 1.07154 17.9839 1.087 17.888C1.08894 17.8723 1.09086 17.8586 1.0928 17.843C1.10826 17.7451 1.1276 17.6472 1.14694 17.5493C1.14887 17.5356 1.15273 17.5219 1.15466 17.5082C1.174 17.4143 1.1972 17.3223 1.2204 17.2283C1.2262 17.2087 1.23006 17.1891 1.23586 17.1696C1.25713 17.0874 1.28227 17.0051 1.30741 16.9229C1.31707 16.8916 1.32673 16.8603 1.3364 16.8289C1.35766 16.7604 1.38087 16.6939 1.40407 16.6273C1.41954 16.5803 1.43693 16.5333 1.45433 16.4864C1.47366 16.4374 1.493 16.3865 1.51234 16.3376C1.53747 16.273 1.56453 16.2064 1.59353 16.1418C1.60707 16.1105 1.62059 16.0812 1.63413 16.0518C1.67279 15.9676 1.71147 15.8834 1.754 15.7993C1.7598 15.7875 1.7656 15.7777 1.7714 15.766C2.08653 15.1415 2.4964 14.5582 2.99714 14.0394C3.00294 14.0335 3.00873 14.0277 3.01453 14.0218C3.0822 13.9533 3.14986 13.8848 3.2214 13.8182C3.24266 13.7967 3.26587 13.7771 3.28714 13.7556C3.3432 13.7047 3.39927 13.6538 3.45727 13.6048C3.494 13.5716 3.53266 13.5402 3.5694 13.5089C3.6158 13.4698 3.66414 13.4326 3.71054 13.3954C3.75887 13.3562 3.80719 13.319 3.85746 13.2818C3.87873 13.2662 3.89806 13.2505 3.91933 13.2348L18.8969 2.33511C22.0405 0.04671 26.4233 0.772969 28.6815 3.95793C30.9415 7.14094 30.2243 11.5788 27.0807 13.8652V13.8672Z" fill="var(--fill-0, #FF585A)" stroke="var(--stroke-0, #1E1E1E)" stroke-width="2" stroke-miterlimit="10"/>
<path id="Vector_2" d="M42.9193 13.8672L49.976 19.0018L42.9193 24.1365C39.7757 26.4249 39.0585 30.8608 41.3185 34.0438C43.5786 37.2268 47.9595 37.9531 51.1031 35.6666L66.0807 24.7669C66.1019 24.7512 66.1213 24.7356 66.1425 24.7199C66.1928 24.6827 66.2411 24.6455 66.2895 24.6083C66.3378 24.5711 66.3842 24.532 66.4306 24.4948C66.4693 24.4635 66.506 24.4302 66.5427 24.3989C66.6007 24.3499 66.6568 24.299 66.7129 24.2481C66.7361 24.2266 66.7573 24.207 66.7786 24.1855C66.8482 24.1189 66.9178 24.0504 66.9855 23.9819C66.9913 23.976 66.9971 23.9702 67.0029 23.9643C67.5036 23.4455 67.9135 22.8622 68.2286 22.2377C68.2344 22.226 68.2402 22.2162 68.246 22.2044C68.2866 22.1203 68.3272 22.0361 68.3659 21.9519C68.3794 21.9225 68.3929 21.8912 68.4065 21.8619C68.4335 21.7973 68.4606 21.7327 68.4877 21.6661C68.507 21.6172 68.5263 21.5663 68.5457 21.5173C68.5631 21.4703 68.5785 21.4234 68.5959 21.3764C68.6191 21.3098 68.6423 21.2413 68.6636 21.1747C68.6733 21.1434 68.6829 21.1121 68.6926 21.0808C68.7177 20.9986 68.7409 20.9163 68.7641 20.8341C68.7699 20.8146 68.7738 20.795 68.7796 20.7754C68.8028 20.6834 68.826 20.5894 68.8453 20.4955C68.8473 20.4818 68.8511 20.4681 68.8531 20.4544C68.8724 20.3565 68.8917 20.2586 68.9072 20.1607C68.9091 20.1451 68.9111 20.1314 68.913 20.1157C68.9285 20.0198 68.942 19.9239 68.9536 19.8279C68.9555 19.8064 68.9575 19.7829 68.9613 19.7614C68.971 19.6733 68.9787 19.5852 68.9845 19.4971C68.9865 19.4599 68.9884 19.4227 68.9903 19.3855C68.9942 19.3131 68.9981 19.2387 69 19.1663C69 19.1115 69 19.0567 69 19.0018C69 18.947 69 18.8922 69 18.8374C69 18.765 68.9942 18.6906 68.9903 18.6182C68.9884 18.581 68.9865 18.5438 68.9845 18.5066C68.9787 18.4185 68.971 18.3304 68.9613 18.2423C68.9594 18.2208 68.9575 18.1973 68.9536 18.1757C68.942 18.0798 68.9285 17.9839 68.913 17.888C68.9111 17.8723 68.9091 17.8586 68.9072 17.843C68.8917 17.7451 68.8724 17.6472 68.8531 17.5493C68.8511 17.5356 68.8473 17.5219 68.8453 17.5082C68.826 17.4143 68.8028 17.3223 68.7796 17.2283C68.7738 17.2087 68.7699 17.1891 68.7641 17.1696C68.7429 17.0874 68.7177 17.0051 68.6926 16.9229C68.6829 16.8916 68.6733 16.8603 68.6636 16.8289C68.6423 16.7604 68.6191 16.6939 68.5959 16.6273C68.5805 16.5803 68.5631 16.5333 68.5457 16.4864C68.5263 16.4374 68.507 16.3865 68.4877 16.3376C68.4625 16.273 68.4355 16.2064 68.4065 16.1418C68.3929 16.1105 68.3794 16.0812 68.3659 16.0518C68.3272 15.9676 68.2885 15.8834 68.246 15.7993C68.2402 15.7875 68.2344 15.7777 68.2286 15.766C67.9135 15.1415 67.5036 14.5582 67.0029 14.0394C66.9971 14.0335 66.9913 14.0277 66.9855 14.0218C66.9178 13.9533 66.8501 13.8848 66.7786 13.8182C66.7573 13.7967 66.7341 13.7771 66.7129 13.7556C66.6568 13.7047 66.6007 13.6538 66.5427 13.6048C66.506 13.5716 66.4673 13.5402 66.4306 13.5089C66.3842 13.4698 66.3359 13.4326 66.2895 13.3954C66.2411 13.3562 66.1928 13.319 66.1425 13.2818C66.1213 13.2662 66.1019 13.2505 66.0807 13.2348L51.1031 2.33511C47.9595 0.04671 43.5767 0.772969 41.3185 3.95793C39.0585 7.14094 39.7757 11.5788 42.9193 13.8652V13.8672Z" fill="var(--fill-0, #FF585A)" stroke="var(--stroke-0, #1E1E1E)" stroke-width="2" stroke-miterlimit="10"/>
</g>
</svg>
