<svg preserveAspectRatio="none" width="100%" height="100%" overflow="visible" style="display: block;" viewBox="0 0 119.609 132.864" fill="none" xmlns="http://www.w3.org/2000/svg">
<g id="Group">
<path id="Vector" d="M117.609 91.2878V41.5763C117.609 36.315 114.801 31.4558 110.246 28.8272L67.1699 3.97146C62.6109 1.34285 56.9983 1.34285 52.4393 3.97146L9.36325 28.8272C4.80426 31.4558 2 36.315 2 41.5763V91.2878C2 96.5491 4.80841 101.408 9.36325 104.037L52.4393 128.893C56.9983 131.521 62.6109 131.521 67.1699 128.893L110.246 104.037C114.805 101.408 117.609 96.5491 117.609 91.2878Z" fill="var(--fill-0, #4285F4)" stroke="var(--stroke-0, black)" stroke-width="4" stroke-miterlimit="10"/>
<path id="Vector_2" d="M89.9525 70.3667C74.5332 74.8361 68.2194 81.1465 63.7434 96.5616C62.6026 100.496 57.0107 100.496 55.8658 96.5616C51.3939 81.1506 45.0802 74.8403 29.6568 70.3667C25.72 69.2265 25.72 63.6376 29.6568 62.4933C45.0761 58.0238 51.3898 51.7135 55.8658 36.2984C57.0066 32.3638 62.5985 32.3638 63.7434 36.2984C68.2153 51.7093 74.529 58.0197 89.9525 62.4933C93.8892 63.6335 93.8892 69.2224 89.9525 70.3667Z" fill="var(--fill-0, white)" stroke="var(--stroke-0, black)" stroke-width="4" stroke-miterlimit="10"/>
</g>
</svg>
