<svg preserveAspectRatio="none" width="100%" height="100%" overflow="visible" style="display: block;" viewBox="0 0 853.852 300.104" fill="none" xmlns="http://www.w3.org/2000/svg">
<g id="Group">
<path id="Vector" d="M5.19835 176.645H17.5893C22.0073 176.645 25.5873 180.223 25.5873 184.639V258.14C25.5873 280.214 43.4914 298.104 65.5728 298.104H97.5522C99.3193 298.104 100.751 296.674 100.751 294.908V250.064C100.751 248.297 99.3193 246.867 97.5522 246.867H73.0025C68.5845 246.867 65.0045 243.289 65.0045 238.873V61.2308C65.0045 56.8152 68.5845 53.2372 73.0025 53.2372H97.5522C99.3193 53.2372 100.751 51.8068 100.751 50.0406V5.19662C100.751 3.4304 99.3193 2 97.5522 2H65.5728C43.4872 2 25.5873 19.8945 25.5873 41.964V115.416C25.5873 119.831 22.0073 123.409 17.5893 123.409H5.19835C3.43117 123.409 2 124.84 2 126.606V173.444C2 175.211 3.43117 176.641 5.19835 176.641V176.645Z" fill="var(--fill-0, #FF585A)" stroke="var(--stroke-0, black)" stroke-width="4" stroke-miterlimit="10"/>
<path id="Vector_2" d="M848.653 123.459H836.262C831.844 123.459 828.264 119.881 828.264 115.466V41.964C828.264 19.8903 810.36 2 788.279 2H756.3C754.532 2 753.101 3.4304 753.101 5.19662V50.0406C753.101 51.8068 754.532 53.2372 756.3 53.2372H780.849C785.267 53.2372 788.847 56.8152 788.847 61.2308V238.873C788.847 243.289 785.267 246.867 780.849 246.867H756.3C754.532 246.867 753.101 248.297 753.101 250.064V294.908C753.101 296.674 754.532 298.104 756.3 298.104H788.279C810.364 298.104 828.264 280.21 828.264 258.14V184.688C828.264 180.273 831.844 176.695 836.262 176.695H848.653C850.421 176.695 851.852 175.264 851.852 173.498V126.66C851.852 124.894 850.421 123.463 848.653 123.463V123.459Z" fill="var(--fill-0, #FF585A)" stroke="var(--stroke-0, black)" stroke-width="4" stroke-miterlimit="10"/>
</g>
</svg>
