<svg preserveAspectRatio="none" width="100%" height="100%" overflow="visible" style="display: block;" viewBox="0 0 274.38 28.7618" fill="none" xmlns="http://www.w3.org/2000/svg">
<g id="Group">
<path id="Vector" d="M0 28.1491V0.727681H10.3705C11.9014 0.727681 13.2718 1.0596 14.4817 1.72344C15.7163 2.36172 16.6916 3.21708 17.4074 4.2894C18.1235 5.36172 18.4815 6.56178 18.4815 7.8894C18.4815 9.3192 18.1362 10.532 17.4446 11.5277C16.778 12.5235 15.9385 13.2767 14.9261 13.7873V14.0937C16.2842 14.5788 17.3709 15.383 18.1855 16.5065C19.0252 17.6044 19.4447 18.9448 19.4447 20.5277C19.4447 22.0852 19.0495 23.4384 18.2592 24.5873C17.4939 25.7108 16.4447 26.5916 15.1113 27.2299C13.8027 27.8427 12.3458 28.1491 10.7409 28.1491H0ZM5.00004 16.3533V23.4384H10.5557C11.3952 23.4384 12.0989 23.2852 12.6668 22.9788C13.2348 22.6724 13.6669 22.2512 13.9632 21.715C14.2594 21.1788 14.4076 20.5788 14.4076 19.915C14.4076 19.2256 14.2594 18.6128 13.9632 18.0767C13.6669 17.5405 13.2224 17.1193 12.6298 16.8128C12.0372 16.5065 11.2964 16.3533 10.4075 16.3533H5.00004ZM5.00004 11.9107H10.0001C10.7656 11.9107 11.4075 11.7703 11.9261 11.4894C12.4693 11.183 12.8767 10.7746 13.1483 10.2639C13.4446 9.75324 13.5928 9.2043 13.5928 8.61708C13.5928 8.0043 13.4569 7.45536 13.1854 6.97026C12.9138 6.48516 12.5187 6.10218 12.0002 5.82132C11.4816 5.51496 10.8643 5.36172 10.1483 5.36172H5.00004V11.9107ZM29.8753 28.7618C27.5543 28.7618 25.8136 28.0214 24.653 26.5405C23.4925 25.0597 22.9123 23.0426 22.9123 20.4895V8.61708H27.7644V19.8767C27.7644 21.2044 28.0731 22.2512 28.6905 23.0171C29.3322 23.7575 30.1469 24.1277 31.1345 24.1277C32.0977 24.1277 32.9124 23.8852 33.5791 23.4001C34.2458 22.8895 34.7518 22.2128 35.0976 21.3703C35.4678 20.5277 35.6535 19.5958 35.6535 18.5746V8.61708H40.505V28.1491H35.9494V25.698H35.6535C35.2827 26.3108 34.8017 26.8469 34.2087 27.3065C33.6162 27.7661 32.9495 28.1235 32.2085 28.3789C31.4925 28.6342 30.715 28.7618 29.8753 28.7618ZM45.1598 28.1491V8.61708H50.0119V28.1491H45.1598ZM47.6044 6.47238C46.7404 6.47238 45.9994 6.15324 45.382 5.51496C44.7652 4.87662 44.4565 4.11066 44.4565 3.21708C44.4565 2.32344 44.7652 1.57026 45.382 0.95748C45.9994 0.3192 46.7404 1.90735e-07 47.6044 1.90735e-07C48.469 1.90735e-07 49.1972 0.3192 49.7896 0.95748C50.407 1.57026 50.7157 2.32344 50.7157 3.21708C50.7157 4.11066 50.407 4.87662 49.7896 5.51496C49.1972 6.15324 48.469 6.47238 47.6044 6.47238ZM54.6725 28.1491V0.727681H59.5245V28.1491H54.6725ZM72.2965 28.7618C70.5679 28.7618 69.0123 28.3278 67.6295 27.4597C66.2468 26.5661 65.1483 25.3405 64.3331 23.7831C63.5434 22.2256 63.1482 20.4256 63.1482 18.383C63.1482 16.3405 63.5434 14.5405 64.3331 12.983C65.1483 11.4256 66.2468 10.2128 67.6295 9.34476C69.0123 8.45112 70.5679 8.0043 72.2965 8.0043C73.2098 8.0043 74.0372 8.14476 74.7782 8.42556C75.5186 8.70642 76.161 9.07668 76.7041 9.53622C77.2472 9.99582 77.6667 10.4809 77.9632 10.9916H78.2598L77.9632 8.2341V0.727681H82.7782V28.1491H78.2598V25.8129H77.9632C77.6667 26.3235 77.2472 26.8086 76.7041 27.2682C76.161 27.7022 75.5186 28.0597 74.7782 28.3406C74.0372 28.6214 73.2098 28.7618 72.2965 28.7618ZM73.1112 24.1277C74.0251 24.1277 74.8641 23.8852 75.63 23.4001C76.4198 22.915 77.0493 22.2512 77.5188 21.4086C78.0126 20.5405 78.2598 19.532 78.2598 18.383C78.2598 17.2341 78.0126 16.2384 77.5188 15.3958C77.0493 14.5277 76.4198 13.8639 75.63 13.4043C74.8641 12.9192 74.0251 12.6767 73.1112 12.6767C72.2222 12.6767 71.3826 12.9192 70.5929 13.4043C69.8275 13.8639 69.1979 14.515 68.7036 15.3575C68.2347 16.2001 68.0003 17.2086 68.0003 18.383C68.0003 19.532 68.2347 20.5405 68.7036 21.4086C69.1979 22.2767 69.8275 22.9533 70.5929 23.4384C71.3826 23.898 72.2222 24.1277 73.1112 24.1277ZM100.012 28.1491L94.0119 8.61708H99.4564L102.716 21.2937H102.975L106.753 8.61708H111.716L115.493 21.2937H115.753L119.012 8.61708H124.382L118.345 28.1491H113.123L109.271 15.5107H109.012L105.197 28.1491H100.012ZM126.94 28.1491V8.61708H131.791V28.1491H126.94ZM129.384 6.47238C128.52 6.47238 127.779 6.15324 127.162 5.51496C126.544 4.87662 126.236 4.11066 126.236 3.21708C126.236 2.32344 126.544 1.57026 127.162 0.95748C127.779 0.3192 128.52 1.90735e-07 129.384 1.90735e-07C130.248 1.90735e-07 130.976 0.3192 131.569 0.95748C132.186 1.57026 132.495 2.32344 132.495 3.21708C132.495 4.11066 132.186 4.87662 131.569 5.51496C130.976 6.15324 130.248 6.47238 129.384 6.47238ZM135.045 12.9065V8.61708H138.341V3.10218H143.193V8.61708H147.822V12.9065H143.193V20.9873C143.193 21.932 143.378 22.6342 143.748 23.0937C144.119 23.5277 144.724 23.7448 145.563 23.7448C145.958 23.7448 146.329 23.6937 146.675 23.5916C147.02 23.464 147.452 23.2342 147.971 22.9022V27.8044C147.427 28.0087 146.872 28.1618 146.304 28.264C145.761 28.3916 145.193 28.4554 144.6 28.4554C142.649 28.4554 141.119 27.881 140.007 26.732C138.896 25.5575 138.341 23.9491 138.341 21.9065V12.9065H135.045ZM151.824 28.1491V0.727681H156.676V7.6596L156.38 11.0681H156.676C157.219 10.1746 157.997 9.44688 159.009 8.88516C160.046 8.29794 161.182 8.0043 162.417 8.0043C163.972 8.0043 165.281 8.33622 166.343 9.00006C167.405 9.63834 168.194 10.5575 168.713 11.7575C169.256 12.9575 169.528 14.3746 169.528 16.0086V28.1491H164.676V16.6214C164.676 15.7533 164.516 15.0384 164.195 14.4767C163.898 13.8895 163.479 13.4426 162.935 13.1362C162.417 12.8299 161.799 12.6767 161.083 12.6767C160.219 12.6767 159.453 12.932 158.787 13.4426C158.121 13.9277 157.602 14.5916 157.232 15.4341C156.861 16.2767 156.676 17.2086 156.676 18.2299V28.1491H151.824ZM180.935 28.1491L190.861 0.727681H196.602L206.565 28.1491H201.047L198.824 21.6001H188.676L186.453 28.1491H180.935ZM197.194 16.8511L194.861 9.95748L193.898 6.6639H193.602L192.639 9.95748L190.305 16.8511H197.194ZM210.108 28.1491V0.727681H215.108V28.1491H210.108Z" fill="var(--fill-0, #1E1E1E)"/>
<path id="Vector_2" d="M239.98 2.67104L229.161 10.7099C226.892 12.3961 226.374 15.6652 228.005 18.0118L228.008 18.0167C229.639 20.3632 232.8 20.8986 235.069 19.2124L245.889 11.1736C248.158 9.4874 248.676 6.21824 247.045 3.87164L247.042 3.86678C245.411 1.52024 242.249 0.984922 239.98 2.67104Z" fill="var(--fill-0, #EA4435)" stroke="var(--stroke-0, #1E1E1E)" stroke-width="0.5" stroke-miterlimit="10"/>
<path id="Vector_3" d="M227.982 11.8736L227.978 11.8785C226.348 14.2251 226.865 17.4942 229.135 19.1804L239.954 27.2193C242.223 28.9055 245.384 28.3701 247.016 26.0235L247.019 26.0187C248.65 23.6721 248.132 20.4029 245.863 18.7168L235.043 10.6779C232.774 8.99176 229.613 9.52708 227.982 11.8736Z" fill="var(--fill-0, #547DBF)" stroke="var(--stroke-0, #1E1E1E)" stroke-width="0.5" stroke-miterlimit="10"/>
<path id="Vector_4" d="M266.114 10.7141L255.295 18.7529C253.025 20.4391 252.508 23.7083 254.138 26.0548L254.142 26.0597C255.772 28.4063 258.934 28.9416 261.203 27.2554L272.022 19.2165C274.292 17.5304 274.81 14.2612 273.179 11.9147L273.175 11.9098C271.545 9.56319 268.383 9.02787 266.114 10.7141Z" fill="var(--fill-0, #F7AB1B)" stroke="var(--stroke-0, #1E1E1E)" stroke-width="0.5" stroke-miterlimit="10"/>
<path id="Vector_5" d="M254.112 3.83849L254.109 3.84335C252.478 6.18989 252.995 9.45911 255.265 11.1453L266.084 19.1841C268.354 20.8703 271.515 20.3349 273.146 17.9884L273.149 17.9835C274.78 15.637 274.262 12.3678 271.993 10.6816L261.173 2.64275C258.904 0.956568 255.743 1.49195 254.112 3.83849Z" fill="var(--fill-0, #33A852)" stroke="var(--stroke-0, #1E1E1E)" stroke-width="0.5" stroke-miterlimit="10"/>
</g>
</svg>
