<svg preserveAspectRatio="none" width="100%" height="100%" overflow="visible" style="display: block;" viewBox="0 0 38.3064 52.2394" fill="none" xmlns="http://www.w3.org/2000/svg">
<path id="Vector" d="M0 0H20.4289C23.3466 0 26.034 0.608412 28.4912 1.82356C30.9467 3.04038 32.8795 4.69419 34.2913 6.78497C35.7014 8.87744 36.4073 11.1632 36.4073 13.6439C36.4073 16.2708 35.7619 18.5448 34.4745 20.4658C33.1854 22.3886 31.4946 23.8592 29.4038 24.8794V25.4626C32.1282 26.4357 34.2929 27.9802 35.898 30.0962C37.5031 32.2122 38.3064 34.7551 38.3064 37.7199C38.3064 40.6846 37.54 43.1317 36.0072 45.3435C34.4745 47.557 32.4072 49.2595 29.8055 50.4512C27.2021 51.6428 24.3214 52.2394 21.16 52.2394H0.00168234V0H0ZM19.6994 21.3045C21.8877 21.3045 23.6138 20.7095 24.8794 19.5162C26.1432 18.3246 26.7769 16.8288 26.7769 15.0288C26.7769 13.2288 26.1567 11.8069 24.9163 10.6153C23.676 9.42367 22.0339 8.82702 19.9919 8.82702H9.85056V21.3028H19.7011L19.6994 21.3045ZM20.7936 43.2662C23.1768 43.2662 25.0373 42.646 26.3752 41.4056C27.713 40.1653 28.3819 38.5485 28.3819 36.5535C28.3819 34.5585 27.6996 32.9299 26.3382 31.6643C24.9752 30.4004 23.0306 29.7668 20.5011 29.7668H9.84888V43.2645H20.7936V43.2662Z" fill="var(--fill-0, black)"/>
</svg>
