<svg preserveAspectRatio="none" width="100%" height="100%" overflow="visible" style="display: block;" viewBox="0 0 37.94 53.4058" fill="none" xmlns="http://www.w3.org/2000/svg">
<path id="Vector" d="M8.71944 50.9268C6.0673 49.273 3.95132 46.9872 2.37146 44.0679C0.789925 41.1502 0 37.8426 0 34.145C0 30.4475 0.789925 27.1416 2.37146 24.2222C3.95132 21.3045 6.0673 19.0188 8.71944 17.3633C11.3699 15.7095 14.2758 14.8826 17.4389 14.8826C19.9667 14.8826 22.1919 15.3935 24.1146 16.4154C26.0357 17.4372 27.4827 18.7499 28.4559 20.3549H29.0391L28.4559 15.2473V0H37.94V52.2394H29.0391V47.8612H28.4559C27.4827 49.4663 26.0357 50.7923 24.1146 51.8377C22.1919 52.8831 19.9667 53.4058 17.4389 53.4058C14.2758 53.4058 11.3699 52.5789 8.71944 50.9251V50.9268ZM24.0776 43.3032C25.5852 42.4527 26.7886 41.2359 27.6895 39.6544C28.5887 38.0745 29.0391 36.2375 29.0391 34.145C29.0391 32.0526 28.5887 30.2172 27.6895 28.6357C26.7886 27.0559 25.5852 25.839 24.0776 24.9869C22.5701 24.1365 20.965 23.7096 19.2625 23.7096C17.5599 23.7096 15.9666 24.1365 14.4842 24.9869C13.0002 25.839 11.8086 27.0542 10.9094 28.6357C10.0085 30.2172 9.55978 32.0542 9.55978 34.145C9.55978 36.2358 10.0085 38.0006 10.9094 39.5804C11.8086 41.1619 13.0002 42.3889 14.4842 43.2645C15.9666 44.1401 17.5599 44.5771 19.2625 44.5771C20.965 44.5771 22.5701 44.1519 24.0776 43.2998V43.3032Z" fill="var(--fill-0, black)"/>
</svg>
