<svg preserveAspectRatio="none" width="100%" height="100%" overflow="visible" style="display: block;" viewBox="0 0 82 31" fill="none" xmlns="http://www.w3.org/2000/svg">
<path id="Vector" d="M67.0159 1.0045C61.6154 0.870237 56.8717 3.7555 54.316 8.10911C54.0971 8.48191 53.5638 8.49191 53.3449 8.11911C50.8467 3.85834 46.2532 1.00022 40.9986 1.00022C35.7441 1.00022 31.1505 3.85692 28.6524 8.11911C28.4334 8.49191 27.9001 8.48334 27.6812 8.10911C25.1255 3.7555 20.3804 0.870237 14.9813 1.0045C7.48402 1.19019 1.1053 7.71203 1.00144 15.2937C0.889165 23.3967 7.3535 30 15.342 30C20.5965 30 25.1901 27.1433 27.6882 22.8811C27.9043 22.5126 28.4377 22.5126 28.6538 22.8811C31.1519 27.1419 35.7455 30 41 30C46.2546 30 50.8481 27.1433 53.3463 22.8811C53.5624 22.5126 54.0957 22.5126 54.3118 22.8811C56.81 27.1419 61.4035 30 66.6581 30C74.6465 30 81.1095 23.3967 80.9986 15.2937C80.8947 7.71203 74.516 1.19019 67.0187 1.0045H67.0159Z" fill="var(--fill-0, #F8D8D8)" stroke="var(--stroke-0, #1E1E1E)" stroke-width="2" stroke-miterlimit="10"/>
</svg>
