<svg preserveAspectRatio="none" width="100%" height="100%" overflow="visible" style="display: block;" viewBox="0 0 678 667" fill="none" xmlns="http://www.w3.org/2000/svg">
<g id="Vector" filter="url(#filter0_f_80_366)">
<path d="M665.5 276.692V115.111C665.5 109.106 660.631 104.241 654.619 104.241H568.518V23.3698C568.518 17.3643 563.649 12.5 557.637 12.5H395.883C389.871 12.5 385.002 17.3643 385.002 23.3698V104.241H292.998V23.3698C292.998 17.3643 288.129 12.5 282.117 12.5H120.363C114.351 12.5 109.482 17.3643 109.482 23.3698V104.241H23.3815C17.3695 104.241 12.5 109.106 12.5 115.111V276.692C12.5 282.697 17.3695 287.561 23.3815 287.561H109.482V379.466H23.3815C17.3695 379.466 12.5 384.33 12.5 390.336V551.916C12.5 557.921 17.3695 562.786 23.3815 562.786H109.482V643.63C109.482 649.636 114.351 654.5 120.363 654.5H282.117C288.129 654.5 292.998 649.636 292.998 643.63V562.786H385.002V643.63C385.002 649.636 389.871 654.5 395.883 654.5H557.637C563.649 654.5 568.518 649.636 568.518 643.63V562.786H654.619C660.631 562.786 665.5 557.921 665.5 551.916V390.336C665.5 384.33 660.631 379.466 654.619 379.466H568.518V287.561H654.619C660.631 287.561 665.5 282.697 665.5 276.692ZM385.002 379.466H292.998V287.561H385.002V379.466Z" fill="var(--fill-0, #34A853)" fill-opacity="0.3"/>
<path d="M665.5 276.692V115.111C665.5 109.106 660.631 104.241 654.619 104.241H568.518V23.3698C568.518 17.3643 563.649 12.5 557.637 12.5H395.883C389.871 12.5 385.002 17.3643 385.002 23.3698V104.241H292.998V23.3698C292.998 17.3643 288.129 12.5 282.117 12.5H120.363C114.351 12.5 109.482 17.3643 109.482 23.3698V104.241H23.3815C17.3695 104.241 12.5 109.106 12.5 115.111V276.692C12.5 282.697 17.3695 287.561 23.3815 287.561H109.482V379.466H23.3815C17.3695 379.466 12.5 384.33 12.5 390.336V551.916C12.5 557.921 17.3695 562.786 23.3815 562.786H109.482V643.63C109.482 649.636 114.351 654.5 120.363 654.5H282.117C288.129 654.5 292.998 649.636 292.998 643.63V562.786H385.002V643.63C385.002 649.636 389.871 654.5 395.883 654.5H557.637C563.649 654.5 568.518 649.636 568.518 643.63V562.786H654.619C660.631 562.786 665.5 557.921 665.5 551.916V390.336C665.5 384.33 660.631 379.466 654.619 379.466H568.518V287.561H654.619C660.631 287.561 665.5 282.697 665.5 276.692ZM385.002 379.466H292.998V287.561H385.002V379.466Z" stroke="var(--stroke-0, #1E1E1E)" stroke-width="5" stroke-linejoin="round"/>
</g>
<defs>
<filter id="filter0_f_80_366" x="0" y="0" width="678" height="667" filterUnits="userSpaceOnUse" color-interpolation-filters="sRGB">
<feFlood flood-opacity="0" result="BackgroundImageFix"/>
<feBlend mode="normal" in="SourceGraphic" in2="BackgroundImageFix" result="shape"/>
<feGaussianBlur stdDeviation="5" result="effect1_foregroundBlur_80_366"/>
</filter>
</defs>
</svg>
