<svg preserveAspectRatio="none" width="100%" height="100%" overflow="visible" style="display: block;" viewBox="0 0 42.009 122.032" fill="none" xmlns="http://www.w3.org/2000/svg">
<path id="Vector" d="M39.7132 50.236H34.6929C32.903 50.236 31.4526 48.7856 31.4526 46.9956V17.2002C31.4526 8.25221 24.1987 1 15.2523 1H2.29581C1.57983 1 1 1.57984 1 2.29582V20.4742C1 21.1902 1.57983 21.7701 2.29581 21.7701H12.2422C14.0321 21.7701 15.4826 23.2205 15.4826 25.0104V97.0216C15.4826 98.8115 14.0321 100.262 12.2422 100.262H2.29581C1.57983 100.262 1 100.842 1 101.558V119.736C1 120.452 1.57983 121.032 2.29581 121.032H15.2523C24.2003 121.032 31.4526 113.778 31.4526 104.832V75.0565C31.4526 73.2666 32.903 71.8162 34.6929 71.8162H39.7132C40.4291 71.8162 41.009 71.2363 41.009 70.5203V51.5335C41.009 50.8175 40.4291 50.2377 39.7132 50.2377V50.236Z" fill="var(--fill-0, #FF585A)" stroke="var(--stroke-0, black)" stroke-width="2" stroke-miterlimit="10"/>
</svg>
