<svg preserveAspectRatio="none" width="100%" height="100%" overflow="visible" style="display: block;" viewBox="0 0 114 42" fill="none" xmlns="http://www.w3.org/2000/svg">
<path id="Vector" d="M93.4223 1.0062C85.8616 0.821012 79.2204 4.80069 75.6425 10.8057C75.3359 11.3199 74.5893 11.3337 74.2828 10.8195C70.7854 4.94254 64.3544 1.00029 56.9981 1.00029C49.6417 1.00029 43.2108 4.94057 39.7133 10.8195C39.4068 11.3337 38.6602 11.3218 38.3537 10.8057C34.7757 4.80069 28.1326 0.821012 20.5738 1.0062C10.0776 1.26232 1.14742 10.258 1.00202 20.7155C0.844832 31.8921 9.8949 41 21.0788 41C28.4352 41 34.8661 37.0597 38.3635 31.1808C38.6661 30.6725 39.4127 30.6725 39.7153 31.1808C43.2127 37.0578 49.6437 41 57 41C64.3564 41 70.7873 37.0597 74.2848 31.1808C74.5873 30.6725 75.334 30.6725 75.6366 31.1808C79.134 37.0578 85.5649 41 92.9213 41C104.105 41 113.153 31.8921 112.998 20.7155C112.853 10.258 103.922 1.26232 93.4262 1.0062H93.4223Z" fill="var(--fill-0, #F8D8D8)" stroke="var(--stroke-0, #1E1E1E)" stroke-width="2" stroke-miterlimit="10"/>
</svg>
