<svg preserveAspectRatio="none" width="100%" height="100%" overflow="visible" style="display: block;" viewBox="0 0 145.504 143.262" fill="none" xmlns="http://www.w3.org/2000/svg">
<g id="Vector" filter="url(#filter0_f_80_397)">
<path d="M133.004 61.1665V31.4019C133.004 30.2957 132.106 29.3996 130.996 29.3996H115.107V14.5023C115.107 13.396 114.209 12.5 113.099 12.5H83.2493C82.1398 12.5 81.2412 13.396 81.2412 14.5023V29.3996H64.263V14.5023C64.263 13.396 63.3644 12.5 62.2549 12.5H32.405C31.2955 12.5 30.3969 13.396 30.3969 14.5023V29.3996H14.5081C13.3986 29.3996 12.5 30.2957 12.5 31.4019V61.1665C12.5 62.2728 13.3986 63.1688 14.5081 63.1688H30.3969V80.0985H14.5081C13.3986 80.0985 12.5 80.9945 12.5 82.1008V111.865C12.5 112.972 13.3986 113.868 14.5081 113.868H30.3969V128.76C30.3969 129.866 31.2955 130.762 32.405 130.762H62.2549C63.3644 130.762 64.263 129.866 64.263 128.76V113.868H81.2412V128.76C81.2412 129.866 82.1398 130.762 83.2493 130.762H113.099C114.209 130.762 115.107 129.866 115.107 128.76V113.868H130.996C132.106 113.868 133.004 112.972 133.004 111.865V82.1008C133.004 80.9945 132.106 80.0985 130.996 80.0985H115.107V63.1688H130.996C132.106 63.1688 133.004 62.2728 133.004 61.1665ZM81.2412 80.0985H64.263V63.1688H81.2412V80.0985Z" fill="var(--fill-0, #34A853)" fill-opacity="0.54"/>
<path d="M133.004 61.1665V31.4019C133.004 30.2957 132.106 29.3996 130.996 29.3996H115.107V14.5023C115.107 13.396 114.209 12.5 113.099 12.5H83.2493C82.1398 12.5 81.2412 13.396 81.2412 14.5023V29.3996H64.263V14.5023C64.263 13.396 63.3644 12.5 62.2549 12.5H32.405C31.2955 12.5 30.3969 13.396 30.3969 14.5023V29.3996H14.5081C13.3986 29.3996 12.5 30.2957 12.5 31.4019V61.1665C12.5 62.2728 13.3986 63.1688 14.5081 63.1688H30.3969V80.0985H14.5081C13.3986 80.0985 12.5 80.9945 12.5 82.1008V111.865C12.5 112.972 13.3986 113.868 14.5081 113.868H30.3969V128.76C30.3969 129.866 31.2955 130.762 32.405 130.762H62.2549C63.3644 130.762 64.263 129.866 64.263 128.76V113.868H81.2412V128.76C81.2412 129.866 82.1398 130.762 83.2493 130.762H113.099C114.209 130.762 115.107 129.866 115.107 128.76V113.868H130.996C132.106 113.868 133.004 112.972 133.004 111.865V82.1008C133.004 80.9945 132.106 80.0985 130.996 80.0985H115.107V63.1688H130.996C132.106 63.1688 133.004 62.2728 133.004 61.1665ZM81.2412 80.0985H64.263V63.1688H81.2412V80.0985Z" stroke="var(--stroke-0, #1E1E1E)" stroke-width="5" stroke-linejoin="round"/>
</g>
<defs>
<filter id="filter0_f_80_397" x="0" y="0" width="145.504" height="143.262" filterUnits="userSpaceOnUse" color-interpolation-filters="sRGB">
<feFlood flood-opacity="0" result="BackgroundImageFix"/>
<feBlend mode="normal" in="SourceGraphic" in2="BackgroundImageFix" result="shape"/>
<feGaussianBlur stdDeviation="5" result="effect1_foregroundBlur_80_397"/>
</filter>
</defs>
</svg>
