<svg preserveAspectRatio="none" width="100%" height="100%" overflow="visible" style="display: block;" viewBox="0 0 206 203" fill="none" xmlns="http://www.w3.org/2000/svg">
<g id="Vector" opacity="0.29" filter="url(#filter0_f_70_246)">
<path d="M193.5 85.7494V40.9499C193.5 39.2848 192.15 37.9361 190.484 37.9361H166.618V15.5138C166.618 13.8487 165.269 12.5 163.602 12.5H118.767C117.101 12.5 115.751 13.8487 115.751 15.5138V37.9361H90.2491V15.5138C90.2491 13.8487 88.8994 12.5 87.233 12.5H42.3977C40.7313 12.5 39.3816 13.8487 39.3816 15.5138V37.9361H15.5162C13.8497 37.9361 12.5 39.2848 12.5 40.9499V85.7494C12.5 87.4145 13.8497 88.7631 15.5162 88.7631H39.3816V114.244H15.5162C13.8497 114.244 12.5 115.593 12.5 117.258V162.058C12.5 163.723 13.8497 165.071 15.5162 165.071H39.3816V187.486C39.3816 189.151 40.7313 190.5 42.3977 190.5H87.233C88.8994 190.5 90.2491 189.151 90.2491 187.486V165.071H115.751V187.486C115.751 189.151 117.101 190.5 118.767 190.5H163.602C165.269 190.5 166.618 189.151 166.618 187.486V165.071H190.484C192.15 165.071 193.5 163.723 193.5 162.058V117.258C193.5 115.593 192.15 114.244 190.484 114.244H166.618V88.7631H190.484C192.15 88.7631 193.5 87.4145 193.5 85.7494ZM115.751 114.244H90.2491V88.7631H115.751V114.244Z" fill="var(--fill-0, #34A853)"/>
<path d="M193.5 85.7494V40.9499C193.5 39.2848 192.15 37.9361 190.484 37.9361H166.618V15.5138C166.618 13.8487 165.269 12.5 163.602 12.5H118.767C117.101 12.5 115.751 13.8487 115.751 15.5138V37.9361H90.2491V15.5138C90.2491 13.8487 88.8994 12.5 87.233 12.5H42.3977C40.7313 12.5 39.3816 13.8487 39.3816 15.5138V37.9361H15.5162C13.8497 37.9361 12.5 39.2848 12.5 40.9499V85.7494C12.5 87.4145 13.8497 88.7631 15.5162 88.7631H39.3816V114.244H15.5162C13.8497 114.244 12.5 115.593 12.5 117.258V162.058C12.5 163.723 13.8497 165.071 15.5162 165.071H39.3816V187.486C39.3816 189.151 40.7313 190.5 42.3977 190.5H87.233C88.8994 190.5 90.2491 189.151 90.2491 187.486V165.071H115.751V187.486C115.751 189.151 117.101 190.5 118.767 190.5H163.602C165.269 190.5 166.618 189.151 166.618 187.486V165.071H190.484C192.15 165.071 193.5 163.723 193.5 162.058V117.258C193.5 115.593 192.15 114.244 190.484 114.244H166.618V88.7631H190.484C192.15 88.7631 193.5 87.4145 193.5 85.7494ZM115.751 114.244H90.2491V88.7631H115.751V114.244Z" stroke="var(--stroke-0, #1E1E1E)" stroke-width="5" stroke-linejoin="round"/>
</g>
<defs>
<filter id="filter0_f_70_246" x="0" y="0" width="206" height="203" filterUnits="userSpaceOnUse" color-interpolation-filters="sRGB">
<feFlood flood-opacity="0" result="BackgroundImageFix"/>
<feBlend mode="normal" in="SourceGraphic" in2="BackgroundImageFix" result="shape"/>
<feGaussianBlur stdDeviation="5" result="effect1_foregroundBlur_70_246"/>
</filter>
</defs>
</svg>
