<svg preserveAspectRatio="none" width="100%" height="100%" overflow="visible" style="display: block;" viewBox="0 0 185.889 82.024" fill="none" xmlns="http://www.w3.org/2000/svg">
<g id="Vector" filter="url(#filter0_f_80_434)">
<path d="M145.265 12.5088C134.404 12.2448 124.864 17.9183 119.725 26.479C119.284 27.212 118.212 27.2317 117.771 26.4986C112.747 18.1205 103.509 12.5004 92.9417 12.5004C82.3742 12.5004 73.1361 18.1177 68.1121 26.4986C67.6718 27.2317 66.5992 27.2148 66.1589 26.479C61.0191 17.9183 51.4762 12.2448 40.618 12.5088C25.5401 12.874 12.7118 25.6982 12.5029 40.6063C12.2771 56.5397 25.2776 69.524 41.3434 69.524C51.9108 69.524 61.1489 63.9067 66.173 55.5258C66.6077 54.8011 67.6802 54.8011 68.1149 55.5258C73.139 63.9039 82.377 69.524 92.9445 69.524C103.512 69.524 112.75 63.9067 117.774 55.5258C118.209 54.8011 119.281 54.8011 119.716 55.5258C124.74 63.9039 133.978 69.524 144.546 69.524C160.612 69.524 173.609 56.5397 173.386 40.6063C173.177 25.6982 160.349 12.874 145.271 12.5088H145.265Z" fill="var(--fill-0, #F8D8D8)"/>
<path d="M145.265 12.5088C134.404 12.2448 124.864 17.9183 119.725 26.479C119.284 27.212 118.212 27.2317 117.771 26.4986C112.747 18.1205 103.509 12.5004 92.9417 12.5004C82.3742 12.5004 73.1361 18.1177 68.1121 26.4986C67.6718 27.2317 66.5992 27.2148 66.1589 26.479C61.0191 17.9183 51.4762 12.2448 40.618 12.5088C25.5401 12.874 12.7118 25.6982 12.5029 40.6063C12.2771 56.5397 25.2776 69.524 41.3434 69.524C51.9108 69.524 61.1489 63.9067 66.173 55.5258C66.6077 54.8011 67.6802 54.8011 68.1149 55.5258C73.139 63.9039 82.377 69.524 92.9445 69.524C103.512 69.524 112.75 63.9067 117.774 55.5258C118.209 54.8011 119.281 54.8011 119.716 55.5258C124.74 63.9039 133.978 69.524 144.546 69.524C160.612 69.524 173.609 56.5397 173.386 40.6063C173.177 25.6982 160.349 12.874 145.271 12.5088H145.265Z" stroke="var(--stroke-0, #1E1E1E)" stroke-width="5" stroke-miterlimit="10"/>
</g>
<defs>
<filter id="filter0_f_80_434" x="0" y="2.38419e-07" width="185.889" height="82.024" filterUnits="userSpaceOnUse" color-interpolation-filters="sRGB">
<feFlood flood-opacity="0" result="BackgroundImageFix"/>
<feBlend mode="normal" in="SourceGraphic" in2="BackgroundImageFix" result="shape"/>
<feGaussianBlur stdDeviation="5" result="effect1_foregroundBlur_80_434"/>
</filter>
</defs>
</svg>
