<svg preserveAspectRatio="none" width="100%" height="100%" overflow="visible" style="display: block;" viewBox="0 0 24.9533 48.157" fill="none" xmlns="http://www.w3.org/2000/svg">
<path id="Vector" d="M13.4977 47.3368C12.0388 46.7906 10.7985 45.9956 9.77661 44.9536C7.48918 42.7199 6.34798 39.5434 6.34798 35.4241V18.97H0V10.7985H6.34798V0H15.9061V10.7985H24.8071V18.97H15.9061V33.7702C15.9061 35.7249 16.3196 37.1266 17.1465 37.9787C17.8271 38.7804 18.9448 39.1804 20.5028 39.1804C21.3297 39.1804 22.0709 39.0712 22.7281 38.8527C23.3852 38.6342 24.1264 38.2812 24.9533 37.7955V46.9889C22.9113 47.7671 20.7213 48.157 18.3868 48.157C16.5868 48.157 14.9582 47.8831 13.4977 47.3385V47.3368Z" fill="var(--fill-0, black)"/>
</svg>
