<svg preserveAspectRatio="none" width="100%" height="100%" overflow="visible" style="display: block;" viewBox="0 0 34.2207 37.3568" fill="none" xmlns="http://www.w3.org/2000/svg">
<path id="Vector" d="M3.42863 33.2694C1.1412 30.5467 0 26.7752 0 21.96V0H9.55813V20.7936C9.55813 23.2743 10.1413 25.1836 11.3094 26.5214C12.4775 27.8592 14.1296 28.5281 16.2708 28.5281C18.849 28.5281 20.8911 27.5315 22.4003 25.5365C23.9079 23.5432 24.6626 21.0138 24.6626 17.9482V0H34.2207V36.1888H25.2458V31.5198H24.6626C23.4945 33.3198 21.9381 34.7417 19.9936 35.7888C18.0473 36.8342 15.8826 37.3568 13.4994 37.3568C9.0724 37.3568 5.71606 35.9955 3.43031 33.2711L3.42863 33.2694Z" fill="var(--fill-0, black)"/>
</svg>
