<svg preserveAspectRatio="none" width="100%" height="100%" overflow="visible" style="display: block;" viewBox="0 0 42.009 122.032" fill="none" xmlns="http://www.w3.org/2000/svg">
<path id="Vector" d="M2.29582 71.796H7.31606C9.106 71.796 10.5564 73.2464 10.5564 75.0364V104.832C10.5564 113.78 17.8103 121.032 26.7567 121.032H39.7132C40.4291 121.032 41.009 120.452 41.009 119.736V101.558C41.009 100.842 40.4291 100.262 39.7132 100.262H29.7668C27.9769 100.262 26.5264 98.8115 26.5264 97.0216V25.0104C26.5264 23.2205 27.9769 21.7701 29.7668 21.7701H39.7132C40.4291 21.7701 41.009 21.1902 41.009 20.4742V2.29582C41.009 1.57984 40.4291 1 39.7132 1H26.7567C17.8086 1 10.5564 8.25389 10.5564 17.2002V46.9755C10.5564 48.7654 9.106 50.2158 7.31606 50.2158H2.29582C1.57984 50.2158 1 50.7957 1 51.5117V70.4985C1 71.2145 1.57984 71.7943 2.29582 71.7943V71.796Z" fill="var(--fill-0, #FF585A)" stroke="var(--stroke-0, black)" stroke-width="2" stroke-miterlimit="10"/>
</svg>
