<svg preserveAspectRatio="none" width="100%" height="100%" overflow="visible" style="display: block;" viewBox="0 0 34.2913 52.2411" fill="none" xmlns="http://www.w3.org/2000/svg">
<path id="Vector" d="M0 0H9.55813V14.1548L8.97492 20.7213H9.55813C10.58 18.97 12.0758 17.5599 14.0456 16.4893C16.0154 15.4204 18.1919 14.8843 20.5751 14.8843C25.0978 14.8843 28.5147 16.2221 30.8257 18.8978C33.1349 21.5734 34.2913 25.318 34.2913 30.1332V52.2411H24.7331V31.3013C24.7331 28.8693 24.1247 26.997 22.9096 25.6827C21.6928 24.3701 20.0389 23.7129 17.9482 23.7129C15.4187 23.7129 13.3884 24.7348 11.8556 26.7769C10.3228 28.8206 9.55813 31.35 9.55813 34.3652V52.2411H0V0.00168234V0Z" fill="var(--fill-0, black)"/>
</svg>
