<svg preserveAspectRatio="none" width="100%" height="100%" overflow="visible" style="display: block;" viewBox="0 0 235.355 24.5674" fill="none" xmlns="http://www.w3.org/2000/svg">
<g id="Group">
<path id="Vector" d="M0 24.044V0.621561H8.89416C10.2071 0.621561 11.3824 0.905075 12.42 1.47211C13.4789 2.0173 14.3153 2.74792 14.9293 3.66386C15.5434 4.5798 15.8504 5.60485 15.8504 6.73886C15.8504 7.96015 15.5543 8.99607 14.9611 9.84661C14.3895 10.6972 13.6695 11.3405 12.8012 11.7766V12.0384C13.9659 12.4527 14.8979 13.1397 15.5966 14.0993C16.3167 15.0371 16.6765 16.182 16.6765 17.5341C16.6765 18.8645 16.3376 20.0203 15.6598 21.0017C15.0034 21.9613 14.1036 22.7136 12.96 23.2589C11.8377 23.7823 10.5883 24.044 9.21181 24.044H0ZM4.28823 13.9684V20.0203H9.05296C9.77296 20.0203 10.3765 19.8895 10.8636 19.6277C11.3507 19.366 11.7213 19.0062 11.9754 18.5482C12.2294 18.0902 12.3565 17.5777 12.3565 17.0107C12.3565 16.4219 12.2294 15.8985 11.9754 15.4405C11.7213 14.9825 11.3401 14.6227 10.8318 14.361C10.3236 14.0993 9.68826 13.9684 8.92591 13.9684H4.28823ZM4.28823 10.1737H8.57651C9.23296 10.1737 9.78356 10.0538 10.2283 9.81386C10.6942 9.55218 11.0436 9.20327 11.2765 8.76708C11.5306 8.33089 11.6577 7.86201 11.6577 7.36042C11.6577 6.83701 11.5412 6.36812 11.3083 5.95376C11.0754 5.53941 10.7365 5.21228 10.2918 4.97238C9.84711 4.7107 9.31766 4.5798 8.70356 4.5798H4.28823V10.1737ZM25.6222 24.5674C23.6317 24.5674 22.1387 23.9349 21.1434 22.67C20.1481 21.4051 19.6505 19.6823 19.6505 17.5014V7.36042H23.8118V16.978C23.8118 18.1121 24.0766 19.0062 24.606 19.6605C25.1564 20.2929 25.8551 20.6091 26.7021 20.6091C27.5282 20.6091 28.2269 20.402 28.7987 19.9876C29.3705 19.5514 29.8045 18.9735 30.1011 18.2538C30.4186 17.5341 30.5778 16.7381 30.5778 15.8658V7.36042H34.7387V24.044H30.8316V21.9504H30.5778C30.2598 22.4738 29.8473 22.9318 29.3387 23.3243C28.8306 23.7169 28.2588 24.0222 27.6233 24.2403C27.0092 24.4583 26.3423 24.5674 25.6222 24.5674ZM38.7308 24.044V7.36042H42.8921V24.044H38.7308ZM40.8274 5.52849C40.0864 5.52849 39.4509 5.25589 38.9214 4.7107C38.3924 4.16545 38.1276 3.51119 38.1276 2.74792C38.1276 1.9846 38.3924 1.34126 38.9214 0.817848C39.4509 0.27265 40.0864 1.90735e-07 40.8274 1.90735e-07C41.5689 1.90735e-07 42.1934 0.27265 42.7015 0.817848C43.231 1.34126 43.4958 1.9846 43.4958 2.74792C43.4958 3.51119 43.231 4.16545 42.7015 4.7107C42.1934 5.25589 41.5689 5.52849 40.8274 5.52849ZM46.8892 24.044V0.621561H51.0506V24.044H46.8892ZM62.0043 24.5674C60.5218 24.5674 59.1876 24.1967 58.0017 23.4552C56.8158 22.6919 55.8738 21.645 55.1746 20.3147C54.4973 18.9844 54.1584 17.4469 54.1584 15.7022C54.1584 13.9575 54.4973 12.42 55.1746 11.0897C55.8738 9.75938 56.8158 8.72347 58.0017 7.98198C59.1876 7.21867 60.5218 6.83701 62.0043 6.83701C62.7876 6.83701 63.4972 6.95698 64.1327 7.19683C64.7677 7.43673 65.3186 7.753 65.7844 8.14552C66.2502 8.5381 66.61 8.95245 66.8643 9.38864H67.1186L66.8643 7.03329V0.621561H70.9938V24.044H67.1186V22.0485H66.8643C66.61 22.4847 66.2502 22.899 65.7844 23.2916C65.3186 23.6623 64.7677 23.9677 64.1327 24.2076C63.4972 24.4474 62.7876 24.5674 62.0043 24.5674ZM62.703 20.6091C63.4868 20.6091 64.2064 20.402 64.8633 19.9876C65.5406 19.5732 66.0805 19.0062 66.4831 18.2865C66.9066 17.545 67.1186 16.6836 67.1186 15.7022C67.1186 14.7208 66.9066 13.8703 66.4831 13.1506C66.0805 12.4091 65.5406 11.8421 64.8633 11.4495C64.2064 11.0351 63.4868 10.828 62.703 10.828C61.9406 10.828 61.2205 11.0351 60.5432 11.4495C59.8868 11.8421 59.3468 12.3982 58.9229 13.1179C58.5208 13.8376 58.3197 14.699 58.3197 15.7022C58.3197 16.6836 58.5208 17.545 58.9229 18.2865C59.3468 19.028 59.8868 19.6059 60.5432 20.0203C61.2205 20.4129 61.9406 20.6091 62.703 20.6091ZM85.7739 24.044L80.6283 7.36042H85.2977L88.093 18.1884H88.3154L91.5551 7.36042H95.812L99.0517 18.1884H99.2741L102.069 7.36042H106.675L101.498 24.044H97.0188L93.7154 13.2487H93.4929L90.2209 24.044H85.7739ZM108.868 24.044V7.36042H113.029V24.044H108.868ZM110.964 5.52849C110.223 5.52849 109.588 5.25589 109.059 4.7107C108.529 4.16545 108.265 3.51119 108.265 2.74792C108.265 1.9846 108.529 1.34126 109.059 0.817848C109.588 0.27265 110.223 1.90735e-07 110.964 1.90735e-07C111.706 1.90735e-07 112.33 0.27265 112.839 0.817848C113.368 1.34126 113.633 1.9846 113.633 2.74792C113.633 3.51119 113.368 4.16545 112.839 4.7107C112.33 5.25589 111.706 5.52849 110.964 5.52849ZM115.819 11.0243V7.36042H118.647V2.64978H122.808V7.36042H126.778V11.0243H122.808V17.9267C122.808 18.7336 122.967 19.3333 123.284 19.7259C123.602 20.0966 124.121 20.282 124.841 20.282C125.18 20.282 125.497 20.2384 125.794 20.1511C126.09 20.0421 126.461 19.8458 126.906 19.5623V23.7496C126.439 23.9241 125.963 24.0549 125.476 24.1421C125.01 24.2512 124.523 24.3057 124.015 24.3057C122.342 24.3057 121.029 23.815 120.076 22.8336C119.123 21.8304 118.647 20.4565 118.647 18.7118V11.0243H115.819ZM130.21 24.044V0.621561H134.371V6.54258L134.117 9.45404H134.371C134.837 8.69077 135.504 8.06921 136.372 7.58941C137.262 7.08782 138.236 6.83701 139.295 6.83701C140.629 6.83701 141.751 7.12052 142.662 7.68755C143.573 8.23275 144.25 9.0179 144.695 10.0429C145.161 11.0679 145.394 12.2783 145.394 13.674V24.044H141.232V14.1974C141.232 13.4559 141.095 12.8453 140.82 12.3655C140.565 11.8639 140.206 11.4823 139.739 11.2205C139.295 10.9588 138.765 10.828 138.151 10.828C137.41 10.828 136.753 11.0461 136.182 11.4823C135.61 11.8966 135.165 12.4636 134.848 13.1833C134.53 13.903 134.371 14.699 134.371 15.5713V24.044H130.21ZM155.177 24.044L163.69 0.621561H168.613L177.158 24.044H172.425L170.519 18.4501H161.816L159.91 24.044H155.177ZM169.121 14.3937L167.12 8.50535L166.294 5.69208H166.041L165.214 8.50535L163.213 14.3937H169.121ZM180.197 24.044V0.621561H184.485V24.044H180.197Z" fill="var(--fill-0, #1E1E1E)"/>
<path id="Vector_2" d="M205.816 2.28126L196.537 9.14779C194.591 10.5881 194.147 13.3805 195.546 15.3849L195.548 15.389C196.947 17.3934 199.658 17.8507 201.604 16.4104L210.884 9.54385C212.83 8.10357 213.274 5.31116 211.875 3.30678L211.872 3.30262C210.474 1.29829 207.762 0.841037 205.816 2.28126Z" fill="var(--fill-0, #EA4435)" stroke="var(--stroke-0, #1E1E1E)" stroke-width="0.5" stroke-miterlimit="10"/>
<path id="Vector_3" d="M195.526 10.1423L195.523 10.1465C194.124 12.1508 194.568 14.9432 196.515 16.3835L205.794 23.25C207.74 24.6903 210.451 24.233 211.85 22.2287L211.853 22.2245C213.252 20.2201 212.808 17.4277 210.861 15.9875L201.582 9.12094C199.636 7.68071 196.925 8.13796 195.526 10.1423Z" fill="var(--fill-0, #547DBF)" stroke="var(--stroke-0, #1E1E1E)" stroke-width="0.5" stroke-miterlimit="10"/>
<path id="Vector_4" d="M228.23 9.15143L218.951 16.018C217.004 17.4582 216.56 20.2506 217.959 22.255L217.962 22.2591C219.36 24.2635 222.072 24.7208 224.018 23.2805L233.297 16.414C235.243 14.9737 235.688 12.1813 234.289 10.1769L234.286 10.1728C232.887 8.16841 230.176 7.71115 228.23 9.15143Z" fill="var(--fill-0, #F7AB1B)" stroke="var(--stroke-0, #1E1E1E)" stroke-width="0.5" stroke-miterlimit="10"/>
<path id="Vector_5" d="M217.936 3.27891L217.933 3.28306C216.534 5.2874 216.978 8.07986 218.925 9.52014L228.204 16.3867C230.15 17.8269 232.861 17.3696 234.26 15.3653L234.263 15.3612C235.662 13.3568 235.218 10.5644 233.271 9.12407L223.992 2.25755C222.046 0.81727 219.335 1.27457 217.936 3.27891Z" fill="var(--fill-0, #33A852)" stroke="var(--stroke-0, #1E1E1E)" stroke-width="0.5" stroke-miterlimit="10"/>
</g>
</svg>
