<svg preserveAspectRatio="none" width="100%" height="100%" overflow="visible" style="display: block;" viewBox="0 0 200 200" fill="none" xmlns="http://www.w3.org/2000/svg">
<g id="Vector" filter="url(#filter0_f_80_430)">
<path d="M186.504 44.6891L155.311 13.496C153.983 12.168 151.836 12.168 150.515 13.496L100 64.0114L49.4845 13.496C48.1565 12.168 46.0096 12.168 44.689 13.496L13.496 44.6891C12.168 46.017 12.168 48.164 13.496 49.4846L64.0114 100L13.496 150.515C12.168 151.843 12.168 153.99 13.496 155.311L44.689 186.504C46.017 187.832 48.1639 187.832 49.4845 186.504L100 135.989L150.515 186.504C151.843 187.832 153.99 187.832 155.311 186.504L186.504 155.311C187.832 153.983 187.832 151.836 186.504 150.515L135.989 100L186.504 49.4846C187.832 48.1566 187.832 46.0097 186.504 44.6891Z" fill="var(--fill-0, #FF7DAF)" fill-opacity="0.59"/>
<path d="M186.504 44.6891L155.311 13.496C153.983 12.168 151.836 12.168 150.515 13.496L100 64.0114L49.4845 13.496C48.1565 12.168 46.0096 12.168 44.689 13.496L13.496 44.6891C12.168 46.017 12.168 48.164 13.496 49.4846L64.0114 100L13.496 150.515C12.168 151.843 12.168 153.99 13.496 155.311L44.689 186.504C46.017 187.832 48.1639 187.832 49.4845 186.504L100 135.989L150.515 186.504C151.843 187.832 153.99 187.832 155.311 186.504L186.504 155.311C187.832 153.983 187.832 151.836 186.504 150.515L135.989 100L186.504 49.4846C187.832 48.1566 187.832 46.0097 186.504 44.6891Z" stroke="var(--stroke-0, #1E1E1E)" stroke-width="5" stroke-miterlimit="10"/>
</g>
<defs>
<filter id="filter0_f_80_430" x="-2.38419e-07" y="-2.38419e-07" width="200" height="200" filterUnits="userSpaceOnUse" color-interpolation-filters="sRGB">
<feFlood flood-opacity="0" result="BackgroundImageFix"/>
<feBlend mode="normal" in="SourceGraphic" in2="BackgroundImageFix" result="shape"/>
<feGaussianBlur stdDeviation="5" result="effect1_foregroundBlur_80_430"/>
</filter>
</defs>
</svg>
