<svg preserveAspectRatio="none" width="100%" height="100%" overflow="visible" style="display: block;" viewBox="0 0 535.738 299.935" fill="none" xmlns="http://www.w3.org/2000/svg">
<g id="Group">
<path id="Vector" d="M2.33968 1.44283H52.7624C59.9638 1.44283 66.597 2.94371 72.6618 5.94132C78.7225 8.94308 83.4931 13.0228 86.9777 18.1805C90.4581 23.3424 92.2004 28.9811 92.2004 35.1007C92.2004 41.581 90.6074 47.1906 87.4298 51.9296C84.2481 56.6727 80.0749 60.3005 74.9144 62.8172V64.2558C81.6388 66.6564 86.9818 70.4667 90.9434 75.6866C94.9051 80.9065 96.8879 87.1795 96.8879 94.4932C96.8879 101.807 94.9963 107.844 91.2131 113.3C87.4298 118.76 82.3274 122.96 75.9058 125.9C69.4801 128.839 62.3699 130.311 54.5669 130.311H2.34383V1.44283H2.33968ZM50.962 53.9985C56.3631 53.9985 60.6234 52.5307 63.7471 49.587C66.8666 46.6475 68.4306 42.9575 68.4306 38.517C68.4306 34.0766 66.8998 30.569 63.8384 27.6294C60.7769 24.6899 56.724 23.218 51.6838 23.218H26.6529V53.9943H50.9662L50.962 53.9985ZM53.6626 108.175C59.5449 108.175 64.137 106.645 67.4391 103.585C70.7412 100.526 72.3922 96.5372 72.3922 91.6158C72.3922 86.6944 70.708 82.6768 67.3478 79.5549C63.9836 76.437 59.184 74.8739 52.9408 74.8739H26.6488V108.171H53.6626V108.175Z" fill="var(--fill-0, black)"/>
<path id="Vector_2" d="M115.431 123.113C109.785 116.397 106.968 107.093 106.968 95.2146V41.042H130.56V92.3372C130.56 98.4568 131.999 103.167 134.882 106.467C137.765 109.767 141.843 111.417 147.128 111.417C153.492 111.417 158.532 108.959 162.257 104.037C165.978 99.1202 167.841 92.8803 167.841 85.3179V41.042H191.432V130.315H169.28V118.797H167.841C164.958 123.238 161.116 126.745 156.317 129.328C151.513 131.907 146.17 133.197 140.288 133.197C129.361 133.197 121.077 129.838 115.435 123.118L115.431 123.113Z" fill="var(--fill-0, black)"/>
<path id="Vector_3" d="M208.979 25.9213C206.038 22.9236 204.566 19.3248 204.566 15.1207C204.566 10.9166 206.067 7.35513 209.067 4.41142C212.066 1.47186 215.608 0 219.69 0C223.772 0 227.493 1.47186 230.497 4.41142C233.496 7.35099 234.998 10.9208 234.998 15.1207C234.998 19.3207 233.496 22.9236 230.497 25.9213C227.493 28.923 223.893 30.4197 219.69 30.4197C215.488 30.4197 211.916 28.923 208.975 25.9213H208.979ZM207.992 41.042H231.584V130.315H207.992V41.042Z" fill="var(--fill-0, black)"/>
<path id="Vector_4" d="M248.148 1.44283H271.739V130.311H248.148V1.44283Z" fill="var(--fill-0, black)"/>
<path id="Vector_5" d="M302.445 127.073C295.899 122.993 290.676 117.355 286.777 110.153C282.873 102.955 280.924 94.7958 280.924 85.6745C280.924 76.5531 282.873 68.3978 286.777 61.196C290.676 53.9985 295.899 48.3598 302.445 44.2759C308.987 40.1962 316.159 38.1563 323.966 38.1563C330.205 38.1563 335.698 39.4167 340.443 41.9375C345.185 44.4583 348.757 47.6964 351.159 51.6559H352.598L351.159 39.056V1.44283H374.567V130.311H352.598V119.511H351.159C348.757 123.47 345.185 126.741 340.443 129.32C335.698 131.899 330.205 133.188 323.966 133.188C316.159 133.188 308.987 131.149 302.445 127.069V127.073ZM340.352 108.266C344.073 106.168 347.043 103.167 349.267 99.2653C351.486 95.368 352.598 90.8363 352.598 85.6745C352.598 80.5126 351.486 75.9851 349.267 72.0836C347.043 68.1863 344.073 65.1846 340.352 63.0825C336.631 60.9846 332.67 59.9315 328.467 59.9315C324.265 59.9315 320.332 60.9846 316.674 63.0825C313.011 65.1846 310.07 68.1822 307.85 72.0836C305.627 75.9851 304.519 80.5167 304.519 85.6745C304.519 90.8322 305.627 95.1855 307.85 99.0829C310.07 102.984 313.011 106.011 316.674 108.171C320.332 110.331 324.265 111.409 328.467 111.409C332.67 111.409 336.631 110.36 340.352 108.258V108.266Z" fill="var(--fill-0, black)"/>
<path id="Vector_6" d="M2.44958e-05 207.78H26.4704L41.4168 264.478H42.6778L60.6857 207.78H84.8164L102.646 264.478H103.907L118.675 207.78H144.788L116.157 297.054H90.9434L72.7531 240.178H71.6745L53.6667 297.054H28.4533L2.44958e-05 207.78Z" fill="var(--fill-0, black)"/>
<path id="Vector_7" d="M152.255 192.66C149.314 189.662 147.842 186.063 147.842 181.859C147.842 177.655 149.343 174.094 152.343 171.15C155.342 168.21 158.884 166.738 162.966 166.738C167.048 166.738 170.769 168.21 173.773 171.15C176.772 174.089 178.274 177.659 178.274 181.859C178.274 186.059 176.772 189.662 173.773 192.66C170.769 195.662 167.169 197.158 162.966 197.158C158.764 197.158 155.192 195.662 152.251 192.66H152.255ZM151.268 207.78H174.86V297.054H151.268V207.78Z" fill="var(--fill-0, black)"/>
<path id="Vector_8" d="M217.537 297.912C213.937 296.564 210.875 294.603 208.353 292.033C202.707 286.523 199.89 278.687 199.89 268.525V227.935H184.222V207.776H199.89V181.138H223.482V207.776H245.451V227.935H223.482V264.445C223.482 269.267 224.502 272.725 226.543 274.827C228.223 276.804 230.982 277.791 234.828 277.791C236.868 277.791 238.698 277.522 240.32 276.983C241.942 276.444 243.771 275.573 245.812 274.375V297.054C240.772 298.973 235.367 299.935 229.605 299.935C225.162 299.935 221.142 299.259 217.537 297.916V297.912Z" fill="var(--fill-0, black)"/>
<path id="Vector_9" d="M258.054 168.181H281.645V203.1L280.206 219.298H281.645C284.168 214.978 287.86 211.5 292.721 208.858C297.583 206.222 302.955 204.899 308.838 204.899C320.001 204.899 328.434 208.199 334.138 214.8C339.838 221.4 342.692 230.638 342.692 242.516V297.054H319.1V245.398C319.1 239.398 317.599 234.78 314.6 231.537C311.596 228.299 307.514 226.678 302.354 226.678C296.111 226.678 291.099 229.199 287.316 234.237C283.533 239.278 281.645 245.518 281.645 252.956V297.054H258.054V168.185V168.181Z" fill="var(--fill-0, black)"/>
<path id="Vector_10" d="M425.708 168.181H453.439L501.883 297.05H475.052L464.428 266.273H414.906L404.099 297.05H377.268L425.708 168.181ZM456.501 243.955L444.977 211.558L440.293 196.08H438.854L434.17 211.558L422.646 243.955H456.501Z" fill="var(--fill-0, black)"/>
<path id="Vector_11" d="M511.424 168.181H535.738V297.05H511.424V168.181Z" fill="var(--fill-0, black)"/>
</g>
</svg>
