<svg preserveAspectRatio="none" width="100%" height="100%" overflow="visible" style="display: block;" viewBox="0 0 20 20" fill="none" xmlns="http://www.w3.org/2000/svg">
<g id="ic:baseline-place">
<path id="Vector" d="M10 1.66667C6.775 1.66667 4.16667 4.275 4.16667 7.5C4.16667 11.875 10 18.3333 10 18.3333C10 18.3333 15.8333 11.875 15.8333 7.5C15.8333 4.275 13.225 1.66667 10 1.66667ZM10 9.58333C9.44747 9.58333 8.91756 9.36384 8.52686 8.97314C8.13616 8.58244 7.91667 8.05253 7.91667 7.5C7.91667 6.94747 8.13616 6.41756 8.52686 6.02686C8.91756 5.63616 9.44747 5.41667 10 5.41667C10.5525 5.41667 11.0824 5.63616 11.4731 6.02686C11.8638 6.41756 12.0833 6.94747 12.0833 7.5C12.0833 8.05253 11.8638 8.58244 11.4731 8.97314C11.0824 9.36384 10.5525 9.58333 10 9.58333Z" fill="var(--fill-0, black)"/>
</g>
</svg>
