<svg width="18" height="18" viewBox="0 0 18 18" fill="none" xmlns="http://www.w3.org/2000/svg">
<mask id="mask0_134_1761" style="mask-type:alpha" maskUnits="userSpaceOnUse" x="0" y="0" width="18" height="18">
<rect width="18" height="18" fill="#D9D9D9"/>
</mask>
<g mask="url(#mask0_134_1761)">
<path d="M9.75006 8.69951V5.99951C9.75006 5.78701 9.67819 5.60889 9.53444 5.46514C9.39069 5.32139 9.21256 5.24951 9.00006 5.24951C8.78756 5.24951 8.60944 5.32139 8.46569 5.46514C8.32194 5.60889 8.25006 5.78701 8.25006 5.99951V8.98076C8.25006 9.08076 8.26881 9.17764 8.30631 9.27139C8.34381 9.36514 8.40006 9.44951 8.47506 9.52451L10.9501 11.9995C11.0876 12.137 11.2626 12.2058 11.4751 12.2058C11.6876 12.2058 11.8626 12.137 12.0001 11.9995C12.1376 11.862 12.2063 11.687 12.2063 11.4745C12.2063 11.262 12.1376 11.087 12.0001 10.9495L9.75006 8.69951ZM9.00006 16.4995C7.96256 16.4995 6.98756 16.3026 6.07506 15.9089C5.16256 15.5151 4.36881 14.9808 3.69381 14.3058C3.01881 13.6308 2.48444 12.837 2.09069 11.9245C1.69694 11.012 1.50006 10.037 1.50006 8.99951C1.50006 7.96201 1.69694 6.98701 2.09069 6.07451C2.48444 5.16201 3.01881 4.36826 3.69381 3.69326C4.36881 3.01826 5.16256 2.48389 6.07506 2.09014C6.98756 1.69639 7.96256 1.49951 9.00006 1.49951C10.0376 1.49951 11.0126 1.69639 11.9251 2.09014C12.8376 2.48389 13.6313 3.01826 14.3063 3.69326C14.9813 4.36826 15.5157 5.16201 15.9094 6.07451C16.3032 6.98701 16.5001 7.96201 16.5001 8.99951C16.5001 10.037 16.3032 11.012 15.9094 11.9245C15.5157 12.837 14.9813 13.6308 14.3063 14.3058C13.6313 14.9808 12.8376 15.5151 11.9251 15.9089C11.0126 16.3026 10.0376 16.4995 9.00006 16.4995ZM9.00006 14.9995C10.6626 14.9995 12.0782 14.4151 13.2469 13.2464C14.4157 12.0776 15.0001 10.662 15.0001 8.99951C15.0001 7.33701 14.4157 5.92139 13.2469 4.75264C12.0782 3.58389 10.6626 2.99951 9.00006 2.99951C7.33756 2.99951 5.92194 3.58389 4.75319 4.75264C3.58444 5.92139 3.00006 7.33701 3.00006 8.99951C3.00006 10.662 3.58444 12.0776 4.75319 13.2464C5.92194 14.4151 7.33756 14.9995 9.00006 14.9995Z" fill="white"/>
</g>
</svg>
