<svg width="32" height="32" viewBox="0 0 32 32" fill="none" xmlns="http://www.w3.org/2000/svg">
<rect width="32" height="32" rx="8" fill="url(#paint0_linear_1888_394)"/>
<path d="M8.50653 16.0333L12.5535 20.1895C12.745 20.3861 12.8407 20.6364 12.8407 20.9403C12.8407 21.2442 12.745 21.4945 12.5535 21.6911C12.3621 21.8877 12.1184 21.9861 11.8225 21.9861C11.5265 21.9861 11.2829 21.8877 11.0914 21.6911L6.28721 16.7572C6.18277 16.65 6.10879 16.5338 6.06527 16.4087C6.02176 16.2835 6 16.1494 6 16.0064C6 15.8634 6.02176 15.7294 6.06527 15.6042C6.10879 15.4791 6.18277 15.3629 6.28721 15.2556L11.0914 10.3218C11.3003 10.1073 11.5483 10 11.8355 10C12.1227 10 12.3708 10.1073 12.5796 10.3218C12.7885 10.5363 12.893 10.791 12.893 11.086C12.893 11.3809 12.7885 11.6357 12.5796 11.8502L8.50653 16.0333ZM23.4935 15.9796L19.4465 11.8234C19.255 11.6267 19.1593 11.3765 19.1593 11.0726C19.1593 10.7687 19.255 10.5184 19.4465 10.3218C19.6379 10.1251 19.8816 10.0268 20.1775 10.0268C20.4735 10.0268 20.7171 10.1251 20.9086 10.3218L25.7128 15.2556C25.8172 15.3629 25.8912 15.4791 25.9347 15.6042C25.9782 15.7294 26 15.8634 26 16.0064C26 16.1494 25.9782 16.2835 25.9347 16.4087C25.8912 16.5338 25.8172 16.65 25.7128 16.7572L20.9086 21.6911C20.6997 21.9056 20.456 22.0084 20.1775 21.9995C19.899 21.9905 19.6554 21.8788 19.4465 21.6643C19.2376 21.4498 19.1332 21.195 19.1332 20.9001C19.1332 20.6051 19.2376 20.3504 19.4465 20.1359L23.4935 15.9796Z" fill="white"/>
<defs>
<linearGradient id="paint0_linear_1888_394" x1="16" y1="0" x2="16" y2="32" gradientUnits="userSpaceOnUse">
<stop stop-color="#EA4535"/>
<stop offset="1" stop-color="#AD2F23"/>
</linearGradient>
</defs>
</svg>
