<svg  viewBox="0 0 272 77" fill="none" xmlns="http://www.w3.org/2000/svg">
<path d="M0.826204 45.1226H4.0262C4.57295 45.1226 5.09738 45.3394 5.48456 45.7254C5.87175 46.1114 6.09008 46.6352 6.09171 47.182V66.1723C6.09171 68.9097 7.17914 71.535 9.11478 73.4706C11.0504 75.4063 13.6757 76.4937 16.4131 76.4937H24.6628C24.8819 76.4937 25.0921 76.4067 25.247 76.2517C25.402 76.0968 25.489 75.8866 25.489 75.6675V64.0821C25.4874 63.8641 25.3996 63.6555 25.2449 63.5019C25.0901 63.3483 24.8809 63.2621 24.6628 63.2621H18.3306C17.7828 63.2621 17.2575 63.0445 16.8701 62.6571C16.4827 62.2698 16.2651 61.7444 16.2651 61.1966V15.3053C16.2651 15.0343 16.3186 14.766 16.4225 14.5158C16.5263 14.2655 16.6786 14.0382 16.8705 13.8469C17.0624 13.6556 17.2901 13.5041 17.5407 13.4009C17.7912 13.2978 18.0597 13.2451 18.3306 13.2459H24.6628C24.8819 13.2459 25.0921 13.1589 25.247 13.0039C25.402 12.849 25.489 12.6389 25.489 12.4197V0.834383C25.489 0.61526 25.402 0.405112 25.247 0.250168C25.0921 0.0952249 24.8819 0.00817871 24.6628 0.00817871H16.4131C15.0577 0.00817871 13.7155 0.275149 12.4633 0.793847C11.211 1.31255 10.0732 2.07281 9.11478 3.03124C7.17914 4.96688 6.09171 7.59216 6.09171 10.3296V29.3076C6.09008 29.8543 5.87175 30.3781 5.48456 30.7641C5.09738 31.1502 4.57295 31.3669 4.0262 31.3669H0.826204C0.717705 31.3669 0.610269 31.3883 0.51003 31.4298C0.40979 31.4713 0.31871 31.5322 0.24199 31.6089C0.165269 31.6856 0.104412 31.7767 0.0628911 31.877C0.0213704 31.9772 0 32.0846 0 32.1931V44.2964C0 44.5155 0.0870463 44.7257 0.24199 44.8806C0.396933 45.0356 0.607081 45.1226 0.826204 45.1226Z" fill="#EA4535"/>
<path d="M271.174 31.3793H267.974C267.703 31.3801 267.435 31.3274 267.185 31.2242C266.935 31.121 266.707 30.9693 266.516 30.7779C266.324 30.5865 266.173 30.3592 266.07 30.109C265.966 29.8587 265.914 29.5906 265.915 29.3199V10.3296C265.913 7.59159 264.824 4.96633 262.887 3.03087C260.951 1.09541 258.325 0.00817822 255.587 0.00817871H247.331C247.112 0.00817871 246.902 0.0952249 246.747 0.250168C246.592 0.405112 246.505 0.61526 246.505 0.834383V12.4197C246.505 12.6389 246.592 12.849 246.747 13.0039C246.902 13.1589 247.112 13.2459 247.331 13.2459H253.669C253.94 13.2451 254.209 13.2978 254.459 13.4009C254.71 13.5041 254.938 13.6556 255.13 13.8469C255.321 14.0382 255.474 14.2655 255.578 14.5158C255.681 14.766 255.735 15.0343 255.735 15.3053V61.1966C255.735 61.7444 255.517 62.2698 255.13 62.6571C254.743 63.0445 254.217 63.2621 253.669 63.2621H247.331C247.113 63.2621 246.904 63.3483 246.749 63.5019C246.594 63.6555 246.507 63.8641 246.505 64.0821V75.6675C246.505 75.8866 246.592 76.0968 246.747 76.2517C246.902 76.4067 247.112 76.4937 247.331 76.4937H255.587C258.325 76.4937 260.951 75.4065 262.887 73.471C264.824 71.5356 265.913 68.9103 265.915 66.1723V47.2005C265.914 46.9295 265.966 46.661 266.07 46.4105C266.173 46.1599 266.324 45.9322 266.516 45.7403C266.707 45.5484 266.934 45.3962 267.184 45.2923C267.435 45.1884 267.703 45.1349 267.974 45.1349H271.174C271.393 45.1349 271.603 45.0479 271.758 44.893C271.913 44.738 272 44.5279 272 44.3087V32.2055C272 31.9863 271.913 31.7762 271.758 31.6213C271.603 31.4663 271.393 31.3793 271.174 31.3793Z" fill="#EA4535"/>
<path d="M37.2778 38.1307V0.00819105H50.1642C53.8077 -0.0927952 57.4163 0.741437 60.6458 2.43131C63.5051 3.96802 65.8601 6.29733 67.4281 9.1396C69.0545 12.1933 69.8697 15.6135 69.7957 19.0725C69.8669 22.5372 69.0519 25.9626 67.4281 29.024C65.871 31.8901 63.5061 34.2356 60.6273 35.7693C57.3919 37.44 53.7856 38.2631 50.1457 38.1616L37.2778 38.1307ZM44.467 31.3485H49.8435C52.2759 31.4321 54.691 30.9109 56.8724 29.8317C58.7014 28.8719 60.183 27.3623 61.1083 25.5157C62.0836 23.5127 62.5677 21.3061 62.5202 19.0787C62.5729 16.839 62.0887 14.6191 61.1083 12.6047C60.1673 10.7833 58.6884 9.29572 56.8724 8.34422C54.691 7.265 52.2759 6.74384 49.8435 6.82746H44.467V31.3485Z" fill="white"/>
<path d="M87.4359 38.9816C84.8751 39.0282 82.3483 38.3896 80.1172 37.1319C77.9966 35.92 76.2465 34.1528 75.0551 32.0206C73.8027 29.7583 73.1649 27.2073 73.2054 24.6217C73.1849 22.1097 73.809 19.6344 75.0181 17.4325C76.1807 15.2731 77.8793 13.4492 79.9507 12.1362C82.103 10.7879 84.6006 10.0939 87.1399 10.1385C89.7152 10.049 92.2633 10.6903 94.4894 11.9882C96.4352 13.189 98.0036 14.9134 99.015 16.9639C100.06 19.1121 100.588 21.4748 100.556 23.8633C100.556 24.4306 100.538 24.9177 100.501 25.3246C100.483 25.6203 100.448 25.9147 100.396 26.2063H77.1083V21.2737H93.879C93.8254 20.6283 93.6452 19.9998 93.3488 19.424C93.0104 18.7653 92.5597 18.1707 92.017 17.6668C90.7129 16.4691 88.9964 15.8219 87.2262 15.8603C85.9166 15.8491 84.6317 16.2175 83.5268 16.9208C82.3966 17.6497 81.4863 18.6728 80.8941 19.8803C80.2232 21.2815 79.8956 22.8222 79.9384 24.3751C79.887 25.9706 80.2346 27.5536 80.9495 28.9809C81.5659 30.1842 82.5165 31.184 83.6871 31.8603C84.9319 32.5254 86.3248 32.8646 87.7361 32.8463C89.1473 32.828 90.5309 32.4527 91.758 31.7554C92.8527 31.0606 93.7624 30.1107 94.4093 28.987L100.057 31.7554C98.8559 33.9107 97.1348 35.7313 95.0505 37.0518C92.7475 38.4062 90.106 39.0757 87.4359 38.9816Z" fill="white"/>
<path d="M112.284 38.1307L100.779 11.0016H108.714L115.582 28.6787H116.008L122.981 11.0016H130.812L119.202 38.1307H112.284Z" fill="white"/>
<path d="M134.246 38.1307V0.00817871H158.416V6.82128H141.429V38.1307H134.246ZM138.235 22.9014V16.0883H156.732V22.9014H138.235Z" fill="white"/>
<path d="M174.736 38.9816C172.175 39.0282 169.649 38.3896 167.417 37.1319C165.297 35.92 163.547 34.1528 162.355 32.0206C161.103 29.7583 160.465 27.2073 160.506 24.6217C160.485 22.1097 161.109 19.6345 162.318 17.4325C163.481 15.2731 165.18 13.4492 167.251 12.1362C169.416 10.7743 171.932 10.0756 174.489 10.1262C177.065 10.0367 179.613 10.678 181.839 11.9759C183.785 13.1767 185.353 14.901 186.365 16.9516C187.406 19.1009 187.934 21.4628 187.906 23.851C187.906 24.4183 187.887 24.9053 187.85 25.3123C187.833 25.608 187.798 25.9023 187.746 26.194H164.408V21.2614H181.179C181.126 20.616 180.945 19.9875 180.649 19.4117C180.311 18.753 179.86 18.1583 179.317 17.6545C178.011 16.4559 176.292 15.8086 174.52 15.8479C173.211 15.8368 171.926 16.2051 170.821 16.9084C169.689 17.6356 168.779 18.6593 168.188 19.868C167.515 21.2686 167.185 22.8094 167.226 24.3628C167.178 25.9579 167.525 27.5403 168.237 28.9685C168.858 30.171 169.81 31.1704 170.981 31.8479C172.225 32.5131 173.617 32.8524 175.027 32.834C176.437 32.8157 177.82 32.4404 179.046 31.7431C180.145 31.0547 181.059 30.1087 181.709 28.987L187.357 31.7554C186.156 33.9107 184.435 35.7313 182.351 37.0518C180.048 38.4062 177.406 39.0757 174.736 38.9816Z" fill="white"/>
<path d="M202.513 38.9816C200.47 39.0336 198.438 38.6903 196.526 37.9704C195.007 37.388 193.634 36.4786 192.506 35.3069C191.511 34.2631 190.731 33.0331 190.212 31.6876L196.446 28.987C196.972 30.1702 197.828 31.1764 198.912 31.8849C199.997 32.5587 201.254 32.9015 202.531 32.8714C203.585 32.886 204.632 32.6954 205.614 32.3103C206.038 32.1689 206.404 31.8917 206.654 31.5218C206.905 31.1518 207.027 30.7095 207.001 30.2633C207.016 29.9474 206.959 29.6322 206.834 29.3416C206.709 29.051 206.519 28.7927 206.28 28.5863C205.755 28.1536 205.149 27.8288 204.498 27.6306C203.783 27.3966 203.054 27.2092 202.315 27.0695L199.121 26.3789C197.8 26.0935 196.537 25.5803 195.391 24.8622C194.247 24.1611 193.274 23.2131 192.543 22.0876C191.805 20.9375 191.425 19.5941 191.451 18.2279C191.419 16.6897 191.918 15.1873 192.863 13.9735C193.867 12.7095 195.185 11.7315 196.686 11.1373C198.383 10.4485 200.2 10.1048 202.032 10.1261C203.687 10.0982 205.337 10.3058 206.933 10.7427C208.312 11.131 209.597 11.7937 210.713 12.6911C211.807 13.6007 212.681 14.7451 213.272 16.039L207.303 18.6471C206.833 17.681 206.057 16.8967 205.096 16.4152C204.185 15.9977 203.194 15.7871 202.192 15.7986C201.188 15.7498 200.191 15.9894 199.319 16.4891C199.012 16.6477 198.753 16.8836 198.566 17.1735C198.379 17.4633 198.27 17.797 198.252 18.1416C198.267 18.5007 198.373 18.8503 198.559 19.1576C198.746 19.4649 199.007 19.7199 199.319 19.8988C200.098 20.412 200.965 20.7758 201.878 20.9716L205.867 21.9335C208.567 22.5747 210.6 23.6023 211.965 25.0163C212.629 25.6888 213.153 26.4874 213.505 27.3652C213.856 28.243 214.029 29.1822 214.012 30.1277C214.042 31.8095 213.498 33.4514 212.47 34.7828C211.379 36.157 209.946 37.2201 208.315 37.8656C206.475 38.6218 204.502 39.0012 202.513 38.9816Z" fill="white"/>
<path d="M216.083 16.9391V10.9769H221.09V16.9391H216.083ZM229.821 38.5561C227.013 38.5561 224.814 37.7484 223.223 36.133C221.633 34.5175 220.833 32.2897 220.825 29.4493V3.30676H227.798V28.173C227.713 29.2054 227.997 30.2344 228.6 31.0771C229.13 31.6937 229.999 32.0081 231.208 32.0081C231.749 32.0118 232.288 31.9307 232.805 31.7676C233.455 31.529 234.075 31.2166 234.654 30.8366V37.6189C233.884 37.9021 233.092 38.1248 232.287 38.2848C231.476 38.4564 230.65 38.5472 229.821 38.5561ZM227.515 16.9391V10.9769H234.439V16.9391H227.515Z" fill="white"/>
<path d="M220.036 48.179H51.0768C43.2993 48.179 36.9944 54.4839 36.9944 62.2614V62.2676C36.9944 70.0451 43.2993 76.3501 51.0768 76.3501H220.036C227.813 76.3501 234.118 70.0451 234.118 62.2676V62.2614C234.118 54.4839 227.813 48.179 220.036 48.179Z" fill="white"/>
<path d="M120.486 67.8321C119.594 67.8321 118.777 67.5616 118.035 67.0204C117.292 66.4792 116.782 65.7206 116.507 64.7443L117.796 64.2191C117.976 64.8982 118.31 65.4552 118.799 65.8903C119.287 66.3254 119.86 66.5429 120.518 66.5429C121.175 66.5429 121.733 66.3678 122.189 66.0176C122.645 65.6569 122.873 65.1687 122.873 64.5533C122.873 64.0227 122.677 63.5877 122.284 63.2482C121.902 62.898 121.271 62.5743 120.39 62.2772L119.674 62.0226C118.868 61.7361 118.21 61.3594 117.7 60.8925C117.191 60.4256 116.936 59.7783 116.936 58.9507C116.936 58.4095 117.085 57.9108 117.382 57.4545C117.679 56.9876 118.093 56.6162 118.624 56.3403C119.154 56.0645 119.748 55.9265 120.406 55.9265C121.064 55.9265 121.637 56.0485 122.125 56.2926C122.613 56.5367 123.001 56.8338 123.287 57.1839C123.584 57.5341 123.791 57.879 123.908 58.2185L122.635 58.7597C122.528 58.3671 122.284 58.0116 121.902 57.6933C121.531 57.3749 121.038 57.2158 120.422 57.2158C119.838 57.2158 119.34 57.3802 118.926 57.7092C118.512 58.0381 118.305 58.4519 118.305 58.9507C118.305 59.3963 118.48 59.7624 118.83 60.0489C119.181 60.3248 119.711 60.5848 120.422 60.8288L121.17 61.0835C122.136 61.4337 122.889 61.874 123.43 62.4046C123.971 62.9245 124.242 63.6355 124.242 64.5374C124.242 65.2696 124.051 65.885 123.669 66.3837C123.298 66.8825 122.826 67.2485 122.253 67.482C121.68 67.7154 121.091 67.8321 120.486 67.8321ZM128.665 67.8321C127.689 67.8321 126.941 67.5456 126.421 66.9726C125.912 66.3996 125.657 65.5985 125.657 64.5692V59.46H127.01V64.3623C127.01 65.1369 127.185 65.7046 127.535 66.0654C127.885 66.4262 128.358 66.6066 128.952 66.6066C129.408 66.6066 129.811 66.4846 130.161 66.2405C130.522 65.9964 130.798 65.6781 130.989 65.2855C131.191 64.8929 131.291 64.4791 131.291 64.044V59.46H132.644V67.5775H131.355V66.3996H131.291C131.069 66.8029 130.713 67.1424 130.225 67.4183C129.737 67.6942 129.217 67.8321 128.665 67.8321ZM138.242 67.8321C137.457 67.8321 136.751 67.6465 136.125 67.2751C135.499 66.8931 135.011 66.3784 134.66 65.7311C134.31 65.0732 134.135 64.3358 134.135 63.5187C134.135 62.7017 134.31 61.9642 134.66 61.3063C135.011 60.6484 135.499 60.1338 136.125 59.7624C136.751 59.391 137.457 59.2053 138.242 59.2053C139.122 59.2053 139.86 59.4123 140.454 59.8261C141.059 60.2293 141.489 60.7705 141.743 61.4496L140.518 61.9589C140.316 61.4602 140.014 61.0835 139.611 60.8288C139.218 60.5636 138.74 60.4309 138.178 60.4309C137.701 60.4309 137.255 60.5636 136.841 60.8288C136.427 61.0835 136.093 61.4443 135.838 61.9112C135.594 62.3781 135.472 62.9139 135.472 63.5187C135.472 64.1236 135.594 64.6594 135.838 65.1263C136.093 65.5932 136.427 65.9593 136.841 66.2246C137.255 66.4792 137.701 66.6066 138.178 66.6066C138.751 66.6066 139.244 66.4739 139.658 66.2086C140.072 65.9434 140.38 65.5667 140.581 65.0786L141.791 65.5879C141.515 66.2564 141.07 66.7976 140.454 67.2114C139.849 67.6252 139.112 67.8321 138.242 67.8321ZM143.176 59.46H144.465V60.7652H144.529C144.688 60.3195 144.996 59.9534 145.452 59.6669C145.908 59.3698 146.386 59.2213 146.885 59.2213C147.256 59.2213 147.574 59.2743 147.84 59.3804V60.8447C147.5 60.675 147.118 60.5901 146.694 60.5901C146.301 60.5901 145.94 60.7015 145.611 60.9243C145.282 61.1472 145.017 61.4496 144.816 61.8316C144.625 62.203 144.529 62.6062 144.529 63.0412V67.5775H143.176V59.46ZM152.276 67.8321C151.501 67.8321 150.806 67.6465 150.191 67.2751C149.576 66.9037 149.093 66.3943 148.743 65.7471C148.403 65.0892 148.233 64.3517 148.233 63.5347C148.233 62.7494 148.392 62.0279 148.711 61.37C149.04 60.7121 149.501 60.1869 150.095 59.7943C150.69 59.4016 151.379 59.2053 152.165 59.2053C152.96 59.2053 153.65 59.3857 154.234 59.7465C154.817 60.0967 155.263 60.5848 155.571 61.2108C155.889 61.8369 156.048 62.5531 156.048 63.3596C156.048 63.5187 156.032 63.6567 156.001 63.7734H149.586C149.618 64.3888 149.767 64.9088 150.032 65.3332C150.297 65.7577 150.631 66.076 151.035 66.2882C151.448 66.5005 151.878 66.6066 152.324 66.6066C153.364 66.6066 154.165 66.1185 154.727 65.1422L155.873 65.6993C155.523 66.3572 155.046 66.8771 154.441 67.2591C153.847 67.6411 153.125 67.8321 152.276 67.8321ZM154.616 62.6592C154.595 62.3197 154.499 61.9802 154.329 61.6406C154.16 61.301 153.889 61.0145 153.518 60.7811C153.157 60.5476 152.701 60.4309 152.149 60.4309C151.512 60.4309 150.971 60.6378 150.525 61.0517C150.09 61.4549 149.804 61.9907 149.666 62.6592H154.616Z" fill="black"/>
</svg>
