<svg width="44" height="44" viewBox="0 0 44 44" fill="none" xmlns="http://www.w3.org/2000/svg">
<rect width="44" height="44" rx="11" fill="url(#paint0_linear_131_117)"/>
<path d="M14.7246 11.9168C14.7725 11.9809 14.839 12.0287 14.915 12.0535C14.9911 12.0784 15.0729 12.0792 15.1494 12.0557C15.2259 12.0323 15.2933 11.9858 15.3424 11.9227C15.3915 11.8595 15.4199 11.7827 15.4237 11.7028L15.5428 9.91704C15.5477 9.85369 15.5372 9.7901 15.5123 9.73168C15.4873 9.67325 15.4486 9.62172 15.3994 9.58146C15.3503 9.54121 15.2921 9.51342 15.2299 9.50047C15.1677 9.48752 15.1033 9.48978 15.0422 9.50707L13.8684 9.87216C13.8077 9.89213 13.7526 9.92622 13.7076 9.97164C13.6626 10.0171 13.629 10.0725 13.6096 10.1334C13.5903 10.1943 13.5856 10.259 13.5961 10.3221C13.6066 10.3851 13.6319 10.4448 13.6699 10.4962L14.7246 11.9168ZM12.6877 13.3167L11.0824 12.6435C11.0243 12.6199 10.9729 12.5824 10.9327 12.5342C10.8925 12.486 10.8648 12.4287 10.852 12.3673C10.8392 12.3059 10.8418 12.2423 10.8593 12.1821C10.8769 12.1219 10.9091 12.067 10.9529 12.0221L11.7901 11.1331C11.8331 11.0877 11.8865 11.0534 11.9456 11.033C12.0048 11.0127 12.068 11.0069 12.1299 11.0162C12.1917 11.0255 12.2504 11.0497 12.301 11.0866C12.3515 11.1234 12.3924 11.172 12.4201 11.2281L13.1883 12.7903C13.2215 12.8613 13.2325 12.9407 13.2199 13.0182C13.2073 13.0956 13.1716 13.1674 13.1176 13.2243C13.0635 13.2811 12.9936 13.3203 12.9169 13.3368C12.8402 13.3533 12.7603 13.3463 12.6877 13.3167ZM33.5071 16.8873C33.7963 17.1369 34.0324 17.4421 34.2013 17.7847C34.3702 18.1274 34.4684 18.5005 34.4901 18.8819V27.0338C34.5572 28.318 34.2814 29.597 33.6911 30.7395C33.1008 31.8821 32.2172 32.847 31.131 33.5354C30.0567 34.1784 28.8262 34.5131 27.5742 34.5029C26.7337 34.5023 25.8993 34.3605 25.1058 34.0835C24.3472 34.3623 23.5456 34.5057 22.7375 34.5073C21.6112 34.5177 20.4984 34.2617 19.4899 33.7603C18.4814 33.2589 17.6056 32.5262 16.9341 31.622L13.9383 26.7308L11.7806 23.0886C11.4796 22.5073 11.3878 21.8402 11.5204 21.1991C11.653 20.5581 12.0021 19.9822 12.509 19.5681C12.7035 19.4357 12.9092 19.3238 13.1261 19.2323C12.9343 18.6834 12.923 18.0875 13.0938 17.5316C13.2646 16.9757 13.6086 16.489 14.0755 16.1425C14.2654 16.0257 14.4639 15.927 14.6711 15.8464C14.6435 15.622 14.6455 15.3979 14.6771 15.1741C14.7352 14.7746 14.8815 14.393 15.1054 14.0571C15.3294 13.7212 15.6253 13.4394 15.9717 13.2322C16.4486 12.9659 16.9936 12.8465 17.5381 12.8891C18.0827 12.9316 18.6025 13.1341 19.0323 13.4712C19.1784 13.3165 19.3421 13.1832 19.5233 13.0716C20.08 12.7379 20.7454 12.6359 21.3764 12.7877C21.7483 12.6878 22.1359 12.66 22.5183 12.7057C23.0089 12.7587 23.472 12.9591 23.8465 13.2805C23.995 13.1228 24.1616 12.9868 24.3463 12.8722C24.9373 12.5241 25.6422 12.4242 26.3067 12.5945C26.9712 12.7649 27.5412 13.1915 27.8918 13.7811L29.6802 16.9745C29.9151 16.7327 30.1955 16.5396 30.5051 16.4063C30.8148 16.273 31.1478 16.2022 31.4849 16.1977C32.223 16.1567 32.9482 16.4035 33.5071 16.8873ZM23.2812 20.142H23.276L23.2441 20.1636L23.2666 20.1498L23.2812 20.142ZM17.3932 14.6122C17.2128 14.5983 17.0319 14.632 16.8685 14.7098V14.7063C16.7394 14.7794 16.6287 14.881 16.5448 15.0033C16.4609 15.1257 16.406 15.2656 16.3843 15.4123C16.3619 15.5791 16.3976 15.7486 16.4853 15.8922L17.7661 17.8385C17.7926 17.4666 17.9032 17.1056 18.0897 16.7828C18.2761 16.46 18.5335 16.1838 18.8424 15.975C18.8838 15.9492 18.9252 15.931 18.9658 15.912C18.9934 15.9 19.0216 15.8864 19.0504 15.8715C18.8273 15.8422 18.6244 15.727 18.4851 15.5504L17.9508 14.8599C17.9319 14.8353 17.9143 14.8097 17.8982 14.7831C17.7476 14.6831 17.5736 14.6242 17.3932 14.6122ZM15.4185 17.4173C15.26 17.4631 15.1088 17.5314 14.9697 17.6201L14.9723 17.6166C14.8432 17.7728 14.7584 17.9607 14.7268 18.1608C14.6953 18.361 14.718 18.5659 14.7928 18.7542C14.9024 18.9648 14.9835 19.1167 15.0456 19.2341L15.0517 19.2444L16.2643 21.0673C16.3593 20.5658 16.5906 20.0997 16.9324 19.7208L15.4185 17.4173ZM15.4142 25.8453L18.3729 30.6786L18.3754 30.6752C18.8929 31.3564 19.5666 31.9033 20.3398 32.2695C21.1129 32.6357 21.9628 32.8106 22.8178 32.7794C22.4083 32.4331 22.0441 32.0367 21.7337 31.5995L18.7077 26.6601L17.4295 24.5024C17.2429 24.606 17.0242 24.636 16.8165 24.5865C16.6089 24.537 16.4273 24.4115 16.3075 24.2348L13.9892 20.76C13.8026 20.8053 13.6266 20.8868 13.4714 20.9999C13.3352 21.1648 13.2439 21.362 13.2063 21.5725C13.1686 21.7829 13.1859 21.9995 13.2565 22.2014L15.4142 25.8453ZM26.4358 32.6922C27.7348 32.9529 29.0843 32.7304 30.2308 32.0664L30.2334 32.063C31.0507 31.5367 31.7152 30.8047 32.1601 29.9404C32.6051 29.0762 32.8148 28.1101 32.7683 27.1391V18.9363C32.7543 18.7881 32.711 18.6442 32.6408 18.5129C32.5707 18.3816 32.4751 18.2656 32.3597 18.1716C32.2442 18.0776 32.1113 18.0076 31.9685 17.9655C31.8257 17.9234 31.676 17.9101 31.528 17.9265C31.3065 17.9308 31.0943 18.0165 30.932 18.1673C30.7696 18.318 30.6684 18.5233 30.6477 18.7438C30.9826 19.3454 31.2605 19.8408 31.3977 20.0782C31.5009 20.2754 31.5239 20.5049 31.4618 20.7187C31.3998 20.9325 31.2576 21.1141 31.0649 21.2255C30.8721 21.3369 30.6438 21.3695 30.4276 21.3165C30.2114 21.2636 30.024 21.1291 29.9046 20.9413C29.6313 20.4625 29.3612 19.9821 29.0941 19.4999L29.0328 19.3903V19.3385L29.0199 19.3212C29.0141 19.3155 29.009 19.3089 29.0044 19.3014L26.4151 14.6761C26.3482 14.5351 26.2419 14.4165 26.1091 14.3346C25.9763 14.2526 25.8226 14.2109 25.6665 14.2143C25.5105 14.2178 25.3588 14.2664 25.2298 14.3541C25.1007 14.4419 24.9998 14.5651 24.9392 14.7089L25.823 16.1278L25.9188 16.2832C26.5798 17.3513 27.2467 18.4158 27.9195 19.4766C28.0384 19.6687 28.0773 19.8998 28.0277 20.1202C27.9781 20.3407 27.8441 20.5329 27.6544 20.6556C27.4647 20.7783 27.2344 20.8218 27.013 20.7766C26.7916 20.7314 26.5968 20.6012 26.4703 20.4139C25.7928 19.3452 25.1205 18.2732 24.4533 17.198L23.7136 16.0104L23.3632 15.4468L23.352 15.4296L23.327 15.3881C23.3235 15.3841 23.3195 15.3807 23.3149 15.3778L23.3011 15.364L22.7617 14.6623C22.743 14.6376 22.7257 14.612 22.7099 14.5855C22.5968 14.4823 22.4503 14.4232 22.2973 14.4189C22.08 14.3821 21.8567 14.4122 21.6569 14.5052C21.5259 14.5801 21.4135 14.6837 21.3281 14.8082C21.2428 14.9327 21.1867 15.0749 21.1641 15.2242C21.1423 15.3839 21.1726 15.5464 21.2504 15.6876C21.6512 15.8468 22.0213 16.0746 22.3439 16.3608C22.6103 16.633 22.8434 16.9322 23.043 17.2585C23.2838 17.6218 23.5557 18.0672 23.825 18.516C24.0261 18.8526 24.2254 19.19 24.411 19.5051L24.4809 19.6233C24.7744 20.1179 25.0229 20.5365 25.1878 20.7919C25.2496 20.8871 25.2921 20.9935 25.3128 21.1051C25.3335 21.2166 25.332 21.3312 25.3085 21.4422C25.2849 21.5532 25.2397 21.6585 25.1755 21.752C25.1112 21.8455 25.0292 21.9255 24.934 21.9873C24.8389 22.0491 24.7325 22.0916 24.6209 22.1123C24.5094 22.133 24.3948 22.1316 24.2838 22.108C24.1728 22.0844 24.0675 22.0393 23.974 21.975C23.8805 21.9108 23.8005 21.8287 23.7387 21.7336C23.541 21.428 23.2424 20.9205 22.9205 20.3759L22.8005 20.1722L22.7996 20.1714C22.6503 19.9185 22.4975 19.6596 22.3465 19.4084C22.0807 18.9639 21.8235 18.5453 21.6043 18.213C21.4907 18.0329 21.3677 17.8589 21.2357 17.6917L21.2029 17.6555C21.0134 17.4836 20.7924 17.3499 20.5521 17.2619C20.4881 17.2529 20.4253 17.2367 20.3649 17.2136C20.1422 17.2395 19.929 17.3215 19.7452 17.4501C19.6129 17.6089 19.5256 17.8003 19.4923 18.0043C19.4591 18.2083 19.4811 18.4175 19.5561 18.6101L19.8297 19.1193C20.1931 19.2738 20.5314 19.4826 20.8327 19.739C21.0657 19.9668 21.2671 20.2194 21.4368 20.4968C21.6232 20.7816 21.8217 21.1182 22.0142 21.4531C22.1299 21.6542 22.2438 21.8561 22.3534 22.0512L22.3595 22.0615L22.394 22.1237C22.6469 22.5708 22.873 22.9704 23.0577 23.2561C23.1219 23.3512 23.1665 23.4582 23.1889 23.5707C23.2113 23.6833 23.211 23.7992 23.188 23.9117C23.1651 24.0241 23.1199 24.1309 23.0552 24.2257C22.9905 24.3205 22.9075 24.4014 22.8111 24.4637C22.7148 24.5261 22.6069 24.5686 22.4939 24.5887C22.3809 24.6089 22.2651 24.6063 22.1531 24.5811C22.0411 24.5559 21.9353 24.5087 21.8418 24.4421C21.7483 24.3755 21.669 24.291 21.6086 24.1934C21.3392 23.7623 21.0822 23.3237 20.8378 22.878L20.5142 22.3084C20.3481 22.013 20.1734 21.7226 19.9903 21.4375C19.9244 21.3377 19.8556 21.2398 19.784 21.1441C19.7529 21.1022 19.7192 21.0625 19.683 21.025C19.4911 20.8658 19.2749 20.7385 19.0426 20.6478C18.9793 20.6375 18.9174 20.6201 18.8579 20.596C18.6284 20.6366 18.411 20.7284 18.2218 20.8644C18.0842 21.0326 17.9921 21.2333 17.9543 21.4473C17.9165 21.6613 17.9343 21.8814 18.006 22.0866L20.1845 25.7694L23.1733 30.6527C23.9761 31.7071 25.1362 32.4329 26.4358 32.6922ZM10.4238 13.8665L11.9178 14.8694C11.9852 14.9161 12.0369 14.9821 12.0659 15.0588C12.095 15.1355 12.1001 15.2192 12.0805 15.2988C12.061 15.3784 12.0177 15.4502 11.9564 15.5047C11.8952 15.5592 11.8188 15.5938 11.7374 15.6039L9.94998 15.837C9.88558 15.845 9.82019 15.8372 9.75944 15.8144C9.69869 15.7915 9.64441 15.7542 9.60127 15.7057C9.55813 15.6573 9.52742 15.599 9.51179 15.536C9.49616 15.473 9.49607 15.4072 9.51153 15.3441L9.80671 14.1082C9.82276 14.0455 9.85349 13.9875 9.89638 13.939C9.93926 13.8905 9.99306 13.8529 10.0533 13.8293C10.1136 13.8056 10.1787 13.7967 10.2431 13.8032C10.3075 13.8097 10.3694 13.8314 10.4238 13.8665Z" fill="white"/>
<defs>
<linearGradient id="paint0_linear_131_117" x1="22" y1="0" x2="22" y2="44" gradientUnits="userSpaceOnUse">
<stop stop-color="#8E8E8E"/>
<stop offset="1" stop-color="#4D4D4D"/>
</linearGradient>
</defs>
</svg>
