<svg width="44" height="44" viewBox="0 0 44 44" fill="none" xmlns="http://www.w3.org/2000/svg">
<rect width="44" height="44" rx="11" fill="url(#paint0_linear_131_109)"/>
<path d="M12.2271 12.0715C12.2755 11.5043 12.5313 10.9763 12.9436 10.5926C13.356 10.2088 13.8948 9.99728 14.4529 10C14.9824 10 15.4718 10.1873 15.8565 10.5005C16.2683 10.1761 16.7738 10.0001 17.2941 10C17.8353 10 18.3341 10.1861 18.7318 10.5005C19.1299 10.1752 19.6252 9.99859 20.1353 10C21.2835 10 22.2612 10.8846 22.3612 12.0715C22.46 13.2417 22.5882 15.0516 22.5882 16.601C22.5883 17.5317 22.3527 18.4466 21.9042 19.257C21.4557 20.0674 20.8094 20.7459 20.0282 21.2265C19.7671 21.3873 19.6988 21.5866 19.7059 21.6898C19.8553 24.0109 20.2353 30.0334 20.2353 30.9996C20.2353 31.7953 19.9254 32.5585 19.3738 33.1212C18.8223 33.6839 18.0742 34 17.2941 34C16.5141 34 15.766 33.6839 15.2144 33.1212C14.6628 32.5585 14.3529 31.7953 14.3529 30.9996C14.3529 30.0334 14.7329 24.0109 14.8824 21.6898C14.8882 21.5854 14.8212 21.3873 14.56 21.2265C13.7788 20.7459 13.1326 20.0674 12.6841 19.257C12.2355 18.4466 11.9999 17.5317 12 16.601C12 15.0528 12.1282 13.2417 12.2271 12.0715ZM19.6471 16.301C19.6471 16.5397 19.5541 16.7686 19.3886 16.9375C19.2232 17.1063 18.9987 17.2011 18.7647 17.2011C18.5307 17.2011 18.3063 17.1063 18.1408 16.9375C17.9753 16.7686 17.8824 16.5397 17.8824 16.301V12.4004C17.8824 12.2412 17.8204 12.0886 17.7101 11.9761C17.5997 11.8635 17.4501 11.8003 17.2941 11.8003C17.1381 11.8003 16.9885 11.8635 16.8782 11.9761C16.7679 12.0886 16.7059 12.2412 16.7059 12.4004V16.301C16.7059 16.5397 16.6129 16.7686 16.4474 16.9375C16.282 17.1063 16.0575 17.2011 15.8235 17.2011C15.5895 17.2011 15.3651 17.1063 15.1996 16.9375C15.0341 16.7686 14.9412 16.5397 14.9412 16.301V12.2984C14.9412 12.1663 14.8897 12.0396 14.7982 11.9462C14.7066 11.8528 14.5824 11.8003 14.4529 11.8003C14.3367 11.7982 14.2239 11.8409 14.1371 11.9199C14.0504 11.9989 13.9959 12.1083 13.9847 12.2264C13.8871 13.3845 13.7647 15.1308 13.7647 16.601C13.7647 17.9092 14.4471 19.0542 15.4729 19.6855C16.1141 20.0815 16.7047 20.8376 16.6435 21.8074C16.4906 24.1837 16.1176 30.1102 16.1176 31.0008C16.1176 31.3191 16.2416 31.6243 16.4622 31.8494C16.6829 32.0745 16.9821 32.2009 17.2941 32.2009C17.6061 32.2009 17.9054 32.0745 18.126 31.8494C18.3466 31.6243 18.4706 31.3191 18.4706 31.0008C18.4706 30.1102 18.0976 24.1837 17.9447 21.8074C17.8835 20.8376 18.4741 20.0815 19.1153 19.6855C19.6365 19.3652 20.0677 18.9128 20.367 18.3724C20.6663 17.832 20.8236 17.2217 20.8235 16.601C20.8235 15.132 20.7012 13.3845 20.6035 12.2264C20.5923 12.1083 20.5379 11.9989 20.4511 11.9199C20.3643 11.8409 20.2516 11.7982 20.1353 11.8003C20.0058 11.8003 19.8816 11.8528 19.7901 11.9462C19.6985 12.0396 19.6471 12.1663 19.6471 12.2984V16.301ZM23.7647 16.9011C23.7647 15.0708 24.4774 13.3155 25.746 12.0213C27.0147 10.7271 28.7353 10 30.5294 10C30.7634 10 30.9879 10.0949 31.1533 10.2637C31.3188 10.4325 31.4118 10.6614 31.4118 10.9002V21.1017C31.4118 21.4833 31.5365 23.376 31.6765 25.4727L31.6824 25.5723C31.8353 27.8623 32 30.3527 32 30.9996C32 31.7953 31.6901 32.5585 31.1385 33.1212C30.587 33.6839 29.8389 34 29.0588 34C28.2788 34 27.5307 33.6839 26.9791 33.1212C26.4275 32.5585 26.1176 31.7953 26.1176 30.9996C26.1176 30.3827 26.2682 27.8659 26.4141 25.5579C26.4871 24.3926 26.5612 23.2632 26.6165 22.4255L26.6435 22.0018H25.8235C25.5532 22.0018 25.2854 21.9475 25.0357 21.8419C24.7859 21.7364 24.5589 21.5817 24.3677 21.3866C24.1765 21.1916 24.0249 20.9601 23.9214 20.7053C23.818 20.4504 23.7647 20.1773 23.7647 19.9015V16.9011ZM28.4682 21.1641L28.4435 21.5409C28.3508 22.9185 28.261 24.2964 28.1741 25.6744C28.0259 28.0267 27.8824 30.4583 27.8824 30.9996C27.8824 31.3179 28.0063 31.6231 28.2269 31.8482C28.4476 32.0733 28.7468 32.1997 29.0588 32.1997C29.3708 32.1997 29.6701 32.0733 29.8907 31.8482C30.1113 31.6231 30.2353 31.3179 30.2353 30.9996C30.2353 30.4235 30.0729 27.9679 29.9153 25.5939L29.9071 25.4691C29.7741 23.478 29.6471 21.5541 29.6471 21.1017V11.8795C28.4923 12.0907 27.4471 12.7094 26.6943 13.6274C25.9416 14.5454 25.5292 15.7042 25.5294 16.9011V19.9015C25.5294 20.0671 25.6612 20.2015 25.8235 20.2015H27.5882C27.7092 20.2016 27.8289 20.227 27.9399 20.2762C28.0509 20.3255 28.1507 20.3975 28.2333 20.4877C28.3158 20.578 28.3793 20.6846 28.4197 20.801C28.4601 20.9173 28.4766 21.0409 28.4682 21.1641Z" fill="white"/>
<defs>
<linearGradient id="paint0_linear_131_109" x1="22" y1="0" x2="22" y2="44" gradientUnits="userSpaceOnUse">
<stop stop-color="#8E8E8E"/>
<stop offset="1" stop-color="#4D4D4D"/>
</linearGradient>
</defs>
</svg>
