<svg width="32" height="32" viewBox="0 0 32 32" fill="none" xmlns="http://www.w3.org/2000/svg">
<rect width="32" height="32" rx="8" fill="url(#paint0_linear_1888_399)"/>
<path d="M6 20.875C6 20.3438 6.13258 19.8555 6.39773 19.4102C6.66288 18.9648 7.01515 18.625 7.45455 18.3906C8.39394 17.9062 9.34848 17.543 10.3182 17.3008C11.2879 17.0586 12.2727 16.9375 13.2727 16.9375C14.2727 16.9375 15.2576 17.0586 16.2273 17.3008C17.197 17.543 18.1515 17.9062 19.0909 18.3906C19.5303 18.625 19.8826 18.9648 20.1477 19.4102C20.4129 19.8555 20.5455 20.3438 20.5455 20.875V21.625C20.5455 22.1406 20.3674 22.582 20.0114 22.9492C19.6553 23.3164 19.2273 23.5 18.7273 23.5H7.81818C7.31818 23.5 6.89015 23.3164 6.53409 22.9492C6.17803 22.582 6 22.1406 6 21.625V20.875ZM24.1818 23.5H21.8636C22.0303 23.2188 22.1553 22.918 22.2386 22.5977C22.322 22.2773 22.3636 21.9531 22.3636 21.625V20.6875C22.3636 20 22.178 19.3398 21.8068 18.707C21.4356 18.0742 20.9091 17.5313 20.2273 17.0781C21 17.1719 21.7273 17.332 22.4091 17.5586C23.0909 17.7852 23.7273 18.0625 24.3182 18.3906C24.8636 18.7031 25.2803 19.0508 25.5682 19.4336C25.8561 19.8164 26 20.2344 26 20.6875V21.625C26 22.1406 25.822 22.582 25.4659 22.9492C25.1098 23.3164 24.6818 23.5 24.1818 23.5ZM13.2727 16C12.2727 16 11.4167 15.6328 10.7045 14.8984C9.99242 14.1641 9.63636 13.2812 9.63636 12.25C9.63636 11.2188 9.99242 10.3359 10.7045 9.60156C11.4167 8.86719 12.2727 8.5 13.2727 8.5C14.2727 8.5 15.1288 8.86719 15.8409 9.60156C16.553 10.3359 16.9091 11.2188 16.9091 12.25C16.9091 13.2812 16.553 14.1641 15.8409 14.8984C15.1288 15.6328 14.2727 16 13.2727 16ZM22.3636 12.25C22.3636 13.2812 22.0076 14.1641 21.2955 14.8984C20.5833 15.6328 19.7273 16 18.7273 16C18.5606 16 18.3485 15.9805 18.0909 15.9414C17.8333 15.9023 17.6212 15.8594 17.4545 15.8125C17.8636 15.3125 18.178 14.7578 18.3977 14.1484C18.6174 13.5391 18.7273 12.9062 18.7273 12.25C18.7273 11.5938 18.6174 10.9609 18.3977 10.3516C18.178 9.74219 17.8636 9.1875 17.4545 8.6875C17.6667 8.60938 17.8788 8.55859 18.0909 8.53516C18.303 8.51172 18.5152 8.5 18.7273 8.5C19.7273 8.5 20.5833 8.86719 21.2955 9.60156C22.0076 10.3359 22.3636 11.2188 22.3636 12.25ZM7.81818 21.625H18.7273V20.875C18.7273 20.7031 18.6856 20.5469 18.6023 20.4062C18.5189 20.2656 18.4091 20.1562 18.2727 20.0781C17.4545 19.6562 16.6288 19.3398 15.7955 19.1289C14.9621 18.918 14.1212 18.8125 13.2727 18.8125C12.4242 18.8125 11.5833 18.918 10.75 19.1289C9.91667 19.3398 9.09091 19.6562 8.27273 20.0781C8.13636 20.1562 8.02652 20.2656 7.94318 20.4062C7.85985 20.5469 7.81818 20.7031 7.81818 20.875V21.625ZM13.2727 14.125C13.7727 14.125 14.2008 13.9414 14.5568 13.5742C14.9129 13.207 15.0909 12.7656 15.0909 12.25C15.0909 11.7344 14.9129 11.293 14.5568 10.9258C14.2008 10.5586 13.7727 10.375 13.2727 10.375C12.7727 10.375 12.3447 10.5586 11.9886 10.9258C11.6326 11.293 11.4545 11.7344 11.4545 12.25C11.4545 12.7656 11.6326 13.207 11.9886 13.5742C12.3447 13.9414 12.7727 14.125 13.2727 14.125Z" fill="white"/>
<defs>
<linearGradient id="paint0_linear_1888_399" x1="16" y1="0" x2="16" y2="32" gradientUnits="userSpaceOnUse">
<stop stop-color="#EA4535"/>
<stop offset="1" stop-color="#AD2F23"/>
</linearGradient>
</defs>
</svg>
