<svg width="32" height="32" viewBox="0 0 32 32" fill="none" xmlns="http://www.w3.org/2000/svg">
<rect width="32" height="32" rx="8" fill="url(#paint0_linear_1888_405)"/>
<path d="M14.2857 20.8C13.8143 20.8 13.4107 20.6433 13.075 20.33C12.7393 20.0167 12.5714 19.64 12.5714 19.2V18.2C11.7571 17.68 11.125 17.0133 10.675 16.2C10.225 15.3867 10 14.52 10 13.6C10 12.04 10.5821 10.7167 11.7464 9.63C12.9107 8.54333 14.3286 8 16 8C17.6714 8 19.0893 8.54333 20.2536 9.63C21.4179 10.7167 22 12.04 22 13.6C22 14.52 21.775 15.3833 21.325 16.19C20.875 16.9967 20.2429 17.6667 19.4286 18.2V19.2C19.4286 19.64 19.2607 20.0167 18.925 20.33C18.5893 20.6433 18.1857 20.8 17.7143 20.8H14.2857ZM14.2857 19.2H17.7143V17.78C17.7143 17.6467 17.7464 17.52 17.8107 17.4C17.875 17.28 17.9643 17.1867 18.0786 17.12L18.4429 16.88C19.0286 16.5067 19.4821 16.03 19.8036 15.45C20.125 14.87 20.2857 14.2533 20.2857 13.6C20.2857 12.4933 19.8679 11.55 19.0321 10.77C18.1964 9.99 17.1857 9.6 16 9.6C14.8143 9.6 13.8036 9.99 12.9679 10.77C12.1321 11.55 11.7143 12.4933 11.7143 13.6C11.7143 14.2533 11.875 14.87 12.1964 15.45C12.5179 16.03 12.9714 16.5067 13.5571 16.88L13.9214 17.12C14.0357 17.1867 14.125 17.28 14.1893 17.4C14.2536 17.52 14.2857 17.6467 14.2857 17.78V19.2ZM14.2857 24C14.0429 24 13.8393 23.9233 13.675 23.77C13.5107 23.6167 13.4286 23.4267 13.4286 23.2C13.4286 22.9733 13.5107 22.7833 13.675 22.63C13.8393 22.4767 14.0429 22.4 14.2857 22.4H17.7143C17.9571 22.4 18.1607 22.4767 18.325 22.63C18.4893 22.7833 18.5714 22.9733 18.5714 23.2C18.5714 23.4267 18.4893 23.6167 18.325 23.77C18.1607 23.9233 17.9571 24 17.7143 24H14.2857Z" fill="white"/>
<defs>
<linearGradient id="paint0_linear_1888_405" x1="16" y1="0" x2="16" y2="32" gradientUnits="userSpaceOnUse">
<stop stop-color="#EA4535"/>
<stop offset="1" stop-color="#AD2F23"/>
</linearGradient>
</defs>
</svg>
