<svg width="44" height="44" viewBox="0 0 44 44" fill="none" xmlns="http://www.w3.org/2000/svg">
<rect width="44" height="44" rx="11" fill="url(#paint0_linear_131_107)"/>
<path d="M31.9 22H33M29.15 14.85L30.25 13.75M22 12.1V11M14.85 14.85L13.75 13.75M12.1 22H11M19.8 33H24.2M27.5 22C27.4997 21.0085 27.2314 20.0355 26.7234 19.1839C26.2155 18.3324 25.4868 17.634 24.6144 17.1627C23.7421 16.6914 22.7586 16.4646 21.7679 16.5065C20.7773 16.5483 19.8164 16.8572 18.9869 17.4004C18.1574 17.9436 17.4902 18.7009 17.0558 19.5922C16.6215 20.4836 16.4361 21.4757 16.5195 22.4638C16.6028 23.4518 16.9516 24.3989 17.5291 25.2049C18.1066 26.0109 18.8912 26.6458 19.8 27.0424V29.7H24.2V27.0424C25.1811 26.6142 26.0159 25.9091 26.6021 25.0134C27.1882 24.1177 27.5003 23.0704 27.5 22Z" stroke="white" stroke-width="1.65" stroke-linecap="round" stroke-linejoin="round"/>
<defs>
<linearGradient id="paint0_linear_131_107" x1="22" y1="0" x2="22" y2="44" gradientUnits="userSpaceOnUse">
<stop stop-color="#EA4535"/>
<stop offset="1" stop-color="#AD2F23"/>
</linearGradient>
</defs>
</svg>
