<svg width="561" height="414" viewBox="0 0 561 414" fill="none" xmlns="http://www.w3.org/2000/svg">
<path d="M491 253.59V189.73C490.989 165.935 481.532 143.118 464.707 126.293C447.881 109.468 425.064 100.011 401.27 100H321.2C313.776 71.9809 296.409 47.6213 272.341 31.4692C248.273 15.3171 219.148 8.47677 190.406 12.2254C161.664 15.974 135.268 30.0553 116.147 51.8402C97.0267 73.6251 86.4883 101.624 86.4997 130.61V205.71C62.9049 211.681 42.3054 226.069 28.5766 246.165C14.8478 266.262 8.93619 290.684 11.954 314.834C14.9717 338.985 26.7109 361.201 44.9627 377.302C63.2146 393.402 86.7211 402.279 111.06 402.26H474.3C492.812 402.267 510.678 395.451 524.482 383.115C538.285 370.779 547.059 353.789 549.126 335.392C551.192 316.995 546.406 298.482 535.683 283.392C524.96 268.301 509.052 257.691 491 253.59Z" stroke="white" stroke-opacity="0.1" stroke-width="5" stroke-miterlimit="10"/>
</svg>
