<svg width="32" height="32" viewBox="0 0 32 32" fill="none" xmlns="http://www.w3.org/2000/svg">
<rect width="32" height="32" rx="8" fill="url(#paint0_linear_1888_410)"/>
<path d="M12.1318 15.2046C12.3227 14.8228 12.5204 14.4546 12.7249 14.1001C12.9295 13.7456 13.1545 13.391 13.3999 13.0365L12.2545 12.8115L10.5363 14.5296L12.1318 15.2046ZM21.9908 9.5797C21.0362 9.60698 20.0169 9.88652 18.9328 10.4183C17.8488 10.9501 16.8635 11.6592 15.9772 12.5456C15.4045 13.1183 14.8931 13.7319 14.4431 14.3865C13.9931 15.041 13.659 15.6546 13.4408 16.2274L15.7726 18.5387C16.3454 18.3205 16.959 17.9864 17.6135 17.5364C18.2681 17.0864 18.8817 16.5751 19.4544 16.0024C20.3408 15.116 21.0499 14.1342 21.5817 13.0569C22.1135 11.9797 22.393 10.9638 22.4203 10.0092C22.4203 9.9547 22.4101 9.90015 22.3896 9.84561C22.3692 9.79106 22.3385 9.74334 22.2976 9.70243C22.2567 9.66152 22.2089 9.63084 22.1544 9.61038C22.0998 9.58993 22.0453 9.5797 21.9908 9.5797ZM17.4908 14.4887C17.1772 14.1751 17.0204 13.7899 17.0204 13.3331C17.0204 12.8763 17.1772 12.491 17.4908 12.1774C17.8044 11.8638 18.1931 11.707 18.6567 11.707C19.1203 11.707 19.509 11.8638 19.8226 12.1774C20.1362 12.491 20.293 12.8763 20.293 13.3331C20.293 13.7899 20.1362 14.1751 19.8226 14.4887C19.509 14.8024 19.1203 14.9592 18.6567 14.9592C18.1931 14.9592 17.8044 14.8024 17.4908 14.4887ZM16.7954 19.8478L17.4704 21.4637L19.1885 19.7455L18.9635 18.6001C18.609 18.8455 18.2544 19.0671 17.8999 19.2648C17.5454 19.4626 17.1772 19.6569 16.7954 19.8478ZM23.9748 8.92516C24.0839 10.4251 23.8385 11.8876 23.2385 13.3126C22.6385 14.7376 21.6908 16.0978 20.3953 17.3933L20.8044 19.4182C20.859 19.691 20.8453 19.9569 20.7635 20.216C20.6817 20.475 20.5453 20.7 20.3544 20.8909L17.7772 23.4682C17.5726 23.6727 17.3272 23.7511 17.0408 23.7034C16.7544 23.6557 16.5567 23.4955 16.4476 23.2227L15.1999 20.2978L11.7022 16.8001L8.77726 15.5524C8.50454 15.4433 8.34091 15.2456 8.28636 14.9592C8.23182 14.6728 8.30681 14.4274 8.51136 14.2228L11.0886 11.6456C11.2795 11.4547 11.5079 11.3183 11.7738 11.2365C12.0397 11.1547 12.309 11.141 12.5818 11.1956L14.6067 11.6047C15.9022 10.3092 17.2624 9.36152 18.6874 8.76153C20.1124 8.16154 21.5749 7.91608 23.0748 8.02517C23.1839 8.03881 23.293 8.06949 23.4021 8.11722C23.5112 8.16495 23.6066 8.22972 23.6885 8.31154C23.7703 8.39335 23.8351 8.48881 23.8828 8.5979C23.9305 8.70699 23.9612 8.81608 23.9748 8.92516ZM9.53407 18.9887C10.0113 18.5114 10.5943 18.2694 11.2829 18.2626C11.9715 18.2557 12.5545 18.491 13.0318 18.9682C13.509 19.4455 13.7443 20.0285 13.7374 20.7171C13.7306 21.4057 13.4886 21.9887 13.0113 22.4659C12.3568 23.1205 11.5829 23.5091 10.6897 23.6318C9.79657 23.7545 8.89999 23.8773 8 24C8.12273 23.1 8.24545 22.2034 8.36818 21.3103C8.4909 20.4171 8.87954 19.6432 9.53407 18.9887ZM10.7 20.1341C10.4682 20.3659 10.3079 20.6455 10.2193 20.9728C10.1307 21.3 10.0591 21.6341 10.0045 21.975C10.3454 21.9205 10.6795 21.8523 11.0068 21.7705C11.3341 21.6887 11.6136 21.5318 11.8454 21.3C12.009 21.1364 12.0977 20.9387 12.1113 20.7069C12.125 20.475 12.05 20.2773 11.8863 20.1137C11.7227 19.95 11.525 19.8716 11.2931 19.8785C11.0613 19.8853 10.8636 19.9705 10.7 20.1341Z" fill="white"/>
<defs>
<linearGradient id="paint0_linear_1888_410" x1="16" y1="0" x2="16" y2="32" gradientUnits="userSpaceOnUse">
<stop stop-color="#EA4535"/>
<stop offset="1" stop-color="#AD2F23"/>
</linearGradient>
</defs>
</svg>
