<svg width="1080" height="1728" viewBox="0 0 1080 1728" fill="none" xmlns="http://www.w3.org/2000/svg">
<rect width="1080" height="1728" fill="#232323"/>
<path d="M986.185 77H730.834C722.957 77.0519 715.417 81.0248 709.86 88.051C704.303 95.0772 701.18 104.586 701.175 114.5V257.786C701.175 267.734 698.036 277.275 692.45 284.312C686.863 291.349 679.285 295.306 671.382 295.314H92.8601C88.9428 295.306 85.0627 296.271 81.4416 298.152C77.8206 300.033 74.5295 302.793 71.7564 306.276C68.9833 309.758 66.7827 313.894 65.2802 318.448C63.7778 323.002 63.0029 327.883 63 332.814V1632.58C63.0088 1637.51 63.7881 1642.38 65.2935 1646.93C66.7988 1651.47 69.0008 1655.6 71.7735 1659.08C74.5463 1662.55 77.8356 1665.3 81.4536 1667.18C85.0717 1669.05 88.9476 1670.01 92.8601 1670H986.185C990.099 1670 993.975 1669.04 997.593 1667.15C1001.21 1665.27 1004.5 1662.51 1007.27 1659.03C1010.03 1655.54 1012.23 1651.41 1013.73 1646.86C1015.23 1642.31 1016 1637.43 1016 1632.5V114.5C1015.99 104.552 1012.85 95.0135 1007.26 87.9817C1001.67 80.95 994.088 77 986.185 77Z" stroke="white" stroke-width="5" stroke-miterlimit="10"/>
<path d="M778.615 259.876C772.911 258.807 764.611 255.203 764.706 243.318C764.849 225.242 764.296 211.762 764.296 211.762C764.296 211.762 763.542 196.445 750 195.443" stroke="white" stroke-width="5" stroke-linejoin="round"/>
<path d="M778.639 131C772.911 132.069 764.611 135.664 764.706 147.563C764.849 165.644 764.296 179.119 764.296 179.119C764.296 179.119 763.542 194.436 750 195.443" stroke="white" stroke-width="5" stroke-linejoin="round"/>
<path d="M943.767 259.876C949.471 258.807 957.771 255.203 957.676 243.318C957.532 225.242 958.086 211.762 958.086 211.762C958.086 211.762 958.84 196.445 972.382 195.443" stroke="white" stroke-width="5" stroke-linejoin="round"/>
<path d="M943.743 131C949.471 132.069 957.771 135.664 957.676 147.563C957.532 165.644 958.086 179.119 958.086 179.119C958.086 179.119 958.84 194.436 972.382 195.443" stroke="white" stroke-width="5" stroke-linejoin="round"/>
<path d="M898.564 230.734L823.815 155.976" stroke="white" stroke-width="5" stroke-linejoin="round"/>
<path d="M823.815 230.734L898.564 155.976" stroke="white" stroke-width="5" stroke-linejoin="round"/>
<path d="M861.186 246.217V140.503" stroke="white" stroke-width="5" stroke-linejoin="round"/>
<path d="M808.333 193.355H914.047" stroke="white" stroke-width="5" stroke-linejoin="round"/>
<mask id="mask0_2051_285" style="mask-type:alpha" maskUnits="userSpaceOnUse" x="94" y="48" width="557" height="247">
<rect x="94" y="48" width="557" height="247" fill="white"/>
</mask>
<g mask="url(#mask0_2051_285)">
<path d="M386.25 497.513C512.861 497.513 615.5 403.364 615.5 287.227C615.5 171.089 512.861 76.9407 386.25 76.9407C259.639 76.9407 157 171.089 157 287.227C157 403.364 259.639 497.513 386.25 497.513Z" stroke="white" stroke-width="5" stroke-linejoin="round"/>
<path d="M386.25 497.513C440.902 497.513 485.206 403.364 485.206 287.227C485.206 171.089 440.902 76.9407 386.25 76.9407C331.597 76.9407 287.293 171.089 287.293 287.227C287.293 403.364 331.597 497.513 386.25 497.513Z" stroke="white" stroke-width="5" stroke-linejoin="round"/>
<path d="M173.095 209.292H599.24" stroke="white" stroke-width="5" stroke-linejoin="round"/>
</g>
<path d="M140.478 624.365H149.936C151.552 624.365 153.102 625.006 154.246 626.147C155.39 627.288 156.036 628.836 156.04 630.452V686.58C156.04 694.671 159.254 702.43 164.975 708.151C170.696 713.872 178.456 717.086 186.547 717.086H210.93C211.577 717.086 212.198 716.829 212.656 716.371C213.114 715.913 213.371 715.292 213.371 714.644V680.402C213.367 679.758 213.107 679.141 212.65 678.687C212.192 678.233 211.574 677.979 210.93 677.979H192.214C190.595 677.979 189.042 677.335 187.897 676.191C186.752 675.046 186.109 673.493 186.109 671.874V536.237C186.109 535.436 186.267 534.643 186.574 533.903C186.881 533.164 187.331 532.492 187.898 531.926C188.465 531.361 189.139 530.913 189.879 530.608C190.62 530.303 191.413 530.148 192.214 530.15H210.93C211.577 530.15 212.198 529.893 212.656 529.435C213.114 528.977 213.371 528.356 213.371 527.708V493.466C213.371 492.819 213.114 492.198 212.656 491.74C212.198 491.282 211.577 491.024 210.93 491.024H186.547C182.54 491.024 178.574 491.813 174.872 493.347C171.171 494.88 167.808 497.127 164.975 499.959C159.254 505.68 156.04 513.44 156.04 521.53V577.622C156.036 579.238 155.39 580.786 154.246 581.927C153.102 583.068 151.552 583.709 149.936 583.709H140.478C140.157 583.709 139.839 583.772 139.543 583.895C139.247 584.017 138.978 584.197 138.751 584.424C138.524 584.651 138.344 584.92 138.222 585.216C138.099 585.512 138.036 585.83 138.036 586.151V621.923C138.036 622.571 138.293 623.192 138.751 623.65C139.209 624.108 139.83 624.365 140.478 624.365Z" fill="#EA4535"/>
<path d="M939.522 583.745H930.065C929.265 583.748 928.472 583.592 927.732 583.287C926.993 582.982 926.321 582.534 925.755 581.968C925.19 581.402 924.741 580.73 924.436 579.991C924.131 579.251 923.975 578.459 923.978 577.659V521.53C923.973 513.438 920.755 505.679 915.031 499.958C909.307 494.238 901.546 491.024 893.454 491.024H869.052C868.405 491.024 867.784 491.282 867.326 491.74C866.868 492.198 866.61 492.819 866.61 493.466V527.708C866.61 528.356 866.868 528.977 867.326 529.435C867.784 529.893 868.405 530.15 869.052 530.15H887.786C888.587 530.148 889.38 530.303 890.121 530.608C890.861 530.913 891.535 531.361 892.102 531.926C892.669 532.492 893.119 533.164 893.426 533.903C893.733 534.643 893.891 535.436 893.891 536.237V671.874C893.891 673.493 893.248 675.046 892.103 676.191C890.958 677.335 889.405 677.979 887.786 677.979H869.052C868.408 677.979 867.789 678.233 867.332 678.687C866.875 679.141 866.615 679.758 866.61 680.402V714.644C866.61 715.292 866.868 715.913 867.326 716.371C867.784 716.829 868.405 717.086 869.052 717.086H893.454C901.546 717.086 909.307 713.873 915.031 708.152C920.755 702.432 923.973 694.672 923.978 686.58V630.507C923.975 629.706 924.131 628.912 924.436 628.172C924.741 627.431 925.189 626.758 925.754 626.191C926.32 625.624 926.991 625.174 927.731 624.867C928.471 624.56 929.264 624.402 930.065 624.402H939.522C940.17 624.402 940.791 624.144 941.249 623.686C941.707 623.229 941.964 622.607 941.964 621.96V586.187C941.964 585.54 941.707 584.918 941.249 584.46C940.791 584.003 940.17 583.745 939.522 583.745Z" fill="#EA4535"/>
<path d="M248.213 603.7V491.024H286.3C297.068 490.726 307.734 493.191 317.279 498.186C325.73 502.728 332.691 509.612 337.325 518.013C342.132 527.039 344.542 537.147 344.323 547.371C344.533 557.611 342.125 567.735 337.325 576.784C332.723 585.255 325.733 592.187 317.225 596.72C307.662 601.658 297.003 604.091 286.245 603.791L248.213 603.7ZM269.461 583.654H285.352C292.541 583.901 299.679 582.361 306.127 579.171C311.532 576.334 315.911 571.872 318.646 566.415C321.529 560.494 322.96 553.973 322.819 547.389C322.975 540.769 321.544 534.209 318.646 528.255C315.865 522.871 311.494 518.475 306.127 515.662C299.679 512.473 292.541 510.932 285.352 511.179H269.461V583.654Z" fill="white"/>
<path d="M396.46 606.214C388.891 606.352 381.423 604.465 374.828 600.747C368.561 597.165 363.388 591.942 359.867 585.64C356.165 578.954 354.28 571.414 354.4 563.772C354.339 556.348 356.184 549.032 359.757 542.524C363.193 536.141 368.214 530.75 374.336 526.87C380.698 522.885 388.08 520.833 395.585 520.965C403.196 520.701 410.728 522.596 417.307 526.432C423.058 529.981 427.694 535.078 430.683 541.139C433.771 547.488 435.331 554.471 435.239 561.531C435.239 563.207 435.184 564.647 435.075 565.85C435.022 566.723 434.919 567.594 434.765 568.456H365.935V553.877H415.503C415.345 551.969 414.812 550.112 413.936 548.41C412.936 546.463 411.604 544.705 410 543.216C406.145 539.676 401.072 537.763 395.84 537.877C391.969 537.844 388.171 538.932 384.906 541.011C381.565 543.165 378.875 546.189 377.124 549.758C375.142 553.9 374.173 558.453 374.3 563.043C374.148 567.759 375.175 572.438 377.288 576.656C379.11 580.213 381.92 583.168 385.38 585.166C389.059 587.132 393.176 588.135 397.347 588.081C401.518 588.027 405.607 586.917 409.234 584.857C412.47 582.803 415.158 579.995 417.07 576.674L433.763 584.857C430.213 591.227 425.126 596.608 418.966 600.511C412.159 604.514 404.351 606.492 396.46 606.214Z" fill="white"/>
<path d="M469.903 603.699L435.898 523.516H459.351L479.652 575.763H480.91L501.52 523.516H524.664L490.349 603.699H469.903Z" fill="white"/>
<path d="M534.816 603.7V491.024H606.252V511.161H556.047V603.7H534.816ZM546.607 558.688V538.551H601.277V558.688H546.607Z" fill="white"/>
<path d="M654.487 606.214C646.918 606.352 639.45 604.465 632.856 600.747C626.588 597.165 621.416 591.942 617.895 585.64C614.193 578.954 612.308 571.414 612.427 563.772C612.367 556.348 614.211 549.032 617.785 542.524C621.221 536.141 626.242 530.75 632.364 526.87C638.763 522.844 646.2 520.779 653.758 520.929C661.37 520.664 668.901 522.56 675.481 526.396C681.232 529.945 685.867 535.041 688.857 541.102C691.935 547.455 693.494 554.436 693.413 561.494C693.413 563.171 693.358 564.61 693.249 565.813C693.196 566.687 693.092 567.557 692.939 568.419H623.963V553.84H673.531C673.372 551.933 672.84 550.075 671.964 548.373C670.963 546.426 669.631 544.669 668.027 543.18C664.167 539.637 659.087 537.724 653.849 537.84C649.979 537.807 646.181 538.896 642.915 540.975C639.57 543.124 636.879 546.149 635.134 549.722C633.145 553.862 632.17 558.415 632.291 563.007C632.148 567.721 633.175 572.398 635.28 576.62C637.113 580.174 639.928 583.127 643.389 585.13C647.065 587.096 651.179 588.099 655.347 588.044C659.515 587.99 663.602 586.881 667.225 584.82C670.473 582.785 673.175 579.989 675.098 576.674L691.791 584.857C688.24 591.227 683.154 596.608 676.993 600.51C670.186 604.514 662.379 606.492 654.487 606.214Z" fill="white"/>
<path d="M736.586 606.214C730.55 606.368 724.541 605.353 718.891 603.226C714.401 601.504 710.345 598.816 707.009 595.353C704.068 592.268 701.764 588.633 700.23 584.656L718.654 576.674C720.209 580.171 722.74 583.145 725.943 585.239C729.15 587.231 732.867 588.244 736.641 588.155C739.757 588.198 742.851 587.635 745.752 586.497C747.005 586.078 748.086 585.259 748.827 584.166C749.568 583.072 749.928 581.765 749.853 580.446C749.897 579.512 749.728 578.581 749.358 577.722C748.989 576.863 748.429 576.1 747.72 575.49C746.168 574.211 744.378 573.251 742.454 572.665C740.341 571.974 738.187 571.42 736.003 571.007L726.563 568.966C722.656 568.122 718.925 566.605 715.538 564.483C712.155 562.41 709.279 559.609 707.118 556.282C704.937 552.883 703.815 548.912 703.893 544.874C703.798 540.328 705.272 535.887 708.066 532.3C711.033 528.564 714.929 525.673 719.365 523.917C724.38 521.881 729.752 520.865 735.164 520.929C740.056 520.846 744.934 521.46 749.652 522.751C753.726 523.898 757.525 525.857 760.823 528.51C764.055 531.198 766.64 534.58 768.386 538.405L750.745 546.113C749.354 543.258 747.061 540.94 744.221 539.517C741.53 538.283 738.599 537.66 735.638 537.694C732.671 537.55 729.724 538.258 727.146 539.735C726.24 540.204 725.473 540.901 724.92 541.758C724.367 542.614 724.048 543.601 723.993 544.619C724.037 545.681 724.349 546.714 724.901 547.622C725.452 548.53 726.224 549.284 727.146 549.813C729.449 551.329 732.013 552.405 734.709 552.984L746.499 555.826C754.481 557.722 760.489 560.759 764.522 564.938C766.487 566.926 768.035 569.286 769.074 571.881C770.113 574.475 770.622 577.251 770.573 580.045C770.662 585.016 769.055 589.869 766.017 593.804C762.792 597.866 758.556 601.008 753.734 602.916C748.296 605.151 742.465 606.272 736.586 606.214Z" fill="white"/>
<path d="M776.695 541.066V523.444H791.493V541.066H776.695ZM817.297 604.957C808.999 604.957 802.5 602.57 797.798 597.795C793.096 593.021 790.733 586.436 790.709 578.041V500.774H811.32V574.269C811.069 577.32 811.909 580.361 813.689 582.852C815.256 584.674 817.826 585.604 821.397 585.604C822.998 585.615 824.591 585.375 826.117 584.893C828.039 584.188 829.873 583.264 831.584 582.141V602.187C829.307 603.024 826.967 603.682 824.587 604.155C822.189 604.662 819.748 604.931 817.297 604.957ZM810.482 541.066V523.444H830.947V541.066H810.482Z" fill="white"/>
<path d="M788.375 633.398H288.998C266.01 633.398 247.375 652.033 247.375 675.021V675.039C247.375 698.026 266.01 716.661 288.998 716.661H788.375C811.363 716.661 829.998 698.026 829.998 675.039V675.021C829.998 652.033 811.363 633.398 788.375 633.398Z" fill="white" stroke="#1D1D1D" stroke-width="2" stroke-linejoin="round"/>
<path d="M494.147 691.485C491.513 691.485 489.098 690.686 486.902 689.086C484.707 687.487 483.202 685.244 482.386 682.359L486.197 680.807C486.73 682.814 487.718 684.46 489.16 685.746C490.603 687.032 492.297 687.675 494.241 687.675C496.186 687.675 497.832 687.157 499.181 686.122C500.529 685.056 501.204 683.613 501.204 681.795C501.204 680.226 500.623 678.941 499.463 677.937C498.334 676.902 496.468 675.945 493.865 675.067L491.748 674.315C489.364 673.468 487.42 672.355 485.914 670.975C484.409 669.595 483.656 667.681 483.656 665.235C483.656 663.636 484.095 662.162 484.973 660.813C485.852 659.433 487.075 658.336 488.643 657.52C490.211 656.705 491.967 656.297 493.912 656.297C495.856 656.297 497.55 656.658 498.992 657.379C500.435 658.1 501.58 658.978 502.427 660.013C503.305 661.048 503.916 662.068 504.261 663.071L500.498 664.671C500.184 663.51 499.463 662.46 498.334 661.519C497.236 660.578 495.778 660.108 493.959 660.108C492.234 660.108 490.76 660.594 489.537 661.566C488.314 662.538 487.702 663.761 487.702 665.235C487.702 666.552 488.219 667.634 489.254 668.481C490.289 669.297 491.858 670.065 493.959 670.786L496.17 671.539C499.024 672.574 501.251 673.875 502.85 675.444C504.45 676.98 505.249 679.082 505.249 681.747C505.249 683.911 504.685 685.73 503.556 687.204C502.458 688.679 501.062 689.761 499.369 690.45C497.675 691.14 495.935 691.485 494.147 691.485ZM518.323 691.485C515.437 691.485 513.226 690.639 511.689 688.945C510.184 687.252 509.431 684.884 509.431 681.842V666.741H513.43V681.23C513.43 683.519 513.947 685.197 514.982 686.264C516.017 687.33 517.413 687.863 519.169 687.863C520.518 687.863 521.71 687.502 522.745 686.781C523.811 686.06 524.626 685.119 525.191 683.958C525.787 682.798 526.085 681.575 526.085 680.289V666.741H530.083V690.733H526.273V687.252H526.085C525.426 688.443 524.376 689.447 522.933 690.262C521.49 691.078 519.953 691.485 518.323 691.485ZM546.627 691.485C544.306 691.485 542.22 690.937 540.37 689.839C538.52 688.71 537.077 687.189 536.042 685.276C535.007 683.331 534.49 681.152 534.49 678.737C534.49 676.322 535.007 674.142 536.042 672.198C537.077 670.253 538.52 668.732 540.37 667.634C542.22 666.537 544.306 665.988 546.627 665.988C549.23 665.988 551.41 666.599 553.166 667.823C554.954 669.014 556.224 670.614 556.977 672.621L553.354 674.126C552.758 672.652 551.864 671.539 550.673 670.786C549.512 670.002 548.101 669.61 546.439 669.61C545.027 669.61 543.71 670.002 542.487 670.786C541.264 671.539 540.276 672.605 539.523 673.985C538.802 675.365 538.441 676.949 538.441 678.737C538.441 680.524 538.802 682.108 539.523 683.488C540.276 684.868 541.264 685.95 542.487 686.734C543.71 687.487 545.027 687.863 546.439 687.863C548.132 687.863 549.591 687.471 550.814 686.687C552.037 685.903 552.946 684.79 553.542 683.347L557.118 684.852C556.302 686.828 554.985 688.428 553.166 689.651C551.378 690.874 549.199 691.485 546.627 691.485ZM561.211 666.741H565.022V670.598H565.21C565.68 669.281 566.59 668.199 567.938 667.352C569.287 666.474 570.698 666.035 572.172 666.035C573.27 666.035 574.211 666.192 574.995 666.505V670.833C573.991 670.332 572.862 670.081 571.608 670.081C570.447 670.081 569.381 670.41 568.409 671.069C567.436 671.727 566.652 672.621 566.057 673.75C565.492 674.848 565.21 676.039 565.21 677.325V690.733H561.211V666.741ZM588.107 691.485C585.818 691.485 583.764 690.937 581.944 689.839C580.125 688.741 578.698 687.236 577.663 685.323C576.66 683.378 576.158 681.199 576.158 678.784C576.158 676.463 576.628 674.33 577.569 672.386C578.542 670.441 579.906 668.889 581.662 667.729C583.418 666.568 585.457 665.988 587.778 665.988C590.13 665.988 592.169 666.521 593.893 667.587C595.618 668.622 596.936 670.065 597.845 671.915C598.786 673.766 599.256 675.883 599.256 678.266C599.256 678.737 599.209 679.144 599.115 679.489H580.157C580.251 681.308 580.69 682.845 581.474 684.1C582.258 685.354 583.246 686.295 584.438 686.922C585.661 687.55 586.931 687.863 588.248 687.863C591.322 687.863 593.69 686.42 595.352 683.535L598.739 685.182C597.704 687.126 596.293 688.663 594.505 689.792C592.749 690.921 590.616 691.485 588.107 691.485ZM595.022 676.196C594.96 675.193 594.678 674.189 594.176 673.186C593.674 672.182 592.874 671.335 591.776 670.645C590.71 669.955 589.362 669.61 587.731 669.61C585.849 669.61 584.25 670.222 582.932 671.445C581.647 672.637 580.8 674.221 580.392 676.196H595.022Z" fill="black"/>
<rect x="136.5" y="771.086" width="807" height="169" rx="84.5" fill="#232323"/>
<path d="M325.98 996.166H341.34L373.62 1082.09H358.74L351.06 1060.13H316.38L308.58 1082.09H293.7L325.98 996.166ZM346.5 1047.65L337.38 1022.09L334.02 1012.13H333.3L329.94 1022.09L320.82 1047.65H346.5ZM401.855 1084.01C394.815 1084.01 389.055 1082.49 384.575 1079.45C380.095 1076.33 376.935 1072.37 375.095 1067.57L386.855 1062.41C388.295 1065.61 390.295 1068.05 392.855 1069.73C395.495 1071.41 398.495 1072.25 401.855 1072.25C405.135 1072.25 407.895 1071.69 410.135 1070.57C412.375 1069.37 413.495 1067.61 413.495 1065.29C413.495 1063.05 412.535 1061.29 410.615 1060.01C408.695 1058.73 405.735 1057.61 401.735 1056.65L394.415 1054.85C389.535 1053.65 385.495 1051.53 382.295 1048.49C379.095 1045.45 377.495 1041.61 377.495 1036.97C377.495 1033.37 378.535 1030.21 380.615 1027.49C382.775 1024.77 385.655 1022.69 389.255 1021.25C392.855 1019.73 396.775 1018.97 401.015 1018.97C406.695 1018.97 411.695 1020.13 416.015 1022.45C420.335 1024.69 423.455 1027.97 425.375 1032.29L413.855 1037.33C411.535 1032.61 407.295 1030.25 401.135 1030.25C398.175 1030.25 395.695 1030.85 393.695 1032.05C391.695 1033.25 390.695 1034.81 390.695 1036.73C390.695 1038.57 391.455 1040.09 392.975 1041.29C394.495 1042.41 396.735 1043.37 399.695 1044.17L408.695 1046.45C414.695 1047.97 419.215 1050.29 422.255 1053.41C425.375 1056.45 426.935 1060.21 426.935 1064.69C426.935 1068.53 425.815 1071.93 423.575 1074.89C421.415 1077.77 418.415 1080.01 414.575 1081.61C410.735 1083.21 406.495 1084.01 401.855 1084.01ZM441.737 1012.01C439.257 1012.01 437.137 1011.17 435.377 1009.49C433.697 1007.73 432.857 1005.61 432.857 1003.13C432.857 1000.65 433.697 998.566 435.377 996.886C437.137 995.126 439.257 994.246 441.737 994.246C444.217 994.246 446.297 995.126 447.977 996.886C449.737 998.566 450.617 1000.65 450.617 1003.13C450.617 1005.61 449.737 1007.73 447.977 1009.49C446.297 1011.17 444.217 1012.01 441.737 1012.01ZM435.137 1020.89H448.337V1082.09H435.137V1020.89ZM483.483 1084.01C476.443 1084.01 470.683 1082.49 466.203 1079.45C461.723 1076.33 458.563 1072.37 456.723 1067.57L468.483 1062.41C469.923 1065.61 471.923 1068.05 474.483 1069.73C477.123 1071.41 480.123 1072.25 483.483 1072.25C486.763 1072.25 489.523 1071.69 491.763 1070.57C494.003 1069.37 495.123 1067.61 495.123 1065.29C495.123 1063.05 494.163 1061.29 492.243 1060.01C490.323 1058.73 487.363 1057.61 483.363 1056.65L476.043 1054.85C471.163 1053.65 467.123 1051.53 463.923 1048.49C460.723 1045.45 459.123 1041.61 459.123 1036.97C459.123 1033.37 460.163 1030.21 462.243 1027.49C464.403 1024.77 467.283 1022.69 470.883 1021.25C474.483 1019.73 478.403 1018.97 482.643 1018.97C488.323 1018.97 493.323 1020.13 497.643 1022.45C501.963 1024.69 505.083 1027.97 507.003 1032.29L495.483 1037.33C493.163 1032.61 488.923 1030.25 482.763 1030.25C479.803 1030.25 477.323 1030.85 475.323 1032.05C473.323 1033.25 472.323 1034.81 472.323 1036.73C472.323 1038.57 473.083 1040.09 474.603 1041.29C476.123 1042.41 478.363 1043.37 481.323 1044.17L490.323 1046.45C496.323 1047.97 500.843 1050.29 503.883 1053.41C507.003 1056.45 508.563 1060.21 508.563 1064.69C508.563 1068.53 507.443 1071.93 505.203 1074.89C503.043 1077.77 500.043 1080.01 496.203 1081.61C492.363 1083.21 488.123 1084.01 483.483 1084.01ZM540.885 1083.05C538.165 1083.05 535.605 1082.61 533.205 1081.73C530.805 1080.85 528.845 1079.69 527.325 1078.25C523.885 1074.81 522.165 1070.13 522.165 1064.21V1032.53H511.485V1020.89H522.165V1003.61H535.365V1020.89H550.245V1032.53H535.365V1061.33C535.365 1064.61 536.005 1066.93 537.285 1068.29C538.485 1069.89 540.565 1070.69 543.525 1070.69C544.885 1070.69 546.085 1070.53 547.125 1070.21C548.165 1069.81 549.285 1069.21 550.485 1068.41V1081.25C547.845 1082.45 544.645 1083.05 540.885 1083.05ZM584.813 1084.01C578.813 1084.01 573.413 1082.61 568.613 1079.81C563.893 1077.01 560.173 1073.17 557.453 1068.29C554.813 1063.33 553.493 1057.77 553.493 1051.61C553.493 1045.77 554.773 1040.37 557.333 1035.41C559.973 1030.37 563.613 1026.37 568.253 1023.41C572.893 1020.45 578.173 1018.97 584.093 1018.97C590.253 1018.97 595.573 1020.33 600.053 1023.05C604.613 1025.77 608.053 1029.49 610.373 1034.21C612.773 1038.93 613.973 1044.25 613.973 1050.17C613.973 1051.29 613.853 1052.69 613.613 1054.37H566.693C567.173 1060.05 569.173 1064.45 572.693 1067.57C576.293 1070.61 580.453 1072.13 585.173 1072.13C588.933 1072.13 592.173 1071.29 594.893 1069.61C597.693 1067.85 599.933 1065.49 601.613 1062.53L612.773 1067.81C609.893 1072.85 606.133 1076.81 601.493 1079.69C596.853 1082.57 591.293 1084.01 584.813 1084.01ZM600.533 1044.29C600.373 1042.13 599.693 1040.01 598.493 1037.93C597.293 1035.77 595.453 1033.97 592.973 1032.53C590.573 1031.09 587.613 1030.37 584.093 1030.37C579.853 1030.37 576.253 1031.65 573.293 1034.21C570.413 1036.69 568.413 1040.05 567.293 1044.29H600.533ZM622.394 1020.89H634.994V1028.93H635.594C637.354 1026.05 639.954 1023.69 643.394 1021.85C646.914 1019.93 650.634 1018.97 654.554 1018.97C661.994 1018.97 667.634 1021.17 671.474 1025.57C675.394 1029.89 677.354 1035.81 677.354 1043.33V1082.09H664.154V1045.13C664.154 1040.33 662.954 1036.81 660.554 1034.57C658.234 1032.33 654.994 1031.21 650.834 1031.21C647.874 1031.21 645.234 1032.05 642.914 1033.73C640.594 1035.33 638.794 1037.49 637.514 1040.21C636.234 1042.93 635.594 1045.85 635.594 1048.97V1082.09H622.394V1020.89ZM710.671 1083.05C707.951 1083.05 705.391 1082.61 702.991 1081.73C700.591 1080.85 698.631 1079.69 697.111 1078.25C693.671 1074.81 691.951 1070.13 691.951 1064.21V1032.53H681.271V1020.89H691.951V1003.61H705.151V1020.89H720.031V1032.53H705.151V1061.33C705.151 1064.61 705.791 1066.93 707.071 1068.29C708.271 1069.89 710.351 1070.69 713.311 1070.69C714.671 1070.69 715.871 1070.53 716.911 1070.21C717.951 1069.81 719.071 1069.21 720.271 1068.41V1081.25C717.631 1082.45 714.431 1083.05 710.671 1083.05ZM754.599 1084.01C748.599 1084.01 743.199 1082.61 738.399 1079.81C733.679 1077.01 729.959 1073.17 727.239 1068.29C724.599 1063.33 723.279 1057.77 723.279 1051.61C723.279 1045.77 724.559 1040.37 727.119 1035.41C729.759 1030.37 733.399 1026.37 738.039 1023.41C742.679 1020.45 747.959 1018.97 753.879 1018.97C760.039 1018.97 765.359 1020.33 769.839 1023.05C774.399 1025.77 777.839 1029.49 780.159 1034.21C782.559 1038.93 783.759 1044.25 783.759 1050.17C783.759 1051.29 783.639 1052.69 783.399 1054.37H736.479C736.959 1060.05 738.959 1064.45 742.479 1067.57C746.079 1070.61 750.239 1072.13 754.959 1072.13C758.719 1072.13 761.959 1071.29 764.679 1069.61C767.479 1067.85 769.719 1065.49 771.399 1062.53L782.559 1067.81C779.679 1072.85 775.919 1076.81 771.279 1079.69C766.639 1082.57 761.079 1084.01 754.599 1084.01ZM770.319 1044.29C770.159 1042.13 769.479 1040.01 768.279 1037.93C767.079 1035.77 765.239 1033.97 762.759 1032.53C760.359 1031.09 757.399 1030.37 753.879 1030.37C749.639 1030.37 746.039 1031.65 743.079 1034.21C740.199 1036.69 738.199 1040.05 737.079 1044.29H770.319Z" fill="#232323"/>
<path d="M296 1189.8C296 1229.02 259.497 1260.8 214.488 1260.8C169.479 1260.8 133 1229.02 133 1189.8" stroke="white" stroke-width="5" stroke-linejoin="round"/>
<path d="M459 1189.8C459 1229.02 422.516 1260.8 377.5 1260.8C332.484 1260.8 296 1229.02 296 1189.8" stroke="white" stroke-width="5" stroke-linejoin="round"/>
<path d="M621 1189.8C621 1229.02 584.745 1260.8 540.012 1260.8C495.279 1260.8 459 1229.02 459 1189.8" stroke="white" stroke-width="5" stroke-linejoin="round"/>
<path d="M784 1189.8C784 1229.02 747.511 1260.8 702.488 1260.8C657.465 1260.8 621 1229.02 621 1189.8" stroke="white" stroke-width="5" stroke-linejoin="round"/>
<path d="M947 1189.8C947 1229.02 910.511 1260.8 865.488 1260.8C820.465 1260.8 784 1229.02 784 1189.8" stroke="white" stroke-width="5" stroke-linejoin="round"/>
<path d="M911.719 1397.61C899.519 1420.41 874.518 1430.73 856.014 1420.66C837.51 1410.58 832.426 1383.91 844.678 1361.1" stroke="white" stroke-width="5" stroke-linejoin="round"/>
<path d="M844.678 1361.1C856.879 1338.3 881.869 1327.98 900.383 1338.05C918.898 1348.13 923.971 1374.8 911.72 1397.61" stroke="white" stroke-width="5" stroke-linejoin="round"/>
<path d="M929.278 1406.61C926.117 1412.5 919.671 1415.17 914.882 1412.57C910.093 1409.96 908.782 1403.06 911.954 1397.16" stroke="white" stroke-width="5" stroke-linejoin="round"/>
<path d="M889.309 1443.7C874.303 1449.6 858.249 1449.51 844.513 1442.04C816.422 1426.79 808.715 1386.27 827.321 1351.66" stroke="white" stroke-width="5" stroke-linejoin="round"/>
<path d="M827.321 1351.65C845.917 1317.04 883.778 1301.37 911.87 1316.67C939.961 1331.97 947.678 1372.44 929.073 1407.05" stroke="white" stroke-width="5" stroke-linejoin="round"/>
<path d="M511.293 1422.96L425.046 1336.7" stroke="white" stroke-width="5" stroke-linejoin="round"/>
<path d="M425.046 1422.96L511.293 1336.7" stroke="white" stroke-width="5" stroke-linejoin="round"/>
<path d="M468.165 1440.82V1318.85" stroke="white" stroke-width="5" stroke-linejoin="round"/>
<path d="M407.18 1379.83H529.154" stroke="white" stroke-width="5" stroke-linejoin="round"/>
<path d="M140.785 1379.33H323.547" stroke="white" stroke-width="5" stroke-miterlimit="10"/>
<path d="M323.547 1379.33C285.502 1379.33 233.243 1348.7 232.562 1310.8" stroke="white" stroke-width="5" stroke-miterlimit="10"/>
<path d="M323.547 1379.33C285.471 1379.33 233.182 1410.01 232.562 1448" stroke="white" stroke-width="5" stroke-miterlimit="10"/>
<path d="M695.465 1379.27C716.43 1379.2 733.48 1393.02 733.541 1410.15C733.602 1427.29 716.664 1441.23 695.699 1441.31" stroke="white" stroke-width="5" stroke-linejoin="round"/>
<path d="M695.233 1317.24C716.208 1317.16 733.258 1330.98 733.319 1348.12C733.38 1365.25 716.431 1379.2 695.467 1379.27" stroke="white" stroke-width="5" stroke-linejoin="round"/>
<path d="M667.934 1434.5L612.788 1379.36L667.924 1324.22" stroke="white" stroke-width="5" stroke-linejoin="round"/>
<g clip-path="url(#clip0_2051_285)">
<path d="M396.709 1500.34H345.297C316.321 1500.34 292.832 1523.88 292.832 1552.93C292.832 1581.98 316.321 1605.53 345.297 1605.53H396.709C425.685 1605.53 449.174 1581.98 449.174 1552.93C449.174 1523.88 425.685 1500.34 396.709 1500.34Z" stroke="white" stroke-width="5" stroke-miterlimit="10"/>
<path d="M321.436 1569.41V1565.49L322.261 1564.6L323.993 1562.67L326.276 1560.14L328.72 1557.4L331.019 1554.86L332.638 1553.03C333.869 1551.77 334.955 1550.38 335.875 1548.88C336.555 1547.71 336.913 1546.38 336.911 1545.03C336.922 1544.05 336.67 1543.09 336.183 1542.24C335.677 1541.39 334.956 1540.7 334.094 1540.23C333.128 1539.7 332.039 1539.43 330.938 1539.46C329.908 1539.44 328.89 1539.69 327.992 1540.19C327.194 1540.64 326.503 1541.25 325.968 1542C325.503 1542.61 325.167 1543.31 324.981 1544.06L321.452 1542.63C321.68 1541.88 322.012 1541.16 322.439 1540.5C322.959 1539.65 323.597 1538.88 324.333 1538.21C325.183 1537.45 326.165 1536.84 327.231 1536.43C328.713 1535.88 330.295 1535.65 331.872 1535.76C333.449 1535.87 334.985 1536.31 336.377 1537.06C337.775 1537.91 338.939 1539.09 339.76 1540.5C340.542 1541.86 340.95 1543.41 340.942 1544.98C340.939 1546.38 340.641 1547.75 340.068 1549.02C339.511 1550.32 338.805 1551.55 337.963 1552.69C337.232 1553.7 336.437 1554.66 335.584 1555.56C335.179 1555.97 334.645 1556.54 333.965 1557.28L331.747 1559.73C330.938 1560.59 330.128 1561.45 329.4 1562.28L327.409 1564.44C326.842 1565.06 326.454 1565.46 326.227 1565.69H341.233V1569.41H321.436Z" fill="white"/>
<path d="M358.247 1570.15C356.431 1570.18 354.641 1569.71 353.067 1568.8C351.496 1567.89 350.147 1566.64 349.117 1565.14C347.971 1563.47 347.117 1561.61 346.592 1559.65C345.426 1555.25 345.426 1550.63 346.592 1546.23C347.115 1544.27 347.969 1542.41 349.117 1540.73C350.142 1539.22 351.492 1537.96 353.067 1537.04C354.647 1536.15 356.435 1535.7 358.247 1535.73C360.069 1535.7 361.867 1536.16 363.459 1537.04C365.04 1537.96 366.395 1539.22 367.425 1540.73C368.574 1542.41 369.428 1544.27 369.951 1546.23C371.116 1550.63 371.116 1555.25 369.951 1559.65C369.426 1561.61 368.572 1563.47 367.425 1565.14C366.408 1566.63 365.077 1567.88 363.524 1568.8C361.919 1569.72 360.095 1570.19 358.247 1570.15ZM358.247 1566.42C359.957 1566.45 361.609 1565.8 362.844 1564.62C364.223 1563.27 365.241 1561.6 365.807 1559.75C367.166 1555.29 367.166 1550.53 365.807 1546.07C365.236 1544.22 364.218 1542.55 362.844 1541.2C361.6 1540.03 359.952 1539.39 358.247 1539.41C356.551 1539.39 354.912 1540.03 353.682 1541.2C352.319 1542.55 351.312 1544.23 350.752 1546.07C349.371 1550.52 349.371 1555.29 350.752 1559.75C351.306 1561.59 352.314 1563.27 353.682 1564.62C354.909 1565.8 356.549 1566.44 358.247 1566.42Z" fill="white"/>
<path d="M374.581 1569.41V1565.49C374.678 1565.49 374.953 1565.11 375.406 1564.6L377.155 1562.67C377.867 1561.89 378.612 1561.05 379.421 1560.14L381.881 1557.4L384.18 1554.86C384.876 1554.1 385.443 1553.49 385.88 1553.03C387.101 1551.76 388.186 1550.37 389.117 1548.88C389.785 1547.7 390.137 1546.38 390.137 1545.03C390.148 1544.05 389.896 1543.09 389.409 1542.24C388.912 1541.39 388.189 1540.69 387.321 1540.23C386.36 1539.7 385.276 1539.43 384.18 1539.46C383.146 1539.44 382.123 1539.69 381.218 1540.19C380.424 1540.64 379.735 1541.26 379.194 1542C378.736 1542.61 378.4 1543.31 378.207 1544.06L374.678 1542.63C374.92 1541.88 375.252 1541.17 375.665 1540.5C376.192 1539.65 376.835 1538.88 377.575 1538.21C378.419 1537.45 379.396 1536.84 380.457 1536.43C381.699 1535.94 383.025 1535.7 384.358 1535.73C386.201 1535.68 388.021 1536.14 389.619 1537.06C391.018 1537.9 392.177 1539.08 392.986 1540.5C393.773 1541.86 394.186 1543.41 394.184 1544.98C394.181 1546.38 393.883 1547.75 393.31 1549.02C392.748 1550.32 392.042 1551.55 391.206 1552.69C390.469 1553.7 389.668 1554.66 388.81 1555.56C388.421 1555.97 387.871 1556.54 387.191 1557.28L384.957 1559.73L382.626 1562.28L380.619 1564.44L379.453 1565.69H394.459V1569.41H374.581Z" fill="white"/>
<path d="M409.594 1570.15C407.09 1570.14 404.665 1569.28 402.721 1567.69C400.777 1566.11 399.432 1563.91 398.911 1561.45L402.342 1560.07C402.755 1561.81 403.647 1563.4 404.916 1564.65C405.519 1565.23 406.232 1565.69 407.013 1565.99C407.794 1566.3 408.628 1566.44 409.465 1566.42C410.401 1566.46 411.335 1566.3 412.209 1565.96C413.083 1565.63 413.879 1565.11 414.548 1564.46C415.208 1563.8 415.724 1563.02 416.064 1562.15C416.404 1561.28 416.56 1560.36 416.523 1559.42C416.548 1558.14 416.247 1556.88 415.649 1555.74C415.082 1554.69 414.237 1553.81 413.205 1553.21C412.085 1552.59 410.823 1552.28 409.546 1552.3C408.419 1552.3 407.308 1552.57 406.308 1553.1C405.318 1553.59 404.467 1554.33 403.832 1555.24L399.882 1553.61L402.035 1536.41H418.401V1540.13H405.192L403.864 1550.66H404.091C404.883 1550.01 405.781 1549.5 406.746 1549.15C408.154 1548.65 409.655 1548.46 411.145 1548.59C412.635 1548.73 414.077 1549.18 415.374 1549.93C416.927 1550.84 418.216 1552.13 419.113 1553.7C420.09 1555.36 420.606 1557.25 420.61 1559.18C420.614 1561.11 420.105 1563 419.135 1564.67C418.165 1566.33 416.769 1567.71 415.093 1568.65C413.416 1569.6 411.518 1570.07 409.594 1570.04V1570.15Z" fill="white"/>
<path d="M517.79 1510.95L479.613 1538.46C471.596 1544.23 469.767 1555.43 475.528 1563.47C481.288 1571.5 492.456 1573.34 500.473 1567.56L538.65 1540.06C546.667 1534.28 548.496 1523.09 542.735 1515.05C536.974 1507.01 525.806 1505.18 517.79 1510.95Z" fill="#EA4535" stroke="#232323" stroke-width="2" stroke-miterlimit="10"/>
<path d="M500.511 1538.3C492.495 1532.52 481.327 1534.36 475.566 1542.39C469.805 1550.43 471.635 1561.63 479.651 1567.4L517.828 1594.91C525.845 1600.68 537.013 1598.85 542.774 1590.81C548.534 1582.77 546.705 1571.58 538.688 1565.8L500.511 1538.3Z" fill="#557DBF" stroke="#232323" stroke-width="2" stroke-miterlimit="10"/>
<path d="M610.027 1538.47L571.849 1565.97C563.833 1571.75 562.004 1582.94 567.765 1590.98C573.525 1599.02 584.693 1600.85 592.71 1595.07L630.887 1567.57C638.904 1561.8 640.732 1550.6 634.972 1542.56C629.212 1534.53 618.043 1532.69 610.027 1538.47Z" fill="#F7AC1A" stroke="#232323" stroke-width="2" stroke-miterlimit="10"/>
<path d="M592.751 1510.79C584.734 1505.02 573.566 1506.85 567.805 1514.89C562.045 1522.92 563.874 1534.12 571.891 1539.9L610.068 1567.4C618.084 1573.17 629.252 1571.34 635.013 1563.3C640.773 1555.27 638.944 1544.07 630.928 1538.29L592.751 1510.79Z" fill="#36A852" stroke="#232323" stroke-width="2" stroke-miterlimit="10"/>
<path d="M678.834 1509.42C678.834 1509.22 678.834 1509.03 678.742 1508.8H670.43V1510.72H676.816C676.767 1511.64 676.529 1512.54 676.116 1513.36C675.757 1514.05 675.258 1514.66 674.652 1515.15C674.062 1515.61 673.39 1515.96 672.673 1516.17C671.935 1516.38 671.172 1516.49 670.405 1516.49C669.501 1516.49 668.606 1516.33 667.765 1516C666.93 1515.66 666.17 1515.17 665.529 1514.53C664.888 1513.9 664.379 1513.15 664.032 1512.32C663.637 1511.4 663.438 1510.4 663.451 1509.4C663.436 1508.39 663.625 1507.39 664.005 1506.46C664.359 1505.62 664.875 1504.86 665.523 1504.22C666.15 1503.6 666.901 1503.11 667.725 1502.8C668.565 1502.46 669.46 1502.29 670.365 1502.29C671.002 1502.29 671.636 1502.37 672.251 1502.53C672.839 1502.69 673.403 1502.92 673.927 1503.23C674.427 1503.54 674.873 1503.93 675.245 1504.38L676.684 1502.92C675.925 1502.07 674.975 1501.41 673.914 1501.01C672.774 1500.55 671.554 1500.32 670.325 1500.34C669.138 1500.32 667.962 1500.55 666.868 1501.01C665.793 1501.45 664.816 1502.1 663.992 1502.92C663.174 1503.75 662.52 1504.73 662.066 1505.81C661.593 1506.95 661.355 1508.17 661.367 1509.4C661.34 1511.19 661.85 1512.94 662.831 1514.44C663.813 1515.93 665.219 1517.1 666.868 1517.78C667.964 1518.23 669.14 1518.46 670.325 1518.46C671.492 1518.47 672.652 1518.27 673.741 1517.85C674.723 1517.46 675.62 1516.88 676.381 1516.14C677.148 1515.39 677.751 1514.49 678.148 1513.5C678.582 1512.42 678.797 1511.26 678.781 1510.1C678.816 1509.87 678.834 1509.65 678.834 1509.42Z" fill="white"/>
<path d="M692.66 1508.55C692.136 1507.58 691.361 1506.76 690.417 1506.18C689.43 1505.58 688.289 1505.27 687.133 1505.3C686.004 1505.27 684.89 1505.56 683.915 1506.13C682.939 1506.7 682.139 1507.53 681.604 1508.52C681.084 1509.55 680.814 1510.68 680.814 1511.83C680.814 1512.98 681.084 1514.11 681.604 1515.14C682.145 1516.13 682.945 1516.97 683.917 1517.54C684.89 1518.12 686.001 1518.43 687.133 1518.43C688.264 1518.43 689.375 1518.12 690.347 1517.54C691.321 1516.97 692.119 1516.13 692.66 1515.14C693.185 1514.11 693.458 1512.98 693.458 1511.83C693.458 1510.68 693.185 1509.55 692.66 1508.52V1508.55ZM690.839 1514.41C690.46 1515.08 689.915 1515.63 689.256 1516.02C688.771 1516.3 688.236 1516.48 687.681 1516.55C687.127 1516.62 686.564 1516.57 686.025 1516.42C685.488 1516.27 684.984 1516.02 684.544 1515.67C684.105 1515.33 683.738 1514.9 683.465 1514.41C683.066 1513.62 682.859 1512.76 682.859 1511.88C682.859 1511 683.066 1510.13 683.465 1509.34C683.838 1508.67 684.391 1508.11 685.061 1507.73C685.701 1507.37 686.424 1507.17 687.158 1507.17C687.894 1507.17 688.617 1507.37 689.256 1507.73C689.918 1508.12 690.464 1508.67 690.839 1509.34C691.23 1510.13 691.432 1511 691.432 1511.88C691.432 1512.76 691.23 1513.62 690.839 1514.41Z" fill="white"/>
<path d="M706.777 1508.55C706.252 1507.58 705.478 1506.76 704.534 1506.18C703.546 1505.58 702.406 1505.27 701.249 1505.3C700.121 1505.27 699.007 1505.56 698.031 1506.13C697.056 1506.7 696.256 1507.53 695.722 1508.52C695.201 1509.55 694.93 1510.68 694.93 1511.83C694.93 1512.98 695.201 1514.11 695.722 1515.14C696.262 1516.13 697.061 1516.97 698.034 1517.54C699.006 1518.12 700.117 1518.43 701.249 1518.43C702.38 1518.43 703.491 1518.12 704.465 1517.54C705.437 1516.97 706.236 1516.13 706.777 1515.14C707.301 1514.11 707.574 1512.98 707.574 1511.83C707.574 1510.68 707.301 1509.55 706.777 1508.52V1508.55ZM704.93 1514.4C704.55 1515.06 704.005 1515.62 703.347 1516.01C702.708 1516.37 701.985 1516.56 701.249 1516.56C700.514 1516.56 699.791 1516.37 699.152 1516.01C698.479 1515.63 697.924 1515.07 697.542 1514.4C697.151 1513.61 696.948 1512.74 696.948 1511.86C696.948 1510.98 697.151 1510.12 697.542 1509.33C697.816 1508.84 698.184 1508.41 698.625 1508.06C699.066 1507.72 699.57 1507.46 700.11 1507.31C700.649 1507.16 701.213 1507.12 701.768 1507.19C702.324 1507.26 702.861 1507.44 703.347 1507.72C704.008 1508.1 704.555 1508.66 704.93 1509.33C705.321 1510.12 705.523 1510.98 705.523 1511.86C705.523 1512.74 705.321 1513.61 704.93 1514.4Z" fill="white"/>
<path d="M719.112 1505.68V1507.45H719.006C718.597 1506.8 718.023 1506.27 717.343 1505.92C716.568 1505.49 715.695 1505.28 714.811 1505.3C713.78 1505.28 712.766 1505.56 711.895 1506.12C711.003 1506.68 710.279 1507.47 709.798 1508.4C709.294 1509.46 709.033 1510.62 709.033 1511.79C709.033 1512.96 709.294 1514.12 709.798 1515.18C710.293 1516.12 711.037 1516.9 711.947 1517.45C712.817 1518.01 713.832 1518.3 714.863 1518.28C715.747 1518.3 716.62 1518.09 717.397 1517.66C718.07 1517.3 718.641 1516.78 719.059 1516.14H719.164V1517.53C719.234 1518.67 718.861 1519.79 718.122 1520.67C717.738 1521.06 717.274 1521.36 716.761 1521.56C716.25 1521.75 715.7 1521.84 715.154 1521.8C714.378 1521.83 713.613 1521.61 712.968 1521.18C712.322 1520.75 711.827 1520.12 711.552 1519.4L709.666 1520.19C709.88 1520.79 710.211 1521.34 710.642 1521.82C711.143 1522.38 711.76 1522.83 712.449 1523.14C713.3 1523.51 714.224 1523.69 715.154 1523.67C716.209 1523.69 717.252 1523.46 718.201 1522.99C719.103 1522.55 719.849 1521.85 720.338 1520.97C720.896 1519.92 721.165 1518.74 721.117 1517.56V1505.65L719.112 1505.68ZM718.571 1514.28C718.323 1514.75 717.981 1515.17 717.568 1515.51C717.154 1515.84 716.676 1516.1 716.164 1516.24C715.651 1516.39 715.114 1516.43 714.585 1516.37C714.055 1516.3 713.544 1516.13 713.083 1515.86C712.46 1515.49 711.954 1514.95 711.619 1514.3C711.254 1513.52 711.065 1512.66 711.065 1511.79C711.065 1510.92 711.254 1510.06 711.619 1509.28C711.943 1508.63 712.441 1508.09 713.056 1507.72C713.673 1507.34 714.381 1507.15 715.101 1507.16C715.804 1507.16 716.497 1507.34 717.107 1507.69C717.734 1508.06 718.242 1508.61 718.571 1509.26C718.928 1510.05 719.112 1510.91 719.112 1511.77C719.112 1512.64 718.928 1513.49 718.571 1514.28Z" fill="white"/>
<path d="M723.505 1500.69V1518.03H725.563V1500.69H723.505Z" fill="white"/>
<path d="M738.821 1508.35C738.378 1507.42 737.672 1506.64 736.79 1506.1C735.835 1505.54 734.743 1505.26 733.637 1505.3C732.52 1505.27 731.421 1505.59 730.484 1506.2C729.589 1506.81 728.87 1507.64 728.399 1508.62C727.905 1509.63 727.653 1510.75 727.66 1511.88C727.639 1513.06 727.911 1514.22 728.452 1515.26C728.946 1516.22 729.7 1517.02 730.629 1517.57C731.628 1518.16 732.767 1518.48 733.927 1518.48C735.087 1518.48 736.226 1518.16 737.225 1517.57C738.108 1516.99 738.825 1516.18 739.31 1515.24L737.568 1514.4C737.218 1515.02 736.737 1515.56 736.156 1515.98C735.496 1516.43 734.711 1516.66 733.914 1516.63C733.217 1516.63 732.531 1516.45 731.922 1516.12C731.267 1515.76 730.728 1515.22 730.365 1514.57C729.987 1513.88 729.783 1513.11 729.772 1512.32H739.521C739.53 1512.22 739.53 1512.13 739.521 1512.03C739.528 1511.91 739.528 1511.8 739.521 1511.68C739.557 1510.53 739.317 1509.39 738.821 1508.35ZM729.851 1510.55C729.916 1510.17 730.032 1509.81 730.194 1509.46C730.471 1508.79 730.928 1508.21 731.512 1507.78C732.131 1507.36 732.864 1507.15 733.611 1507.16C734.195 1507.14 734.777 1507.25 735.312 1507.49C735.746 1507.69 736.133 1507.98 736.446 1508.34C736.735 1508.66 736.956 1509.04 737.093 1509.45C737.229 1509.8 737.308 1510.17 737.331 1510.55H729.851Z" fill="white"/>
<path d="M675.18 1531.31C674.484 1530.02 673.43 1528.96 672.145 1528.26C670.717 1527.48 669.112 1527.1 667.489 1527.15H662.211V1544.5H667.489C669.112 1544.54 670.717 1544.16 672.145 1543.39C673.424 1542.67 674.477 1541.61 675.18 1540.32C675.874 1538.92 676.234 1537.38 676.234 1535.82C676.234 1534.25 675.874 1532.71 675.18 1531.31ZM673.333 1539.46C672.805 1540.44 671.996 1541.24 671.011 1541.75C669.92 1542.3 668.709 1542.57 667.489 1542.54H664.322V1529.12H667.489C668.708 1529.09 669.916 1529.36 671.011 1529.9C671.994 1530.41 672.802 1531.21 673.333 1532.18C673.871 1533.32 674.151 1534.56 674.151 1535.82C674.151 1537.08 673.871 1538.32 673.333 1539.46Z" fill="white"/>
<path d="M689.059 1534.8C688.605 1533.88 687.901 1533.11 687.027 1532.57C686.073 1532.01 684.981 1531.72 683.874 1531.75C682.755 1531.72 681.653 1532.04 680.722 1532.66C679.824 1533.27 679.105 1534.1 678.637 1535.08C678.144 1536.1 677.895 1537.22 677.911 1538.35C677.885 1539.52 678.153 1540.67 678.689 1541.71C679.184 1542.67 679.938 1543.48 680.866 1544.04C681.869 1544.62 683.007 1544.92 684.164 1544.92C685.322 1544.92 686.46 1544.62 687.463 1544.04C688.342 1543.45 689.059 1542.65 689.547 1541.71L687.806 1540.86C687.448 1541.48 686.967 1542.02 686.394 1542.45C685.731 1542.89 684.947 1543.11 684.152 1543.08C683.457 1543.08 682.772 1542.91 682.159 1542.58C681.504 1542.22 680.964 1541.68 680.603 1541.02C680.225 1540.33 680.021 1539.56 680.009 1538.77H689.758C689.758 1538.69 689.758 1538.6 689.758 1538.48C689.765 1538.37 689.765 1538.25 689.758 1538.14C689.795 1536.99 689.554 1535.84 689.059 1534.8ZM680.087 1537.01C680.167 1536.64 680.281 1536.27 680.431 1535.92C680.709 1535.24 681.166 1534.66 681.75 1534.24C682.369 1533.82 683.101 1533.6 683.847 1533.61C684.433 1533.6 685.012 1533.71 685.55 1533.94C685.983 1534.14 686.369 1534.43 686.684 1534.79C686.973 1535.12 687.196 1535.5 687.344 1535.92C687.47 1536.27 687.546 1536.64 687.568 1537.01H680.087Z" fill="white"/>
<path d="M700.153 1532.15L696.301 1542.08L692.475 1532.15H690.272L695.259 1544.5H697.344L702.37 1532.15H700.153Z" fill="white"/>
<path d="M713.927 1534.8C713.472 1533.88 712.768 1533.11 711.895 1532.57C710.941 1532 709.849 1531.72 708.742 1531.75C707.622 1531.72 706.521 1532.04 705.589 1532.66C704.692 1533.27 703.973 1534.1 703.504 1535.08C703.009 1536.1 702.756 1537.22 702.766 1538.35C702.745 1539.52 703.017 1540.67 703.558 1541.71C704.051 1542.67 704.805 1543.48 705.734 1544.04C706.737 1544.62 707.875 1544.92 709.033 1544.92C710.19 1544.92 711.327 1544.62 712.331 1544.04C713.212 1543.45 713.931 1542.65 714.414 1541.71L712.674 1540.86C712.315 1541.48 711.834 1542.02 711.262 1542.45C710.6 1542.89 709.815 1543.11 709.019 1543.08C708.324 1543.08 707.641 1542.91 707.027 1542.58C706.371 1542.22 705.831 1541.68 705.47 1541.02C705.092 1540.33 704.889 1539.56 704.876 1538.77H714.587C714.595 1538.68 714.595 1538.58 714.587 1538.48C714.587 1538.38 714.587 1538.26 714.587 1538.14C714.635 1536.99 714.409 1535.85 713.927 1534.8ZM704.956 1537.01C705.034 1536.64 705.149 1536.27 705.298 1535.92C705.577 1535.24 706.033 1534.66 706.618 1534.24C707.23 1533.81 707.96 1533.6 708.703 1533.61C709.287 1533.6 709.867 1533.71 710.404 1533.94C710.837 1534.14 711.225 1534.43 711.539 1534.79C711.827 1535.12 712.051 1535.5 712.198 1535.92C712.325 1536.27 712.4 1536.64 712.423 1537.01H704.956Z" fill="white"/>
<path d="M716.736 1527.15V1544.5H718.795V1527.15H716.736Z" fill="white"/>
<path d="M732.753 1535.02C732.225 1534.04 731.452 1533.22 730.51 1532.64C729.522 1532.03 728.382 1531.72 727.225 1531.75C726.07 1531.73 724.932 1532.03 723.94 1532.62C723.002 1533.2 722.234 1534.02 721.711 1534.99C721.182 1536.01 720.906 1537.15 720.906 1538.3C720.906 1539.45 721.182 1540.58 721.711 1541.6C722.227 1542.58 722.998 1543.39 723.94 1543.96C724.942 1544.54 726.08 1544.84 727.238 1544.84C728.396 1544.84 729.534 1544.54 730.536 1543.96C731.483 1543.39 732.257 1542.58 732.78 1541.6C733.303 1540.58 733.577 1539.45 733.577 1538.3C733.577 1537.15 733.303 1536.01 732.78 1534.99L732.753 1535.02ZM730.906 1540.86C730.526 1541.52 729.98 1542.08 729.323 1542.46C728.683 1542.83 727.961 1543.02 727.225 1543.02C726.49 1543.02 725.767 1542.83 725.128 1542.46C724.463 1542.08 723.912 1541.53 723.531 1540.86C723.106 1540.09 722.897 1539.21 722.924 1538.32C722.895 1537.44 723.105 1536.57 723.531 1535.8C723.914 1535.14 724.471 1534.61 725.141 1534.25C725.777 1533.88 726.501 1533.68 727.238 1533.68C727.975 1533.68 728.699 1533.88 729.336 1534.25C730.002 1534.63 730.552 1535.19 730.919 1535.86C731.339 1536.64 731.548 1537.51 731.526 1538.39C731.531 1539.25 731.318 1540.1 730.906 1540.86Z" fill="white"/>
<path d="M747.054 1534.92C746.562 1533.98 745.834 1533.18 744.943 1532.6C744.037 1532.03 742.989 1531.73 741.921 1531.75C741.306 1531.75 740.694 1531.86 740.114 1532.07C739.592 1532.26 739.106 1532.54 738.677 1532.9C738.293 1533.2 737.968 1533.57 737.714 1533.98H737.62V1532.15H735.694V1549.72H737.739V1544.43L737.647 1542.74H737.739C738.153 1543.37 738.709 1543.89 739.362 1544.26C740.161 1544.73 741.075 1544.96 742.001 1544.94C743.069 1544.96 744.119 1544.66 745.021 1544.09C745.919 1543.51 746.648 1542.71 747.133 1541.76C747.633 1540.7 747.893 1539.54 747.893 1538.37C747.893 1537.2 747.633 1536.04 747.133 1534.98L747.054 1534.92ZM745.194 1540.86C744.856 1541.53 744.341 1542.09 743.703 1542.49C743.105 1542.86 742.415 1543.06 741.71 1543.06C741.006 1543.06 740.315 1542.87 739.719 1542.49C739.078 1542.09 738.554 1541.53 738.201 1540.86C737.803 1540.09 737.604 1539.22 737.62 1538.35C737.598 1537.48 737.798 1536.61 738.201 1535.84C738.555 1535.17 739.079 1534.61 739.719 1534.21C740.317 1533.84 741.007 1533.64 741.71 1533.64C742.413 1533.64 743.102 1533.84 743.703 1534.21C744.337 1534.61 744.852 1535.17 745.194 1535.84C745.596 1536.61 745.797 1537.48 745.773 1538.35C745.793 1539.22 745.594 1540.09 745.194 1540.86Z" fill="white"/>
<path d="M760.418 1534.8C759.969 1533.88 759.27 1533.11 758.4 1532.57C757.442 1532 756.344 1531.72 755.233 1531.75C754.119 1531.72 753.022 1532.04 752.094 1532.66C751.194 1533.26 750.473 1534.1 750.009 1535.08C749.512 1536.1 749.259 1537.22 749.27 1538.35C749.251 1539.52 749.518 1540.67 750.049 1541.71C750.468 1542.44 751.029 1543.08 751.698 1543.59C752.369 1544.1 753.132 1544.47 753.947 1544.68C754.762 1544.89 755.611 1544.94 756.444 1544.82C757.276 1544.69 758.076 1544.41 758.795 1543.97C759.674 1543.38 760.391 1542.58 760.88 1541.64L759.139 1540.8C758.78 1541.42 758.295 1541.96 757.713 1542.38C757.057 1542.83 756.276 1543.05 755.484 1543.02C754.789 1543.02 754.105 1542.84 753.492 1542.52C752.836 1542.15 752.296 1541.61 751.935 1540.95C751.557 1540.26 751.353 1539.49 751.342 1538.71H761.091C761.091 1538.63 761.091 1538.53 761.091 1538.42V1538.07C761.125 1536.94 760.895 1535.83 760.418 1534.8ZM751.526 1537.01C751.6 1536.64 751.711 1536.27 751.856 1535.92C752.139 1535.25 752.595 1534.67 753.176 1534.24C753.79 1533.82 754.517 1533.6 755.26 1533.61C755.849 1533.6 756.434 1533.71 756.975 1533.94C757.405 1534.15 757.791 1534.44 758.11 1534.79C758.399 1535.12 758.619 1535.5 758.756 1535.92C758.888 1536.27 758.964 1536.64 758.981 1537.01H751.526Z" fill="white"/>
<path d="M769.746 1531.84C769.456 1531.82 769.165 1531.82 768.875 1531.84C768.372 1531.85 767.875 1531.95 767.411 1532.15C766.926 1532.34 766.479 1532.62 766.091 1532.97C765.726 1533.3 765.45 1533.73 765.287 1534.2H765.181V1532.21H763.229V1544.57H765.287V1537.66C765.275 1537.01 765.429 1536.37 765.736 1535.8C766.019 1535.27 766.426 1534.81 766.923 1534.47C767.408 1534.14 767.983 1533.96 768.571 1533.97C768.878 1533.97 769.183 1534 769.482 1534.06C769.77 1534.13 770.048 1534.22 770.313 1534.35V1532.13C770.135 1532.02 769.945 1531.92 769.746 1531.84Z" fill="white"/>
<path d="M678.834 1562.33C678.834 1562.14 678.834 1561.93 678.742 1561.73H670.43V1563.64H676.816C676.767 1564.56 676.529 1565.46 676.116 1566.28C675.757 1566.97 675.259 1567.58 674.652 1568.07C674.066 1568.53 673.393 1568.88 672.673 1569.09C671.937 1569.31 671.172 1569.41 670.405 1569.4C669.501 1569.41 668.606 1569.25 667.766 1568.91C666.93 1568.58 666.17 1568.08 665.529 1567.45C664.888 1566.82 664.379 1566.07 664.032 1565.24C663.638 1564.31 663.44 1563.32 663.451 1562.31C663.436 1561.31 663.625 1560.31 664.006 1559.38C664.359 1558.54 664.875 1557.78 665.523 1557.14C666.155 1556.52 666.903 1556.04 667.727 1555.72C668.565 1555.38 669.461 1555.21 670.365 1555.21C671.002 1555.21 671.636 1555.29 672.251 1555.45C672.84 1555.6 673.403 1555.84 673.927 1556.15C674.427 1556.46 674.873 1556.85 675.247 1557.3L676.684 1555.85C675.93 1554.99 674.978 1554.33 673.914 1553.93C672.773 1553.47 671.554 1553.24 670.325 1553.24C669.138 1553.24 667.963 1553.47 666.868 1553.93C665.791 1554.37 664.813 1555.02 663.992 1555.85C662.731 1557.15 661.875 1558.8 661.533 1560.59C661.191 1562.37 661.376 1564.22 662.066 1565.9C662.523 1566.97 663.177 1567.95 663.992 1568.78C664.82 1569.6 665.796 1570.25 666.868 1570.7C667.964 1571.15 669.14 1571.38 670.325 1571.37C671.492 1571.39 672.652 1571.19 673.743 1570.77C674.727 1570.38 675.623 1569.8 676.381 1569.06C677.152 1568.32 677.754 1567.41 678.148 1566.42C678.582 1565.34 678.797 1564.18 678.782 1563.02C678.815 1562.79 678.833 1562.56 678.834 1562.33Z" fill="white"/>
<path d="M687.832 1558.31C687.544 1558.26 687.253 1558.24 686.961 1558.24C686.462 1558.25 685.969 1558.35 685.51 1558.54C685.022 1558.73 684.575 1559.01 684.191 1559.36C683.818 1559.69 683.536 1560.11 683.373 1560.58H683.281V1558.6H681.315V1570.96H683.373V1564.06C683.361 1563.41 683.515 1562.77 683.822 1562.19C684.103 1561.66 684.515 1561.2 685.021 1560.87C685.5 1560.54 686.073 1560.36 686.658 1560.37C686.964 1560.37 687.269 1560.4 687.568 1560.46C687.854 1560.52 688.133 1560.62 688.399 1560.74V1558.52C688.219 1558.42 688.029 1558.35 687.832 1558.31Z" fill="white"/>
<path d="M700.748 1561.48C700.233 1560.5 699.462 1559.68 698.518 1559.1C697.53 1558.5 696.39 1558.19 695.233 1558.21C694.102 1558.19 692.988 1558.48 692.012 1559.05C691.036 1559.62 690.238 1560.46 689.706 1561.46C689.184 1562.48 688.911 1563.61 688.911 1564.76C688.911 1565.91 689.184 1567.04 689.706 1568.07C690.128 1568.81 690.691 1569.45 691.363 1569.97C692.035 1570.49 692.803 1570.87 693.621 1571.09C694.441 1571.31 695.294 1571.36 696.135 1571.25C696.975 1571.14 697.784 1570.86 698.518 1570.44C699.461 1569.86 700.232 1569.05 700.748 1568.07C701.298 1567.05 701.58 1565.9 701.565 1564.74C701.57 1563.6 701.289 1562.48 700.748 1561.48ZM698.9 1567.31C698.539 1567.97 698.008 1568.52 697.363 1568.9C696.718 1569.28 695.982 1569.48 695.233 1569.48C694.479 1569.48 693.739 1569.28 693.087 1568.9C692.436 1568.52 691.897 1567.97 691.526 1567.31C691.135 1566.53 690.932 1565.66 690.932 1564.78C690.932 1563.9 691.135 1563.04 691.526 1562.25C691.897 1561.59 692.436 1561.04 693.087 1560.66C693.739 1560.28 694.479 1560.08 695.233 1560.08C695.982 1560.08 696.718 1560.28 697.363 1560.66C698.008 1561.04 698.539 1561.59 698.9 1562.25C699.299 1563.03 699.506 1563.9 699.506 1564.78C699.506 1565.66 699.299 1566.53 698.9 1567.31Z" fill="white"/>
<path d="M712.12 1558.6V1565.58C712.119 1566.23 711.97 1566.87 711.684 1567.45C711.408 1568.03 710.986 1568.54 710.457 1568.91C709.906 1569.3 709.245 1569.5 708.571 1569.48C707.795 1569.51 707.04 1569.22 706.474 1568.69C706.158 1568.33 705.92 1567.91 705.774 1567.46C705.628 1567 705.579 1566.52 705.63 1566.04V1558.58H703.571V1566.36C703.498 1567.67 703.906 1568.97 704.719 1570C705.153 1570.46 705.685 1570.82 706.278 1571.05C706.869 1571.28 707.503 1571.37 708.136 1571.32C708.704 1571.32 709.267 1571.22 709.798 1571.02C710.3 1570.82 710.771 1570.55 711.197 1570.22C711.578 1569.93 711.893 1569.56 712.12 1569.14H712.212V1570.94H714.178V1558.57L712.12 1558.6Z" fill="white"/>
<path d="M728.32 1561.39C727.831 1560.44 727.104 1559.64 726.21 1559.06C725.304 1558.49 724.256 1558.2 723.188 1558.21C722.571 1558.21 721.959 1558.32 721.381 1558.53C720.862 1558.73 720.376 1559 719.943 1559.35C719.563 1559.66 719.237 1560.03 718.98 1560.45H718.887V1558.6H716.935V1576.19H718.98V1570.9L718.887 1569.19H718.98C719.395 1569.83 719.956 1570.35 720.616 1570.73C721.393 1571.19 722.284 1571.42 723.188 1571.4C724.256 1571.42 725.306 1571.13 726.21 1570.55C727.106 1569.98 727.835 1569.18 728.32 1568.23C728.82 1567.17 729.08 1566.01 729.08 1564.83C729.08 1563.66 728.82 1562.5 728.32 1561.44V1561.39ZM726.46 1567.31C726.114 1567.99 725.595 1568.55 724.956 1568.95C724.361 1569.32 723.675 1569.51 722.977 1569.51C722.278 1569.51 721.594 1569.32 720.998 1568.95C720.356 1568.55 719.828 1567.98 719.467 1567.31C719.066 1566.54 718.867 1565.67 718.887 1564.8C718.867 1563.93 719.066 1563.07 719.467 1562.3C719.826 1561.64 720.349 1561.08 720.985 1560.67C721.58 1560.31 722.265 1560.12 722.964 1560.12C723.662 1560.12 724.348 1560.31 724.942 1560.67C725.578 1561.07 726.097 1561.64 726.446 1562.3C726.837 1563.08 727.033 1563.93 727.014 1564.8C727.036 1565.67 726.845 1566.53 726.46 1567.31Z" fill="white"/>
<path d="M739.454 1565.34C738.675 1564.67 737.733 1564.22 736.724 1564.02L734.942 1563.56C734.407 1563.43 733.895 1563.21 733.425 1562.92C733.232 1562.8 733.072 1562.63 732.964 1562.43C732.855 1562.23 732.801 1562 732.805 1561.77C732.798 1561.52 732.866 1561.26 733 1561.05C733.133 1560.83 733.326 1560.65 733.557 1560.54C734.096 1560.24 734.707 1560.08 735.325 1560.09C735.918 1560.08 736.505 1560.21 737.04 1560.46C737.597 1560.74 738.034 1561.21 738.267 1561.79L740.062 1560.97C739.836 1560.4 739.473 1559.89 739.005 1559.5C738.524 1559.09 737.969 1558.79 737.37 1558.6C736.726 1558.39 736.053 1558.29 735.378 1558.29C734.597 1558.29 733.824 1558.44 733.096 1558.72C732.424 1558.96 731.831 1559.39 731.38 1559.95C730.946 1560.48 730.716 1561.16 730.735 1561.85C730.718 1562.45 730.879 1563.04 731.196 1563.55C731.544 1564.02 731.995 1564.4 732.515 1564.67C733.031 1564.96 733.581 1565.19 734.151 1565.34L735.669 1565.73C736.169 1565.85 736.657 1566.02 737.133 1566.22C737.483 1566.36 737.798 1566.58 738.056 1566.85C738.186 1567.03 738.277 1567.23 738.325 1567.45C738.371 1567.66 738.375 1567.88 738.333 1568.1C738.29 1568.32 738.204 1568.52 738.08 1568.7C737.955 1568.88 737.794 1569.04 737.607 1569.15C737.028 1569.48 736.372 1569.64 735.708 1569.62C734.964 1569.63 734.233 1569.41 733.61 1569.01C732.982 1568.59 732.492 1567.99 732.199 1567.29L730.365 1568.11C730.602 1568.72 730.95 1569.29 731.393 1569.77C731.881 1570.29 732.469 1570.7 733.122 1570.98C733.896 1571.29 734.727 1571.45 735.563 1571.43C736.408 1571.44 737.245 1571.28 738.03 1570.97C738.727 1570.69 739.338 1570.23 739.797 1569.64C740.231 1569.06 740.458 1568.36 740.444 1567.63C740.453 1567.2 740.369 1566.77 740.198 1566.38C740.028 1565.98 739.774 1565.63 739.454 1565.34Z" fill="white"/>
<path d="M668.547 1598.29C667.111 1598.29 665.795 1597.86 664.597 1596.98C663.401 1596.11 662.58 1594.88 662.135 1593.3L664.213 1592.46C664.504 1593.55 665.043 1594.45 665.828 1595.16C666.615 1595.86 667.539 1596.21 668.599 1596.21C669.66 1596.21 670.557 1595.93 671.292 1595.36C672.027 1594.78 672.395 1593.99 672.395 1593C672.395 1592.14 672.079 1591.44 671.446 1590.89C670.83 1590.32 669.813 1589.8 668.393 1589.32L667.239 1588.91C665.94 1588.44 664.879 1587.84 664.059 1587.08C663.238 1586.33 662.827 1585.28 662.827 1583.94C662.827 1583.07 663.068 1582.26 663.546 1581.53C664.025 1580.77 664.692 1580.17 665.546 1579.73C666.402 1579.28 667.359 1579.06 668.419 1579.06C669.48 1579.06 670.403 1579.26 671.189 1579.65C671.976 1580.04 672.6 1580.52 673.062 1581.09C673.541 1581.66 673.874 1582.21 674.062 1582.76L672.01 1583.64C671.84 1583 671.446 1582.43 670.83 1581.91C670.232 1581.4 669.437 1581.14 668.445 1581.14C667.505 1581.14 666.701 1581.41 666.034 1581.94C665.367 1582.47 665.033 1583.14 665.033 1583.94C665.033 1584.66 665.315 1585.26 665.88 1585.72C666.444 1586.16 667.3 1586.58 668.445 1586.98L669.65 1587.39C671.207 1587.96 672.42 1588.67 673.292 1589.52C674.165 1590.36 674.601 1591.51 674.601 1592.97C674.601 1594.15 674.293 1595.15 673.677 1595.95C673.079 1596.76 672.318 1597.35 671.394 1597.73C670.471 1598.11 669.522 1598.29 668.547 1598.29ZM681.729 1598.29C680.156 1598.29 678.951 1597.83 678.112 1596.91C677.291 1595.98 676.881 1594.69 676.881 1593.02V1584.77H679.061V1592.69C679.061 1593.94 679.343 1594.86 679.908 1595.44C680.472 1596.02 681.233 1596.31 682.191 1596.31C682.926 1596.31 683.576 1596.12 684.14 1595.72C684.722 1595.33 685.166 1594.81 685.474 1594.18C685.799 1593.54 685.961 1592.88 685.961 1592.17V1584.77H688.141V1597.88H686.064V1595.98H685.961C685.602 1596.63 685.029 1597.18 684.242 1597.63C683.457 1598.07 682.618 1598.29 681.729 1598.29ZM697.162 1598.29C695.897 1598.29 694.759 1597.99 693.75 1597.39C692.742 1596.78 691.955 1595.95 691.391 1594.9C690.826 1593.84 690.544 1592.64 690.544 1591.32C690.544 1590 690.826 1588.81 691.391 1587.75C691.955 1586.69 692.742 1585.86 693.75 1585.26C694.759 1584.66 695.897 1584.36 697.162 1584.36C698.581 1584.36 699.77 1584.69 700.727 1585.36C701.702 1586.01 702.394 1586.88 702.805 1587.98L700.83 1588.8C700.504 1588 700.017 1587.39 699.368 1586.98C698.734 1586.55 697.965 1586.34 697.059 1586.34C696.29 1586.34 695.571 1586.55 694.905 1586.98C694.238 1587.39 693.699 1587.97 693.289 1588.73C692.896 1589.48 692.699 1590.35 692.699 1591.32C692.699 1592.3 692.896 1593.17 693.289 1593.92C693.699 1594.68 694.238 1595.27 694.905 1595.7C695.571 1596.11 696.29 1596.31 697.059 1596.31C697.982 1596.31 698.778 1596.1 699.444 1595.67C700.111 1595.24 700.607 1594.63 700.932 1593.84L702.882 1594.67C702.437 1595.75 701.719 1596.62 700.727 1597.29C699.752 1597.96 698.564 1598.29 697.162 1598.29ZM705.113 1584.77H707.191V1586.88H707.293C707.55 1586.16 708.046 1585.56 708.781 1585.1C709.517 1584.62 710.286 1584.38 711.089 1584.38C711.689 1584.38 712.202 1584.47 712.628 1584.64V1587C712.082 1586.73 711.466 1586.59 710.782 1586.59C710.15 1586.59 709.568 1586.77 709.037 1587.13C708.508 1587.49 708.08 1587.98 707.755 1588.6C707.447 1589.2 707.293 1589.85 707.293 1590.55V1597.88H705.113V1584.77ZM719.778 1598.29C718.53 1598.29 717.41 1597.99 716.417 1597.39C715.426 1596.79 714.648 1595.97 714.083 1594.93C713.537 1593.86 713.263 1592.67 713.263 1591.35C713.263 1590.08 713.519 1588.92 714.032 1587.85C714.563 1586.79 715.306 1585.94 716.264 1585.31C717.222 1584.67 718.333 1584.36 719.598 1584.36C720.881 1584.36 721.993 1584.65 722.932 1585.23C723.873 1585.8 724.592 1586.58 725.087 1587.6C725.6 1588.61 725.856 1589.76 725.856 1591.07C725.856 1591.32 725.831 1591.55 725.78 1591.74H715.443C715.494 1592.73 715.734 1593.57 716.161 1594.26C716.589 1594.94 717.127 1595.46 717.777 1595.8C718.444 1596.14 719.136 1596.31 719.855 1596.31C721.531 1596.31 722.822 1595.52 723.728 1593.95L725.574 1594.85C725.01 1595.91 724.241 1596.75 723.266 1597.37C722.309 1597.99 721.146 1598.29 719.778 1598.29ZM723.548 1589.94C723.514 1589.39 723.36 1588.84 723.086 1588.29C722.814 1587.74 722.377 1587.28 721.778 1586.9C721.198 1586.52 720.462 1586.34 719.572 1586.34C718.546 1586.34 717.674 1586.67 716.956 1587.34C716.255 1587.99 715.794 1588.86 715.571 1589.94H723.548Z" fill="white"/>
</g>
<path d="M924.308 425.741V409.737C924.305 403.773 921.934 398.055 917.715 393.838C913.496 389.622 907.775 387.252 901.809 387.249H881.733C879.871 380.227 875.517 374.122 869.482 370.074C863.447 366.026 856.144 364.312 848.938 365.251C841.731 366.191 835.113 369.72 830.318 375.179C825.524 380.639 822.882 387.656 822.885 394.92V413.742C816.968 415.238 811.803 418.844 808.361 423.88C804.919 428.917 803.436 435.037 804.193 441.09C804.95 447.142 807.893 452.71 812.47 456.745C817.046 460.78 822.94 463.005 829.043 463H920.12C924.762 463.002 929.242 461.293 932.703 458.202C936.164 455.11 938.364 450.852 938.882 446.242C939.4 441.631 938.2 436.992 935.512 433.21C932.823 429.428 928.834 426.769 924.308 425.741Z" stroke="white" stroke-width="5" stroke-miterlimit="10"/>
<path d="M585.07 408.262V392.911C585.067 387.191 582.819 381.706 578.819 377.661C574.819 373.617 569.394 371.343 563.737 371.341H544.702C542.937 364.605 538.808 358.75 533.086 354.867C527.365 350.984 520.441 349.34 513.608 350.241C506.774 351.142 500.499 354.527 495.954 359.764C491.408 365.001 488.903 371.731 488.905 378.699V396.752C483.296 398.187 478.399 401.646 475.135 406.477C471.871 411.308 470.466 417.179 471.183 422.984C471.901 428.79 474.691 434.13 479.031 438C483.37 441.871 488.958 444.004 494.744 444H581.099C585.5 444.002 589.748 442.363 593.029 439.398C596.311 436.432 598.397 432.348 598.888 427.926C599.379 423.504 598.242 419.053 595.692 415.426C593.143 411.798 589.361 409.248 585.07 408.262Z" stroke="white" stroke-width="5" stroke-miterlimit="10"/>
<path d="M171.733 418.303V404.259C171.736 399.026 173.791 394.008 177.447 390.307C181.103 386.607 186.061 384.527 191.232 384.525H208.632C210.245 378.362 214.019 373.005 219.249 369.453C224.479 365.9 230.808 364.396 237.054 365.22C243.3 366.045 249.036 369.142 253.191 373.933C257.346 378.724 259.636 384.882 259.633 391.257V407.773C264.761 409.086 269.237 412.251 272.22 416.67C275.204 421.09 276.488 426.461 275.833 431.773C275.177 437.084 272.626 441.97 268.66 445.511C264.693 449.052 259.585 451.004 254.296 451H175.362C171.339 451.001 167.457 449.502 164.458 446.789C161.458 444.076 159.551 440.34 159.102 436.294C158.653 432.248 159.693 428.176 162.023 424.857C164.353 421.539 167.81 419.205 171.733 418.303Z" stroke="white" stroke-width="5" stroke-miterlimit="10"/>
<defs>
<clipPath id="clip0_2051_285">
<rect width="499" height="109.872" fill="white" transform="translate(290.5 1498)"/>
</clipPath>
</defs>
</svg>
