<svg width="1080" height="1728" viewBox="0 0 1080 1728" fill="none" xmlns="http://www.w3.org/2000/svg">
<rect width="1080" height="1728" fill="#232323"/>
<path d="M778.615 259.876C772.911 258.807 764.611 255.203 764.706 243.318C764.849 225.242 764.296 211.762 764.296 211.762C764.296 211.762 763.542 196.445 750 195.443" stroke="white" stroke-width="5" stroke-linejoin="round"/>
<path d="M778.639 131C772.911 132.069 764.611 135.664 764.706 147.563C764.849 165.644 764.296 179.119 764.296 179.119C764.296 179.119 763.542 194.436 750 195.443" stroke="white" stroke-width="5" stroke-linejoin="round"/>
<path d="M943.767 259.876C949.471 258.807 957.771 255.203 957.676 243.318C957.532 225.242 958.086 211.762 958.086 211.762C958.086 211.762 958.84 196.445 972.382 195.443" stroke="white" stroke-width="5" stroke-linejoin="round"/>
<path d="M943.743 131C949.471 132.069 957.771 135.664 957.676 147.563C957.532 165.644 958.086 179.119 958.086 179.119C958.086 179.119 958.84 194.436 972.382 195.443" stroke="white" stroke-width="5" stroke-linejoin="round"/>
<path d="M898.564 230.734L823.815 155.976" stroke="white" stroke-width="5" stroke-linejoin="round"/>
<path d="M823.815 230.734L898.564 155.976" stroke="white" stroke-width="5" stroke-linejoin="round"/>
<path d="M861.186 246.217V140.503" stroke="white" stroke-width="5" stroke-linejoin="round"/>
<path d="M808.333 193.355H914.047" stroke="white" stroke-width="5" stroke-linejoin="round"/>
<path d="M86.7822 192.331H93.6847C94.864 192.331 95.9953 192.799 96.8304 193.632C97.6656 194.464 98.1366 195.594 98.1401 196.774V237.736C98.1401 243.641 100.486 249.304 104.661 253.479C108.836 257.654 114.499 260 120.404 260H138.199C138.671 260 139.125 259.812 139.459 259.478C139.793 259.144 139.981 258.691 139.981 258.218V233.228C139.977 232.758 139.788 232.308 139.454 231.976C139.12 231.645 138.669 231.459 138.199 231.459H124.54C123.358 231.459 122.225 230.99 121.39 230.154C120.554 229.319 120.085 228.185 120.085 227.004V128.014C120.085 127.43 120.2 126.851 120.424 126.311C120.648 125.771 120.976 125.281 121.39 124.869C121.804 124.456 122.295 124.129 122.836 123.906C123.376 123.684 123.955 123.57 124.54 123.572H138.199C138.671 123.572 139.125 123.384 139.459 123.05C139.793 122.716 139.981 122.263 139.981 121.79V96.8C139.981 96.3273 139.793 95.874 139.459 95.5398C139.125 95.2056 138.671 95.0178 138.199 95.0178H120.404C117.48 95.0178 114.585 95.5937 111.884 96.7125C109.183 97.8314 106.728 99.4713 104.661 101.539C100.486 105.714 98.1401 111.377 98.1401 117.281V158.218C98.1366 159.397 97.6656 160.527 96.8304 161.36C95.9953 162.192 94.864 162.66 93.6847 162.66H86.7822C86.5481 162.66 86.3164 162.706 86.1002 162.796C85.8839 162.885 85.6875 163.016 85.522 163.182C85.3565 163.347 85.2252 163.544 85.1357 163.76C85.0461 163.976 85 164.208 85 164.442V190.549C85 191.022 85.1878 191.475 85.522 191.809C85.8562 192.144 86.3095 192.331 86.7822 192.331Z" fill="#EA4535"/>
<path d="M669.933 162.686H663.031C662.447 162.688 661.869 162.575 661.329 162.352C660.789 162.129 660.299 161.802 659.886 161.389C659.473 160.977 659.146 160.486 658.923 159.946C658.701 159.407 658.587 158.828 658.589 158.244V117.281C658.585 111.376 656.237 105.713 652.059 101.538C647.882 97.363 642.218 95.0178 636.312 95.0178H618.504C618.031 95.0178 617.578 95.2056 617.243 95.5398C616.909 95.874 616.721 96.3273 616.721 96.8V121.79C616.721 122.263 616.909 122.716 617.243 123.05C617.578 123.384 618.031 123.572 618.504 123.572H632.176C632.76 123.57 633.339 123.684 633.88 123.906C634.42 124.129 634.911 124.456 635.325 124.869C635.739 125.281 636.068 125.771 636.292 126.311C636.516 126.851 636.631 127.43 636.631 128.014V227.004C636.631 228.185 636.162 229.319 635.326 230.154C634.491 230.99 633.357 231.459 632.176 231.459H618.504C618.033 231.459 617.582 231.645 617.248 231.976C616.914 232.308 616.725 232.758 616.721 233.228V258.218C616.721 258.691 616.909 259.144 617.243 259.478C617.578 259.812 618.031 260 618.504 260H636.312C642.218 260 647.882 257.655 652.059 253.48C656.237 249.305 658.585 243.642 658.589 237.736V196.813C658.587 196.229 658.701 195.65 658.923 195.109C659.146 194.569 659.473 194.078 659.885 193.664C660.298 193.25 660.788 192.921 661.328 192.697C661.868 192.473 662.446 192.358 663.031 192.358H669.933C670.406 192.358 670.859 192.17 671.194 191.836C671.528 191.502 671.716 191.049 671.716 190.576V164.469C671.716 163.996 671.528 163.543 671.194 163.208C670.859 162.874 670.406 162.686 669.933 162.686Z" fill="#EA4535"/>
<path d="M165.408 177.249V95.0177H193.205C201.064 94.7998 208.848 96.5993 215.814 100.244C221.982 103.559 227.062 108.584 230.444 114.714C233.952 121.302 235.71 128.679 235.551 136.14C235.704 143.614 233.946 151.002 230.444 157.606C227.085 163.788 221.984 168.848 215.774 172.156C208.795 175.759 201.016 177.535 193.165 177.316L165.408 177.249ZM180.916 162.62H192.513C197.76 162.8 202.969 161.676 207.675 159.348C211.62 157.278 214.816 154.022 216.812 150.038C218.915 145.718 219.96 140.958 219.857 136.154C219.971 131.322 218.926 126.534 216.812 122.189C214.782 118.26 211.592 115.051 207.675 112.999C202.969 110.671 197.76 109.547 192.513 109.727H180.916V162.62Z" fill="white"/>
<path d="M273.601 179.085C268.077 179.185 262.627 177.808 257.814 175.095C253.24 172.481 249.465 168.669 246.895 164.069C244.193 159.19 242.818 153.687 242.905 148.11C242.861 142.691 244.207 137.352 246.815 132.602C249.323 127.945 252.987 124.01 257.455 121.178C262.097 118.27 267.485 116.773 272.962 116.869C278.517 116.676 284.013 118.059 288.815 120.859C293.012 123.449 296.395 127.169 298.577 131.592C300.831 136.225 301.969 141.322 301.902 146.474C301.902 147.698 301.862 148.748 301.783 149.626C301.744 150.264 301.668 150.899 301.556 151.528H251.324V140.888H287.499C287.383 139.496 286.994 138.14 286.355 136.898C285.625 135.477 284.653 134.195 283.482 133.108C280.669 130.524 276.967 129.128 273.148 129.211C270.323 129.187 267.552 129.982 265.169 131.499C262.731 133.071 260.767 135.278 259.49 137.882C258.043 140.905 257.336 144.228 257.428 147.578C257.317 151.019 258.067 154.434 259.609 157.513C260.939 160.108 262.989 162.265 265.514 163.724C268.199 165.158 271.204 165.89 274.248 165.851C277.292 165.811 280.277 165.002 282.924 163.498C285.285 161.999 287.247 159.95 288.642 157.526L300.825 163.498C298.234 168.146 294.522 172.074 290.026 174.922C285.058 177.844 279.36 179.288 273.601 179.085Z" fill="white"/>
<path d="M327.2 177.249L302.383 118.731H319.5L334.316 156.861H335.233L350.275 118.731H367.166L342.122 177.249H327.2Z" fill="white"/>
<path d="M374.575 177.25V95.0178H426.71V109.714H390.069V177.25H374.575ZM383.18 144.399V129.703H423.079V144.399H383.18Z" fill="white"/>
<path d="M461.912 179.085C456.388 179.185 450.938 177.808 446.125 175.095C441.551 172.48 437.776 168.669 435.206 164.069C432.505 159.189 431.129 153.687 431.216 148.11C431.172 142.691 432.518 137.352 435.126 132.602C437.634 127.944 441.298 124.01 445.766 121.178C450.436 118.24 455.864 116.733 461.38 116.842C466.935 116.649 472.431 118.033 477.233 120.832C481.43 123.422 484.813 127.142 486.995 131.565C489.241 136.201 490.38 141.296 490.32 146.447C490.32 147.671 490.28 148.722 490.2 149.599C490.162 150.237 490.086 150.872 489.974 151.501H439.635V140.861H475.81C475.694 139.469 475.306 138.113 474.666 136.872C473.936 135.451 472.964 134.168 471.794 133.081C468.977 130.496 465.269 129.099 461.446 129.184C458.621 129.16 455.85 129.955 453.467 131.472C451.025 133.04 449.061 135.248 447.788 137.856C446.336 140.877 445.625 144.2 445.713 147.551C445.609 150.992 446.358 154.405 447.894 157.486C449.232 160.08 451.286 162.235 453.812 163.697C456.495 165.132 459.498 165.864 462.54 165.824C465.582 165.784 468.564 164.975 471.208 163.471C473.579 161.986 475.551 159.945 476.954 157.526L489.136 163.497C486.545 168.146 482.833 172.074 478.337 174.922C473.369 177.843 467.671 179.287 461.912 179.085Z" fill="white"/>
<path d="M521.828 179.085C517.423 179.197 513.038 178.456 508.914 176.903C505.638 175.647 502.677 173.686 500.243 171.158C498.096 168.906 496.415 166.253 495.295 163.351L508.741 157.526C509.876 160.078 511.723 162.248 514.061 163.777C516.401 165.23 519.114 165.97 521.868 165.905C524.142 165.936 526.401 165.525 528.518 164.694C529.433 164.389 530.221 163.791 530.762 162.993C531.303 162.195 531.566 161.241 531.51 160.279C531.543 159.597 531.419 158.917 531.15 158.291C530.88 157.664 530.471 157.107 529.954 156.661C528.821 155.728 527.515 155.028 526.111 154.6C524.569 154.095 522.997 153.691 521.403 153.39L514.513 151.9C511.662 151.284 508.939 150.177 506.467 148.628C503.999 147.116 501.899 145.071 500.323 142.643C498.731 140.163 497.911 137.265 497.969 134.318C497.899 131 498.975 127.759 501.014 125.141C503.179 122.415 506.023 120.305 509.26 119.023C512.921 117.538 516.841 116.796 520.791 116.842C524.361 116.782 527.921 117.23 531.364 118.172C534.337 119.01 537.11 120.439 539.517 122.375C541.876 124.337 543.762 126.805 545.036 129.597L532.162 135.222C531.147 133.138 529.473 131.446 527.401 130.408C525.437 129.507 523.297 129.053 521.137 129.078C518.971 128.973 516.82 129.489 514.939 130.567C514.278 130.909 513.718 131.418 513.315 132.044C512.911 132.669 512.678 133.389 512.638 134.132C512.67 134.906 512.898 135.66 513.3 136.323C513.703 136.986 514.266 137.536 514.939 137.922C516.619 139.029 518.491 139.814 520.458 140.236L529.063 142.311C534.889 143.694 539.273 145.911 542.217 148.961C543.651 150.411 544.78 152.134 545.538 154.027C546.297 155.921 546.669 157.947 546.632 159.986C546.698 163.614 545.525 167.156 543.307 170.027C540.954 172.992 537.863 175.285 534.343 176.677C530.374 178.308 526.119 179.127 521.828 179.085Z" fill="white"/>
<path d="M551.101 131.538V118.678H561.9V131.538H551.101ZM580.732 178.167C574.677 178.167 569.933 176.425 566.502 172.94C563.07 169.456 561.346 164.65 561.328 158.523V102.133H576.37V155.77C576.187 157.997 576.8 160.217 578.099 162.035C579.243 163.365 581.118 164.043 583.725 164.043C584.893 164.051 586.055 163.876 587.169 163.524C588.572 163.009 589.91 162.336 591.159 161.516V176.146C589.497 176.756 587.789 177.237 586.052 177.582C584.303 177.952 582.521 178.148 580.732 178.167ZM575.758 131.538V118.678H590.694V131.538H575.758Z" fill="white"/>
<path d="M559.625 198.924H195.174C178.397 198.924 164.797 212.524 164.797 229.3V229.314C164.797 246.09 178.397 259.69 195.174 259.69H559.625C576.401 259.69 590.001 246.09 590.001 229.314V229.3C590.001 212.524 576.401 198.924 559.625 198.924Z" fill="white" stroke="#1D1D1D" stroke-width="2" stroke-linejoin="round"/>
<path d="M344.894 241.316C342.971 241.316 341.209 240.733 339.606 239.565C338.004 238.398 336.906 236.762 336.311 234.656L339.092 233.523C339.481 234.988 340.202 236.189 341.254 237.128C342.307 238.066 343.543 238.535 344.962 238.535C346.382 238.535 347.583 238.158 348.567 237.402C349.552 236.624 350.044 235.571 350.044 234.244C350.044 233.099 349.62 232.161 348.773 231.429C347.949 230.673 346.588 229.975 344.688 229.334L343.143 228.785C341.403 228.167 339.984 227.354 338.886 226.347C337.787 225.34 337.238 223.944 337.238 222.159C337.238 220.991 337.558 219.916 338.199 218.931C338.84 217.924 339.732 217.123 340.877 216.528C342.021 215.933 343.303 215.635 344.722 215.635C346.141 215.635 347.377 215.899 348.43 216.425C349.483 216.952 350.318 217.592 350.936 218.348C351.577 219.103 352.024 219.847 352.275 220.579L349.529 221.747C349.3 220.9 348.773 220.133 347.949 219.446C347.148 218.76 346.084 218.416 344.756 218.416C343.498 218.416 342.422 218.771 341.529 219.481C340.636 220.19 340.19 221.083 340.19 222.159C340.19 223.12 340.568 223.91 341.323 224.528C342.078 225.123 343.223 225.684 344.756 226.21L346.37 226.759C348.453 227.515 350.078 228.464 351.245 229.609C352.413 230.73 352.996 232.264 352.996 234.21C352.996 235.789 352.584 237.116 351.76 238.192C350.959 239.268 349.941 240.058 348.705 240.561C347.469 241.065 346.198 241.316 344.894 241.316ZM362.537 241.316C360.432 241.316 358.818 240.698 357.696 239.462C356.598 238.226 356.048 236.498 356.048 234.278V223.257H358.967V233.832C358.967 235.503 359.344 236.727 360.1 237.505C360.855 238.284 361.874 238.673 363.155 238.673C364.14 238.673 365.009 238.41 365.765 237.883C366.543 237.357 367.138 236.67 367.55 235.823C367.985 234.976 368.202 234.084 368.202 233.145V223.257H371.121V240.767H368.34V238.226H368.202C367.722 239.096 366.955 239.829 365.902 240.424C364.849 241.019 363.728 241.316 362.537 241.316ZM383.194 241.316C381.5 241.316 379.978 240.916 378.628 240.115C377.277 239.291 376.225 238.181 375.469 236.784C374.714 235.365 374.336 233.775 374.336 232.012C374.336 230.25 374.714 228.659 375.469 227.24C376.225 225.821 377.277 224.711 378.628 223.91C379.978 223.109 381.5 222.708 383.194 222.708C385.094 222.708 386.685 223.154 387.966 224.047C389.271 224.917 390.198 226.084 390.747 227.549L388.104 228.648C387.669 227.572 387.017 226.759 386.147 226.21C385.3 225.638 384.27 225.352 383.057 225.352C382.027 225.352 381.066 225.638 380.173 226.21C379.28 226.759 378.559 227.537 378.01 228.545C377.483 229.552 377.22 230.708 377.22 232.012C377.22 233.317 377.483 234.473 378.01 235.48C378.559 236.487 379.28 237.277 380.173 237.849C381.066 238.398 382.027 238.673 383.057 238.673C384.293 238.673 385.357 238.387 386.25 237.814C387.142 237.242 387.806 236.43 388.241 235.377L390.85 236.475C390.255 237.917 389.294 239.085 387.966 239.977C386.662 240.87 385.071 241.316 383.194 241.316ZM393.838 223.257H396.619V226.073H396.756C397.1 225.111 397.763 224.322 398.747 223.704C399.732 223.063 400.762 222.742 401.837 222.742C402.638 222.742 403.325 222.857 403.897 223.086V226.244C403.165 225.878 402.341 225.695 401.425 225.695C400.579 225.695 399.8 225.935 399.091 226.416C398.381 226.897 397.809 227.549 397.374 228.373C396.962 229.174 396.756 230.044 396.756 230.982V240.767H393.838V223.257ZM413.467 241.316C411.796 241.316 410.297 240.916 408.969 240.115C407.642 239.314 406.6 238.215 405.845 236.819C405.113 235.4 404.746 233.809 404.746 232.047C404.746 230.353 405.09 228.796 405.776 227.377C406.486 225.958 407.482 224.825 408.763 223.978C410.045 223.131 411.533 222.708 413.227 222.708C414.943 222.708 416.431 223.097 417.69 223.875C418.949 224.631 419.91 225.684 420.574 227.034C421.26 228.384 421.604 229.929 421.604 231.669C421.604 232.012 421.569 232.31 421.501 232.562H407.665C407.733 233.889 408.054 235.011 408.626 235.926C409.198 236.842 409.919 237.528 410.789 237.986C411.682 238.444 412.609 238.673 413.57 238.673C415.813 238.673 417.541 237.62 418.754 235.514L421.226 236.716C420.471 238.135 419.441 239.256 418.136 240.08C416.854 240.904 415.298 241.316 413.467 241.316ZM418.514 230.158C418.468 229.426 418.262 228.693 417.896 227.961C417.53 227.228 416.946 226.611 416.145 226.107C415.367 225.603 414.382 225.352 413.192 225.352C411.819 225.352 410.652 225.798 409.69 226.691C408.752 227.56 408.134 228.716 407.836 230.158H418.514Z" fill="black"/>
<path d="M176.684 347C176.684 363.526 161.303 376.918 142.337 376.918C123.371 376.918 108 363.526 108 347" stroke="white" stroke-width="5" stroke-linejoin="round"/>
<path d="M245.369 347C245.369 363.526 229.995 376.918 211.026 376.918C192.058 376.918 176.684 363.526 176.684 347" stroke="white" stroke-width="5" stroke-linejoin="round"/>
<path d="M313.631 347C313.631 363.526 298.355 376.918 279.505 376.918C260.655 376.918 245.369 363.526 245.369 347" stroke="white" stroke-width="5" stroke-linejoin="round"/>
<path d="M382.316 347C382.316 363.526 366.94 376.918 347.968 376.918C328.997 376.918 313.631 363.526 313.631 347" stroke="white" stroke-width="5" stroke-linejoin="round"/>
<path d="M451 347C451 363.526 435.624 376.918 416.653 376.918C397.681 376.918 382.316 363.526 382.316 347" stroke="white" stroke-width="5" stroke-linejoin="round"/>
<path d="M957.826 402.238C952.17 412.809 940.581 417.593 932.004 412.922C923.426 408.252 921.07 395.89 926.749 385.314" stroke="white" stroke-width="5" stroke-linejoin="round"/>
<path d="M926.749 385.314C932.405 374.743 943.989 369.96 952.571 374.63C961.153 379.301 963.505 391.663 957.826 402.238" stroke="white" stroke-width="5" stroke-linejoin="round"/>
<path d="M965.966 406.409C964.5 409.143 961.512 410.378 959.292 409.171C957.072 407.965 956.464 404.764 957.935 402.031" stroke="white" stroke-width="5" stroke-linejoin="round"/>
<path d="M947.438 423.602C940.482 426.34 933.04 426.298 926.673 422.834C913.651 415.765 910.079 396.984 918.703 380.936" stroke="white" stroke-width="5" stroke-linejoin="round"/>
<path d="M918.703 380.936C927.323 364.889 944.874 357.626 957.896 364.719C970.918 371.812 974.495 390.569 965.87 406.617" stroke="white" stroke-width="5" stroke-linejoin="round"/>
<path d="M980.261 1070.26L940.282 1030.28" stroke="white" stroke-width="5" stroke-linejoin="round"/>
<path d="M940.282 1070.26L980.261 1030.28" stroke="white" stroke-width="5" stroke-linejoin="round"/>
<path d="M960.269 1078.54V1022" stroke="white" stroke-width="5" stroke-linejoin="round"/>
<path d="M932 1050.27H988.541" stroke="white" stroke-width="5" stroke-linejoin="round"/>
<path d="M62 1514.45H192.719" stroke="white" stroke-width="5" stroke-miterlimit="10"/>
<path d="M192.719 1514.45C165.508 1514.45 128.13 1491.45 127.643 1463" stroke="white" stroke-width="5" stroke-miterlimit="10"/>
<path d="M192.719 1514.45C165.486 1514.45 128.087 1537.48 127.643 1566" stroke="white" stroke-width="5" stroke-miterlimit="10"/>
<path d="M802.568 484.751C824.265 484.683 841.912 497.78 841.975 514.006C842.038 530.232 824.508 543.444 802.81 543.511" stroke="white" stroke-width="5" stroke-linejoin="round"/>
<path d="M802.328 426C824.035 425.923 841.682 439.02 841.745 455.246C841.808 471.472 824.267 484.684 802.57 484.751" stroke="white" stroke-width="5" stroke-linejoin="round"/>
<path d="M774.074 537.069L717 484.837L774.063 432.615" stroke="white" stroke-width="5" stroke-linejoin="round"/>
<g clip-path="url(#clip0_2098_337)">
<path d="M296.528 1311.65H249.787C223.445 1311.65 202.09 1331.28 202.09 1355.5C202.09 1379.72 223.445 1399.35 249.787 1399.35H296.528C322.87 1399.35 344.225 1379.72 344.225 1355.5C344.225 1331.28 322.87 1311.65 296.528 1311.65Z" stroke="white" stroke-width="5" stroke-miterlimit="10"/>
<path d="M234.265 1369.07V1365.84L234.947 1365.1L236.379 1363.5L238.265 1361.41L240.285 1359.14L242.184 1357.04L243.522 1355.53C244.539 1354.49 245.437 1353.33 246.197 1352.09C246.759 1351.13 247.055 1350.03 247.054 1348.91C247.062 1348.1 246.855 1347.3 246.451 1346.6C246.034 1345.9 245.438 1345.33 244.726 1344.93C243.927 1344.5 243.027 1344.28 242.117 1344.3C241.266 1344.28 240.425 1344.49 239.683 1344.91C239.024 1345.28 238.453 1345.78 238.011 1346.4C237.627 1346.91 237.349 1347.49 237.195 1348.1L234.278 1346.92C234.467 1346.3 234.742 1345.71 235.094 1345.16C235.524 1344.46 236.051 1343.82 236.659 1343.27C237.362 1342.64 238.173 1342.14 239.054 1341.79C240.279 1341.34 241.586 1341.15 242.889 1341.24C244.192 1341.33 245.461 1341.7 246.612 1342.32C247.767 1343.01 248.729 1343.99 249.408 1345.16C250.054 1346.29 250.391 1347.57 250.384 1348.87C250.382 1350.02 250.136 1351.16 249.662 1352.21C249.202 1353.29 248.619 1354.31 247.923 1355.25C247.318 1356.08 246.662 1356.87 245.957 1357.62C245.622 1357.96 245.181 1358.43 244.619 1359.05L242.786 1361.07C242.117 1361.78 241.448 1362.5 240.847 1363.18L239.201 1364.97C238.733 1365.48 238.412 1365.81 238.225 1366H250.625V1369.07H234.265Z" fill="white"/>
<path d="M264.685 1369.69C263.184 1369.71 261.705 1369.33 260.404 1368.58C259.106 1367.82 257.991 1366.78 257.14 1365.54C256.193 1364.16 255.487 1362.63 255.053 1361C254.09 1357.37 254.09 1353.54 255.053 1349.9C255.485 1348.28 256.191 1346.74 257.14 1345.35C257.987 1344.1 259.102 1343.06 260.404 1342.3C261.71 1341.57 263.187 1341.19 264.685 1341.22C266.191 1341.19 267.676 1341.57 268.992 1342.3C270.298 1343.06 271.418 1344.1 272.269 1345.35C273.218 1346.74 273.924 1348.28 274.356 1349.9C275.32 1353.54 275.32 1357.37 274.356 1361C273.923 1362.63 273.217 1364.16 272.269 1365.54C271.429 1366.78 270.328 1367.81 269.046 1368.58C267.719 1369.34 266.212 1369.72 264.685 1369.69ZM264.685 1366.6C266.097 1366.63 267.463 1366.09 268.484 1365.11C269.623 1364 270.464 1362.61 270.932 1361.09C272.055 1357.4 272.055 1353.46 270.932 1349.77C270.46 1348.24 269.619 1346.86 268.484 1345.74C267.456 1344.77 266.094 1344.24 264.685 1344.26C263.283 1344.24 261.928 1344.77 260.912 1345.74C259.786 1346.86 258.954 1348.24 258.491 1349.77C257.35 1353.45 257.35 1357.4 258.491 1361.09C258.949 1362.61 259.782 1364 260.912 1365.11C261.926 1366.09 263.281 1366.62 264.685 1366.6Z" fill="white"/>
<path d="M278.182 1369.07V1365.84C278.263 1365.84 278.49 1365.52 278.865 1365.1L280.309 1363.5C280.898 1362.86 281.513 1362.16 282.182 1361.41L284.215 1359.14L286.115 1357.04C286.69 1356.41 287.158 1355.9 287.52 1355.53C288.529 1354.48 289.426 1353.33 290.195 1352.09C290.747 1351.12 291.037 1350.02 291.038 1348.91C291.047 1348.1 290.839 1347.3 290.436 1346.6C290.025 1345.89 289.428 1345.32 288.71 1344.93C287.916 1344.5 287.02 1344.28 286.115 1344.3C285.26 1344.28 284.415 1344.49 283.667 1344.91C283.011 1345.28 282.441 1345.79 281.995 1346.4C281.616 1346.91 281.339 1347.49 281.179 1348.1L278.263 1346.92C278.463 1346.3 278.737 1345.71 279.079 1345.16C279.513 1344.46 280.045 1343.82 280.657 1343.27C281.354 1342.64 282.161 1342.14 283.038 1341.79C284.065 1341.39 285.16 1341.19 286.262 1341.22C287.784 1341.17 289.289 1341.56 290.61 1342.32C291.765 1343.01 292.723 1343.99 293.392 1345.16C294.042 1346.29 294.384 1347.57 294.382 1348.87C294.38 1350.02 294.133 1351.16 293.66 1352.21C293.195 1353.28 292.611 1354.3 291.921 1355.25C291.312 1356.08 290.65 1356.87 289.941 1357.62C289.62 1357.96 289.165 1358.43 288.603 1359.05L286.757 1361.07L284.831 1363.18L283.172 1364.97L282.209 1366H294.609V1369.07H278.182Z" fill="white"/>
<path d="M307.116 1369.69C305.047 1369.69 303.043 1368.97 301.436 1367.66C299.83 1366.35 298.719 1364.53 298.288 1362.5L301.124 1361.35C301.464 1362.79 302.201 1364.1 303.251 1365.14C303.749 1365.62 304.338 1366 304.983 1366.25C305.629 1366.5 306.318 1366.62 307.009 1366.6C307.783 1366.63 308.555 1366.51 309.277 1366.23C309.999 1365.95 310.657 1365.52 311.21 1364.98C311.755 1364.44 312.182 1363.79 312.462 1363.07C312.744 1362.35 312.873 1361.59 312.842 1360.82C312.862 1359.76 312.614 1358.71 312.119 1357.77C311.651 1356.9 310.953 1356.17 310.1 1355.68C309.174 1355.17 308.132 1354.91 307.077 1354.92C306.145 1354.92 305.227 1355.15 304.401 1355.58C303.582 1355.99 302.879 1356.6 302.354 1357.35L299.09 1356.01L300.869 1341.78H314.394V1344.85H303.478L302.381 1353.57H302.568C303.223 1353.03 303.965 1352.61 304.762 1352.32C305.926 1351.9 307.166 1351.74 308.398 1351.86C309.629 1351.97 310.821 1352.34 311.892 1352.96C313.175 1353.71 314.241 1354.79 314.982 1356.08C315.789 1357.45 316.216 1359.02 316.219 1360.61C316.223 1362.21 315.802 1363.78 315 1365.15C314.199 1366.53 313.045 1367.67 311.66 1368.45C310.274 1369.23 308.706 1369.63 307.116 1369.6V1369.69Z" fill="white"/>
</g>
<path d="M158.953 1179.03L117.357 1208.82C108.622 1215.08 106.629 1227.2 112.906 1235.91C119.182 1244.61 131.351 1246.6 140.085 1240.34L181.682 1210.56C190.416 1204.3 192.41 1192.17 186.133 1183.47C179.856 1174.76 167.688 1172.78 158.953 1179.03Z" fill="#EA4535" stroke="#232323" stroke-width="2" stroke-miterlimit="10"/>
<path d="M140.127 1208.65C131.393 1202.39 119.224 1204.38 112.948 1213.09C106.671 1221.79 108.664 1233.92 117.399 1240.17L158.995 1269.96C167.73 1276.21 179.898 1274.23 186.175 1265.52C192.451 1256.82 190.458 1244.69 181.724 1238.44L140.127 1208.65Z" fill="#557DBF" stroke="#232323" stroke-width="2" stroke-miterlimit="10"/>
<path d="M259.452 1208.83L217.854 1238.62C209.121 1244.88 207.128 1257 213.404 1265.71C219.681 1274.41 231.849 1276.4 240.584 1270.14L282.18 1240.35C290.915 1234.1 292.907 1221.97 286.631 1213.27C280.355 1204.56 268.186 1202.58 259.452 1208.83Z" fill="#F7AC1A" stroke="#232323" stroke-width="2" stroke-miterlimit="10"/>
<path d="M240.628 1178.86C231.893 1172.6 219.725 1174.59 213.448 1183.29C207.172 1192 209.165 1204.12 217.9 1210.38L259.496 1240.17C268.231 1246.42 280.399 1244.44 286.676 1235.73C292.952 1227.03 290.959 1214.9 282.225 1208.65L240.628 1178.86Z" fill="#36A852" stroke="#232323" stroke-width="2" stroke-miterlimit="10"/>
<path d="M334.422 1177.37C334.422 1177.16 334.422 1176.94 334.321 1176.7H325.265V1178.78H332.223C332.17 1179.78 331.91 1180.75 331.461 1181.64C331.069 1182.39 330.526 1183.05 329.865 1183.58C329.222 1184.08 328.491 1184.45 327.709 1184.68C326.905 1184.91 326.073 1185.02 325.237 1185.02C324.253 1185.03 323.277 1184.85 322.361 1184.49C321.452 1184.13 320.624 1183.59 319.925 1182.91C319.226 1182.23 318.672 1181.41 318.294 1180.51C317.863 1179.51 317.647 1178.43 317.661 1177.35C317.645 1176.26 317.851 1175.17 318.265 1174.17C318.651 1173.26 319.212 1172.43 319.919 1171.74C320.602 1171.07 321.42 1170.54 322.318 1170.2C323.233 1169.83 324.208 1169.65 325.194 1169.65C325.888 1169.65 326.579 1169.74 327.25 1169.91C327.89 1170.08 328.505 1170.33 329.075 1170.67C329.62 1171 330.107 1171.42 330.512 1171.92L332.079 1170.33C331.252 1169.41 330.217 1168.7 329.061 1168.26C327.819 1167.76 326.49 1167.51 325.151 1167.53C323.858 1167.52 322.576 1167.77 321.385 1168.26C320.213 1168.74 319.149 1169.44 318.251 1170.33C317.359 1171.23 316.646 1172.29 316.152 1173.46C315.636 1174.69 315.377 1176.01 315.39 1177.35C315.361 1179.28 315.917 1181.19 316.985 1182.81C318.055 1184.42 319.587 1185.69 321.385 1186.43C322.579 1186.92 323.859 1187.17 325.151 1187.16C326.423 1187.18 327.687 1186.95 328.873 1186.5C329.943 1186.07 330.92 1185.45 331.749 1184.65C332.585 1183.84 333.242 1182.87 333.675 1181.79C334.147 1180.62 334.381 1179.37 334.365 1178.1C334.403 1177.86 334.422 1177.62 334.422 1177.37Z" fill="white"/>
<path d="M349.486 1176.43C348.915 1175.37 348.071 1174.49 347.042 1173.86C345.966 1173.21 344.724 1172.88 343.464 1172.9C342.234 1172.88 341.02 1173.19 339.958 1173.81C338.895 1174.42 338.023 1175.32 337.44 1176.4C336.874 1177.51 336.579 1178.74 336.579 1179.98C336.579 1181.23 336.874 1182.45 337.44 1183.56C338.03 1184.64 338.901 1185.54 339.96 1186.17C341.02 1186.8 342.23 1187.13 343.464 1187.13C344.696 1187.13 345.907 1186.8 346.966 1186.17C348.027 1185.54 348.897 1184.64 349.486 1183.56C350.058 1182.45 350.355 1181.23 350.355 1179.98C350.355 1178.74 350.058 1177.51 349.486 1176.4V1176.43ZM347.502 1182.77C347.089 1183.5 346.495 1184.1 345.777 1184.52C345.249 1184.82 344.666 1185.02 344.061 1185.09C343.458 1185.17 342.844 1185.12 342.257 1184.96C341.672 1184.8 341.123 1184.52 340.644 1184.14C340.165 1183.77 339.765 1183.3 339.468 1182.77C339.033 1181.93 338.807 1180.99 338.807 1180.03C338.807 1179.08 339.033 1178.14 339.468 1177.29C339.874 1176.56 340.476 1175.95 341.207 1175.54C341.904 1175.15 342.692 1174.94 343.492 1174.94C344.293 1174.94 345.081 1175.15 345.777 1175.54C346.499 1175.96 347.093 1176.56 347.502 1177.29C347.928 1178.14 348.149 1179.08 348.149 1180.03C348.149 1180.98 347.928 1181.92 347.502 1182.77Z" fill="white"/>
<path d="M364.867 1176.43C364.296 1175.37 363.452 1174.49 362.423 1173.86C361.347 1173.21 360.105 1172.88 358.845 1172.9C357.615 1172.88 356.402 1173.19 355.339 1173.81C354.276 1174.42 353.404 1175.32 352.822 1176.4C352.255 1177.51 351.96 1178.74 351.96 1179.98C351.96 1181.23 352.255 1182.45 352.822 1183.56C353.41 1184.64 354.282 1185.54 355.341 1186.17C356.401 1186.8 357.611 1187.13 358.845 1187.13C360.077 1187.13 361.288 1186.8 362.348 1186.17C363.408 1185.54 364.278 1184.64 364.867 1183.56C365.439 1182.45 365.736 1181.23 365.736 1179.98C365.736 1178.74 365.439 1177.51 364.867 1176.4V1176.43ZM362.855 1182.76C362.441 1183.48 361.848 1184.08 361.13 1184.51C360.434 1184.9 359.646 1185.11 358.845 1185.11C358.043 1185.11 357.256 1184.9 356.56 1184.51C355.827 1184.09 355.222 1183.49 354.805 1182.76C354.38 1181.91 354.159 1180.97 354.159 1180.02C354.159 1179.07 354.38 1178.13 354.805 1177.27C355.104 1176.74 355.505 1176.28 355.985 1175.9C356.466 1175.53 357.016 1175.25 357.604 1175.09C358.191 1174.93 358.806 1174.88 359.41 1174.96C360.016 1175.03 360.6 1175.23 361.13 1175.53C361.85 1175.95 362.446 1176.55 362.855 1177.27C363.281 1178.13 363.502 1179.07 363.502 1180.02C363.502 1180.97 363.281 1181.91 362.855 1182.76Z" fill="white"/>
<path d="M378.307 1173.32V1175.24H378.192C377.746 1174.54 377.121 1173.96 376.38 1173.58C375.535 1173.12 374.584 1172.89 373.621 1172.9C372.498 1172.89 371.393 1173.19 370.444 1173.79C369.472 1174.4 368.683 1175.26 368.159 1176.27C367.61 1177.42 367.325 1178.67 367.325 1179.94C367.325 1181.21 367.61 1182.46 368.159 1183.61C368.699 1184.63 369.509 1185.48 370.501 1186.07C371.449 1186.67 372.554 1186.99 373.678 1186.97C374.641 1186.99 375.593 1186.76 376.439 1186.3C377.172 1185.91 377.794 1185.34 378.25 1184.65H378.364V1186.16C378.441 1187.39 378.034 1188.61 377.229 1189.55C376.811 1189.98 376.305 1190.31 375.746 1190.52C375.189 1190.73 374.59 1190.82 373.995 1190.78C373.15 1190.81 372.317 1190.57 371.613 1190.11C370.909 1189.64 370.37 1188.96 370.071 1188.18L368.015 1189.03C368.249 1189.69 368.61 1190.29 369.078 1190.8C369.625 1191.41 370.297 1191.9 371.047 1192.23C371.975 1192.64 372.982 1192.83 373.995 1192.8C375.144 1192.82 376.281 1192.57 377.315 1192.07C378.297 1191.59 379.11 1190.83 379.644 1189.88C380.251 1188.75 380.544 1187.47 380.492 1186.18V1173.29L378.307 1173.32ZM377.718 1182.63C377.447 1183.14 377.075 1183.6 376.625 1183.96C376.174 1184.33 375.654 1184.6 375.096 1184.76C374.537 1184.92 373.951 1184.97 373.375 1184.9C372.798 1184.83 372.24 1184.64 371.739 1184.35C371.06 1183.94 370.509 1183.36 370.143 1182.66C369.745 1181.81 369.54 1180.88 369.54 1179.94C369.54 1179 369.745 1178.07 370.143 1177.22C370.496 1176.52 371.039 1175.93 371.709 1175.53C372.381 1175.12 373.152 1174.91 373.937 1174.92C374.703 1174.92 375.458 1175.12 376.122 1175.5C376.806 1175.9 377.36 1176.49 377.718 1177.2C378.107 1178.05 378.307 1178.98 378.307 1179.92C378.307 1180.85 378.107 1181.78 377.718 1182.63Z" fill="white"/>
<path d="M383.094 1167.92V1186.7H385.336V1167.92H383.094Z" fill="white"/>
<path d="M399.782 1176.21C399.299 1175.2 398.53 1174.36 397.569 1173.78C396.529 1173.17 395.338 1172.87 394.133 1172.91C392.916 1172.88 391.719 1173.22 390.698 1173.88C389.722 1174.54 388.94 1175.44 388.427 1176.5C387.888 1177.6 387.614 1178.81 387.621 1180.04C387.598 1181.31 387.894 1182.57 388.484 1183.69C389.022 1184.73 389.844 1185.6 390.856 1186.2C391.944 1186.84 393.185 1187.18 394.449 1187.18C395.713 1187.18 396.954 1186.84 398.043 1186.2C399.005 1185.57 399.786 1184.7 400.314 1183.68L398.416 1182.76C398.035 1183.44 397.511 1184.02 396.878 1184.48C396.159 1184.97 395.304 1185.21 394.435 1185.18C393.676 1185.18 392.929 1184.99 392.264 1184.62C391.552 1184.23 390.964 1183.65 390.568 1182.95C390.157 1182.2 389.935 1181.36 389.922 1180.51H400.544C400.554 1180.41 400.554 1180.3 400.544 1180.2C400.552 1180.07 400.552 1179.95 400.544 1179.82C400.584 1178.58 400.322 1177.34 399.782 1176.21ZM390.008 1178.59C390.079 1178.19 390.205 1177.79 390.382 1177.42C390.684 1176.69 391.182 1176.06 391.818 1175.6C392.493 1175.14 393.291 1174.91 394.105 1174.93C394.741 1174.9 395.375 1175.03 395.958 1175.28C396.431 1175.5 396.853 1175.81 397.194 1176.2C397.509 1176.55 397.75 1176.96 397.899 1177.4C398.047 1177.78 398.133 1178.19 398.159 1178.59H390.008Z" fill="white"/>
<path d="M330.441 1201.08C329.682 1199.68 328.534 1198.53 327.134 1197.77C325.578 1196.93 323.829 1196.52 322.06 1196.57H316.31V1215.36H322.06C323.829 1215.41 325.578 1215 327.134 1214.16C328.528 1213.39 329.675 1212.23 330.441 1210.84C331.197 1209.32 331.589 1207.65 331.589 1205.96C331.589 1204.27 331.197 1202.6 330.441 1201.08ZM328.429 1209.91C327.853 1210.97 326.971 1211.83 325.898 1212.38C324.709 1212.98 323.39 1213.28 322.06 1213.24H318.61V1198.7H322.06C323.389 1198.68 324.705 1198.97 325.898 1199.55C326.969 1200.11 327.849 1200.97 328.429 1202.03C329.014 1203.26 329.319 1204.6 329.319 1205.97C329.319 1207.33 329.014 1208.68 328.429 1209.91Z" fill="white"/>
<path d="M345.562 1204.86C345.068 1203.87 344.301 1203.03 343.348 1202.44C342.309 1201.83 341.119 1201.53 339.913 1201.56C338.694 1201.53 337.493 1201.87 336.478 1202.54C335.5 1203.2 334.716 1204.11 334.207 1205.17C333.67 1206.27 333.399 1207.48 333.416 1208.7C333.388 1209.97 333.68 1211.22 334.264 1212.34C334.803 1213.39 335.625 1214.26 336.636 1214.86C337.728 1215.49 338.968 1215.82 340.23 1215.82C341.491 1215.82 342.731 1215.49 343.823 1214.86C344.781 1214.23 345.562 1213.36 346.095 1212.34L344.197 1211.43C343.807 1212.1 343.283 1212.68 342.658 1213.14C341.937 1213.62 341.082 1213.86 340.216 1213.83C339.459 1213.83 338.713 1213.64 338.045 1213.29C337.331 1212.9 336.743 1212.31 336.349 1211.6C335.937 1210.85 335.715 1210.01 335.702 1209.16H346.325C346.325 1209.08 346.325 1208.98 346.325 1208.85C346.332 1208.72 346.332 1208.6 346.325 1208.47C346.364 1207.23 346.102 1205.99 345.562 1204.86ZM335.787 1207.26C335.874 1206.85 335.998 1206.45 336.162 1206.07C336.464 1205.34 336.962 1204.71 337.599 1204.25C338.273 1203.79 339.071 1203.56 339.884 1203.58C340.522 1203.56 341.153 1203.68 341.739 1203.93C342.211 1204.15 342.632 1204.46 342.975 1204.85C343.29 1205.21 343.532 1205.62 343.694 1206.07C343.831 1206.45 343.914 1206.85 343.938 1207.26H335.787Z" fill="white"/>
<path d="M357.651 1201.99L353.454 1212.74L349.285 1201.99H346.885L352.318 1215.36H354.589L360.066 1201.99H357.651Z" fill="white"/>
<path d="M372.658 1204.86C372.163 1203.87 371.395 1203.03 370.444 1202.44C369.405 1201.83 368.215 1201.53 367.009 1201.56C365.788 1201.53 364.589 1201.87 363.573 1202.54C362.596 1203.2 361.812 1204.11 361.302 1205.17C360.762 1206.27 360.486 1207.48 360.497 1208.7C360.475 1209.97 360.771 1211.22 361.36 1212.34C361.897 1213.39 362.719 1214.26 363.732 1214.86C364.824 1215.49 366.064 1215.82 367.325 1215.82C368.587 1215.82 369.825 1215.49 370.919 1214.86C371.879 1214.23 372.662 1213.36 373.189 1212.34L371.293 1211.43C370.901 1212.1 370.378 1212.68 369.754 1213.14C369.033 1213.62 368.178 1213.86 367.31 1213.83C366.553 1213.83 365.809 1213.64 365.14 1213.29C364.425 1212.9 363.837 1212.31 363.443 1211.6C363.032 1210.85 362.811 1210.01 362.797 1209.16H373.377C373.386 1209.06 373.386 1208.95 373.377 1208.85C373.377 1208.73 373.377 1208.6 373.377 1208.47C373.429 1207.23 373.183 1205.99 372.658 1204.86ZM362.883 1207.26C362.968 1206.85 363.094 1206.45 363.257 1206.07C363.56 1205.34 364.057 1204.71 364.695 1204.25C365.361 1203.79 366.157 1203.56 366.966 1203.58C367.602 1203.56 368.235 1203.68 368.819 1203.93C369.292 1204.15 369.714 1204.46 370.057 1204.85C370.37 1205.21 370.614 1205.62 370.774 1206.07C370.913 1206.45 370.994 1206.85 371.019 1207.26H362.883Z" fill="white"/>
<path d="M375.719 1196.57V1215.36H377.962V1196.57H375.719Z" fill="white"/>
<path d="M393.17 1205.09C392.595 1204.04 391.752 1203.15 390.726 1202.52C389.65 1201.86 388.408 1201.53 387.147 1201.56C385.889 1201.53 384.649 1201.86 383.568 1202.5C382.546 1203.13 381.709 1204.01 381.139 1205.07C380.563 1206.17 380.262 1207.4 380.262 1208.65C380.262 1209.89 380.563 1211.12 381.139 1212.23C381.702 1213.28 382.541 1214.16 383.568 1214.78C384.66 1215.41 385.9 1215.74 387.161 1215.74C388.423 1215.74 389.663 1215.41 390.755 1214.78C391.787 1214.16 392.63 1213.28 393.199 1212.23C393.77 1211.12 394.068 1209.89 394.068 1208.65C394.068 1207.4 393.77 1206.17 393.199 1205.07L393.17 1205.09ZM391.158 1211.43C390.744 1212.14 390.149 1212.74 389.433 1213.16C388.735 1213.55 387.949 1213.76 387.147 1213.76C386.346 1213.76 385.558 1213.55 384.862 1213.16C384.138 1212.75 383.537 1212.15 383.122 1211.43C382.659 1210.58 382.432 1209.63 382.461 1208.68C382.43 1207.72 382.658 1206.78 383.122 1205.94C383.54 1205.23 384.147 1204.65 384.876 1204.26C385.57 1203.86 386.359 1203.65 387.161 1203.65C387.964 1203.65 388.753 1203.86 389.447 1204.26C390.173 1204.68 390.772 1205.28 391.172 1206.01C391.629 1206.85 391.858 1207.79 391.834 1208.75C391.839 1209.68 391.606 1210.6 391.158 1211.43Z" fill="white"/>
<path d="M408.752 1204.99C408.216 1203.97 407.423 1203.1 406.452 1202.47C405.465 1201.86 404.323 1201.54 403.16 1201.56C402.489 1201.55 401.822 1201.67 401.191 1201.9C400.622 1202.11 400.092 1202.42 399.624 1202.8C399.207 1203.13 398.852 1203.53 398.575 1203.98H398.474V1201.99H396.375V1221.02H398.603V1215.29L398.503 1213.46H398.603C399.054 1214.14 399.66 1214.7 400.371 1215.11C401.242 1215.62 402.237 1215.87 403.246 1215.84C404.41 1215.86 405.554 1215.54 406.538 1214.92C407.516 1214.3 408.31 1213.43 408.838 1212.4C409.383 1211.25 409.666 1210 409.666 1208.73C409.666 1207.45 409.383 1206.2 408.838 1205.05L408.752 1204.99ZM406.725 1211.43C406.357 1212.15 405.796 1212.76 405.101 1213.19C404.449 1213.59 403.697 1213.81 402.93 1213.8C402.163 1213.81 401.409 1213.6 400.76 1213.19C400.061 1212.76 399.491 1212.15 399.106 1211.43C398.673 1210.58 398.456 1209.65 398.474 1208.7C398.449 1207.76 398.667 1206.82 399.106 1205.98C399.492 1205.26 400.063 1204.65 400.76 1204.22C401.412 1203.82 402.164 1203.61 402.93 1203.6C403.696 1203.61 404.447 1203.82 405.101 1204.22C405.792 1204.65 406.353 1205.26 406.725 1205.98C407.164 1206.82 407.382 1207.76 407.357 1208.7C407.378 1209.65 407.161 1210.59 406.725 1211.43Z" fill="white"/>
<path d="M423.313 1204.86C422.824 1203.87 422.062 1203.03 421.114 1202.44C420.07 1201.83 418.875 1201.52 417.664 1201.56C416.45 1201.53 415.254 1201.87 414.243 1202.54C413.263 1203.2 412.477 1204.1 411.972 1205.17C411.431 1206.27 411.155 1207.48 411.166 1208.7C411.146 1209.97 411.437 1211.22 412.015 1212.34C412.472 1213.13 413.083 1213.83 413.813 1214.38C414.543 1214.93 415.375 1215.34 416.263 1215.56C417.151 1215.79 418.076 1215.84 418.983 1215.71C419.89 1215.58 420.761 1215.26 421.545 1214.79C422.503 1214.16 423.284 1213.29 423.816 1212.27L421.92 1211.35C421.528 1212.03 421 1212.62 420.366 1213.07C419.651 1213.55 418.8 1213.8 417.937 1213.76C417.18 1213.76 416.434 1213.57 415.766 1213.22C415.052 1212.82 414.464 1212.24 414.07 1211.53C413.659 1210.78 413.437 1209.94 413.424 1209.09H424.046C424.046 1209 424.046 1208.9 424.046 1208.78V1208.4C424.083 1207.18 423.833 1205.97 423.313 1204.86ZM413.625 1207.26C413.706 1206.85 413.827 1206.45 413.984 1206.07C414.293 1205.35 414.789 1204.72 415.422 1204.25C416.092 1203.8 416.884 1203.56 417.693 1203.58C418.335 1203.56 418.973 1203.68 419.562 1203.93C420.031 1204.15 420.451 1204.47 420.798 1204.85C421.113 1205.2 421.353 1205.62 421.502 1206.07C421.647 1206.45 421.729 1206.85 421.747 1207.26H413.625Z" fill="white"/>
<path d="M433.477 1201.66C433.161 1201.63 432.843 1201.63 432.528 1201.66C431.979 1201.66 431.438 1201.77 430.933 1201.99C430.404 1202.2 429.918 1202.5 429.495 1202.87C429.097 1203.24 428.796 1203.7 428.618 1204.21H428.503V1202.06H426.376V1215.44H428.618V1207.96C428.605 1207.26 428.773 1206.56 429.107 1205.94C429.416 1205.36 429.859 1204.87 430.4 1204.51C430.929 1204.14 431.556 1203.95 432.197 1203.96C432.531 1203.96 432.864 1203.99 433.189 1204.06C433.502 1204.13 433.806 1204.24 434.094 1204.38V1201.97C433.9 1201.84 433.693 1201.74 433.477 1201.66Z" fill="white"/>
<path d="M334.422 1234.68C334.422 1234.47 334.422 1234.25 334.321 1234.03H325.265V1236.09H332.223C332.17 1237.09 331.91 1238.07 331.461 1238.96C331.069 1239.71 330.527 1240.36 329.865 1240.89C329.226 1241.4 328.493 1241.77 327.709 1242C326.907 1242.23 326.073 1242.35 325.237 1242.34C324.253 1242.35 323.277 1242.17 322.363 1241.81C321.452 1241.45 320.624 1240.91 319.925 1240.23C319.226 1239.54 318.672 1238.73 318.294 1237.83C317.865 1236.83 317.649 1235.75 317.661 1234.66C317.645 1233.57 317.851 1232.49 318.266 1231.48C318.651 1230.57 319.212 1229.75 319.919 1229.06C320.607 1228.39 321.423 1227.86 322.32 1227.51C323.233 1227.15 324.21 1226.96 325.194 1226.97C325.888 1226.96 326.579 1227.05 327.25 1227.23C327.891 1227.39 328.505 1227.65 329.075 1227.99C329.62 1228.32 330.107 1228.74 330.513 1229.23L332.079 1227.66C331.257 1226.73 330.221 1226.02 329.061 1225.58C327.817 1225.08 326.49 1224.83 325.151 1224.83C323.858 1224.83 322.577 1225.08 321.385 1225.58C320.211 1226.05 319.145 1226.76 318.251 1227.66C316.876 1229.07 315.944 1230.85 315.572 1232.79C315.198 1234.72 315.4 1236.72 316.152 1238.54C316.65 1239.71 317.363 1240.76 318.251 1241.67C319.153 1242.55 320.216 1243.26 321.385 1243.74C322.579 1244.23 323.859 1244.48 325.151 1244.47C326.423 1244.49 327.687 1244.27 328.874 1243.81C329.946 1243.4 330.923 1242.77 331.749 1241.97C332.589 1241.16 333.245 1240.18 333.675 1239.1C334.147 1237.93 334.381 1236.68 334.365 1235.42C334.401 1235.17 334.42 1234.92 334.422 1234.68Z" fill="white"/>
<path d="M344.226 1230.32C343.912 1230.27 343.595 1230.24 343.277 1230.25C342.734 1230.25 342.196 1230.37 341.696 1230.58C341.165 1230.78 340.677 1231.08 340.259 1231.47C339.852 1231.82 339.545 1232.27 339.367 1232.78H339.267V1230.63H337.125V1244.03H339.367V1236.55C339.355 1235.85 339.522 1235.15 339.856 1234.53C340.162 1233.95 340.612 1233.46 341.163 1233.1C341.686 1232.73 342.309 1232.54 342.947 1232.55C343.28 1232.55 343.613 1232.59 343.938 1232.65C344.25 1232.72 344.554 1232.82 344.844 1232.96V1230.55C344.648 1230.45 344.441 1230.37 344.226 1230.32Z" fill="white"/>
<path d="M358.299 1233.76C357.737 1232.7 356.897 1231.8 355.869 1231.18C354.793 1230.53 353.55 1230.19 352.29 1230.22C351.058 1230.19 349.843 1230.51 348.78 1231.13C347.717 1231.74 346.847 1232.65 346.267 1233.73C345.698 1234.84 345.401 1236.07 345.401 1237.31C345.401 1238.56 345.698 1239.78 346.267 1240.89C346.727 1241.69 347.341 1242.39 348.073 1242.95C348.806 1243.51 349.641 1243.92 350.533 1244.16C351.426 1244.4 352.356 1244.46 353.272 1244.34C354.188 1244.22 355.07 1243.92 355.869 1243.46C356.896 1242.84 357.736 1241.95 358.299 1240.89C358.898 1239.78 359.206 1238.54 359.189 1237.28C359.194 1236.05 358.888 1234.84 358.299 1233.76ZM356.285 1240.08C355.891 1240.79 355.313 1241.38 354.611 1241.8C353.907 1242.21 353.106 1242.43 352.29 1242.43C351.468 1242.42 350.661 1242.21 349.951 1241.79C349.243 1241.38 348.654 1240.79 348.25 1240.08C347.825 1239.22 347.604 1238.28 347.604 1237.33C347.604 1236.38 347.825 1235.44 348.25 1234.59C348.654 1233.88 349.243 1233.28 349.951 1232.87C350.661 1232.46 351.468 1232.24 352.29 1232.24C353.106 1232.24 353.907 1232.46 354.611 1232.87C355.313 1233.28 355.891 1233.88 356.285 1234.59C356.72 1235.44 356.946 1236.38 356.946 1237.33C356.946 1238.29 356.72 1239.23 356.285 1240.08Z" fill="white"/>
<path d="M370.689 1230.64V1238.2C370.688 1238.9 370.526 1239.59 370.214 1240.22C369.913 1240.85 369.453 1241.4 368.878 1241.81C368.277 1242.23 367.557 1242.45 366.823 1242.42C365.977 1242.45 365.155 1242.14 364.537 1241.57C364.193 1241.18 363.934 1240.72 363.775 1240.23C363.616 1239.74 363.563 1239.22 363.618 1238.7V1230.62H361.374V1239.04C361.295 1240.47 361.74 1241.87 362.625 1242.98C363.098 1243.48 363.678 1243.87 364.324 1244.12C364.968 1244.37 365.659 1244.47 366.349 1244.42C366.967 1244.42 367.581 1244.3 368.159 1244.09C368.706 1243.88 369.22 1243.59 369.683 1243.23C370.099 1242.91 370.442 1242.51 370.689 1242.05H370.79V1244H372.931V1230.61L370.689 1230.64Z" fill="white"/>
<path d="M388.34 1233.66C387.808 1232.63 387.015 1231.76 386.041 1231.14C385.054 1230.52 383.912 1230.21 382.748 1230.22C382.076 1230.21 381.409 1230.33 380.779 1230.56C380.214 1230.78 379.684 1231.08 379.213 1231.45C378.799 1231.79 378.443 1232.19 378.164 1232.64H378.062V1230.64H375.936V1249.69H378.164V1243.96L378.062 1242.11H378.164C378.616 1242.8 379.227 1243.37 379.946 1243.77C380.793 1244.27 381.764 1244.53 382.748 1244.5C383.912 1244.52 385.057 1244.21 386.041 1243.59C387.018 1242.96 387.812 1242.09 388.34 1241.06C388.885 1239.92 389.169 1238.66 389.169 1237.39C389.169 1236.12 388.885 1234.86 388.34 1233.72V1233.66ZM386.314 1240.08C385.937 1240.8 385.372 1241.42 384.675 1241.85C384.026 1242.25 383.279 1242.46 382.518 1242.46C381.757 1242.46 381.012 1242.25 380.363 1241.85C379.663 1241.41 379.087 1240.8 378.695 1240.08C378.258 1239.24 378.041 1238.3 378.062 1237.35C378.041 1236.41 378.258 1235.48 378.695 1234.65C379.086 1233.93 379.655 1233.32 380.349 1232.88C380.997 1232.49 381.744 1232.28 382.504 1232.28C383.265 1232.28 384.012 1232.49 384.66 1232.88C385.352 1233.32 385.918 1233.93 386.299 1234.65C386.724 1235.48 386.938 1236.41 386.918 1237.35C386.942 1238.3 386.733 1239.23 386.314 1240.08Z" fill="white"/>
<path d="M400.472 1237.94C399.623 1237.21 398.597 1236.72 397.497 1236.51L395.556 1236.01C394.973 1235.87 394.415 1235.63 393.903 1235.32C393.692 1235.19 393.518 1235 393.4 1234.79C393.282 1234.57 393.222 1234.32 393.227 1234.07C393.22 1233.8 393.293 1233.52 393.439 1233.29C393.584 1233.05 393.795 1232.86 394.046 1232.74C394.633 1232.41 395.299 1232.24 395.972 1232.25C396.619 1232.24 397.258 1232.38 397.841 1232.66C398.448 1232.95 398.925 1233.46 399.179 1234.09L401.134 1233.2C400.887 1232.58 400.492 1232.04 399.983 1231.61C399.458 1231.17 398.853 1230.84 398.2 1230.64C397.499 1230.41 396.766 1230.3 396.031 1230.31C395.18 1230.31 394.337 1230.46 393.543 1230.77C392.812 1231.03 392.165 1231.49 391.675 1232.1C391.201 1232.68 390.951 1233.41 390.971 1234.16C390.953 1234.81 391.129 1235.45 391.474 1235.99C391.853 1236.5 392.344 1236.92 392.911 1237.21C393.474 1237.53 394.072 1237.77 394.693 1237.94L396.347 1238.36C396.892 1238.49 397.424 1238.67 397.943 1238.89C398.324 1239.04 398.667 1239.28 398.949 1239.58C399.09 1239.77 399.189 1239.99 399.241 1240.22C399.292 1240.45 399.295 1240.69 399.25 1240.93C399.203 1241.16 399.11 1241.38 398.974 1241.58C398.838 1241.78 398.663 1241.94 398.46 1242.07C397.828 1242.42 397.113 1242.59 396.39 1242.57C395.58 1242.58 394.783 1242.35 394.104 1241.91C393.42 1241.45 392.885 1240.81 392.567 1240.05L390.568 1240.94C390.826 1241.6 391.206 1242.21 391.689 1242.74C392.22 1243.3 392.861 1243.74 393.573 1244.04C394.416 1244.39 395.321 1244.55 396.231 1244.53C397.152 1244.54 398.064 1244.37 398.919 1244.03C399.679 1243.73 400.345 1243.24 400.845 1242.6C401.318 1241.97 401.565 1241.2 401.55 1240.42C401.56 1239.95 401.469 1239.49 401.282 1239.06C401.097 1238.64 400.82 1238.25 400.472 1237.94Z" fill="white"/>
<path d="M323.214 1273.63C321.649 1273.63 320.215 1273.16 318.91 1272.21C317.607 1271.26 316.712 1269.93 316.227 1268.23L318.491 1267.31C318.808 1268.5 319.395 1269.47 320.251 1270.23C321.109 1270.99 322.115 1271.37 323.27 1271.37C324.426 1271.37 325.404 1271.07 326.204 1270.45C327.006 1269.82 327.406 1268.97 327.406 1267.89C327.406 1266.96 327.062 1266.2 326.372 1265.61C325.701 1265 324.593 1264.43 323.046 1263.91L321.789 1263.46C320.373 1262.96 319.217 1262.3 318.323 1261.49C317.429 1260.67 316.982 1259.54 316.982 1258.09C316.982 1257.14 317.243 1256.27 317.764 1255.47C318.286 1254.65 319.013 1254 319.944 1253.52C320.876 1253.04 321.919 1252.8 323.074 1252.8C324.23 1252.8 325.236 1253.01 326.092 1253.44C326.95 1253.86 327.629 1254.38 328.132 1255C328.655 1255.61 329.018 1256.21 329.222 1256.81L326.987 1257.75C326.801 1257.07 326.372 1256.44 325.701 1255.89C325.049 1255.33 324.183 1255.05 323.102 1255.05C322.078 1255.05 321.202 1255.34 320.475 1255.92C319.748 1256.49 319.385 1257.22 319.385 1258.09C319.385 1258.87 319.692 1259.51 320.307 1260.01C320.922 1260.49 321.855 1260.95 323.102 1261.37L324.416 1261.82C326.111 1262.43 327.434 1263.2 328.384 1264.13C329.334 1265.04 329.809 1266.29 329.809 1267.86C329.809 1269.14 329.474 1270.22 328.803 1271.09C328.152 1271.97 327.322 1272.61 326.316 1273.02C325.31 1273.42 324.276 1273.63 323.214 1273.63ZM337.576 1273.63C335.862 1273.63 334.549 1273.13 333.635 1272.13C332.741 1271.12 332.294 1269.72 332.294 1267.92V1258.98H334.669V1267.56C334.669 1268.91 334.977 1269.91 335.592 1270.54C336.207 1271.17 337.036 1271.48 338.079 1271.48C338.881 1271.48 339.588 1271.27 340.203 1270.84C340.837 1270.42 341.321 1269.86 341.656 1269.17C342.011 1268.49 342.187 1267.76 342.187 1267V1258.98H344.563V1273.18H342.299V1271.12H342.187C341.796 1271.83 341.172 1272.42 340.315 1272.9C339.459 1273.39 338.545 1273.63 337.576 1273.63ZM354.391 1273.63C353.013 1273.63 351.773 1273.3 350.674 1272.65C349.575 1271.99 348.718 1271.09 348.103 1269.95C347.488 1268.8 347.181 1267.51 347.181 1266.08C347.181 1264.65 347.488 1263.36 348.103 1262.21C348.718 1261.06 349.575 1260.16 350.674 1259.51C351.773 1258.86 353.013 1258.53 354.391 1258.53C355.937 1258.53 357.233 1258.9 358.276 1259.62C359.338 1260.33 360.092 1261.27 360.539 1262.46L358.388 1263.35C358.033 1262.48 357.502 1261.82 356.795 1261.37C356.105 1260.91 355.266 1260.68 354.279 1260.68C353.441 1260.68 352.658 1260.91 351.932 1261.37C351.205 1261.82 350.618 1262.45 350.171 1263.27C349.743 1264.09 349.528 1265.02 349.528 1266.08C349.528 1267.14 349.743 1268.08 350.171 1268.89C350.618 1269.71 351.205 1270.35 351.932 1270.82C352.658 1271.26 353.441 1271.48 354.279 1271.48C355.285 1271.48 356.152 1271.25 356.878 1270.79C357.605 1270.32 358.145 1269.66 358.499 1268.81L360.623 1269.7C360.139 1270.87 359.357 1271.82 358.276 1272.54C357.214 1273.27 355.919 1273.63 354.391 1273.63ZM363.055 1258.98H365.318V1261.26H365.43C365.71 1260.48 366.251 1259.84 367.051 1259.34C367.853 1258.82 368.691 1258.56 369.566 1258.56C370.219 1258.56 370.778 1258.65 371.243 1258.84V1261.4C370.647 1261.11 369.977 1260.96 369.231 1260.96C368.542 1260.96 367.909 1261.15 367.331 1261.54C366.754 1261.93 366.288 1262.46 365.933 1263.13C365.598 1263.78 365.43 1264.48 365.43 1265.25V1273.18H363.055V1258.98ZM379.033 1273.63C377.673 1273.63 376.453 1273.3 375.372 1272.65C374.292 1272 373.443 1271.11 372.828 1269.98C372.233 1268.83 371.934 1267.54 371.934 1266.11C371.934 1264.74 372.214 1263.47 372.773 1262.32C373.351 1261.17 374.161 1260.25 375.204 1259.56C376.248 1258.88 377.459 1258.53 378.837 1258.53C380.234 1258.53 381.446 1258.85 382.47 1259.48C383.495 1260.09 384.278 1260.95 384.818 1262.04C385.377 1263.14 385.656 1264.39 385.656 1265.8C385.656 1266.08 385.628 1266.32 385.572 1266.53H374.31C374.366 1267.6 374.627 1268.51 375.092 1269.26C375.558 1270 376.145 1270.56 376.853 1270.93C377.579 1271.3 378.334 1271.48 379.117 1271.48C380.943 1271.48 382.349 1270.63 383.336 1268.92L385.349 1269.9C384.734 1271.05 383.895 1271.96 382.833 1272.63C381.791 1273.29 380.524 1273.63 379.033 1273.63ZM383.141 1264.58C383.104 1263.98 382.936 1263.39 382.638 1262.79C382.341 1262.2 381.865 1261.7 381.213 1261.29C380.58 1260.88 379.778 1260.68 378.809 1260.68C377.691 1260.68 376.741 1261.04 375.959 1261.76C375.195 1262.47 374.692 1263.41 374.449 1264.58H383.141Z" fill="white"/>
<mask id="path-71-inside-1_2098_337" fill="white">
<path d="M1016 1072C1016 1094.09 998.091 1112 976 1112H530C507.909 1112 490 1129.91 490 1152V1627C490 1649.09 472.091 1667 450 1667H102C79.9086 1667 62 1649.09 62 1627V938.5C62 938.224 62.2239 938 62.5 938C62.7761 938 63 937.776 63 937.5V369C63 346.909 80.9086 329 103 329H669C691.091 329 709 311.091 709 289V114C709 91.9086 726.909 74 749 74H976C998.091 74 1016 91.9086 1016 114V1072Z"/>
</mask>
<path d="M976 1112V1107H530V1112V1117H976V1112ZM490 1152H485V1627H490H495V1152H490ZM450 1667V1662H102V1667V1672H450V1667ZM62 1627H67V938.5H62H57V1627H62ZM63 937.5H68V369H63H58V937.5H63ZM103 329V334H669V329V324H103V329ZM709 289H714V114H709H704V289H709ZM749 74V79H976V74V69H749V74ZM1016 114H1011V1072H1016H1021V114H1016ZM976 74V79C995.33 79 1011 94.67 1011 114H1016H1021C1021 89.1472 1000.85 69 976 69V74ZM709 114H714C714 94.67 729.67 79 749 79V74V69C724.147 69 704 89.1472 704 114H709ZM669 329V334C693.853 334 714 313.853 714 289H709H704C704 308.33 688.33 324 669 324V329ZM63 369H68C68 349.67 83.67 334 103 334V329V324C78.1472 324 58 344.147 58 369H63ZM62.5 938V943C65.5376 943 68 940.538 68 937.5H63H58C58 935.015 60.0147 933 62.5 933V938ZM62 938.5H67C67 940.985 64.9853 943 62.5 943V938V933C59.4624 933 57 935.462 57 938.5H62ZM102 1667V1662C82.67 1662 67 1646.33 67 1627H62H57C57 1651.85 77.1472 1672 102 1672V1667ZM490 1627H485C485 1646.33 469.33 1662 450 1662V1667V1672C474.853 1672 495 1651.85 495 1627H490ZM530 1112V1107C505.147 1107 485 1127.15 485 1152H490H495C495 1132.67 510.67 1117 530 1117V1112ZM976 1112V1117C1000.85 1117 1021 1096.85 1021 1072H1016H1011C1011 1091.33 995.33 1107 976 1107V1112Z" fill="white" mask="url(#path-71-inside-1_2098_337)"/>
<mask id="mask0_2098_337" style="mask-type:alpha" maskUnits="userSpaceOnUse" x="146" y="1534" width="265" height="121">
<rect x="146" y="1534" width="265" height="121" fill="white"/>
</mask>
<g mask="url(#mask0_2098_337)">
<path d="M285.042 1754.21C345.279 1754.21 394.11 1708.09 394.11 1651.19C394.11 1594.3 345.279 1548.18 285.042 1548.18C224.805 1548.18 175.973 1594.3 175.973 1651.19C175.973 1708.09 224.805 1754.21 285.042 1754.21Z" stroke="white" stroke-width="5" stroke-linejoin="round"/>
<path d="M285.042 1754.21C311.043 1754.21 332.122 1708.09 332.122 1651.19C332.122 1594.3 311.043 1548.18 285.042 1548.18C259.04 1548.18 237.961 1594.3 237.961 1651.19C237.961 1708.09 259.04 1754.21 285.042 1754.21Z" stroke="white" stroke-width="5" stroke-linejoin="round"/>
<path d="M183.63 1613.01H386.374" stroke="white" stroke-width="5" stroke-linejoin="round"/>
</g>
<rect x="112" y="758" width="860" height="157" rx="78.5" fill="#232323"/>
<path d="M211.07 500.262V484.911C211.067 479.191 208.819 473.706 204.819 469.661C200.819 465.617 195.394 463.343 189.737 463.341H170.702C168.937 456.605 164.808 450.75 159.086 446.867C153.365 442.984 146.441 441.34 139.608 442.241C132.774 443.142 126.499 446.527 121.954 451.764C117.408 457.001 114.903 463.731 114.905 470.699V488.752C109.296 490.187 104.399 493.646 101.135 498.477C97.8711 503.308 96.4657 509.179 97.1831 514.984C97.9006 520.79 100.691 526.13 105.031 530C109.37 533.871 114.958 536.004 120.744 536H207.099C211.5 536.002 215.748 534.363 219.029 531.398C222.311 528.432 224.397 524.348 224.888 519.926C225.379 515.504 224.242 511.053 221.692 507.426C219.143 503.798 215.361 501.248 211.07 500.262Z" stroke="white" stroke-width="5" stroke-miterlimit="10"/>
<defs>
<clipPath id="clip0_2098_337">
<rect width="160" height="91" fill="white" transform="translate(193 1310)"/>
</clipPath>
</defs>
</svg>
