<svg width="590" height="170" viewBox="0 0 590 170" fill="none" xmlns="http://www.w3.org/2000/svg">
<path d="M92.0397 68.0771V68.0215H91.9785V68.0771H92.0397Z" fill="#E5E5E3"/>
<path d="M73.5479 68.0627C68.3532 68.0627 63.1509 68.1392 57.9561 68.0627C55.9191 68.014 55.1392 68.5288 55.2149 70.5049C55.3663 74.4639 55.1543 78.4368 55.3058 82.4028C55.3815 84.3788 54.8514 85.1859 52.5191 85.0606C48.2103 84.8867 43.8864 85.0606 39.5701 84.9771C37.5785 84.9284 36.7229 85.3737 36.7986 87.3915C36.95 91.4549 36.9652 95.5322 36.7986 99.6025C36.7153 101.641 37.5558 102.003 39.5625 101.989C50.785 101.906 62.0074 101.933 73.2298 101.919C73.404 101.676 73.6766 101.439 73.6766 101.224C73.6514 90.1515 73.6085 79.0978 73.5479 68.0627Z" fill="#E5E5E3"/>
<path d="M73.2188 101.885V101.927H73.3551C73.3551 101.927 73.3551 101.927 73.3551 101.885H73.2188Z" fill="#E5E5E3"/>
<path d="M515.522 132.896C515.59 123.948 515.522 114.993 515.605 106.045C515.605 104.654 514.901 103.054 516.362 101.808C516.838 101.927 517.331 101.974 517.824 101.947C522.98 101.885 528.145 101.857 533.309 101.815C534.642 101.119 533.892 99.9851 533.953 99.0737C534.248 94.3702 533.514 89.6319 534.354 84.9354H551.718C552.627 85.812 552.248 86.9114 552.256 87.9063C552.301 91.8584 552.362 95.8104 552.256 99.7347C552.195 101.509 552.831 102.045 554.739 101.982C558.579 101.85 562.426 101.982 566.272 101.933C571.46 101.885 570.574 102.566 570.816 97.8213C571.02 93.5213 570.059 89.1727 571.369 84.9145H588.589C588.778 84.824 589.126 84.7336 589.126 84.6362C589.187 79.6265 589.187 74.6169 589.27 69.6073C589.27 67.9722 588.157 68.0974 586.998 68.0974C582.341 68.0974 577.684 68.1879 573.027 68.0557C571.02 68 570.521 68.6888 570.566 70.4004C570.664 74.4708 570.498 78.5411 570.634 82.6114C570.702 84.5666 569.937 85.1093 567.893 85.0467C563.577 84.9214 559.253 84.8867 554.944 85.0467C552.672 85.1371 552.331 84.3509 552.392 82.521C552.521 78.6594 552.256 74.7908 552.49 70.9362C552.642 68.487 551.665 68.007 549.204 68.0348C538.981 68.1531 528.758 68.0348 518.528 68.1391C516.089 68.1391 515.499 67.5199 515.552 65.356C515.681 55.9629 515.552 46.5699 515.665 37.1698C515.665 34.8877 515.15 34.1432 512.515 34.178C501.293 34.3241 490.063 34.2545 478.84 34.2615C478.84 34.4632 478.84 34.665 478.84 34.8668C478.84 35.1173 478.84 35.3608 478.84 35.6043C478.795 39.8416 478.772 44.0859 478.674 48.3232C478.674 49.3043 479.136 50.4106 478.121 51.2455C478.121 56.8489 478.121 62.4476 478.121 68.0417C479.227 73.6915 478.802 79.3621 478.341 85.0328L478.121 85.0745L460.409 84.8867C460.538 79.2508 459.796 73.5941 460.825 67.9791H478.053C478.053 62.3804 478.053 56.7816 478.053 51.1829C472.964 51.1829 467.868 51.0507 462.779 51.1342C460.924 51.1342 460.197 50.7585 460.257 48.9147C460.409 44.74 460.394 40.5653 460.257 36.4323C460.197 34.6372 460.848 34.1362 462.756 34.1641C467.845 34.2475 472.941 34.1641 478.03 34.1014H478.704C478.992 28.4586 478.106 22.795 479.166 17.173C478.774 17.3869 478.464 17.708 478.28 18.0915C478.474 17.7165 478.792 17.4073 479.189 17.2078L496.469 17.1661C497.696 16.7138 497.09 15.7258 497.105 15.0091C497.181 11.4607 497.166 7.9052 497.105 4.35671C497.06 -0.179801 497.749 0.348994 492.774 0.348994H114.793C114.225 0.383812 113.656 0.383812 113.089 0.348994C110.931 0.0637229 110.393 0.982157 110.431 2.84686C110.529 7.6408 110.431 12.4417 110.393 17.2426C105.092 17.2426 99.7386 17.3122 94.4151 17.2426C92.6431 17.2426 92.0146 17.7575 92.0525 19.3995C92.1509 23.4629 91.9843 27.5263 92.1282 31.5897C92.1964 33.5518 91.689 34.3728 89.3567 34.2406C85.0555 34.0597 80.7392 34.3032 76.438 34.1432C74.1662 34.0597 73.5832 34.7624 73.6059 36.7802C73.6967 47.2169 73.6059 57.5841 73.6059 67.9861H91.9465C92.5295 57.9181 92.0222 47.8432 92.2115 37.7682C92.2115 36.5436 91.8632 35.2634 92.6734 34.1154C92.6734 31.4064 92.6734 28.7045 92.6734 26.0095V34.1501C103.676 34.1501 114.687 34.2963 125.697 34.1501C128.234 34.1501 129.014 34.7207 128.908 37.0376C128.718 40.9966 128.756 44.9696 128.908 48.9286C128.976 50.7376 128.287 51.169 126.409 51.1412C121.313 51.0646 116.201 51.1899 111.105 51.2386C109.825 51.9344 110.507 53.0963 110.484 54.0217C110.378 58.6835 110.393 63.3452 110.37 68.0069L92.0298 68.0557C92.0298 78.5411 92.0298 89.0266 92.1282 99.5051C92.1282 101.46 91.5148 101.961 89.4551 101.912C84.0711 101.794 78.687 101.912 73.3105 101.912C73.9239 102.977 73.621 104.132 73.6286 105.238C73.6286 114.402 73.7346 123.558 73.5832 132.722C73.5453 135.108 74.1662 135.867 76.8848 135.832C87.1909 135.679 97.5047 135.755 107.811 135.79C108.871 135.79 110.522 135.164 110.454 137.182C110.279 142.365 110.87 147.563 110.136 152.739C110.082 152.693 110.012 152.668 109.939 152.668C109.866 152.668 109.795 152.693 109.742 152.739C104.638 152.705 99.5417 152.739 94.4378 152.6C92.7264 152.6 91.9995 153.011 92.0449 154.688C92.1509 158.96 92.1509 163.234 92.0449 167.511C92.0449 169.209 92.7189 169.598 94.4302 169.598C99.5265 169.487 104.63 169.501 109.734 169.459H111.802C113.157 169.501 114.52 169.57 115.883 169.57H459.462C464.763 169.57 470.147 169.466 475.478 169.619C477.864 169.682 478.962 169.313 478.795 166.78C478.537 162.828 478.795 158.848 478.681 154.882C478.628 153.094 479.257 152.565 481.173 152.621C485.481 152.739 489.813 152.538 494.122 152.705C496.393 152.788 497.151 152.301 497.234 150.04C497.431 145.225 496.174 140.299 497.809 135.574C498.284 135.714 498.782 135.77 499.279 135.741L514.885 135.609C516.233 134.983 515.522 133.786 515.522 132.896ZM478.727 50.7933C484.656 51.6213 490.623 51.009 496.575 51.1203C497.575 56.3874 496.833 61.6892 496.984 66.9702C497.022 68.4801 495.613 68.0487 494.712 68.0557C490.169 68.0974 485.625 67.9861 481.082 68.1183C479.068 68.1809 478.621 67.506 478.659 65.7944C478.795 60.7778 478.727 55.7751 478.727 50.7933ZM478.772 74.9996C478.886 78.3532 479.105 81.7069 478.28 85.0258C479.105 81.686 478.886 78.3324 478.772 74.9787V74.9996ZM469.185 85.7564C467.706 85.7714 466.228 85.7133 464.756 85.5824C466.228 85.7063 467.707 85.7574 469.185 85.7355V85.7564ZM478.053 85.0606C477.455 85.1441 476.864 85.2137 476.266 85.2832C476.864 85.1998 477.455 85.1302 478.053 85.0467V85.0606ZM475.834 85.3389C474.539 85.485 473.237 85.5894 471.942 85.659C473.237 85.5824 474.539 85.4711 475.834 85.325V85.3389ZM461.515 136.235C461.805 136.318 462.105 136.369 462.408 136.389C462.092 136.37 461.779 136.316 461.477 136.228L461.515 136.235ZM459.599 73.2949C459.53 73.9907 459.493 74.6865 459.47 75.3405C459.47 74.6447 459.53 73.9489 459.599 73.2949C459.667 72.6409 459.78 71.9033 459.924 71.2076C459.743 71.8755 459.652 72.5782 459.561 73.2879L459.599 73.2949ZM478.121 18.7525C478.145 18.6087 478.18 18.4669 478.227 18.328C478.168 18.4636 478.12 18.6032 478.083 18.7455L478.121 18.7525ZM126.454 85.0258C127.696 85.0258 128.984 84.8101 128.953 86.64C128.87 91.4409 128.953 96.2349 128.87 101.029C128.87 101.356 128.438 101.683 128.211 102.01C123.244 101.968 118.268 101.843 113.301 101.94C111.264 101.982 110.469 101.495 110.613 99.5259C110.984 94.6902 110.083 89.785 111.135 84.9771L126.454 85.0258ZM110.719 67.6312C110.633 67.7628 110.537 67.8884 110.431 68.0069C110.523 67.8963 110.606 67.78 110.681 67.6591L110.719 67.6312ZM108.114 118.855C103.57 118.73 99.0646 118.855 94.5362 118.799C93.62 118.799 92.2645 119.161 92.3251 117.644C92.4917 112.37 91.742 107.075 92.7567 101.822C98.6708 101.822 104.593 102.26 110.499 101.599C110.499 106.588 110.438 111.584 110.567 116.573C110.56 118.326 110.014 118.917 108.061 118.862L108.114 118.855ZM110.499 86.3895C110.568 85.8783 110.794 85.3956 111.15 84.998C110.773 85.3918 110.529 85.8776 110.446 86.3965L110.499 86.3895ZM494.485 135.79C483.126 135.672 471.768 135.7 460.409 135.679C460.409 130.774 460.409 125.868 460.326 120.97C460.288 119.349 460.81 118.778 462.597 118.827C466.793 118.938 471.003 118.702 475.19 118.917C477.932 119.057 478.977 118.479 478.795 115.745C478.515 111.904 478.795 108.028 478.689 104.174C478.621 102.393 479.227 101.857 481.165 101.892C486.269 101.982 491.38 101.892 496.484 101.836C497.242 102.532 497.029 103.388 497.029 104.202C497.029 113.908 496.992 123.607 497.082 133.313C497.098 135.192 496.583 135.804 494.432 135.783L494.485 135.79ZM497.196 67.7008C503.095 68.5914 509.024 67.9861 514.946 68.0139C515.832 68.7654 515.514 69.7603 515.522 70.6648C515.522 80.2388 515.461 89.8128 515.59 99.3868C515.59 101.474 514.901 102.017 512.735 101.94C508.555 101.794 504.352 101.773 500.172 101.94C497.832 102.038 497.105 101.474 497.143 99.2267C497.219 88.7204 497.143 78.2071 497.143 67.6938L497.196 67.7008Z" fill="#E5E5E3"/>
<path d="M478.795 34.2336V34.1641H478.727V34.2336H478.795Z" fill="#E5E5E3"/>
<path d="M73.6385 68.0068H73.5469V68.0625H73.6385V68.0068Z" fill="#E5E5E3"/>
<path d="M533.863 36.2172C533.863 40.2806 534 44.3579 533.81 48.4143C533.712 50.5782 534.356 51.2392 536.786 51.1974C547.115 51.0722 557.442 51.0722 567.765 51.1974C570.158 51.1974 570.794 50.606 570.794 48.4143C570.794 43.7734 570.234 39.1047 571.135 34.4986C559.277 33.8446 547.41 34.4151 535.544 34.1994C533.803 34.1646 533.863 35.1109 533.863 36.2172Z" fill="#E5E5E3"/>
<path d="M571.157 34.4424C571.153 34.4608 571.153 34.4796 571.157 34.498H571.241L571.157 34.4424Z" fill="#E5E5E3"/>
<path d="M570.794 132.819C570.597 128.965 570.635 125.096 570.794 121.242C570.869 119.293 570.158 118.772 568.09 118.785C557.524 118.874 546.963 118.874 536.407 118.785C534.582 118.785 533.772 119.112 533.84 120.991C533.976 125.166 533.969 129.34 533.84 133.515C533.787 135.282 534.362 135.86 536.316 135.811C541.617 135.7 546.993 135.776 552.332 135.776C557.436 135.776 562.555 135.63 567.659 135.839C570.317 135.943 570.907 135.081 570.794 132.819Z" fill="#E5E5E3"/>
<path d="M55.3568 134.927C55.3568 130.057 55.3568 125.124 55.4022 120.218C55.4022 118.514 54.1376 118.827 53.0547 118.827C42.3851 118.827 31.7154 118.827 21.0458 118.785C19.1602 118.785 18.4409 119.251 18.4939 121.06C18.615 124.922 18.3954 128.784 18.5772 132.638C18.6907 134.969 18.138 135.964 15.2983 135.797C11.0047 135.56 6.68077 135.797 2.36444 135.707C0.615197 135.679 0.00182493 136.18 0.00182493 137.836C0.100267 142.115 0.10784 146.394 0.00182493 150.666C-0.04361 152.412 0.759074 152.753 2.44017 152.712C6.98367 152.642 11.5272 152.6 16.0707 152.712C18.138 152.767 18.8725 152.218 18.8043 150.269C18.6605 146.31 18.7286 142.337 18.8043 138.378C18.8043 137.425 18.297 136.221 19.7282 135.637H54.5238C54.6307 135.647 54.7387 135.636 54.8405 135.604C54.9424 135.573 55.0358 135.522 55.1146 135.455C55.1934 135.388 55.2558 135.306 55.2975 135.215C55.3393 135.124 55.3595 135.026 55.3568 134.927Z" fill="#E5E5E3"/>
<path d="M2.34747 101.955C7.11814 101.871 11.8863 101.871 16.6519 101.955C18.3482 101.989 18.7949 101.37 18.7722 99.9367C18.7041 95.6577 18.6965 91.3786 18.7722 87.1065C18.7722 85.5131 18.2497 84.8522 16.4323 84.9426C14.0545 85.0609 11.6616 84.9426 9.28388 84.9426C6.90611 84.9426 4.74038 85.047 2.46863 84.9426C0.469495 84.8243 0 85.5827 0 87.3083C0.106015 91.483 0.106015 95.6577 0 99.8324C0 101.481 0.590655 101.989 2.34747 101.955Z" fill="#E5E5E3"/>
<path d="M588.588 153.15C586.672 151.474 582.742 152.865 579.501 152.587C576.836 152.963 573.064 151.474 571.171 153.178C569.278 154.883 570.588 158.327 570.611 161.006C570.634 163.685 569.248 167.414 571.217 169.098C573.186 170.782 577.07 169.571 580.107 169.564C583.03 169.564 586.816 170.733 588.634 169.084C590.451 167.435 589.179 163.942 589.171 161.263C589.164 158.585 590.519 154.848 588.588 153.15Z" fill="#E5E5E3"/>
<path d="M533.439 153.254C531.508 151.466 527.623 152.719 524.601 152.698C521.58 152.677 517.885 151.515 516.067 153.171C514.25 154.827 515.514 158.327 515.53 161.005C515.545 163.684 514.182 167.441 516.12 169.111C518.059 170.781 521.966 169.591 525.003 169.557C527.911 169.557 531.818 170.774 533.439 168.979C534.832 167.469 533.726 164.018 533.726 161.423H533.969C533.969 161.319 533.969 161.214 533.969 161.11C533.81 158.424 535.203 154.896 533.439 153.254Z" fill="#E5E5E3"/>
<path d="M73.1815 153.283C71.4019 151.383 67.2219 152.733 64.0945 152.698C61.2926 152.698 57.7033 151.557 55.8783 153.165C54.0533 154.772 55.2801 158.119 55.2801 160.686C55.2801 163.567 53.8716 167.275 55.8935 169.098C57.7411 170.768 61.7318 169.585 64.7684 169.557C67.6763 169.557 71.5837 170.775 73.2042 168.987C74.5975 167.484 73.4919 164.026 73.4919 161.437C73.4919 158.64 74.6884 154.89 73.1815 153.283Z" fill="#E5E5E3"/>
<path d="M586.727 34.2757C588.56 34.2757 589.325 33.9139 589.257 32.0631C589.12 27.8884 589.135 23.7137 589.257 19.5877C589.31 17.8483 588.764 17.1733 586.796 17.2568C583.767 17.389 580.685 17.2916 577.633 17.2916C570.575 17.2916 570.447 17.2916 570.621 23.7763C570.719 27.3318 569.795 30.9499 571.219 34.4357C576.376 34.3662 581.571 34.234 586.727 34.2757Z" fill="#E5E5E3"/>
<path d="M571.148 34.4355L571.232 34.4982V34.4355H571.148Z" fill="#E5E5E3"/>
<path d="M516.061 16.8394C517.886 18.5092 521.657 17.0968 524.012 17.3403C527.041 17.3403 529.54 17.2916 532.023 17.3403C533.47 17.3821 534.053 16.9437 533.992 15.5591C533.901 13.2769 534.045 10.9878 533.947 8.69869C533.833 6.03384 535.211 2.58276 533.364 0.898964C531.516 -0.784831 527.806 0.411916 524.86 0.418874C521.914 0.425832 517.901 -0.805705 516.061 0.926796C514.22 2.6593 515.523 6.26345 515.531 9.04658C515.531 11.7114 514.251 15.1695 516.061 16.8394Z" fill="#E5E5E3"/>
<path d="M19.0476 50.9467C30.6032 51.0163 42.1513 51.065 53.7069 51.1694C55.1154 51.1694 55.4107 50.5919 55.3956 49.4578C55.3198 38.9514 55.2466 28.4405 55.176 17.9249C54.5399 16.749 53.3661 17.3404 52.4726 17.3195C48.6106 17.243 44.7411 17.1178 40.8942 17.3195C37.9107 17.5004 36.6688 16.8325 36.9187 13.8406C37.2216 10.1043 36.9187 6.33311 37.0247 2.58284C37.108 0.773807 36.3507 0.293716 34.4879 0.335463C29.9444 0.446789 25.4009 0.432873 20.8574 0.335463C19.0855 0.335463 18.4645 0.857301 18.4948 2.48543C18.5857 6.66013 18.6387 10.8348 18.4948 15.0095C18.4115 17.0969 19.3353 17.4309 21.289 17.3821C25.719 17.2778 30.1489 17.4239 34.5712 17.3195C36.3735 17.2778 36.9111 17.8275 36.843 19.4556C36.7294 24.3261 36.7672 29.2592 36.7445 34.1575L36.0554 34.3245C30.9465 34.2827 25.8376 34.2456 20.7287 34.2131C19.7215 34.2131 18.4569 34.0601 18.5478 35.4864C18.8128 40.6352 17.8663 45.8188 19.0476 50.9467Z" fill="#E5E5E3"/>
</svg>
