<svg width="421" height="171" viewBox="0 0 421 171" fill="none" xmlns="http://www.w3.org/2000/svg">
<path d="M368.782 36.3476C368.782 40.4257 368.908 44.5177 368.733 48.5888C368.643 50.7605 369.236 51.4239 371.478 51.382C381.003 51.2563 390.525 51.2563 400.045 51.382C402.252 51.382 402.838 50.7885 402.838 48.5888C402.838 43.9312 402.322 39.2456 403.153 34.6228C392.217 33.9664 381.275 34.539 370.332 34.3226C368.726 34.2877 368.782 35.2373 368.782 36.3476Z" fill="#EAB744"/>
<path d="M402.839 133.3C402.657 129.431 402.692 125.549 402.839 121.68C402.908 119.725 402.252 119.201 400.346 119.215C390.602 119.304 380.863 119.304 371.129 119.215C369.446 119.215 368.699 119.543 368.761 121.429C368.887 125.619 368.88 129.808 368.761 133.998C368.713 135.772 369.243 136.351 371.045 136.302C375.933 136.191 380.891 136.268 385.814 136.268C390.521 136.268 395.241 136.121 399.948 136.33C402.399 136.435 402.943 135.569 402.839 133.3Z" fill="#EAB744"/>
<path d="M419.248 153.704C417.482 152.021 413.857 153.418 410.869 153.139C408.411 153.516 404.933 152.021 403.187 153.732C401.442 155.443 402.65 158.9 402.671 161.588C402.692 164.277 401.414 168.019 403.229 169.709C405.045 171.399 408.627 170.184 411.427 170.177C414.123 170.177 417.614 171.35 419.29 169.695C420.966 168.04 419.793 164.535 419.786 161.846C419.779 159.158 421.029 155.408 419.248 153.704Z" fill="#EAB744"/>
<path d="M368.392 153.809C366.611 152.014 363.029 153.271 360.243 153.25C357.457 153.229 354.049 152.063 352.373 153.725C350.697 155.387 351.863 158.899 351.877 161.588C351.891 164.276 350.634 168.047 352.422 169.723C354.21 171.399 357.813 170.205 360.613 170.17C363.294 170.17 366.898 171.392 368.392 169.59C369.677 168.075 368.657 164.611 368.657 162.007H368.881C368.881 161.902 368.881 161.797 368.881 161.693C368.734 158.997 370.019 155.457 368.392 153.809Z" fill="#EAB744"/>
<path d="M417.532 34.3998C419.222 34.3998 419.927 34.0366 419.864 32.1792C419.738 27.9894 419.752 23.7996 419.864 19.6587C419.913 17.9129 419.41 17.2356 417.595 17.3194C414.801 17.452 411.959 17.3543 409.145 17.3543C402.637 17.3543 402.518 17.3543 402.679 23.8624C402.77 27.4307 401.918 31.0619 403.231 34.5604C407.986 34.4905 412.776 34.3579 417.532 34.3998Z" fill="#EAB744"/>
<path d="M352.367 16.9002C354.05 18.5762 357.527 17.1586 359.699 17.403C362.492 17.403 364.797 17.3541 367.087 17.403C368.421 17.4449 368.958 17.005 368.903 15.6154C368.819 13.325 368.951 11.0275 368.861 8.73014C368.756 6.05566 370.027 2.5921 368.323 0.902214C366.619 -0.787669 363.197 0.413405 360.481 0.420388C357.765 0.427371 354.064 -0.808618 352.367 0.930146C350.67 2.66891 351.871 6.2861 351.878 9.07929C351.878 11.7538 350.698 15.2243 352.367 16.9002Z" fill="#EAB744"/>
<path fill-rule="evenodd" clip-rule="evenodd" d="M330.978 0.052196C335.567 0.0521583 334.931 -0.478727 334.973 4.07563C335.029 7.63809 335.043 11.2075 334.973 14.77C334.959 15.4894 335.518 16.4819 334.387 16.936L318.444 16.978C318.434 16.9836 318.424 16.9898 318.414 16.9956C317.45 22.6223 318.262 28.2905 317.997 33.9379H317.375C312.68 34.0008 307.979 34.0852 303.284 34.0014C301.524 33.9735 300.924 34.4766 300.979 36.2788C301.105 40.4279 301.119 44.619 300.979 48.81C300.924 50.6612 301.594 51.0385 303.306 51.0385C308 50.9547 312.702 51.0874 317.396 51.0874V67.9506H301.503C300.553 73.5879 301.238 79.2671 301.119 84.9252L317.219 85.1108C316.727 85.1832 316.24 85.2488 315.747 85.3237C316.271 85.2574 316.788 85.19 317.312 85.1118L317.459 85.1137L317.662 85.0717C317.673 84.9314 317.682 84.7911 317.692 84.6508C318.107 82.6281 318.185 80.5937 318.159 78.5541C318.184 80.5881 318.105 82.6196 317.692 84.6469C317.899 81.8758 318.088 79.1048 318.103 76.3364C318.088 75.8906 318.073 75.4443 318.06 74.9985V74.978C318.073 75.4239 318.088 75.8699 318.103 76.3159C318.116 73.545 317.956 70.7765 317.459 68.0131V51.1508C318.395 50.3126 317.969 49.2012 317.969 48.2163C318.06 43.9622 318.081 39.7008 318.123 35.4467V34.0991C328.476 34.0921 338.836 34.1618 349.189 34.0151C351.621 33.9802 352.096 34.7278 352.096 37.019C351.991 46.4563 352.11 55.8866 351.991 65.3168C351.942 67.4893 352.487 68.1107 354.736 68.1108C364.174 68.006 373.606 68.125 383.037 68.0063C385.307 67.9784 386.209 68.4606 386.069 70.9194C385.853 74.7893 386.097 78.6733 385.979 82.5502C385.923 84.3872 386.237 85.1761 388.332 85.0854C392.307 84.9247 396.296 84.9597 400.278 85.0854C402.164 85.1483 402.87 84.6039 402.808 82.6411C402.682 78.5546 402.835 74.4678 402.744 70.3813C402.702 68.6631 403.164 67.972 405.015 68.0278C409.311 68.1605 413.608 68.0688 417.904 68.0688C418.973 68.0688 420 67.9439 420 69.5854C419.923 74.6147 419.923 79.644 419.867 84.6733C419.867 84.7711 419.546 84.8627 419.371 84.9536H403.485C402.277 89.2286 403.163 93.5947 402.975 97.9116C402.751 102.675 403.568 101.991 398.783 102.039C395.234 102.088 391.685 101.956 388.144 102.088C386.383 102.151 385.797 101.613 385.853 99.8325C385.95 95.8927 385.894 91.9242 385.853 87.9565C385.846 86.9577 386.195 85.8541 385.356 84.9741H369.337C368.561 89.6892 369.239 94.4463 368.967 99.1684C368.911 100.083 369.603 101.222 368.373 101.92C363.609 101.962 358.844 101.99 354.087 102.053C353.633 102.08 353.177 102.033 352.738 101.914C351.39 103.164 352.04 104.771 352.04 106.168C351.963 115.151 352.026 124.141 351.963 133.124C351.963 134.019 352.619 135.22 351.376 135.849L336.979 135.982C336.52 136.011 336.06 135.954 335.623 135.814C334.114 140.557 335.273 145.503 335.092 150.337C335.015 152.607 334.316 153.096 332.221 153.012C328.246 152.845 324.249 153.048 320.274 152.929C318.507 152.873 317.927 153.404 317.976 155.199C318.08 159.18 317.844 163.176 318.081 167.144C318.235 169.687 317.221 170.057 315.021 169.995C310.102 169.841 305.135 169.945 300.245 169.945H0V0.052196H330.978ZM302.104 136.471C302.382 136.559 302.671 136.612 302.963 136.631C302.683 136.612 302.407 136.561 302.139 136.478L302.104 136.471ZM334.4 101.942C329.692 101.998 324.976 102.088 320.268 101.998C318.479 101.963 317.921 102.501 317.983 104.289C318.081 108.158 317.823 112.05 318.081 115.906C318.249 118.651 317.285 119.231 314.756 119.091C310.893 118.875 307.008 119.112 303.138 119C301.489 118.952 301.007 119.524 301.042 121.152C301.119 126.07 301.119 130.995 301.119 135.919C311.598 135.94 322.077 135.912 332.556 136.031L332.507 136.024C334.491 136.045 334.966 135.43 334.952 133.544C334.868 123.8 334.903 114.062 334.903 104.317C334.903 103.5 335.099 102.64 334.4 101.942ZM335.008 67.6645C335.008 78.2192 335.078 88.774 335.008 99.3217C334.973 101.578 335.644 102.144 337.803 102.046C341.659 101.879 345.536 101.9 349.393 102.046C351.39 102.123 352.026 101.578 352.026 99.4829C351.908 89.8709 351.963 80.2589 351.963 70.6469C351.956 69.739 352.249 68.7402 351.433 67.9858C345.97 67.9578 340.499 68.5655 335.057 67.6713L335.008 67.6645ZM305.129 85.6235C306.487 85.7549 307.851 85.8133 309.216 85.7983V85.7778C307.852 85.7998 306.487 85.7479 305.129 85.6235ZM315.35 85.3657C314.155 85.5124 312.953 85.6238 311.759 85.7006C312.953 85.6308 314.155 85.526 315.35 85.3793V85.3657ZM317.396 85.1C317.368 85.1043 317.34 85.1076 317.312 85.1118L317.219 85.1108C317.278 85.1021 317.337 85.0944 317.396 85.0854V85.1ZM317.692 84.6508C317.664 84.7887 317.637 84.9271 317.605 85.0649C317.637 84.9258 317.664 84.786 317.692 84.6469C317.692 84.6482 317.692 84.6495 317.692 84.6508ZM300.371 73.2875C300.308 73.9441 300.253 74.6428 300.253 75.3413C300.274 74.6847 300.308 73.986 300.371 73.2875ZM318.018 50.6967C318.018 55.6982 318.081 60.7209 317.955 65.7573C317.92 67.4755 318.332 68.1531 320.19 68.0903C324.382 67.9576 328.574 68.0697 332.766 68.0278C333.597 68.0208 334.896 68.4533 334.861 66.9379C334.722 61.636 335.406 56.3128 334.484 51.0249C328.993 50.9131 323.488 51.528 318.018 50.6967Z" fill="#EAB744"/>
</svg>
