<svg width="421" height="171" viewBox="0 0 421 171" fill="none" xmlns="http://www.w3.org/2000/svg">
<path d="M368.782 36.3476C368.782 40.4257 368.908 44.5177 368.733 48.5888C368.643 50.7605 369.236 51.4239 371.478 51.382C381.003 51.2563 390.525 51.2563 400.045 51.382C402.252 51.382 402.838 50.7885 402.838 48.5888C402.838 43.9312 402.322 39.2456 403.153 34.6228C392.217 33.9664 381.275 34.539 370.332 34.3226C368.726 34.2877 368.782 35.2373 368.782 36.3476Z" fill="#1F75D1"/>
<path d="M402.839 133.3C402.657 129.431 402.692 125.549 402.839 121.68C402.908 119.725 402.252 119.201 400.346 119.215C390.602 119.304 380.863 119.304 371.129 119.215C369.446 119.215 368.699 119.543 368.761 121.429C368.887 125.619 368.88 129.808 368.761 133.998C368.713 135.772 369.243 136.351 371.045 136.302C375.933 136.191 380.891 136.268 385.814 136.268C390.521 136.268 395.241 136.121 399.948 136.33C402.399 136.435 402.943 135.569 402.839 133.3Z" fill="#1F75D1"/>
<path d="M419.248 153.704C417.482 152.021 413.857 153.418 410.869 153.139C408.411 153.516 404.933 152.021 403.187 153.732C401.442 155.443 402.65 158.9 402.671 161.588C402.692 164.277 401.414 168.019 403.229 169.709C405.045 171.399 408.627 170.184 411.427 170.177C414.123 170.177 417.614 171.35 419.29 169.695C420.966 168.04 419.793 164.535 419.786 161.846C419.779 159.158 421.029 155.408 419.248 153.704Z" fill="#1F75D1"/>
<path d="M368.392 153.809C366.611 152.014 363.029 153.271 360.243 153.25C357.457 153.229 354.049 152.063 352.373 153.725C350.697 155.387 351.863 158.899 351.877 161.588C351.891 164.276 350.634 168.047 352.422 169.723C354.21 171.399 357.813 170.205 360.613 170.17C363.294 170.17 366.898 171.392 368.392 169.59C369.677 168.075 368.657 164.611 368.657 162.007H368.881C368.881 161.902 368.881 161.797 368.881 161.693C368.734 158.997 370.019 155.457 368.392 153.809Z" fill="#1F75D1"/>
<path d="M417.532 34.3998C419.222 34.3998 419.927 34.0366 419.864 32.1792C419.738 27.9894 419.752 23.7996 419.864 19.6587C419.913 17.9129 419.41 17.2356 417.595 17.3194C414.801 17.452 411.959 17.3543 409.145 17.3543C402.637 17.3543 402.518 17.3543 402.679 23.8624C402.77 27.4307 401.918 31.0619 403.231 34.5604C407.986 34.4905 412.776 34.3579 417.532 34.3998Z" fill="#1F75D1"/>
<path d="M352.367 16.9002C354.05 18.5762 357.527 17.1586 359.699 17.403C362.492 17.403 364.797 17.3541 367.087 17.403C368.421 17.4449 368.958 17.005 368.903 15.6154C368.819 13.325 368.951 11.0275 368.861 8.73014C368.756 6.05566 370.027 2.5921 368.323 0.902214C366.619 -0.787669 363.197 0.413405 360.481 0.420388C357.765 0.427371 354.064 -0.808618 352.367 0.930146C350.67 2.66891 351.871 6.2861 351.878 9.07929C351.878 11.7538 350.698 15.2243 352.367 16.9002Z" fill="#1F75D1"/>
<path fill-rule="evenodd" clip-rule="evenodd" d="M330.978 0.0511988C335.567 0.0511612 334.931 -0.479488 334.973 4.07464C335.029 7.63722 335.043 11.2074 334.973 14.7699C334.959 15.4893 335.518 16.4809 334.387 16.935L318.444 16.977C318.434 16.9826 318.424 16.9888 318.414 16.9946C317.45 22.6216 318.262 28.2903 317.997 33.9379H317.375C312.68 34.0008 307.979 34.0842 303.284 34.0004C301.524 33.9725 300.924 34.4756 300.979 36.2778C301.105 40.4271 301.119 44.6187 300.979 48.81C300.924 50.6609 301.594 51.0385 303.306 51.0385C308 50.9547 312.702 51.0873 317.396 51.0873V67.9496H301.503C300.553 73.5868 301.238 79.2661 301.119 84.9242L317.219 85.1108C316.727 85.1832 316.24 85.2478 315.747 85.3227C316.269 85.2566 316.785 85.1896 317.306 85.1117L317.459 85.1137L317.662 85.0717C317.673 84.9312 317.682 84.7903 317.692 84.6498C318.141 82.4586 318.195 80.2536 318.15 78.0434C318.194 80.2476 318.14 82.4493 317.692 84.6459C317.899 81.8751 318.088 79.1045 318.103 76.3364C318.088 75.8905 318.073 75.4444 318.06 74.9985V74.977C318.073 75.4228 318.088 75.8691 318.103 76.3149C318.116 73.5443 317.956 70.7762 317.459 68.0131V51.1498C318.395 50.3116 317.969 49.2011 317.969 48.2162C318.06 43.9621 318.081 39.7008 318.123 35.4467V34.0981C328.476 34.0911 338.836 34.1608 349.189 34.0141C351.62 33.9792 352.096 34.727 352.096 37.018C351.991 46.4554 352.11 55.8864 351.991 65.3168C351.942 67.4889 352.487 68.1107 354.736 68.1108C364.174 68.006 373.606 68.125 383.037 68.0063C385.307 67.9784 386.209 68.4599 386.069 70.9184C385.853 74.7882 386.097 78.6724 385.979 82.5492C385.923 84.3863 386.237 85.1761 388.332 85.0854C392.307 84.9247 396.296 84.9596 400.278 85.0854C402.165 85.1482 402.87 84.603 402.808 82.6401C402.682 78.5538 402.835 74.4675 402.744 70.3813C402.702 68.6629 403.164 67.971 405.015 68.0268C409.311 68.1595 413.608 68.0688 417.904 68.0688C418.973 68.0688 420 67.943 420 69.5844C419.923 74.6139 419.923 79.6437 419.867 84.6733C419.867 84.771 419.546 84.8618 419.371 84.9526H403.485C402.277 89.2277 403.163 93.5936 402.975 97.9106C402.751 102.675 403.569 101.99 398.783 102.039C395.234 102.087 391.685 101.956 388.144 102.088C386.383 102.151 385.797 101.613 385.853 99.8315C385.95 95.8918 385.894 91.9241 385.853 87.9565C385.846 86.9576 386.195 85.8532 385.356 84.9731H369.337C368.561 89.6883 369.239 94.4462 368.967 99.1684C368.911 100.083 369.602 101.222 368.373 101.92C363.609 101.962 358.844 101.99 354.087 102.053C353.633 102.08 353.177 102.033 352.738 101.914C351.39 103.164 352.04 104.77 352.04 106.167C351.963 115.151 352.026 124.141 351.963 133.124C351.963 134.019 352.619 135.22 351.376 135.849L336.979 135.981C336.52 136.01 336.06 135.954 335.623 135.814C334.114 140.557 335.273 145.502 335.092 150.336C335.015 152.607 334.316 153.096 332.221 153.012C328.246 152.844 324.249 153.047 320.274 152.928C318.507 152.872 317.927 153.403 317.976 155.199C318.08 159.18 317.844 163.176 318.081 167.144C318.235 169.686 317.221 170.056 315.021 169.994C310.103 169.84 305.135 169.945 300.245 169.945H0V0.0511988H330.978ZM302.104 136.47C302.315 136.537 302.532 136.583 302.752 136.61C302.544 136.583 302.339 136.539 302.139 136.477L302.104 136.47ZM334.4 101.941C329.692 101.997 324.976 102.088 320.268 101.997C318.479 101.963 317.921 102.5 317.983 104.289C318.081 108.158 317.823 112.049 318.081 115.905C318.249 118.65 317.285 119.23 314.756 119.09C310.893 118.874 307.008 119.111 303.138 118.999C301.489 118.951 301.007 119.524 301.042 121.151C301.119 126.069 301.119 130.994 301.119 135.918C311.598 135.939 322.077 135.912 332.556 136.031L332.507 136.023C334.491 136.044 334.966 135.429 334.952 133.543C334.868 123.799 334.903 114.061 334.903 104.316C334.903 103.499 335.099 102.639 334.4 101.941ZM335.008 67.6635C335.008 78.2185 335.078 88.7737 335.008 99.3217C334.973 101.578 335.644 102.144 337.803 102.046C341.659 101.879 345.536 101.9 349.393 102.046C351.39 102.123 352.026 101.577 352.026 99.4819C351.908 89.87 351.963 80.2578 351.963 70.6459C351.956 69.738 352.25 68.7391 351.433 67.9848C345.97 67.9569 340.499 68.5645 335.057 67.6703L335.008 67.6635ZM305.129 85.6235C306.487 85.7548 307.851 85.8133 309.216 85.7983V85.7768C307.852 85.7988 306.487 85.7478 305.129 85.6235ZM315.35 85.3647C314.155 85.5114 312.953 85.6228 311.759 85.6996C312.953 85.6298 314.155 85.525 315.35 85.3783V85.3647ZM317.396 85.0991C317.366 85.1036 317.336 85.1072 317.306 85.1117L317.219 85.1108C317.278 85.1021 317.337 85.0944 317.396 85.0854V85.0991ZM317.692 84.6498C317.664 84.7877 317.637 84.9261 317.605 85.0639C317.637 84.9248 317.664 84.7851 317.692 84.6459C317.692 84.6472 317.692 84.6485 317.692 84.6498ZM300.371 73.2866C300.308 73.9431 300.253 74.6418 300.253 75.3403C300.274 74.6837 300.308 73.985 300.371 73.2866ZM318.018 50.6957C318.018 55.6972 318.081 60.7198 317.955 65.7563C317.92 67.4746 318.332 68.1521 320.19 68.0893C324.382 67.9566 328.574 68.0687 332.766 68.0268C333.597 68.0199 334.896 68.4527 334.861 66.9369C334.722 61.635 335.407 56.3118 334.484 51.0239C328.993 50.9121 323.488 51.527 318.018 50.6957Z" fill="#1F75D1"/>
</svg>
