<?xml version="1.0" encoding="UTF-8" standalone="no"?>
<svg
   width="3120"
   height="1179"
   viewBox="0 0 3120 1179"
   fill="none"
   version="1.1"
   id="svg14"
   sodipodi:docname="logo_full.svg"
   inkscape:version="1.4 (e7c3feb1, 2024-10-09)"
   xmlns:inkscape="http://www.inkscape.org/namespaces/inkscape"
   xmlns:sodipodi="http://sodipodi.sourceforge.net/DTD/sodipodi-0.dtd"
   xmlns="http://www.w3.org/2000/svg"
   xmlns:svg="http://www.w3.org/2000/svg">
  <sodipodi:namedview
     id="namedview14"
     pagecolor="#ffffff"
     bordercolor="#000000"
     borderopacity="0.25"
     inkscape:showpageshadow="2"
     inkscape:pageopacity="0.0"
     inkscape:pagecheckerboard="0"
     inkscape:deskcolor="#d1d1d1"
     inkscape:zoom="0.24949654"
     inkscape:cx="1729.4829"
     inkscape:cy="711.43271"
     inkscape:window-width="1512"
     inkscape:window-height="916"
     inkscape:window-x="1366"
     inkscape:window-y="38"
     inkscape:window-maximized="1"
     inkscape:current-layer="svg14" />
  <g
     clip-path="url(#clip0_14_159)"
     id="g14"
     style="fill:#142b45;fill-opacity:1">
    <path
       d="M461.965 887.898C424.399 870.989 389.619 845.22 358.823 811.078L357.786 809.899C334.466 782.109 316.957 749.926 306.294 715.253C295.631 680.58 292.031 644.122 295.705 608.034C299.305 571.458 310.208 535.975 327.767 503.686C345.326 471.396 369.185 442.957 397.933 420.049C455.796 373.226 529.796 351.106 603.872 358.492C640.344 361.842 675.799 372.343 708.212 389.394C740.624 406.446 769.359 429.714 792.776 457.87L793.731 459.048C844.55 525.341 865.569 599.275 854.328 672.884C844.367 738.262 809.282 798.884 755.536 843.594C700.651 889.3 632.696 913.362 564.212 911.35C528.912 910.388 494.155 902.416 461.965 887.898ZM417.061 759.56C511.117 863.206 632.534 844.915 705.713 783.947C778.242 723.548 814.547 614.558 732.444 507.03C661.602 422.488 533.599 410.599 446.739 480.611C426.052 497.078 408.877 517.523 396.227 540.739C383.578 563.955 375.711 589.47 373.092 615.777C370.492 641.462 373.041 667.408 380.591 692.096C388.141 716.784 400.539 739.72 417.061 759.56Z"
       fill="#29ABE3"
       id="path1"
       style="fill:#142b45;fill-opacity:1" />
    <path
       d="M301.6 427.427L300.198 429.215H302.454L301.6 427.427Z"
       fill="#29ABE3"
       id="path2"
       style="fill:#142b45;fill-opacity:1" />
    <path
       d="M909.944 720.134C891.487 785.695 852.214 845.606 796.801 891.759C790.445 897.07 783.954 902.124 777.327 906.92C867.317 978.415 976.375 1044.99 1025.06 995.872C1079.15 941.326 989.954 813.598 909.944 720.134Z"
       fill="#29ABE3"
       id="path3"
       style="fill:#142b45;fill-opacity:1" />
    <path
       d="M918.258 681.826C917.282 688.228 916.083 694.609 914.701 700.95C980.481 681.663 1310.76 581.269 1283.44 487.175C1259.27 403.974 996.275 466.365 890.206 495C918.217 555.236 927.893 618.622 918.258 681.826Z"
       fill="#29ABE3"
       id="path4"
       style="fill:#142b45;fill-opacity:1" />
    <path
       d="M282.919 437.893C246.065 495.162 227.222 564.259 229.397 636.344C229.641 644.622 230.163 652.832 230.962 660.975C117.778 640.997 -4.3704 603.583 0.121997 534.486C5.12258 457.849 159.958 440.006 282.919 437.893Z"
       fill="#29ABE3"
       id="path5"
       style="fill:#142b45;fill-opacity:1" />
    <path
       d="M306.113 406.271C301.966 411.257 297.975 416.365 294.14 421.594C264.991 359.569 121.234 45.7872 209.801 3.88187C288.144 -33.1867 415.76 205.076 464.628 303.418C400.941 322.399 347.053 357.171 306.113 406.271Z"
       fill="#29ABE3"
       id="path6"
       style="fill:#142b45;fill-opacity:1" />
    <path
       d="M240.069 964.88C283.808 964.88 319.265 929.431 319.265 885.703C319.265 841.975 283.808 806.526 240.069 806.526C196.33 806.526 160.873 841.975 160.873 885.703C160.873 929.431 196.33 964.88 240.069 964.88Z"
       fill="#29ABE3"
       id="path7"
       style="fill:#142b45;fill-opacity:1" />
    <path
       d="M272.573 1106.45C298.36 1106.45 319.265 1085.55 319.265 1059.77C319.265 1033.99 298.36 1013.09 272.573 1013.09C246.785 1013.09 225.88 1033.99 225.88 1059.77C225.88 1085.55 246.785 1106.45 272.573 1106.45Z"
       fill="#29ABE3"
       id="path8"
       style="fill:#142b45;fill-opacity:1" />
    <path
       d="M362.258 1179C376.808 1179 388.602 1167.21 388.602 1152.66C388.602 1138.12 376.808 1126.32 362.258 1126.32C347.708 1126.32 335.913 1138.12 335.913 1152.66C335.913 1167.21 347.708 1179 362.258 1179Z"
       fill="#29ABE3"
       id="path9"
       style="fill:#142b45;fill-opacity:1" />
    <path
       d="M1433.09 981.321V341.157C1433.09 336.676 1434.87 332.378 1438.04 329.208C1441.21 326.038 1445.5 324.254 1449.99 324.248H1533.55C1536.06 324.249 1538.53 324.806 1540.79 325.878C1543.05 326.95 1545.04 328.51 1546.62 330.447L1853.25 747.488C1855.27 749.966 1856.56 752.968 1856.95 756.146C1857.33 759.323 1856.81 762.546 1855.44 765.439C1854.07 768.332 1851.91 770.777 1849.2 772.488C1846.49 774.2 1843.36 775.108 1840.15 775.107C1837.93 775.107 1835.74 774.67 1833.69 773.82C1831.63 772.97 1829.77 771.724 1828.2 770.153C1826.63 768.583 1825.39 766.719 1824.54 764.668C1823.69 762.616 1823.26 760.418 1823.26 758.199V341.137C1823.26 336.656 1825.04 332.358 1828.21 329.188C1831.38 326.017 1835.67 324.233 1840.15 324.228H1935.88C1940.36 324.233 1944.66 326.017 1947.82 329.188C1950.99 332.358 1952.77 336.656 1952.77 341.137V981.301C1952.77 985.782 1950.99 990.079 1947.82 993.25C1944.66 996.42 1940.36 998.204 1935.88 998.209H1852.31C1849.81 998.208 1847.34 997.652 1845.08 996.58C1842.82 995.508 1840.82 993.947 1839.24 992.011L1532.7 553.468C1530.67 550.992 1529.39 547.992 1529 544.816C1528.61 541.64 1529.13 538.419 1530.5 535.526C1531.87 532.634 1534.03 530.189 1536.73 528.476C1539.44 526.763 1542.57 525.852 1545.77 525.849C1547.99 525.847 1550.19 526.282 1552.25 527.131C1554.3 527.98 1556.16 529.225 1557.74 530.796C1559.31 532.366 1560.55 534.231 1561.4 536.284C1562.25 538.337 1562.69 540.537 1562.68 542.758V981.321C1562.68 985.806 1560.9 990.106 1557.73 993.277C1554.56 996.448 1550.26 998.23 1545.77 998.23H1449.99C1445.5 998.224 1441.21 996.441 1438.04 993.27C1434.87 990.1 1433.09 985.802 1433.09 981.321Z"
       fill="#29ABE3"
       id="path10"
       style="fill:#142b45;fill-opacity:1" />
    <path
       d="M2177.55 998.23C2145.9 998.23 2118.6 992.743 2095.67 981.768C2072.74 970.794 2055.01 955.891 2042.48 937.058C2030 918.256 2023.46 896.134 2023.73 873.57C2023.73 849.59 2029.73 828.292 2041.72 809.676C2053.72 791.06 2072.69 776.652 2098.64 766.45C2124.66 756.275 2158.84 751.174 2201.19 751.147H2309.84V820H2213.43C2185.35 820 2166.09 824.593 2155.66 833.779C2150.64 837.984 2146.63 843.258 2143.91 849.215C2141.2 855.172 2139.85 861.66 2139.97 868.205C2139.74 875.275 2141.26 882.293 2144.4 888.632C2147.54 894.972 2152.19 900.438 2157.96 904.542C2169.92 913.484 2186.12 917.948 2206.54 917.935C2225.68 918.257 2244.56 913.503 2261.26 904.156C2277.32 894.997 2288.67 880.975 2295.31 862.088L2313.6 917.935C2305.47 942.776 2288.62 963.834 2266.16 977.216C2243.37 991.239 2213.83 998.243 2177.55 998.23ZM2303.12 965.327V917.366C2303.12 913.682 2302.36 910.036 2300.9 906.656L2297.69 899.299C2296.23 895.918 2295.47 892.273 2295.47 888.589V750.395C2295.47 724.883 2287.69 704.987 2272.14 690.707C2256.58 676.427 2232.73 669.287 2200.58 669.287C2178.62 669.294 2156.79 672.786 2135.92 679.631C2125.2 683.073 2114.78 687.41 2104.78 692.597C2101.58 694.285 2098.07 695.318 2094.46 695.638C2090.85 695.957 2087.22 695.556 2083.77 694.457C2080.32 693.358 2077.12 691.583 2074.36 689.237C2071.6 686.891 2069.34 684.019 2067.7 680.789L2050.08 645.855C2046.94 639.694 2046.31 632.56 2048.32 625.946C2050.33 619.331 2054.82 613.751 2060.85 610.371C2079.6 600.197 2099.52 592.356 2120.17 587.021C2151.61 578.614 2184.03 574.364 2216.58 574.38C2279.33 574.38 2328.05 589.175 2362.76 618.765C2397.46 648.354 2414.81 694.514 2414.8 757.243V965.327C2414.8 972.453 2411.96 979.286 2406.92 984.325C2401.88 989.363 2395.05 992.194 2387.92 992.194H2329.91C2322.79 992.172 2315.98 989.332 2310.96 984.296C2305.94 979.26 2303.12 972.439 2303.12 965.327Z"
       fill="#29ABE3"
       id="path11"
       style="fill:#142b45;fill-opacity:1" />
    <path
       d="M2633.72 985.65L2477.93 614.984C2476.62 611.878 2476.11 608.497 2476.42 605.142C2476.74 601.786 2477.88 598.561 2479.75 595.755C2481.61 592.948 2484.14 590.646 2487.11 589.055C2490.09 587.463 2493.41 586.632 2496.78 586.634H2574.69C2578.76 586.634 2582.73 587.846 2586.11 590.116C2589.48 592.386 2592.11 595.61 2593.64 599.377L2720.89 912.712C2722.15 915.815 2722.63 919.181 2722.29 922.514C2721.94 925.846 2720.78 929.043 2718.91 931.822C2717.04 934.601 2714.51 936.877 2711.55 938.45C2708.59 940.022 2705.29 940.842 2701.94 940.838C2698.56 940.845 2695.23 940.011 2692.25 938.413C2689.27 936.815 2686.73 934.502 2684.87 931.682C2683 928.861 2681.86 925.622 2681.56 922.254C2681.25 918.887 2681.79 915.496 2683.12 912.387L2815.8 599.031C2817.36 595.335 2819.98 592.182 2823.33 589.967C2826.68 587.751 2830.61 586.571 2834.62 586.573H2904.28C2907.67 586.564 2911 587.394 2913.98 588.991C2916.97 590.588 2919.51 592.901 2921.38 595.722C2923.24 598.542 2924.38 601.783 2924.69 605.152C2924.99 608.522 2924.46 611.914 2923.13 615.025L2766.6 985.751C2765.06 989.466 2762.44 992.637 2759.08 994.862C2755.73 997.087 2751.79 998.266 2747.76 998.25H2652.49C2648.46 998.242 2644.53 997.04 2641.19 994.797C2637.85 992.554 2635.25 989.371 2633.72 985.65Z"
       fill="#29ABE3"
       id="path12"
       style="fill:#142b45;fill-opacity:1" />
    <path
       d="M2993.48 971.749V613.095C2993.48 606.088 2996.27 599.368 3001.22 594.413C3006.18 589.459 3012.9 586.675 3019.91 586.675H3086.34C3093.35 586.675 3100.07 589.459 3105.02 594.413C3109.98 599.368 3112.76 606.088 3112.76 613.095V971.749C3112.76 978.756 3109.98 985.476 3105.02 990.431C3100.07 995.385 3093.35 998.169 3086.34 998.169H3019.91C3012.9 998.169 3006.18 995.385 3001.22 990.431C2996.27 985.476 2993.48 978.756 2993.48 971.749Z"
       fill="#29ABE3"
       id="path13"
       style="fill:#142b45;fill-opacity:1" />
    <path
       d="M3053.16 529.487C3090.06 529.487 3119.98 499.579 3119.98 462.686C3119.98 425.793 3090.06 395.886 3053.16 395.886C3016.26 395.886 2986.35 425.793 2986.35 462.686C2986.35 499.579 3016.26 529.487 3053.16 529.487Z"
       fill="#29ABE3"
       id="path14"
       style="fill:#142b45;fill-opacity:1" />
  </g>
  <defs
     id="defs14">
    <clipPath
       id="clip0_14_159">
      <rect
         width="3120"
         height="1179"
         fill="white"
         id="rect14" />
    </clipPath>
  </defs>
</svg>
